<svg viewBox="0 0 392 156" fill="none" xmlns="http://www.w3.org/2000/svg">
<g clip-path="url(#clip0)">
<path d="M144.787 28.8083C146.333 27.8369 147.787 26.6663 149.441 25.9474C154.187 23.8782 157.705 20.7842 159.197 15.6695C159.744 13.8238 160.578 12.0606 161.295 10.2683C162.271 7.76677 164.622 7.22762 166.769 8.87423C167.33 9.30652 168.183 9.35995 168.901 9.58338C168.392 8.94563 167.755 8.41973 167.032 8.03878C164.681 6.7079 161.554 6.45046 160.451 10.074C159.708 12.6928 158.693 15.2274 157.422 17.6367C156.367 19.6029 154.941 21.3478 153.221 22.7756C151.182 24.4028 148.548 25.2771 146.431 26.8314C144.591 28.1769 143.211 27.9875 141.469 26.7926C137.23 23.8782 132.932 21.0756 128.683 18.1953C125.268 15.8784 121.853 12.4443 117.58 11.9537C111.365 11.2397 105.53 12.7697 100.095 15.7666C97.0806 17.4327 96.583 19.5261 96.7147 22.7611C96.8615 26.1367 97.3237 29.4913 98.0953 32.7816C99.6531 39.3804 102.173 45.7167 105.574 51.5888C109.038 57.6409 112.833 63.5036 116.467 69.4537C118.848 73.3395 121.121 77.3225 123.605 81.1548C124.668 82.7966 126.141 84.1809 127.429 85.6818L127.615 85.5263C127.537 85.3855 127.454 85.2446 127.371 85.1038C126.961 84.3867 126.621 83.632 126.356 82.85C124.648 80.4554 122.2 77.0213 121.902 76.5356C118.394 71.1489 114.979 65.7234 111.755 60.1618C108.589 54.678 105.413 49.1699 102.827 43.4043C101.126 39.6866 99.8179 35.8025 98.9246 31.815C98.1782 28.308 97.305 23.7422 98.2465 20.1964C99.5344 15.3392 107.145 13.9889 111.33 13.3477C115.78 12.6677 119.453 14.1735 123.083 16.5244C124.746 17.5978 142.596 28.6966 142.328 29.2261C141.952 29.8624 141.679 30.3238 141.411 30.7852L141.455 30.8338L143.45 29.9352C162.134 42.8652 181.233 55.3872 196.868 72.2564C182.789 54.066 163.134 42.4426 144.787 28.8083Z" fill="white"/>
<path d="M361.12 105.184C359.071 114.237 358.636 123.374 358.485 132.598C358.339 141.477 362.437 147.393 369.867 151.512C374.13 153.873 378.54 155.835 383.526 155.971C378.443 156.253 373.877 154.621 369.466 152.304C365.486 150.205 361.729 147.675 359.919 143.512C358.605 140.431 357.853 137.142 357.7 133.798C357.288 124.606 358.241 115.404 360.529 106.49C360.686 106.038 360.883 105.6 361.12 105.184Z" fill="white"/>
<path d="M315.599 54.5515C313.648 57.0967 311.696 59.6403 309.745 62.1822C309.115 63.1022 308.371 63.9393 307.53 64.674C309.921 61.0748 311.799 57.0724 315.643 54.6098L315.599 54.5515Z" fill="white"/>
<path d="M176.037 7.64038C173.745 10.1419 176.384 12.245 176.598 14.6931C174.208 12.6773 173.881 9.03927 176.037 7.64038Z" fill="white"/>
<path d="M292.066 39.2465L291.773 38.8579C296.132 35.5246 300.895 32.7504 305.95 30.6006C308.428 29.2552 308.76 28.376 308.735 27.9777C308.701 27.4434 308.023 27.1714 308.018 27.1714L308.194 26.7148C308.457 26.8126 308.691 26.9776 308.871 27.1932C309.05 27.4088 309.17 27.6676 309.218 27.9437C309.282 28.8763 308.282 29.8866 306.155 31.0426C301.131 33.1775 296.397 35.9338 292.066 39.2465Z" fill="white"/>
<path d="M275.323 53.6287C274.962 53.7088 274.595 53.7576 274.225 53.7744C273.571 53.8396 272.914 53.6671 272.377 53.2887C272.083 53.0198 271.869 52.6767 271.757 52.296C271.644 51.9153 271.637 51.5113 271.738 51.1272C272.152 49.3495 273.957 48.6112 275.367 47.7514C276.25 47.2123 287.919 40.8104 287.909 40.791L288.144 41.2184C285.919 42.4133 283.707 43.626 281.509 44.8565C279.767 45.828 278.036 46.7994 276.318 47.8194C275.021 48.5869 272.903 49.1698 272.26 50.6706C271.772 51.8072 272.547 52.8904 273.655 53.1867C274.512 53.3759 275.409 53.2464 276.177 52.8224C276.936 52.4024 277.64 51.8919 278.275 51.3021L281.202 48.7763C281.299 48.6937 281.441 48.6112 281.543 48.6889C281.646 48.7666 281.543 48.9657 281.47 49.0775C280.539 50.2349 279.48 51.2842 278.314 52.2055C277.424 52.8768 276.407 53.361 275.323 53.6287Z" fill="white"/>
<path d="M289.749 50.8358C289.961 50.6223 290.189 50.4258 290.432 50.248L290.29 50.0586L287.066 52.4629C283.856 55.0956 282.914 56.8102 282.865 56.9073L281.363 60.8222C280.694 63.4792 276.631 68.2198 276.592 68.2684L276.548 68.3364C275.25 70.5173 272.645 72.7516 269.962 72.9022C269.685 72.9297 269.407 72.8807 269.156 72.7608C268.906 72.6408 268.693 72.4545 268.542 72.2222C268.39 71.8791 268.347 71.4974 268.42 71.1293C268.733 68.8367 270.523 67.0735 271.674 65.0675C273.45 61.9685 273.704 58.2188 275.255 55.0081C275.528 54.4447 275.845 53.7987 275.596 53.2255C273.83 56.0039 273.43 59.4088 272.269 62.4883C271.49 64.4274 270.509 66.28 269.342 68.0158C268.508 69.3224 266.484 71.7753 268.576 72.9945C268.877 73.1688 269.208 73.2858 269.552 73.3394C271.118 73.5968 272.708 72.7322 273.972 71.9162C275.323 71.0467 276.333 69.5653 277.323 68.3267C278.977 66.2721 280.553 64.096 281.509 61.6188C282.013 60.08 282.614 58.5745 283.309 57.1113C283.309 57.1113 284.256 55.3967 287.373 52.8466L288.251 52.1909C288.533 51.9977 288.805 51.7902 289.066 51.5692C289.315 51.3409 289.5 51.064 289.749 50.8358Z" fill="white"/>
<path d="M297.432 51.4673C297.31 51.5129 297.201 51.588 297.115 51.6858C296.247 52.5261 295.466 53.4344 294.627 54.3039L292.846 56.1399C292.471 56.5285 292.012 56.8394 291.636 57.2328C290.475 58.4423 289.617 60.1472 288.895 61.6383C288.505 62.4543 288.256 63.4064 287.817 64.1932L280.358 77.5701C279.553 79.139 278.577 80.0376 277.431 80.2318C276.284 80.4261 274.821 79.9016 274.25 78.9204C274.003 78.4547 273.89 77.9304 273.923 77.4049C273.952 75.5397 274.845 73.8106 275.816 72.2174L275.708 72.1445C275.612 72.222 275.507 72.2888 275.396 72.3437L275.299 72.4263C275.193 72.5651 275.067 72.6864 274.923 72.7857C274.915 72.8029 274.905 72.8192 274.894 72.8343C274.06 74.3206 273.377 75.9138 273.43 77.5944C273.424 78.2769 273.636 78.9437 274.035 79.4984C274.351 79.8671 274.749 80.158 275.196 80.3484C275.74 80.5996 276.34 80.7082 276.938 80.6641C280.172 80.3921 281.592 76.2926 282.924 73.9126C284.699 70.7392 286.469 67.5642 288.231 64.3875C288.231 64.3535 289.505 60.7397 291.505 58.1945C292.493 57.0644 293.539 55.9848 294.637 54.9596C295.612 53.9542 296.754 52.9244 297.456 51.6713C297.497 51.6035 297.543 51.5386 297.593 51.477C297.541 51.46 297.486 51.4566 297.432 51.4673Z" fill="white"/>
<path d="M327.976 45.4832L327.454 44.6624L323.883 47.159C322.51 47.9588 321.205 48.8685 319.98 49.879C319.58 50.1559 319.195 50.4813 319.39 50.3647C316.616 52.7748 314.091 55.4547 311.853 58.3646C310.848 59.7473 309.846 61.1349 308.848 62.5273L306.701 65.5631C305.989 66.5588 305.408 67.7391 304.603 68.6425C304.116 69.2108 303.55 69.7354 302.994 70.2551C301.759 71.4063 300.471 72.4992 299.154 73.5532C298.013 74.1458 297.115 74.2769 296.496 73.9418C296.251 73.7765 296.045 73.5609 295.892 73.3094C295.739 73.058 295.642 72.7767 295.608 72.4846C295.591 71.8937 295.732 71.3091 296.017 70.7903C296.301 70.2714 296.719 69.8371 297.227 69.5314L297.276 69.4974C299.013 67.9382 301.696 62.4544 301.823 62.2116C302.486 60.2347 305.272 55.732 306.823 53.2985C307.143 52.9326 307.423 52.5337 307.657 52.1085C307.774 51.7976 307.467 50.8796 307.228 51.4625C306.862 52.3368 306.062 53.0508 305.452 53.7648L304.262 55.1297L296.652 64.7519C296.32 65.359 295.993 65.9662 295.676 66.5782L292.749 72.0183L291.437 74.4469C290.832 75.5738 290.5 76.8756 289.812 77.9539C289.38 78.6334 288.789 79.1984 288.09 79.6005C287.389 80.062 286.565 80.3039 285.724 80.2951C285.314 80.2757 284.915 80.1647 284.554 79.9705C284.193 79.7763 283.881 79.5037 283.641 79.173C282.997 78.1482 283.446 76.7444 283.456 76.7444C283.899 75.093 286.495 71.3723 286.519 71.3334L290.032 60.5358L289.568 60.3852L286.1 71.0712C285.831 71.4597 283.431 74.9327 282.987 76.589C282.987 76.657 282.46 78.2016 283.226 79.4256C283.496 79.835 283.865 80.1702 284.299 80.4002C284.733 80.6303 285.218 80.7478 285.709 80.7419C286.461 80.7626 287.205 80.5956 287.875 80.2562C289.436 79.4499 290.49 77.8664 291.129 76.2975C291.609 75.2073 292.145 74.1422 292.734 73.1064C294.037 70.6777 295.256 68.2103 296.637 65.8205C297.789 63.9682 299.094 62.2151 300.54 60.5795C301.223 59.7538 301.881 58.9135 302.545 58.0732L303.652 56.6743C303.833 56.4412 304.628 55.7028 304.628 55.4406L304.818 55.2171C304.857 55.256 304.891 55.2997 304.93 55.3434C303.467 57.704 301.847 60.5164 301.35 62.0027C301.35 62.061 298.618 67.5934 296.959 69.1137C296.376 69.4671 295.898 69.968 295.574 70.5653C295.249 71.1626 295.089 71.8349 295.11 72.5138C295.148 72.89 295.27 73.253 295.467 73.5758C295.665 73.8987 295.933 74.1732 296.252 74.3789C297.022 74.7967 298.071 74.6704 299.408 73.9661C300.095 73.5119 300.733 72.9877 301.311 72.402C302.311 71.5472 303.306 70.6729 304.238 69.7354C305.058 68.8509 305.77 67.8726 306.36 66.8211C307.394 65.1502 308.687 63.659 309.833 62.0707L312.272 58.6706C312.326 58.5929 316.912 52.4582 322.468 48.6404L327.976 45.4832Z" fill="white"/>
<path d="M166.203 12.1188C165.764 10.5645 165.812 9.56393 166.349 9.14621C167.061 8.59248 168.3 9.29193 168.369 9.32107L168.222 9.57364C168.222 9.57364 167.086 8.93735 166.529 9.3745C166.1 9.70965 166.086 10.6325 166.486 12.0411L166.203 12.1188Z" fill="white"/>
<path d="M169.208 9.70956C169.109 9.71528 169.009 9.71528 168.91 9.70956V9.52013C168.939 9.52013 171.584 9.68528 172.574 8.15039L172.74 8.25725C171.891 9.57842 169.954 9.70956 169.208 9.70956Z" fill="white"/>
<path d="M306.916 26.3068C300.871 24.6893 294.832 23.0476 288.763 21.537C281.138 19.6329 275.43 22.9941 270.942 28.6528C266.454 34.3115 260.756 38.4305 254.253 41.4371C250.194 43.3266 246.184 43.1226 242.008 41.3448C235.076 38.3916 228.11 35.4384 220.948 33.1409C214.567 31.096 210.274 27.7057 208.84 20.9395C207.25 13.4205 202.864 7.40727 197.659 1.94287C196.858 1.04136 195.807 0.395795 194.639 0.0874001C193.822 -0.0697242 192.98 -0.051509 192.17 0.14083C191.853 0.203974 191.541 0.281691 191.229 0.369121C190.917 0.456551 190.678 0.461414 190.404 0.548844C189.917 0.694561 189.668 1.09771 189.273 1.37457C189.018 1.55497 188.75 1.71728 188.473 1.8603C187.604 2.27928 186.681 2.57676 185.731 2.74431C184.6 2.95692 183.452 3.06424 182.301 3.06489H181.867C181.799 3.06489 180.101 2.99689 179.082 4.11406C178.487 4.76978 178.028 6.11524 178.423 6.96525C178.423 6.96525 178.613 6.61553 178.618 6.55239C178.618 6.34353 178.618 6.13467 178.618 5.92581C178.631 5.31934 178.857 4.73658 179.257 4.2792C180.199 3.24461 181.838 3.30775 181.857 3.30775C184.111 3.34661 186.541 3.14747 188.59 2.11773C189.015 1.91148 189.413 1.65371 189.775 1.35029C190.044 1.03888 190.404 0.818263 190.804 0.718843C191.677 0.587643 192.566 0.602416 193.434 0.762556C194.636 0.960598 195.766 1.46232 196.717 2.21973C197.241 2.6457 197.71 3.13521 198.112 3.6769C202.303 9.14615 206.171 14.7806 207.903 21.6487C209.216 26.8751 211.967 31.0329 217.606 32.9903C225.412 35.691 232.998 38.9356 240.716 41.8402C242.716 42.5931 244.848 43.2974 246.955 43.4237C254.814 43.8511 260.644 39.2659 266.376 34.8798C269.235 32.6941 271.537 29.77 274.055 27.1422C279.109 21.8721 285.368 21.9693 291.812 23.2953C297.295 24.427 302.73 25.8065 308.335 27.1131C307.897 26.7877 307.42 26.5169 306.916 26.3068Z" fill="white"/>
<path d="M155.548 76.5063C150.46 71.5859 144.684 67.3941 138.923 63.2266C138.596 62.9886 138.269 62.7409 137.947 62.5028C135.874 60.9291 133.917 59.2194 131.868 57.6116C130.672 56.6801 129.699 55.4955 129.019 54.1435C127.99 51.8461 128.829 48.5431 129.644 46.2942C130.577 43.8802 131.895 41.6316 133.547 39.635C135.031 37.7213 136.621 35.8906 138.308 34.1511C139.171 33.272 140.069 32.4317 141.011 31.6351C141.435 31.2805 141.864 30.9259 142.308 30.5908C142.469 30.4694 143.621 29.4882 143.772 29.5708L142.884 29.0851C142.805 29.0303 142.712 29.0014 142.616 29.0025C142.511 29.0251 142.417 29.0815 142.347 29.1628C138.264 33.2283 133.849 36.9101 131.176 42.1267C130.761 42.9282 130.337 43.7345 129.971 44.5554C129.408 45.8005 128.958 47.0927 128.624 48.4169C128.239 50.0197 127.8 52.0404 128.312 53.6821C128.854 55.421 130.2 56.8442 131.566 57.9905C132.234 58.5539 132.917 59.0931 133.605 59.6274C135.503 61.0845 137.274 62.7166 139.147 64.2175L155.143 77.0551C155.309 77.1863 155.553 77.3271 155.719 77.1911C155.885 77.0551 155.739 76.6909 155.548 76.5063ZM140.703 31.6011L141.337 31.1931L140.703 31.6011Z" fill="white"/>
<path d="M253.326 54.2069L254.326 53.9009L253.253 54.0175L252.775 54.2603L253.326 54.2069Z" fill="white"/>
<path d="M306.008 77.9636C301.618 83.0734 296.486 87.4157 290.305 90.2669C287.808 91.4345 285.191 92.3255 282.499 92.9239C280.458 93.3131 278.386 93.5244 276.308 93.5553C275.821 93.5844 275.333 93.5893 274.845 93.5893C267.391 93.5456 259.8 89.5383 254.595 84.3605C252.887 82.6654 251.316 80.8488 249.594 79.1633C246.838 76.4627 244.228 73.4026 241.067 71.144C239.31 69.8851 237.417 68.8276 235.422 67.9916C232.872 66.9283 230.189 66.2142 227.446 65.869C224.663 65.5226 221.848 65.5063 219.06 65.8205C218.718 65.83 218.376 65.869 218.041 65.937L217.065 66.073C216.494 66.1605 215.923 66.2625 215.358 66.3742C214.953 66.4519 213.27 67.0833 213.172 66.209C213.138 65.9225 213.611 65.6602 213.796 65.5436C214.649 65.0334 215.55 64.6057 216.484 64.2661C217.018 64.0256 217.563 63.8132 218.119 63.6298L252.838 54.3234L253.634 54.1096C252.072 54.4156 254.678 53.8036 254.829 53.7696C255.756 53.5754 256.683 53.3665 257.609 53.1771C258.068 53.0848 258.531 52.9973 258.99 52.9148C259.431 52.8932 259.866 52.8081 260.283 52.6622C260.678 52.463 260.668 51.8705 260.571 51.4964C260.555 51.4205 260.523 51.3489 260.477 51.2868C260.431 51.2246 260.371 51.1735 260.302 51.137C260.147 51.0728 259.982 51.0319 259.814 51.0156C258.985 50.8699 258.161 50.7242 257.322 50.6562C256.483 50.5882 255.58 50.5493 254.712 50.4667C251.385 50.1656 248.058 49.913 244.726 49.6653C240.286 49.335 235.822 49.2524 231.403 48.6938C227.295 48.1595 223.314 46.2118 219.66 44.3223C216.006 42.4328 212.377 40.4365 209.167 37.9205C207.703 36.7984 206.45 35.6716 205.591 34.0347C204.832 32.5734 204.379 30.9738 204.259 29.3329C204.243 28.1469 204.3 26.9612 204.43 25.7822C204.441 25.7167 204.456 25.6519 204.474 25.5879C204.747 24.087 204.996 22.5861 205.167 21.0755C205.318 20.2016 205.357 19.3121 205.284 18.4284C205.128 17.5814 204.763 16.7867 204.22 16.1163L202.893 14.3288L201.239 12.0994L199.556 9.86504L198.142 7.96586L197.298 6.82927L197.185 6.67383C195.644 4.94465 194.624 4.29379 193.961 4.62894C193.783 4.75327 193.638 4.91745 193.536 5.10817C193.435 5.29889 193.38 5.51077 193.375 5.72667C193.24 6.57222 193.16 7.42567 193.136 8.28158C193.164 9.11785 193.255 9.95081 193.41 10.7733C193.678 12.4977 193.932 14.2317 194.195 15.9609C194.707 19.3609 195.258 22.7222 196.034 26.0591C197.278 31.4312 197.985 36.6479 195.093 41.6411C192.805 45.5658 190.268 49.3398 187.843 53.1819L188.097 53.5074C190.307 50.6416 192.844 47.9604 194.644 44.8566C196.561 41.5488 198.151 38.1245 198.454 34.4621C198.668 32.6746 198.507 29.5757 196.663 24.7233C196.605 24.4513 196.551 24.1745 196.493 23.8976C196.346 23.1949 196.205 22.4906 196.068 21.7847C195.873 20.7841 195.686 19.7835 195.507 18.7829C195.296 17.6172 195.097 16.4515 194.912 15.2857C194.722 14.0908 194.546 12.8911 194.395 11.6865C194.258 10.5888 194.141 9.49103 194.068 8.38358C194.024 7.723 193.897 7.06241 193.868 6.39697C193.868 6.05211 193.79 5.26038 194.18 5.06123C194.371 4.96894 195.01 4.95923 196.805 6.97498L197.224 7.54328L198.303 9.00045L199.79 11.0016L201.42 13.202L202.937 15.2469C203.504 15.9091 203.995 16.6325 204.401 17.4035C204.815 18.3749 204.601 19.2444 204.474 20.2353C204.366 21.1096 204.258 21.9839 204.147 22.8582C204.001 24.0045 203.84 25.1459 203.659 26.2874C203.235 28.8228 203.391 31.4749 204.698 33.7481C207.581 38.7656 213.431 41.5682 218.358 44.196C222.041 46.1632 225.919 48.0818 230.066 48.9658C232.632 49.505 235.325 49.5147 237.945 49.6993C243.579 50.0879 249.214 50.4813 254.839 50.9962C255.814 51.0836 256.79 51.171 257.766 51.2682L259.229 51.4236C259.478 51.4527 259.902 51.4624 260.005 51.7393C260.036 51.8264 260.044 51.9203 260.028 52.0115C260.012 52.1027 259.972 52.188 259.912 52.259C259.77 52.3337 259.614 52.3752 259.453 52.3805C259.156 52.4242 258.853 52.463 258.561 52.5213L256.473 52.9536L253.707 53.5316L250.38 54.2408L246.662 55.0374C245.313 55.3385 243.965 55.6445 242.618 55.9554C241.213 56.2792 239.81 56.603 238.408 56.9268C237.006 57.2507 235.592 57.5955 234.164 57.9614C232.778 58.3111 231.394 58.6674 230.012 59.03C228.711 59.3797 227.41 59.7408 226.11 60.1132C224.913 60.437 223.724 60.7932 222.543 61.1818C221.509 61.5121 220.48 61.8569 219.46 62.2261C218.855 62.4495 218.25 62.7118 217.65 62.9304C216.387 63.4161 215.211 64.2564 214.011 64.8733C213.079 65.359 212.65 65.7962 212.699 66.2576C212.791 67.0785 213.709 67.1513 214.367 67.0736C215.387 66.9522 216.397 66.6608 217.416 66.5102C217.967 66.4276 218.519 66.3596 219.075 66.2965C223.092 66.247 227.098 66.7172 230.993 67.6953C234.838 68.8244 238.452 70.6236 241.667 73.0092C242.155 73.3443 242.618 73.6843 243.072 74.0486C244.23 74.9834 245.322 75.9961 246.34 77.0795L248.048 78.9787C248.701 79.7364 249.384 80.4602 250.087 81.1645C252.897 83.9622 255.453 86.8669 258.771 89.1206C262.309 91.5493 266.269 93.3033 270.449 94.2936C278.684 96.2073 286.895 94.0556 294.066 89.8784C303.335 84.4868 309.735 76.2781 314.828 66.9619C311.882 70.634 309.077 74.4129 306.008 77.9636Z" fill="white"/>
<path d="M391.415 67.7925C388.922 57.0628 382.341 49.2427 373.413 43.6957C370.608 41.9785 367.706 40.4248 364.72 39.0425C361.73 37.629 358.69 36.3127 355.661 34.9721C354.148 34.3018 352.612 33.6849 351.129 32.9418C350.153 32.4561 349.236 31.9072 348.294 31.3778L342.928 28.3711L338.44 25.8551C338.225 25.7336 337.991 25.6268 337.786 25.4908C337.333 25.1848 336.879 24.8739 336.435 24.5533C334.808 23.3579 332.971 22.4734 331.02 21.945C329.12 21.4695 327.138 21.4148 325.215 21.7847C324.58 21.9061 323.941 22.1004 323.297 22.217C322.653 22.3336 321.97 22.319 321.312 22.4064C320.586 22.4997 319.87 22.6624 319.175 22.8922C318.328 23.1359 317.56 23.5984 316.951 24.2327C316.521 24.7185 316.053 25.4956 316.219 26.1756C316.424 27.0159 317.419 27.0111 318.077 27.2928C318.736 27.5745 319.482 27.9097 320.18 28.2351C322.204 29.1556 324.16 30.2171 326.034 31.4117C327.464 32.3492 329.244 33.5295 329.937 35.1713C330.269 35.9824 329.937 36.9053 329.961 37.7456C329.986 38.5859 330.069 39.5428 330.113 40.4414H330.205C330.205 40.2131 330.244 39.9848 330.283 39.7468C330.299 39.6773 330.32 39.6091 330.347 39.5428C330.376 39.3289 330.439 39.1208 330.532 38.9259L330.435 36.8227C331.522 34.2095 327.834 31.9655 326.044 30.8435C325.502 30.3092 324.58 29.9303 323.897 29.5611C323.141 29.1337 322.37 28.7354 321.595 28.3517C320.733 27.9275 319.856 27.5243 318.965 27.1422C318.414 26.8994 317.155 26.6565 316.77 26.1708C316.487 25.8114 317.082 24.8399 317.316 24.5776C318.599 23.1204 320.634 23.1204 322.38 22.761C323.434 22.4932 324.503 22.2856 325.58 22.1393C326.605 22.0502 327.636 22.0583 328.659 22.1636C330.312 22.3379 331.905 22.8772 333.323 23.7422C334.772 24.563 336.173 25.4664 337.518 26.4477C338.788 27.4532 340.143 28.3485 341.567 29.124C341.991 29.3523 342.431 29.5563 342.85 29.7992L346.855 32.1501C347.91 32.7953 348.998 33.3855 350.114 33.9181C351.275 34.4524 352.49 34.8895 353.685 35.351C355.29 35.9776 356.856 36.6964 358.427 37.3959L361.525 38.7899C364.566 40.1158 367.53 41.611 370.403 43.2683C370.823 43.516 371.233 43.822 371.667 44.0406C381.853 50.4764 388.888 59.472 390.205 71.9406C390.61 75.7826 389.551 79.3916 385.946 81.2665C382.702 82.9519 379.116 84.0788 375.604 85.1523C374.745 85.4097 373.687 85.4728 372.969 84.8414C372.473 84.311 372.183 83.6224 372.15 82.8985C371.764 80.4699 370.794 78.0024 369.857 75.7341C368.979 73.6066 367.745 71.6297 365.803 70.3037C363.861 68.9776 362.003 67.6128 360.056 66.345C355.871 63.625 351.982 60.8272 349.363 56.2274C347.48 52.9099 344.353 50.1898 341.421 47.6106C340.503 46.8257 339.47 46.1852 338.357 45.7115C337.84 45.4618 337.299 45.2633 336.742 45.1189C336.096 45.0396 335.455 44.9179 334.825 44.7546C334.825 44.944 334.825 45.0217 334.908 45.046C341.64 47.6204 346.192 52.5747 349.758 58.5783C350.212 59.3409 350.246 60.3609 350.797 61.0506C352.236 62.9304 353.812 64.7081 355.363 66.5053C357.402 68.8659 359.466 71.2071 361.52 73.558L355.456 65.2376C355.729 65.6164 356.602 65.937 357.007 66.1799L358.622 67.1513C359.685 67.8071 360.734 68.4774 361.759 69.1914C363.783 70.5328 365.592 72.1703 367.125 74.0486C368.126 75.3301 368.916 76.7613 369.467 78.289C369.74 79.0603 369.939 79.8555 370.062 80.6642C370.223 81.7425 370.189 82.9131 370.481 83.9914C370.799 85.1571 371.608 86.1383 371.725 87.3672C372.106 91.3792 372.457 95.3913 372.735 99.4083C373.16 105.592 372.994 111.867 374.023 117.948C375.194 124.86 377.34 131.621 379.189 138.412C380.131 141.865 381.351 145.246 382.448 148.661C380.946 141.598 378.984 134.691 377.375 127.697C375.853 121.057 373.96 114.48 373.96 107.549C373.96 100.419 373.618 93.2881 373.423 86.1771C375.428 85.8857 377.814 85.6137 380.15 85.1814C389.722 83.4279 393.586 77.1378 391.415 67.7925Z" fill="white"/>
<path d="M375.672 140.559L371.232 125.667C371.271 124.695 371.31 123.763 371.33 122.806C371.315 122.38 371.325 121.953 371.359 121.528C371.613 119.717 371.174 117.895 370.871 116.093C370.662 114.684 370.427 113.286 370.154 111.906C368.983 105.592 367.086 97.4606 364.534 93.4194C364.319 93.0822 364.085 92.7578 363.832 92.448L362.983 91.2628V91.3211C360.277 86.0976 356.942 81.2222 353.051 76.8028C347.338 70.3232 340.591 65.5097 332.005 63.766C328.59 63.0762 325.063 62.9888 321.585 62.6245L321.468 63.3725C333.986 62.95 344.001 68.1666 352.09 77.1914C359.183 85.099 364.086 94.2986 367.31 104.431C369.262 110.502 370.725 116.574 370.447 123.151L364.817 104.096C364.773 104.06 364.734 104.019 364.7 103.974L364.803 104.105C364.661 103.926 364.51 103.751 364.359 103.576L364.183 103.362L364.095 103.391L370.276 124.146C370.003 125.482 369.788 126.638 369.632 127.644C369.632 127.644 368.725 131.286 368.964 133.365C368.964 133.521 369.003 133.662 369.018 133.798C369.057 134.342 369.115 134.876 369.203 135.391V135.43C369.617 138.188 370.908 140.741 372.886 142.716C372.886 142.716 374.35 144.28 375.125 144.537C375.187 144.557 375.251 144.567 375.316 144.566L375.257 144.503C375.304 144.525 375.353 144.543 375.403 144.556C375.458 144.575 375.516 144.585 375.574 144.586C375.663 144.586 375.751 144.563 375.828 144.518C376.56 144.114 375.974 141.618 375.672 140.559ZM375.555 144.027H375.516C374.833 144.255 374.135 142.764 373.813 142.361C373.24 141.649 372.723 140.894 372.267 140.102C371.369 138.535 370.649 136.873 370.12 135.148C369.574 133.393 369.447 131.535 369.749 129.722C369.823 129.226 370.035 128.761 370.359 128.377C370.588 128.11 370.847 127.59 371.189 127.464C371.53 127.338 372.545 131.835 372.652 132.17C373.221 134.094 373.794 136.014 374.369 137.931C374.642 138.849 374.935 139.767 375.189 140.69C375.366 141.319 375.505 141.958 375.603 142.604C375.705 142.943 375.764 143.294 375.779 143.648C375.774 143.724 375.751 143.799 375.712 143.864C375.673 143.93 375.619 143.986 375.555 144.027Z" fill="white"/>
<path d="M26.9191 101.133C27.9241 99.1314 29.4315 96.6882 29.4315 95.3038C29.4315 93.9195 28.1778 93.3027 25.4702 93.3027C22.5914 93.3462 19.7902 94.2387 17.4209 95.8673C17.308 95.9446 17.2152 96.0474 17.1499 96.1673C17.0846 96.2871 17.0488 96.4207 17.0452 96.557C17.0452 97.0427 17.7331 97.5625 18.299 97.747C19.9381 98.4999 20.1235 99.8162 20.1235 101.507C19.7479 108.52 19.5576 115.656 19.3722 122.733C19.3722 125.613 20.0015 128.62 20.0015 131.563C20.0015 133.127 19.2454 133.88 18.0502 133.88C16.0354 133.88 15.611 131.563 15.4695 129.747C15.0938 124.928 14.8402 120.105 14.8402 115.282C14.8402 112.464 15.0304 109.71 15.0304 106.888C15.0304 104.639 14.9036 98.0628 13.9621 98.0628C11.9473 98.0628 2.74171 106.203 0.814732 107.292C0.751313 107.355 0.751313 107.355 0.692772 107.355C0.502991 107.34 0.325912 107.254 0.197323 107.114C0.0687335 106.974 -0.00178006 106.791 3.4158e-05 106.602C3.4158e-05 105.912 1.69772 103.974 2.26362 103.469C6.54199 99.2771 11.5326 96.2073 16.8989 93.701C19.4161 92.5741 21.9919 91.5735 25.0117 91.5735C27.5875 91.5735 31.1097 93.0307 31.1097 96.081C31.1097 98.2133 29.4754 100.278 26.963 101.089L26.9191 101.133Z" fill="white"/>
<path d="M48.7986 123.869C48.6928 124.701 48.4848 125.517 48.179 126.298C47.5643 128.241 44.369 137.183 40.9834 137.183C37.9051 137.183 36.4806 132.85 36.4806 130.019C36.4888 129.115 36.5918 128.215 36.7879 127.332C37.1733 125.341 37.4075 123.311 37.7148 121.319V121.242C37.6785 120.939 37.5997 120.643 37.4807 120.362C37.0865 120.421 36.7003 120.523 36.3294 120.668C35.1532 121.379 34.1844 122.384 33.5194 123.583C32.7096 125.195 31.3631 128.756 30.4021 128.756C30.5582 128.756 27.9629 128.989 26.6701 121.057C26.475 118.721 25.7822 116.496 25.7822 114.121C25.7921 112.398 25.9554 110.68 26.2701 108.987C26.7335 106.344 28.7093 103.352 31.0802 103.352C32.6608 103.352 33.8121 104.659 33.8121 106.573C33.8121 106.879 33.7731 107.185 33.7731 107.34V107.981C33.7731 110.662 32.8901 112.921 31.89 115.146C31.4654 116.26 30.9242 117.326 30.2752 118.327C29.6416 119.136 29.2982 120.133 29.2996 121.159C29.2766 121.933 29.4079 122.705 29.6859 123.428C29.9639 124.152 30.383 124.814 30.9192 125.375C31.1662 125.156 31.374 124.896 31.5339 124.608C32.7632 122.043 35.3439 119.265 37.9197 119.265C40.115 119.265 41.1151 120.071 41.1151 121.45C41.0554 122.907 40.8628 124.356 40.5394 125.778C40.115 127.809 39.3052 130.184 39.3052 132.093C39.3052 133.511 39.9199 136.042 40.998 136.042C43.3445 136.042 47.0423 127.114 47.5399 126.118C47.657 125.812 48.3888 123.398 48.579 123.437C48.7693 123.476 48.7986 123.641 48.7986 123.869ZM28.8264 118.011C29.441 118.011 30.4021 115.583 31.0168 114.446C32.29 112.11 32.6705 109.54 32.7876 106.937C32.7876 105.786 32.2998 104.256 31.3241 104.256C30.9986 104.266 30.6866 104.388 30.4411 104.601C28.7873 105.941 28.1336 108.049 28.1336 110.269C28.1336 110.842 28.1726 111.42 28.1726 112.032C28.1726 112.416 28.1726 112.838 28.1336 113.222C28.2068 114.485 28.2848 116.015 28.4019 117.511C28.441 117.696 28.6702 118.011 28.8264 118.011Z" fill="white"/>
<path d="M58.7993 124.559C57.7212 126.745 53.433 131.189 51.1402 131.189C48.701 131.189 46.8716 128.697 46.8716 124.676C47.0618 122.111 48.1448 116.239 53.0233 116.239C54.0624 116.239 55.7552 117.273 55.7552 118.959C55.7552 120.221 52.7159 122.903 50.4426 123.442C49.0571 123.787 49.1742 124.899 49.1742 126.006C49.1742 127.808 49.4815 130.223 51.2524 130.223C53.9453 130.223 57.448 125.205 58.0822 124.282C58.57 123.758 59.1847 123.758 58.7993 124.559ZM50.3694 121.878C50.3694 122.072 50.4084 122.184 50.6426 122.184C50.7086 122.194 50.776 122.18 50.8328 122.145C52.3354 121.533 54.6039 119.886 54.6039 118.774C54.6039 117.934 54.116 117.356 53.4135 117.356C53.2266 117.368 53.044 117.417 52.8764 117.5C52.7089 117.584 52.5597 117.7 52.4378 117.841C51.5597 118.852 50.3694 120.654 50.3694 121.878Z" fill="white"/>
<path d="M105.428 123.228C105.428 123.087 105.428 122.946 105.452 122.806C105.46 122.674 105.496 122.545 105.559 122.429C105.621 122.312 105.708 122.21 105.813 122.13C105.813 122.033 105.813 121.936 105.837 121.839C105.852 121.711 105.894 121.588 105.961 121.477C106.027 121.367 106.117 121.271 106.223 121.198C106.097 121.028 105.936 120.888 105.751 120.787C105.566 120.685 105.36 120.625 105.15 120.61C104.559 120.61 104.208 120.552 104.208 121.256C104.208 121.489 104.208 121.606 104.267 121.664C104.776 122.083 105.175 122.62 105.428 123.228Z" fill="white"/>
<path d="M105.603 126.526C105.549 126.167 105.51 125.802 105.476 125.443C104.281 130.325 95.7679 131.641 90.2407 131.641C86.7087 131.641 85.5867 131.345 85.5867 129.645V129.057C86.2941 122.257 86.8258 115.389 87.4161 108.525H87.2941C87.5917 104.125 88.1235 99.4908 88.1235 95.265C88.1235 93.6816 86.6599 92.2729 85.294 92.2729C84.411 92.2729 83.6451 92.919 83.5865 94.1527C82.9962 105.183 82.2303 116.151 80.6595 126.886C80.6123 127.256 80.5927 127.63 80.6009 128.003C80.6009 132.107 84.0744 133.166 88.6698 133.166C94.6996 133.166 102.91 132.763 106.139 128.761C105.892 128.034 105.713 127.286 105.603 126.526Z" fill="white"/>
<path d="M115.999 124.01C113.496 126.502 110.071 130.713 107.705 130.713C105.339 130.713 104.008 127.036 104.008 124.355C104.008 124.088 103.934 118.109 105.281 118.109C106.627 118.109 107.091 119.488 107.091 120.294C107.091 122.364 106.603 124.583 106.603 126.653C106.603 128.455 106.949 129.567 107.91 129.567C108.949 129.567 110.837 127.765 112.067 126.691C113.145 125.72 115.067 123.627 115.608 123.627C115.721 123.627 115.838 123.743 115.955 123.821C115.999 123.797 115.999 123.908 115.999 124.01ZM106.071 113.247C106.063 113.161 106.074 113.074 106.105 112.993C106.135 112.912 106.184 112.839 106.247 112.779C106.31 112.72 106.385 112.675 106.468 112.649C106.551 112.623 106.639 112.617 106.725 112.63C107.418 112.63 107.798 113.703 107.798 114.203C107.798 114.704 107.53 115.044 106.876 115.389C106.686 115.316 106.452 115.277 106.417 115.16C106.238 114.527 106.122 113.878 106.071 113.222V113.247Z" fill="white"/>
<path d="M114.301 117.395C113.457 117.322 112.608 117.433 111.838 117.322C110.686 117.166 109.686 116.744 109.184 115.597C109.124 115.484 109.097 115.356 109.104 115.228C109.11 115.1 109.152 114.976 109.223 114.869C109.326 114.791 109.449 114.743 109.578 114.729C109.707 114.716 109.837 114.737 109.955 114.791C111.223 115.787 114.301 115.559 115.765 115.325C117.34 115.097 117.228 107.588 117.38 106.019C117.531 104.45 117.687 102.915 117.921 101.38C118.072 100.729 118.458 100.195 119.072 100.385C121.385 101.23 121.111 101.686 121.151 102.264C121.077 103.299 120.765 104.295 120.692 105.29C120.614 106.019 118.921 114.869 119.716 114.675C121.56 114.257 124.639 114.257 126.488 113.703C127.18 113.514 128.102 105.81 128.258 105.043C128.384 103.59 128.589 102.145 128.873 100.715C129.063 99.6803 129.566 99.0294 130.756 99.9086C132.298 101.06 132.337 101.288 132.068 102.667C131.722 104.431 130.259 112.382 130.912 113.169C131.298 113.625 132.488 113.553 133.493 113.397C134.761 113.319 138.337 113.091 138.186 113.781C138.139 114.02 138.033 114.243 137.879 114.432C137.801 114.471 137.415 114.393 137.391 114.276C134.43 114.165 132.468 115.199 130.502 115.311C130.234 115.311 130.429 115.466 130.351 115.928C130.117 119.449 128.117 129.45 132.083 129.567C134.273 129.645 137.279 126.04 139.43 123.704C139.971 122.976 140.737 121.761 141.43 122.364C141.815 122.708 140.43 123.971 139.967 124.739C138.196 127.231 134.542 130.752 132.498 130.752C128.346 130.752 127.653 126.269 127.341 125.506C127.112 125.045 126.805 125.02 126.614 125.428C125.302 128.149 123.38 137.154 119.263 137.304C116.028 137.343 115.106 131.864 115.184 126.541C115.184 125.963 115.492 120.678 115.57 118.609C115.614 117.55 115.467 117.395 114.301 117.395ZM126.463 122.145C126.541 121.956 126.58 122.184 126.541 121.956C126.195 119.527 126.849 115.481 126.385 115.481C124.521 115.557 122.665 115.774 120.833 116.132C119.219 116.477 119.409 116.86 119.219 118.39C118.989 121.46 115.984 135.672 119.448 135.901C122.536 136.056 125.268 126.322 126.463 122.145Z" fill="white"/>
<path d="M152.543 125.404C150.431 127.396 148.152 130.155 145.772 130.155C144.762 130.163 143.766 129.915 142.879 129.435C141.991 128.955 141.241 128.258 140.698 127.41C139.227 125.058 138.431 122.351 138.396 119.58C138.474 116.195 139.329 112.872 140.893 109.866C142.474 106.84 144.474 101.555 149.016 101.555C150.821 101.555 151.67 102.74 151.67 104.955C151.534 107.204 150.789 109.375 149.513 111.236C148.34 112.946 147.082 114.596 145.742 116.18C144.396 117.672 143.357 119.396 141.625 120.508C141.508 120.594 141.41 120.703 141.337 120.828C141.264 120.954 141.217 121.093 141.201 121.237C141.201 123.918 141.859 128.746 145.435 128.746C145.697 128.749 145.957 128.709 146.206 128.629C149.016 127.789 151.084 125.603 153.172 123.651C154.05 123.107 153.089 124.904 152.543 125.404ZM141.537 118.012C141.56 118.275 141.626 118.532 141.732 118.774C141.884 118.662 142.157 118.624 142.308 118.507C145.889 114.752 150.601 109.735 150.601 104.868C150.601 103.896 150.601 102.439 149.411 102.439C148.221 102.439 146.791 103.741 146.294 104.698C144.289 108.724 142.391 112.863 141.596 117.327C141.557 117.553 141.539 117.782 141.542 118.012H141.537Z" fill="white"/>
<path d="M162.978 124.559C161.9 126.745 157.612 131.189 155.319 131.189C152.88 131.189 151.05 128.697 151.05 124.676C151.241 122.111 152.319 116.248 157.207 116.248C158.246 116.248 159.939 117.283 159.939 118.968C159.939 120.231 156.9 122.912 154.626 123.452C153.241 123.796 153.358 124.909 153.358 126.016C153.358 127.818 153.665 130.232 155.436 130.232C158.129 130.232 161.632 125.215 162.266 124.292C162.744 123.758 163.363 123.758 162.978 124.559ZM154.548 121.878C154.548 122.072 154.587 122.184 154.821 122.184C154.887 122.194 154.955 122.18 155.012 122.145C156.514 121.533 158.783 119.886 158.783 118.774C158.783 117.934 158.295 117.356 157.592 117.356C157.405 117.368 157.223 117.417 157.055 117.5C156.887 117.584 156.738 117.7 156.617 117.841C155.743 118.852 154.548 120.654 154.548 121.878Z" fill="white"/>
<path d="M212.806 105.067C212.245 105.067 211.499 105.193 211.499 104.265C211.499 102.094 213.45 99.617 213.45 97.1981C213.45 96.0858 213.509 94.1041 212.328 94.1041C211.591 94.1858 210.904 94.5127 210.377 95.0318C204.65 99.9862 199.859 105.625 196.81 112.566C196.712 112.779 196.669 113.013 196.683 113.246C196.683 114.3 197.927 114.3 199.298 114.67C205.83 116.613 204.962 127.561 205.084 133.385C205.084 135.055 205.523 139.019 207.138 139.019C210.001 139.019 213.299 129.304 213.797 128.362C214.172 127.561 214.67 127.25 214.977 127.25C215.168 127.25 215.353 127.434 215.353 127.736C215.32 128.124 215.214 128.503 215.041 128.853C213.236 132.938 210.933 141.18 207.074 141.18C204.337 141.18 201.166 137.295 200.605 134.239C199.63 130.091 199.298 125.938 198.654 121.849C198.347 119.804 197.6 116.831 195.668 116.831C193.99 116.831 191.502 126.866 191.19 131.082C191.127 132.258 191.005 134.118 189.697 134.118H189.634C186.219 132.442 184.097 130.028 183.409 126.186C182.043 118.248 181.385 110.206 181.443 102.153C181.523 99.6446 181.231 97.1387 180.575 94.7161C180.575 94.6529 180.511 94.6529 180.511 94.5946C180.511 94.2206 180.999 93.8515 181.487 93.8515C181.594 93.8429 181.702 93.863 181.799 93.9098C185.531 95.3378 186.902 97.3098 187.024 101.531C187.209 107.913 187.585 114.232 187.834 120.615C187.832 121.638 187.958 122.658 188.209 123.651C188.644 125.074 188.146 126.871 189.761 127.862C190.292 126.546 190.749 125.202 191.132 123.835C193.868 113.057 199.425 103.76 207.001 95.5224C208.494 93.9098 210.362 92.1223 212.367 92.1223C215.416 92.1223 216.036 95.0367 216.724 98.1939C216.168 100.695 215.67 105.067 212.806 105.067Z" fill="white"/>
<path d="M238.145 124.292C238.106 124.904 237.657 125.365 237.34 125.827C235.53 128.547 233.642 131.228 231.759 133.87C230.642 135.444 229.1 136.44 227.563 136.44C224.368 136.44 222.982 132.797 222.982 129.771C223.06 127.846 223.331 125.934 223.792 124.064C223.792 123.986 223.446 123.796 223.368 123.796C222.909 123.796 221.943 124.792 221.675 125.059C219.904 126.9 218.099 129.81 215.982 129.81C213.865 129.81 212.977 128.391 212.977 126.594C212.963 125.671 213.147 124.755 213.518 123.908C215.133 120.576 218.289 115.559 221.558 115.559C223.061 115.559 224.675 117.127 224.675 118.585C224.675 119.119 224.485 120.231 223.909 120.231C223.675 120.231 223.368 119.746 223.368 119.658C223.368 119.425 223.407 119.172 223.407 118.93C223.407 117.934 222.87 116.744 221.485 116.744C219.046 116.744 215.094 122.572 215.094 125.71C215.094 126.172 215.289 128.28 215.982 128.28C216.865 128.28 217.328 127.435 217.904 126.934C219.904 125.137 221.753 123.218 223.714 121.382C224.188 120.921 224.823 120.66 225.485 120.654C227.178 120.654 228.485 121.956 228.485 123.029C228.471 123.418 228.407 123.803 228.295 124.175C227.641 126.555 226.563 128.969 226.563 131.345C226.563 132.379 226.91 134.293 227.949 134.293C229.256 134.293 230.876 132.452 231.603 131.379C233.491 128.654 236.798 123.408 237.647 123.408C237.714 123.414 237.779 123.438 237.833 123.479C237.887 123.519 237.929 123.574 237.954 123.636C238.064 123.839 238.129 124.062 238.145 124.292Z" fill="white"/>
<path d="M251.609 124.753C249.57 127.318 245.955 132.569 242.647 132.569C238.183 132.569 236.603 125.215 236.603 121.038C236.603 120.309 236.759 119.619 236.759 119.158C236.759 116.977 233.139 118.162 233.139 116.783C233.147 116.687 233.179 116.594 233.233 116.514C233.287 116.435 233.36 116.37 233.447 116.326C236.798 115.559 236.949 116.515 237.349 114.14C237.774 111.226 238.271 108.278 238.696 105.329C238.925 103.794 239.159 101.647 240.159 101.647C241.696 101.647 242.662 103.488 242.662 104.562C242.655 104.832 242.629 105.102 242.584 105.368C242.276 106.825 242.159 108.316 241.93 109.774C241.506 109.774 241.081 113.912 241.081 114.713C241.081 115.325 241.389 115.481 242.159 115.52C244.081 115.597 246.008 115.67 247.892 115.787C248.087 115.787 248.238 116.093 248.433 116.248C248.275 116.423 248.076 116.556 247.854 116.636C247.632 116.715 247.393 116.739 247.16 116.705H245.584C244.786 116.678 243.987 116.73 243.198 116.86C240.657 117.166 240.545 117.166 240.271 119.736C240.069 121.721 239.979 123.715 240.003 125.71C240.003 127.167 240.081 131.418 242.662 131.418C243.638 131.418 244.74 130.689 245.428 130.038C247.74 127.779 248.584 126.638 250.858 124.37C251.341 123.719 251.765 124.496 251.609 124.753Z" fill="white"/>
<path d="M274.889 124.292C274.85 124.904 274.401 125.365 274.084 125.827C272.274 128.547 270.386 131.228 268.503 133.87C267.386 135.444 265.849 136.44 264.308 136.44C261.112 136.44 259.727 132.797 259.727 129.771C259.804 127.846 260.076 125.934 260.537 124.064C260.537 123.986 260.19 123.796 260.112 123.796C259.654 123.796 258.688 124.792 258.419 125.059C256.649 126.9 254.844 129.81 252.726 129.81C250.609 129.81 249.726 128.391 249.726 126.594C249.71 125.671 249.893 124.755 250.263 123.908C251.877 120.576 255.034 115.559 258.307 115.559C259.805 115.559 261.425 117.127 261.425 118.585C261.425 119.119 261.229 120.231 260.654 120.231C260.42 120.231 260.112 119.746 260.112 119.658C260.112 119.425 260.151 119.172 260.151 118.93C260.151 117.934 259.615 116.744 258.229 116.744C255.79 116.744 251.838 122.572 251.838 125.71C251.838 126.172 252.034 128.28 252.726 128.28C253.609 128.28 254.073 127.435 254.648 126.934C256.649 125.137 258.497 123.218 260.459 121.382C260.933 120.921 261.567 120.66 262.229 120.654C263.922 120.654 265.23 121.956 265.23 123.029C265.218 123.418 265.154 123.803 265.039 124.175C264.386 126.555 263.308 128.969 263.308 131.345C263.308 132.379 263.654 134.293 264.693 134.293C266 134.293 267.62 132.452 268.347 131.379C270.235 128.654 273.543 123.408 274.391 123.408C274.459 123.414 274.523 123.438 274.577 123.479C274.632 123.519 274.674 123.574 274.699 123.636C274.811 123.838 274.876 124.062 274.889 124.292Z" fill="white"/>
<path d="M285.777 132.797C285.556 133.121 285.257 133.385 284.908 133.565C284.559 133.746 284.171 133.837 283.777 133.832C280.66 133.832 278.411 130.116 278.411 127.551C278.411 125.608 279.718 122.49 280.411 120.265C280.477 120.014 280.514 119.757 280.523 119.498C280.523 118.925 279.45 118.313 278.084 118.274C276.718 118.235 275.933 123.214 274.006 125.074C273.815 125.224 273.162 124.996 273.352 124.612C274.777 122.699 276.162 119.556 276.162 118.638C276.162 118.177 275.894 118.021 275.045 117.487C273.894 116.797 273.313 115.84 273.313 114.845C273.313 113.693 274.289 112.163 275.43 112.163C275.734 112.173 276.03 112.263 276.287 112.424C276.545 112.586 276.754 112.812 276.894 113.081C278.24 115.51 276.352 116.797 279.201 117.259C280.743 117.526 283.626 117.871 283.626 119.901C283.639 120.095 283.612 120.29 283.548 120.474C283.06 122.276 282.665 124.151 282.05 125.875C281.728 126.76 281.563 127.693 281.562 128.634C281.562 130.577 282.294 132.52 283.514 132.52C285.246 132.52 291.861 123.403 291.748 123.403C291.995 123.493 292.219 123.638 292.402 123.826C292.436 124.525 287.319 130.767 285.777 132.797ZM276.582 115.559C276.503 115.214 276.235 113.373 275.659 113.373C275.084 113.373 274.733 114.485 274.733 115.097C274.712 115.296 274.731 115.498 274.79 115.689C274.849 115.881 274.946 116.059 275.075 116.212C275.205 116.366 275.363 116.492 275.543 116.583C275.722 116.675 275.917 116.729 276.118 116.744C276.235 116.744 276.386 116.36 276.503 116.132C276.557 115.945 276.584 115.752 276.582 115.559Z" fill="white"/>
<path d="M301.744 124.01C299.242 126.502 295.817 130.713 293.451 130.713C291.085 130.713 289.758 127.036 289.758 124.355C289.758 124.088 289.68 118.109 291.027 118.109C292.373 118.109 292.836 119.488 292.836 120.294C292.836 122.364 292.349 124.583 292.349 126.652C292.349 128.454 292.695 129.567 293.656 129.567C294.695 129.567 296.583 127.765 297.812 126.691C298.891 125.72 300.813 123.626 301.349 123.626C301.466 123.626 301.583 123.743 301.696 123.821C301.744 123.796 301.744 123.908 301.744 124.01ZM291.817 113.246C291.809 113.161 291.822 113.074 291.852 112.994C291.883 112.913 291.932 112.84 291.994 112.781C292.057 112.722 292.133 112.677 292.215 112.651C292.298 112.625 292.385 112.618 292.471 112.63C293.163 112.63 293.549 113.703 293.549 114.203C293.549 114.704 293.28 115.044 292.627 115.389C292.432 115.316 292.202 115.277 292.163 115.16C291.987 114.527 291.871 113.878 291.817 113.222V113.246Z" fill="white"/>
<path d="M325.332 123.869C325.371 123.986 325.449 124.025 325.488 124.025C325.527 124.025 325.639 123.986 325.717 123.986C325.795 123.986 325.873 124.025 325.951 124.175C325.834 124.292 324.756 126.055 324.6 126.283C323.18 128.547 321.868 130.961 320.487 133.22C319.107 135.478 318.639 136.552 317.073 136.552C313.111 136.552 312.994 131.996 312.994 128.853C312.994 125.977 313.687 123.184 314.228 120.348C314.414 119.713 314.543 119.063 314.614 118.405C314.614 117.871 314.419 117.37 313.882 117.37C312.189 117.37 310.111 119.979 309.111 121.397C307.491 123.733 305.725 126.109 305.208 129.018C305.052 129.824 304.667 130.898 303.476 130.898C301.589 130.898 300.203 125.191 300.013 122.087C299.823 120.144 299.784 118.177 299.091 116.302C299.055 116.244 299.042 116.175 299.052 116.107C299.04 115.996 299.05 115.884 299.083 115.777C299.115 115.67 299.169 115.571 299.241 115.485C299.313 115.4 299.402 115.329 299.502 115.278C299.601 115.228 299.711 115.197 299.823 115.189C300.076 115.195 300.326 115.26 300.549 115.379C302.32 116.302 303.398 117.681 303.476 119.784C303.625 121.824 303.888 123.855 304.262 125.866C304.312 126.037 304.405 126.194 304.53 126.322C305.916 124.447 307.033 122.3 308.262 120.309C309.492 118.318 311.916 116.015 313.882 116.015C316.151 116.015 316.687 118.39 316.687 120.96C316.687 122.223 316.575 123.49 316.497 124.846C316.229 126.721 315.692 129.173 315.692 131.126C315.692 132.355 315.692 134.73 316.96 134.73C317.419 134.73 318.575 133.846 319 133.234C320.844 130.514 322.693 127.755 324.424 124.977C324.749 124.626 325.052 124.256 325.332 123.869Z" fill="white"/>
<path d="M348.806 124.292C348.767 124.904 348.319 125.365 347.997 125.827C346.187 128.547 344.304 131.228 342.416 133.87C341.299 135.444 339.762 136.44 338.22 136.44C335.03 136.44 333.644 132.797 333.644 129.771C333.72 127.846 333.99 125.934 334.449 124.064C334.449 123.986 334.103 123.796 334.03 123.796C333.566 123.796 332.605 124.792 332.337 125.059C330.566 126.9 328.756 129.81 326.639 129.81C324.522 129.81 323.639 128.391 323.639 126.594C323.623 125.671 323.806 124.755 324.175 123.908C325.795 120.576 328.946 115.559 332.22 115.559C333.717 115.559 335.337 117.127 335.337 118.585C335.337 119.119 335.142 120.231 334.566 120.231C334.337 120.231 334.03 119.746 334.03 119.658C334.03 119.425 334.064 119.172 334.064 118.93C334.064 117.934 333.527 116.744 332.142 116.744C329.703 116.744 325.756 122.572 325.756 125.71C325.756 126.172 325.946 128.28 326.639 128.28C327.522 128.28 327.985 127.435 328.59 126.934C330.59 125.137 332.434 123.218 334.4 121.382C334.872 120.921 335.505 120.66 336.166 120.654C337.859 120.654 339.172 121.956 339.172 123.029C339.158 123.418 339.092 123.804 338.976 124.175C338.323 126.555 337.245 128.969 337.245 131.345C337.245 132.379 337.591 134.293 338.63 134.293C339.937 134.293 341.557 132.452 342.289 131.379C344.172 128.654 347.479 123.408 348.328 123.408C348.396 123.413 348.461 123.438 348.515 123.478C348.569 123.518 348.611 123.573 348.636 123.636C348.741 123.839 348.799 124.063 348.806 124.292Z" fill="white"/>
</g>
<defs>
<clipPath id="clip0">
<rect width="392" height="156" fill="white"/>
</clipPath>
</defs>
</svg>
