<svg width="432" height="196" viewBox="0 0 432 196" fill="none" xmlns="http://www.w3.org/2000/svg">
<g clip-path="url(#clip0)" filter="url(#filter0_d)">
<path d="M164.787 28.8083C166.333 27.8369 167.787 26.6663 169.441 25.9474C174.187 23.8782 177.705 20.7842 179.197 15.6695C179.744 13.8238 180.578 12.0606 181.295 10.2683C182.271 7.76677 184.622 7.22762 186.769 8.87423C187.33 9.30652 188.183 9.35995 188.901 9.58338C188.392 8.94563 187.755 8.41973 187.032 8.03878C184.681 6.7079 181.554 6.45046 180.451 10.074C179.708 12.6928 178.693 15.2274 177.422 17.6367C176.367 19.6029 174.941 21.3478 173.221 22.7756C171.182 24.4028 168.548 25.2771 166.431 26.8314C164.591 28.1769 163.211 27.9875 161.469 26.7926C157.23 23.8782 152.932 21.0756 148.683 18.1953C145.268 15.8784 141.853 12.4443 137.58 11.9537C131.365 11.2397 125.53 12.7697 120.095 15.7666C117.081 17.4327 116.583 19.5261 116.715 22.7611C116.862 26.1367 117.324 29.4913 118.095 32.7816C119.653 39.3804 122.173 45.7167 125.574 51.5888C129.038 57.6409 132.833 63.5036 136.467 69.4537C138.848 73.3395 141.121 77.3225 143.605 81.1548C144.668 82.7966 146.141 84.1809 147.429 85.6818L147.615 85.5263C147.537 85.3855 147.454 85.2446 147.371 85.1038C146.961 84.3867 146.621 83.632 146.356 82.85C144.648 80.4554 142.2 77.0213 141.902 76.5356C138.394 71.1489 134.979 65.7234 131.755 60.1618C128.589 54.678 125.413 49.1699 122.827 43.4043C121.126 39.6866 119.818 35.8025 118.925 31.815C118.178 28.308 117.305 23.7422 118.247 20.1964C119.534 15.3392 127.145 13.9889 131.33 13.3477C135.78 12.6677 139.453 14.1735 143.083 16.5244C144.746 17.5978 162.596 28.6966 162.328 29.2261C161.952 29.8624 161.679 30.3238 161.411 30.7852L161.455 30.8338L163.45 29.9352C182.134 42.8652 201.233 55.3872 216.868 72.2564C202.789 54.066 183.134 42.4426 164.787 28.8083Z" fill="white"/>
<path d="M381.12 105.184C379.071 114.237 378.636 123.374 378.485 132.598C378.339 141.477 382.437 147.393 389.867 151.512C394.13 153.873 398.54 155.835 403.526 155.971C398.443 156.253 393.877 154.621 389.466 152.304C385.486 150.205 381.729 147.675 379.919 143.512C378.605 140.431 377.853 137.142 377.7 133.798C377.288 124.606 378.241 115.404 380.529 106.49C380.686 106.038 380.883 105.6 381.12 105.184Z" fill="white"/>
<path d="M335.599 54.5515C333.648 57.0967 331.696 59.6403 329.745 62.1822C329.115 63.1022 328.371 63.9393 327.53 64.674C329.921 61.0748 331.799 57.0724 335.643 54.6098L335.599 54.5515Z" fill="white"/>
<path d="M196.037 7.64038C193.745 10.1419 196.384 12.245 196.598 14.6931C194.208 12.6773 193.881 9.03927 196.037 7.64038Z" fill="white"/>
<path d="M312.066 39.2465L311.773 38.8579C316.132 35.5246 320.895 32.7504 325.95 30.6006C328.428 29.2552 328.76 28.376 328.735 27.9777C328.701 27.4434 328.023 27.1714 328.018 27.1714L328.194 26.7148C328.457 26.8126 328.691 26.9776 328.871 27.1932C329.05 27.4088 329.17 27.6676 329.218 27.9437C329.282 28.8763 328.282 29.8866 326.155 31.0426C321.131 33.1775 316.397 35.9338 312.066 39.2465Z" fill="white"/>
<path d="M295.323 53.6287C294.962 53.7088 294.595 53.7576 294.225 53.7744C293.571 53.8396 292.914 53.6671 292.377 53.2887C292.083 53.0198 291.869 52.6767 291.757 52.296C291.644 51.9153 291.637 51.5113 291.738 51.1272C292.152 49.3495 293.957 48.6112 295.367 47.7514C296.25 47.2123 307.919 40.8104 307.909 40.791L308.144 41.2184C305.919 42.4133 303.707 43.626 301.509 44.8565C299.767 45.828 298.036 46.7994 296.318 47.8194C295.021 48.5869 292.903 49.1698 292.26 50.6706C291.772 51.8072 292.547 52.8904 293.655 53.1867C294.512 53.3759 295.409 53.2464 296.177 52.8224C296.936 52.4024 297.64 51.8919 298.275 51.3021L301.202 48.7763C301.299 48.6937 301.441 48.6112 301.543 48.6889C301.646 48.7666 301.543 48.9657 301.47 49.0775C300.539 50.2349 299.48 51.2842 298.314 52.2055C297.424 52.8768 296.407 53.361 295.323 53.6287Z" fill="white"/>
<path d="M309.749 50.8358C309.961 50.6223 310.189 50.4258 310.432 50.248L310.29 50.0586L307.066 52.4629C303.856 55.0956 302.914 56.8102 302.865 56.9073L301.363 60.8222C300.694 63.4792 296.631 68.2198 296.592 68.2684L296.548 68.3364C295.25 70.5173 292.645 72.7516 289.962 72.9022C289.685 72.9297 289.407 72.8807 289.156 72.7608C288.906 72.6408 288.693 72.4545 288.542 72.2222C288.39 71.8791 288.347 71.4974 288.42 71.1293C288.733 68.8367 290.523 67.0735 291.674 65.0675C293.45 61.9685 293.704 58.2188 295.255 55.0081C295.528 54.4447 295.845 53.7987 295.596 53.2255C293.83 56.0039 293.43 59.4088 292.269 62.4883C291.49 64.4274 290.509 66.28 289.342 68.0158C288.508 69.3224 286.484 71.7753 288.576 72.9945C288.877 73.1688 289.208 73.2858 289.552 73.3394C291.118 73.5968 292.708 72.7322 293.972 71.9162C295.323 71.0467 296.333 69.5653 297.323 68.3267C298.977 66.2721 300.553 64.096 301.509 61.6188C302.013 60.08 302.614 58.5745 303.309 57.1113C303.309 57.1113 304.256 55.3967 307.373 52.8466L308.251 52.1909C308.533 51.9977 308.805 51.7902 309.066 51.5692C309.315 51.3409 309.5 51.064 309.749 50.8358Z" fill="white"/>
<path d="M317.432 51.4673C317.31 51.5129 317.201 51.588 317.115 51.6858C316.247 52.5261 315.466 53.4344 314.627 54.3039L312.846 56.1399C312.471 56.5285 312.012 56.8394 311.636 57.2328C310.475 58.4423 309.617 60.1472 308.895 61.6383C308.505 62.4543 308.256 63.4064 307.817 64.1932L300.358 77.5701C299.553 79.139 298.577 80.0376 297.431 80.2318C296.284 80.4261 294.821 79.9016 294.25 78.9204C294.003 78.4547 293.89 77.9304 293.923 77.4049C293.952 75.5397 294.845 73.8106 295.816 72.2174L295.708 72.1445C295.612 72.222 295.507 72.2888 295.396 72.3437L295.299 72.4263C295.193 72.5651 295.067 72.6864 294.923 72.7857C294.915 72.8029 294.905 72.8192 294.894 72.8343C294.06 74.3206 293.377 75.9138 293.43 77.5944C293.424 78.2769 293.636 78.9437 294.035 79.4984C294.351 79.8671 294.749 80.158 295.196 80.3484C295.74 80.5996 296.34 80.7082 296.938 80.6641C300.172 80.3921 301.592 76.2926 302.924 73.9126C304.699 70.7392 306.469 67.5642 308.231 64.3875C308.231 64.3535 309.505 60.7397 311.505 58.1945C312.493 57.0644 313.539 55.9848 314.637 54.9596C315.612 53.9542 316.754 52.9244 317.456 51.6713C317.497 51.6035 317.543 51.5386 317.593 51.477C317.541 51.46 317.486 51.4566 317.432 51.4673Z" fill="white"/>
<path d="M347.976 45.4832L347.454 44.6624L343.883 47.159C342.51 47.9588 341.205 48.8685 339.98 49.879C339.58 50.1559 339.195 50.4813 339.39 50.3647C336.616 52.7748 334.091 55.4547 331.853 58.3646C330.848 59.7473 329.846 61.1349 328.848 62.5273L326.701 65.5631C325.989 66.5588 325.408 67.7391 324.603 68.6425C324.116 69.2108 323.55 69.7354 322.994 70.2551C321.759 71.4063 320.471 72.4992 319.154 73.5532C318.013 74.1458 317.115 74.2769 316.496 73.9418C316.251 73.7765 316.045 73.5609 315.892 73.3094C315.739 73.058 315.642 72.7767 315.608 72.4846C315.591 71.8937 315.732 71.3091 316.017 70.7903C316.301 70.2714 316.719 69.8371 317.227 69.5314L317.276 69.4974C319.013 67.9382 321.696 62.4544 321.823 62.2116C322.486 60.2347 325.272 55.732 326.823 53.2985C327.143 52.9326 327.423 52.5337 327.657 52.1085C327.774 51.7976 327.467 50.8796 327.228 51.4625C326.862 52.3368 326.062 53.0508 325.452 53.7648L324.262 55.1297L316.652 64.7519C316.32 65.359 315.993 65.9662 315.676 66.5782L312.749 72.0183L311.437 74.4469C310.832 75.5738 310.5 76.8756 309.812 77.9539C309.38 78.6334 308.789 79.1984 308.09 79.6005C307.389 80.062 306.565 80.3039 305.724 80.2951C305.314 80.2757 304.915 80.1647 304.554 79.9705C304.193 79.7763 303.881 79.5037 303.641 79.173C302.997 78.1482 303.446 76.7444 303.456 76.7444C303.899 75.093 306.495 71.3723 306.519 71.3334L310.032 60.5358L309.568 60.3852L306.1 71.0712C305.831 71.4597 303.431 74.9327 302.987 76.589C302.987 76.657 302.46 78.2016 303.226 79.4256C303.496 79.835 303.865 80.1702 304.299 80.4002C304.733 80.6303 305.218 80.7478 305.709 80.7419C306.461 80.7626 307.205 80.5956 307.875 80.2562C309.436 79.4499 310.49 77.8664 311.129 76.2975C311.609 75.2073 312.145 74.1422 312.734 73.1064C314.037 70.6777 315.256 68.2103 316.637 65.8205C317.789 63.9682 319.094 62.2151 320.54 60.5795C321.223 59.7538 321.881 58.9135 322.545 58.0732L323.652 56.6743C323.833 56.4412 324.628 55.7028 324.628 55.4406L324.818 55.2171C324.857 55.256 324.891 55.2997 324.93 55.3434C323.467 57.704 321.847 60.5164 321.35 62.0027C321.35 62.061 318.618 67.5934 316.959 69.1137C316.376 69.4671 315.898 69.968 315.574 70.5653C315.249 71.1626 315.089 71.8349 315.11 72.5138C315.148 72.89 315.27 73.253 315.467 73.5758C315.665 73.8987 315.933 74.1732 316.252 74.3789C317.022 74.7967 318.071 74.6704 319.408 73.9661C320.095 73.5119 320.733 72.9877 321.311 72.402C322.311 71.5472 323.306 70.6729 324.238 69.7354C325.058 68.8509 325.77 67.8726 326.36 66.8211C327.394 65.1502 328.687 63.659 329.833 62.0707L332.272 58.6706C332.326 58.5929 336.912 52.4582 342.468 48.6404L347.976 45.4832Z" fill="white"/>
<path d="M186.203 12.1188C185.764 10.5645 185.812 9.56393 186.349 9.14621C187.061 8.59248 188.3 9.29193 188.369 9.32107L188.222 9.57364C188.222 9.57364 187.086 8.93735 186.529 9.3745C186.1 9.70965 186.086 10.6325 186.486 12.0411L186.203 12.1188Z" fill="white"/>
<path d="M189.208 9.70956C189.109 9.71528 189.009 9.71528 188.91 9.70956V9.52013C188.939 9.52013 191.584 9.68528 192.574 8.15039L192.74 8.25725C191.891 9.57842 189.954 9.70956 189.208 9.70956Z" fill="white"/>
<path d="M326.916 26.3068C320.871 24.6893 314.832 23.0476 308.763 21.537C301.138 19.6329 295.43 22.9941 290.942 28.6528C286.454 34.3115 280.756 38.4305 274.253 41.4371C270.194 43.3266 266.184 43.1226 262.008 41.3448C255.076 38.3916 248.11 35.4384 240.948 33.1409C234.567 31.096 230.274 27.7057 228.84 20.9395C227.25 13.4205 222.864 7.40727 217.659 1.94287C216.858 1.04136 215.807 0.395795 214.639 0.0874001C213.822 -0.0697242 212.98 -0.051509 212.17 0.14083C211.853 0.203974 211.541 0.281691 211.229 0.369121C210.917 0.456551 210.678 0.461414 210.404 0.548844C209.917 0.694561 209.668 1.09771 209.273 1.37457C209.018 1.55497 208.75 1.71728 208.473 1.8603C207.604 2.27928 206.681 2.57676 205.731 2.74431C204.6 2.95692 203.452 3.06424 202.301 3.06489H201.867C201.799 3.06489 200.101 2.99689 199.082 4.11406C198.487 4.76978 198.028 6.11524 198.423 6.96525C198.423 6.96525 198.613 6.61553 198.618 6.55239C198.618 6.34353 198.618 6.13467 198.618 5.92581C198.631 5.31934 198.857 4.73658 199.257 4.2792C200.199 3.24461 201.838 3.30775 201.857 3.30775C204.111 3.34661 206.541 3.14747 208.59 2.11773C209.015 1.91148 209.413 1.65371 209.775 1.35029C210.044 1.03888 210.404 0.818263 210.804 0.718843C211.677 0.587643 212.566 0.602416 213.434 0.762556C214.636 0.960598 215.766 1.46232 216.717 2.21973C217.241 2.6457 217.71 3.13521 218.112 3.6769C222.303 9.14615 226.171 14.7806 227.903 21.6487C229.216 26.8751 231.967 31.0329 237.606 32.9903C245.412 35.691 252.998 38.9356 260.716 41.8402C262.716 42.5931 264.848 43.2974 266.955 43.4237C274.814 43.8511 280.644 39.2659 286.376 34.8798C289.235 32.6941 291.537 29.77 294.055 27.1422C299.109 21.8721 305.368 21.9693 311.812 23.2953C317.295 24.427 322.73 25.8065 328.335 27.1131C327.897 26.7877 327.42 26.5169 326.916 26.3068Z" fill="white"/>
<path d="M175.548 76.5063C170.46 71.5859 164.684 67.3941 158.923 63.2266C158.596 62.9886 158.269 62.7409 157.947 62.5028C155.874 60.9291 153.917 59.2194 151.868 57.6116C150.672 56.6801 149.699 55.4955 149.019 54.1435C147.99 51.8461 148.829 48.5431 149.644 46.2942C150.577 43.8802 151.895 41.6316 153.547 39.635C155.031 37.7213 156.621 35.8906 158.308 34.1511C159.171 33.272 160.069 32.4317 161.011 31.6351C161.435 31.2805 161.864 30.9259 162.308 30.5908C162.469 30.4694 163.621 29.4882 163.772 29.5708L162.884 29.0851C162.805 29.0303 162.712 29.0014 162.616 29.0025C162.511 29.0251 162.417 29.0815 162.347 29.1628C158.264 33.2283 153.849 36.9101 151.176 42.1267C150.761 42.9282 150.337 43.7345 149.971 44.5554C149.408 45.8005 148.958 47.0927 148.624 48.4169C148.239 50.0197 147.8 52.0404 148.312 53.6821C148.854 55.421 150.2 56.8442 151.566 57.9905C152.234 58.5539 152.917 59.0931 153.605 59.6274C155.503 61.0845 157.274 62.7166 159.147 64.2175L175.143 77.0551C175.309 77.1863 175.553 77.3271 175.719 77.1911C175.885 77.0551 175.739 76.6909 175.548 76.5063ZM160.703 31.6011L161.337 31.1931L160.703 31.6011Z" fill="white"/>
<path d="M273.326 54.2069L274.326 53.9009L273.253 54.0175L272.775 54.2603L273.326 54.2069Z" fill="white"/>
<path d="M326.008 77.9636C321.618 83.0734 316.486 87.4157 310.305 90.2669C307.808 91.4345 305.191 92.3255 302.499 92.9239C300.458 93.3131 298.386 93.5244 296.308 93.5553C295.821 93.5844 295.333 93.5893 294.845 93.5893C287.391 93.5456 279.8 89.5383 274.595 84.3605C272.887 82.6654 271.316 80.8488 269.594 79.1633C266.838 76.4627 264.228 73.4026 261.067 71.144C259.31 69.8851 257.417 68.8276 255.422 67.9916C252.872 66.9283 250.189 66.2142 247.446 65.869C244.663 65.5226 241.848 65.5063 239.06 65.8205C238.718 65.83 238.376 65.869 238.041 65.937L237.065 66.073C236.494 66.1605 235.923 66.2625 235.358 66.3742C234.953 66.4519 233.27 67.0833 233.172 66.209C233.138 65.9225 233.611 65.6602 233.796 65.5436C234.649 65.0334 235.55 64.6057 236.484 64.2661C237.018 64.0256 237.563 63.8132 238.119 63.6298L272.838 54.3234L273.634 54.1096C272.072 54.4156 274.678 53.8036 274.829 53.7696C275.756 53.5754 276.683 53.3665 277.609 53.1771C278.068 53.0848 278.531 52.9973 278.99 52.9148C279.431 52.8932 279.866 52.8081 280.283 52.6622C280.678 52.463 280.668 51.8705 280.571 51.4964C280.555 51.4205 280.523 51.3489 280.477 51.2868C280.431 51.2246 280.371 51.1735 280.302 51.137C280.147 51.0728 279.982 51.0319 279.814 51.0156C278.985 50.8699 278.161 50.7242 277.322 50.6562C276.483 50.5882 275.58 50.5493 274.712 50.4667C271.385 50.1656 268.058 49.913 264.726 49.6653C260.286 49.335 255.822 49.2524 251.403 48.6938C247.295 48.1595 243.314 46.2118 239.66 44.3223C236.006 42.4328 232.377 40.4365 229.167 37.9205C227.703 36.7984 226.45 35.6716 225.591 34.0347C224.832 32.5734 224.379 30.9738 224.259 29.3329C224.243 28.1469 224.3 26.9612 224.43 25.7822C224.441 25.7167 224.456 25.6519 224.474 25.5879C224.747 24.087 224.996 22.5861 225.167 21.0755C225.318 20.2016 225.357 19.3121 225.284 18.4284C225.128 17.5814 224.763 16.7867 224.22 16.1163L222.893 14.3288L221.239 12.0994L219.556 9.86504L218.142 7.96586L217.298 6.82927L217.185 6.67383C215.644 4.94465 214.624 4.29379 213.961 4.62894C213.783 4.75327 213.638 4.91745 213.536 5.10817C213.435 5.29889 213.38 5.51077 213.375 5.72667C213.24 6.57222 213.16 7.42567 213.136 8.28158C213.164 9.11785 213.255 9.95081 213.41 10.7733C213.678 12.4977 213.932 14.2317 214.195 15.9609C214.707 19.3609 215.258 22.7222 216.034 26.0591C217.278 31.4312 217.985 36.6479 215.093 41.6411C212.805 45.5658 210.268 49.3398 207.843 53.1819L208.097 53.5074C210.307 50.6416 212.844 47.9604 214.644 44.8566C216.561 41.5488 218.151 38.1245 218.454 34.4621C218.668 32.6746 218.507 29.5757 216.663 24.7233C216.605 24.4513 216.551 24.1745 216.493 23.8976C216.346 23.1949 216.205 22.4906 216.068 21.7847C215.873 20.7841 215.686 19.7835 215.507 18.7829C215.296 17.6172 215.097 16.4515 214.912 15.2857C214.722 14.0908 214.546 12.8911 214.395 11.6865C214.258 10.5888 214.141 9.49103 214.068 8.38358C214.024 7.723 213.897 7.06241 213.868 6.39697C213.868 6.05211 213.79 5.26038 214.18 5.06123C214.371 4.96894 215.01 4.95923 216.805 6.97498L217.224 7.54328L218.303 9.00045L219.79 11.0016L221.42 13.202L222.937 15.2469C223.504 15.9091 223.995 16.6325 224.401 17.4035C224.815 18.3749 224.601 19.2444 224.474 20.2353C224.366 21.1096 224.258 21.9839 224.147 22.8582C224.001 24.0045 223.84 25.1459 223.659 26.2874C223.235 28.8228 223.391 31.4749 224.698 33.7481C227.581 38.7656 233.431 41.5682 238.358 44.196C242.041 46.1632 245.919 48.0818 250.066 48.9658C252.632 49.505 255.325 49.5147 257.945 49.6993C263.579 50.0879 269.214 50.4813 274.839 50.9962C275.814 51.0836 276.79 51.171 277.766 51.2682L279.229 51.4236C279.478 51.4527 279.902 51.4624 280.005 51.7393C280.036 51.8264 280.044 51.9203 280.028 52.0115C280.012 52.1027 279.972 52.188 279.912 52.259C279.77 52.3337 279.614 52.3752 279.453 52.3805C279.156 52.4242 278.853 52.463 278.561 52.5213L276.473 52.9536L273.707 53.5316L270.38 54.2408L266.662 55.0374C265.313 55.3385 263.965 55.6445 262.618 55.9554C261.213 56.2792 259.81 56.603 258.408 56.9268C257.006 57.2507 255.592 57.5955 254.164 57.9614C252.778 58.3111 251.394 58.6674 250.012 59.03C248.711 59.3797 247.41 59.7408 246.11 60.1132C244.913 60.437 243.724 60.7932 242.543 61.1818C241.509 61.5121 240.48 61.8569 239.46 62.2261C238.855 62.4495 238.25 62.7118 237.65 62.9304C236.387 63.4161 235.211 64.2564 234.011 64.8733C233.079 65.359 232.65 65.7962 232.699 66.2576C232.791 67.0785 233.709 67.1513 234.367 67.0736C235.387 66.9522 236.397 66.6608 237.416 66.5102C237.967 66.4276 238.519 66.3596 239.075 66.2965C243.092 66.247 247.098 66.7172 250.993 67.6953C254.838 68.8244 258.452 70.6236 261.667 73.0092C262.155 73.3443 262.618 73.6843 263.072 74.0486C264.23 74.9834 265.322 75.9961 266.34 77.0795L268.048 78.9787C268.701 79.7364 269.384 80.4602 270.087 81.1645C272.897 83.9622 275.453 86.8669 278.771 89.1206C282.309 91.5493 286.269 93.3033 290.449 94.2936C298.684 96.2073 306.895 94.0556 314.066 89.8784C323.335 84.4868 329.735 76.2781 334.828 66.9619C331.882 70.634 329.077 74.4129 326.008 77.9636Z" fill="white"/>
<path d="M411.415 67.7925C408.922 57.0628 402.341 49.2427 393.413 43.6957C390.608 41.9785 387.706 40.4248 384.72 39.0425C381.73 37.629 378.69 36.3127 375.661 34.9721C374.148 34.3018 372.612 33.6849 371.129 32.9418C370.153 32.4561 369.236 31.9072 368.294 31.3778L362.928 28.3711L358.44 25.8551C358.225 25.7336 357.991 25.6268 357.786 25.4908C357.333 25.1848 356.879 24.8739 356.435 24.5533C354.808 23.3579 352.971 22.4734 351.02 21.945C349.12 21.4695 347.138 21.4148 345.215 21.7847C344.58 21.9061 343.941 22.1004 343.297 22.217C342.653 22.3336 341.97 22.319 341.312 22.4064C340.586 22.4997 339.87 22.6624 339.175 22.8922C338.328 23.1359 337.56 23.5984 336.951 24.2327C336.521 24.7185 336.053 25.4956 336.219 26.1756C336.424 27.0159 337.419 27.0111 338.077 27.2928C338.736 27.5745 339.482 27.9097 340.18 28.2351C342.204 29.1556 344.16 30.2171 346.034 31.4117C347.464 32.3492 349.244 33.5295 349.937 35.1713C350.269 35.9824 349.937 36.9053 349.961 37.7456C349.986 38.5859 350.069 39.5428 350.113 40.4414H350.205C350.205 40.2131 350.244 39.9848 350.283 39.7468C350.299 39.6773 350.32 39.6091 350.347 39.5428C350.376 39.3289 350.439 39.1208 350.532 38.9259L350.435 36.8227C351.522 34.2095 347.834 31.9655 346.044 30.8435C345.502 30.3092 344.58 29.9303 343.897 29.5611C343.141 29.1337 342.37 28.7354 341.595 28.3517C340.733 27.9275 339.856 27.5243 338.965 27.1422C338.414 26.8994 337.155 26.6565 336.77 26.1708C336.487 25.8114 337.082 24.8399 337.316 24.5776C338.599 23.1204 340.634 23.1204 342.38 22.761C343.434 22.4932 344.503 22.2856 345.58 22.1393C346.605 22.0502 347.636 22.0583 348.659 22.1636C350.312 22.3379 351.905 22.8772 353.323 23.7422C354.772 24.563 356.173 25.4664 357.518 26.4477C358.788 27.4532 360.143 28.3485 361.567 29.124C361.991 29.3523 362.431 29.5563 362.85 29.7992L366.855 32.1501C367.91 32.7953 368.998 33.3855 370.114 33.9181C371.275 34.4524 372.49 34.8895 373.685 35.351C375.29 35.9776 376.856 36.6964 378.427 37.3959L381.525 38.7899C384.566 40.1158 387.53 41.611 390.403 43.2683C390.823 43.516 391.233 43.822 391.667 44.0406C401.853 50.4764 408.888 59.472 410.205 71.9406C410.61 75.7826 409.551 79.3916 405.946 81.2665C402.702 82.9519 399.116 84.0788 395.604 85.1523C394.745 85.4097 393.687 85.4728 392.969 84.8414C392.473 84.311 392.183 83.6224 392.15 82.8985C391.764 80.4699 390.794 78.0024 389.857 75.7341C388.979 73.6066 387.745 71.6297 385.803 70.3037C383.861 68.9776 382.003 67.6128 380.056 66.345C375.871 63.625 371.982 60.8272 369.363 56.2274C367.48 52.9099 364.353 50.1898 361.421 47.6106C360.503 46.8257 359.47 46.1852 358.357 45.7115C357.84 45.4618 357.299 45.2633 356.742 45.1189C356.096 45.0396 355.455 44.9179 354.825 44.7546C354.825 44.944 354.825 45.0217 354.908 45.046C361.64 47.6204 366.192 52.5747 369.758 58.5783C370.212 59.3409 370.246 60.3609 370.797 61.0506C372.236 62.9304 373.812 64.7081 375.363 66.5053C377.402 68.8659 379.466 71.2071 381.52 73.558L375.456 65.2376C375.729 65.6164 376.602 65.937 377.007 66.1799L378.622 67.1513C379.685 67.8071 380.734 68.4774 381.759 69.1914C383.783 70.5328 385.592 72.1703 387.125 74.0486C388.126 75.3301 388.916 76.7613 389.467 78.289C389.74 79.0603 389.939 79.8555 390.062 80.6642C390.223 81.7425 390.189 82.9131 390.481 83.9914C390.799 85.1571 391.608 86.1383 391.725 87.3672C392.106 91.3792 392.457 95.3913 392.735 99.4083C393.16 105.592 392.994 111.867 394.023 117.948C395.194 124.86 397.34 131.621 399.189 138.412C400.131 141.865 401.351 145.246 402.448 148.661C400.946 141.598 398.984 134.691 397.375 127.697C395.853 121.057 393.96 114.48 393.96 107.549C393.96 100.419 393.618 93.2881 393.423 86.1771C395.428 85.8857 397.814 85.6137 400.15 85.1814C409.722 83.4279 413.586 77.1378 411.415 67.7925Z" fill="white"/>
<path d="M395.672 140.559L391.232 125.667C391.271 124.695 391.31 123.763 391.33 122.806C391.315 122.38 391.325 121.953 391.359 121.528C391.613 119.717 391.174 117.895 390.871 116.093C390.662 114.684 390.427 113.286 390.154 111.906C388.983 105.592 387.086 97.4606 384.534 93.4194C384.319 93.0822 384.085 92.7578 383.832 92.448L382.983 91.2628V91.3211C380.277 86.0976 376.942 81.2222 373.051 76.8028C367.338 70.3232 360.591 65.5097 352.005 63.766C348.59 63.0762 345.063 62.9888 341.585 62.6245L341.468 63.3725C353.986 62.95 364.001 68.1666 372.09 77.1914C379.183 85.099 384.086 94.2986 387.31 104.431C389.262 110.502 390.725 116.574 390.447 123.151L384.817 104.096C384.773 104.06 384.734 104.019 384.7 103.974L384.803 104.105C384.661 103.926 384.51 103.751 384.359 103.576L384.183 103.362L384.095 103.391L390.276 124.146C390.003 125.482 389.788 126.638 389.632 127.644C389.632 127.644 388.725 131.286 388.964 133.365C388.964 133.521 389.003 133.662 389.018 133.798C389.057 134.342 389.115 134.876 389.203 135.391V135.43C389.617 138.188 390.908 140.741 392.886 142.716C392.886 142.716 394.35 144.28 395.125 144.537C395.187 144.557 395.251 144.567 395.316 144.566L395.257 144.503C395.304 144.525 395.353 144.543 395.403 144.556C395.458 144.575 395.516 144.585 395.574 144.586C395.663 144.586 395.751 144.563 395.828 144.518C396.56 144.114 395.974 141.618 395.672 140.559ZM395.555 144.027H395.516C394.833 144.255 394.135 142.764 393.813 142.361C393.24 141.649 392.723 140.894 392.267 140.102C391.369 138.535 390.649 136.873 390.12 135.148C389.574 133.393 389.447 131.535 389.749 129.722C389.823 129.226 390.035 128.761 390.359 128.377C390.588 128.11 390.847 127.59 391.189 127.464C391.53 127.338 392.545 131.835 392.652 132.17C393.221 134.094 393.794 136.014 394.369 137.931C394.642 138.849 394.935 139.767 395.189 140.69C395.366 141.319 395.505 141.958 395.603 142.604C395.705 142.943 395.764 143.294 395.779 143.648C395.774 143.724 395.751 143.799 395.712 143.864C395.673 143.93 395.619 143.986 395.555 144.027Z" fill="white"/>
<path d="M46.9191 101.133C47.9241 99.1314 49.4315 96.6882 49.4315 95.3038C49.4315 93.9195 48.1778 93.3027 45.4702 93.3027C42.5914 93.3462 39.7902 94.2387 37.4209 95.8673C37.308 95.9446 37.2152 96.0474 37.1499 96.1673C37.0846 96.2871 37.0488 96.4207 37.0452 96.557C37.0452 97.0427 37.7331 97.5625 38.299 97.747C39.9381 98.4999 40.1235 99.8162 40.1235 101.507C39.7479 108.52 39.5576 115.656 39.3722 122.733C39.3722 125.613 40.0015 128.62 40.0015 131.563C40.0015 133.127 39.2454 133.88 38.0502 133.88C36.0354 133.88 35.611 131.563 35.4695 129.747C35.0938 124.928 34.8402 120.105 34.8402 115.282C34.8402 112.464 35.0304 109.71 35.0304 106.888C35.0304 104.639 34.9036 98.0628 33.9621 98.0628C31.9473 98.0628 22.7417 106.203 20.8147 107.292C20.7513 107.355 20.7513 107.355 20.6928 107.355C20.503 107.34 20.3259 107.254 20.1973 107.114C20.0687 106.974 19.9982 106.791 20 106.602C20 105.912 21.6977 103.974 22.2636 103.469C26.542 99.2771 31.5326 96.2073 36.8989 93.701C39.4161 92.5741 41.9919 91.5735 45.0117 91.5735C47.5875 91.5735 51.1097 93.0307 51.1097 96.081C51.1097 98.2133 49.4754 100.278 46.963 101.089L46.9191 101.133Z" fill="white"/>
<path d="M68.7986 123.869C68.6928 124.701 68.4848 125.517 68.179 126.298C67.5643 128.241 64.369 137.183 60.9834 137.183C57.9051 137.183 56.4806 132.85 56.4806 130.019C56.4888 129.115 56.5918 128.215 56.7879 127.332C57.1733 125.341 57.4075 123.311 57.7148 121.319V121.242C57.6785 120.939 57.5997 120.643 57.4807 120.362C57.0865 120.421 56.7003 120.523 56.3294 120.668C55.1532 121.379 54.1844 122.384 53.5194 123.583C52.7096 125.195 51.3631 128.756 50.4021 128.756C50.5582 128.756 47.9629 128.989 46.6701 121.057C46.475 118.721 45.7822 116.496 45.7822 114.121C45.7921 112.398 45.9554 110.68 46.2701 108.987C46.7335 106.344 48.7093 103.352 51.0802 103.352C52.6608 103.352 53.8121 104.659 53.8121 106.573C53.8121 106.879 53.7731 107.185 53.7731 107.34V107.981C53.7731 110.662 52.8901 112.921 51.89 115.146C51.4654 116.26 50.9242 117.326 50.2752 118.327C49.6416 119.136 49.2982 120.133 49.2996 121.159C49.2766 121.933 49.4079 122.705 49.6859 123.428C49.9639 124.152 50.383 124.814 50.9192 125.375C51.1662 125.156 51.374 124.896 51.5339 124.608C52.7632 122.043 55.3439 119.265 57.9197 119.265C60.115 119.265 61.1151 120.071 61.1151 121.45C61.0554 122.907 60.8628 124.356 60.5394 125.778C60.115 127.809 59.3052 130.184 59.3052 132.093C59.3052 133.511 59.9199 136.042 60.998 136.042C63.3445 136.042 67.0423 127.114 67.5399 126.118C67.657 125.812 68.3888 123.398 68.579 123.437C68.7693 123.476 68.7986 123.641 68.7986 123.869ZM48.8264 118.011C49.441 118.011 50.4021 115.583 51.0168 114.446C52.29 112.11 52.6705 109.54 52.7876 106.937C52.7876 105.786 52.2998 104.256 51.3241 104.256C50.9986 104.266 50.6866 104.388 50.4411 104.601C48.7873 105.941 48.1336 108.049 48.1336 110.269C48.1336 110.842 48.1726 111.42 48.1726 112.032C48.1726 112.416 48.1726 112.838 48.1336 113.222C48.2068 114.485 48.2848 116.015 48.4019 117.511C48.441 117.696 48.6702 118.011 48.8264 118.011Z" fill="white"/>
<path d="M78.7993 124.559C77.7212 126.745 73.433 131.189 71.1402 131.189C68.701 131.189 66.8716 128.697 66.8716 124.676C67.0618 122.111 68.1448 116.239 73.0233 116.239C74.0624 116.239 75.7552 117.273 75.7552 118.959C75.7552 120.221 72.7159 122.903 70.4426 123.442C69.0571 123.787 69.1742 124.899 69.1742 126.006C69.1742 127.808 69.4815 130.223 71.2524 130.223C73.9453 130.223 77.448 125.205 78.0822 124.282C78.57 123.758 79.1847 123.758 78.7993 124.559ZM70.3694 121.878C70.3694 122.072 70.4084 122.184 70.6426 122.184C70.7086 122.194 70.776 122.18 70.8328 122.145C72.3354 121.533 74.6039 119.886 74.6039 118.774C74.6039 117.934 74.116 117.356 73.4135 117.356C73.2266 117.368 73.044 117.417 72.8764 117.5C72.7089 117.584 72.5597 117.7 72.4378 117.841C71.5597 118.852 70.3694 120.654 70.3694 121.878Z" fill="white"/>
<path d="M125.428 123.228C125.428 123.087 125.428 122.946 125.452 122.806C125.46 122.674 125.496 122.545 125.559 122.429C125.621 122.312 125.708 122.21 125.813 122.13C125.813 122.033 125.813 121.936 125.837 121.839C125.852 121.711 125.894 121.588 125.961 121.477C126.027 121.367 126.117 121.271 126.223 121.198C126.097 121.028 125.936 120.888 125.751 120.787C125.566 120.685 125.36 120.625 125.15 120.61C124.559 120.61 124.208 120.552 124.208 121.256C124.208 121.489 124.208 121.606 124.267 121.664C124.776 122.083 125.175 122.62 125.428 123.228Z" fill="white"/>
<path d="M125.603 126.526C125.549 126.167 125.51 125.802 125.476 125.443C124.281 130.325 115.768 131.641 110.241 131.641C106.709 131.641 105.587 131.345 105.587 129.645V129.057C106.294 122.257 106.826 115.389 107.416 108.525H107.294C107.592 104.125 108.123 99.4908 108.123 95.265C108.123 93.6816 106.66 92.2729 105.294 92.2729C104.411 92.2729 103.645 92.919 103.587 94.1527C102.996 105.183 102.23 116.151 100.659 126.886C100.612 127.256 100.593 127.63 100.601 128.003C100.601 132.107 104.074 133.166 108.67 133.166C114.7 133.166 122.91 132.763 126.139 128.761C125.892 128.034 125.713 127.286 125.603 126.526Z" fill="white"/>
<path d="M135.999 124.01C133.496 126.502 130.071 130.713 127.705 130.713C125.339 130.713 124.008 127.036 124.008 124.355C124.008 124.088 123.934 118.109 125.281 118.109C126.627 118.109 127.091 119.488 127.091 120.294C127.091 122.364 126.603 124.583 126.603 126.653C126.603 128.455 126.949 129.567 127.91 129.567C128.949 129.567 130.837 127.765 132.067 126.691C133.145 125.72 135.067 123.627 135.608 123.627C135.721 123.627 135.838 123.743 135.955 123.821C135.999 123.797 135.999 123.908 135.999 124.01ZM126.071 113.247C126.063 113.161 126.074 113.074 126.105 112.993C126.135 112.912 126.184 112.839 126.247 112.779C126.31 112.72 126.385 112.675 126.468 112.649C126.551 112.623 126.639 112.617 126.725 112.63C127.418 112.63 127.798 113.703 127.798 114.203C127.798 114.704 127.53 115.044 126.876 115.389C126.686 115.316 126.452 115.277 126.417 115.16C126.238 114.527 126.122 113.878 126.071 113.222V113.247Z" fill="white"/>
<path d="M134.301 117.395C133.457 117.322 132.608 117.433 131.838 117.322C130.686 117.166 129.686 116.744 129.184 115.597C129.124 115.484 129.097 115.356 129.104 115.228C129.11 115.1 129.152 114.976 129.223 114.869C129.326 114.791 129.449 114.743 129.578 114.729C129.707 114.716 129.837 114.737 129.955 114.791C131.223 115.787 134.301 115.559 135.765 115.325C137.34 115.097 137.228 107.588 137.38 106.019C137.531 104.45 137.687 102.915 137.921 101.38C138.072 100.729 138.458 100.195 139.072 100.385C141.385 101.23 141.111 101.686 141.151 102.264C141.077 103.299 140.765 104.295 140.692 105.29C140.614 106.019 138.921 114.869 139.716 114.675C141.56 114.257 144.639 114.257 146.488 113.703C147.18 113.514 148.102 105.81 148.258 105.043C148.384 103.59 148.589 102.145 148.873 100.715C149.063 99.6803 149.566 99.0294 150.756 99.9086C152.298 101.06 152.337 101.288 152.068 102.667C151.722 104.431 150.259 112.382 150.912 113.169C151.298 113.625 152.488 113.553 153.493 113.397C154.761 113.319 158.337 113.091 158.186 113.781C158.139 114.02 158.033 114.243 157.879 114.432C157.801 114.471 157.415 114.393 157.391 114.276C154.43 114.165 152.468 115.199 150.502 115.311C150.234 115.311 150.429 115.466 150.351 115.928C150.117 119.449 148.117 129.45 152.083 129.567C154.273 129.645 157.279 126.04 159.43 123.704C159.971 122.976 160.737 121.761 161.43 122.364C161.815 122.708 160.43 123.971 159.967 124.739C158.196 127.231 154.542 130.752 152.498 130.752C148.346 130.752 147.653 126.269 147.341 125.506C147.112 125.045 146.805 125.02 146.614 125.428C145.302 128.149 143.38 137.154 139.263 137.304C136.028 137.343 135.106 131.864 135.184 126.541C135.184 125.963 135.492 120.678 135.57 118.609C135.614 117.55 135.467 117.395 134.301 117.395ZM146.463 122.145C146.541 121.956 146.58 122.184 146.541 121.956C146.195 119.527 146.849 115.481 146.385 115.481C144.521 115.557 142.665 115.774 140.833 116.132C139.219 116.477 139.409 116.86 139.219 118.39C138.989 121.46 135.984 135.672 139.448 135.901C142.536 136.056 145.268 126.322 146.463 122.145Z" fill="white"/>
<path d="M172.543 125.404C170.431 127.396 168.152 130.155 165.772 130.155C164.762 130.163 163.766 129.915 162.879 129.435C161.991 128.955 161.241 128.258 160.698 127.41C159.227 125.058 158.431 122.351 158.396 119.58C158.474 116.195 159.329 112.872 160.893 109.866C162.474 106.84 164.474 101.555 169.016 101.555C170.821 101.555 171.67 102.74 171.67 104.955C171.534 107.204 170.789 109.375 169.513 111.236C168.34 112.946 167.082 114.596 165.742 116.18C164.396 117.672 163.357 119.396 161.625 120.508C161.508 120.594 161.41 120.703 161.337 120.828C161.264 120.954 161.217 121.093 161.201 121.237C161.201 123.918 161.859 128.746 165.435 128.746C165.697 128.749 165.957 128.709 166.206 128.629C169.016 127.789 171.084 125.603 173.172 123.651C174.05 123.107 173.089 124.904 172.543 125.404ZM161.537 118.012C161.56 118.275 161.626 118.532 161.732 118.774C161.884 118.662 162.157 118.624 162.308 118.507C165.889 114.752 170.601 109.735 170.601 104.868C170.601 103.896 170.601 102.439 169.411 102.439C168.221 102.439 166.791 103.741 166.294 104.698C164.289 108.724 162.391 112.863 161.596 117.327C161.557 117.553 161.539 117.782 161.542 118.012H161.537Z" fill="white"/>
<path d="M182.978 124.559C181.9 126.745 177.612 131.189 175.319 131.189C172.88 131.189 171.05 128.697 171.05 124.676C171.241 122.111 172.319 116.248 177.207 116.248C178.246 116.248 179.939 117.283 179.939 118.968C179.939 120.231 176.9 122.912 174.626 123.452C173.241 123.796 173.358 124.909 173.358 126.016C173.358 127.818 173.665 130.232 175.436 130.232C178.129 130.232 181.632 125.215 182.266 124.292C182.744 123.758 183.363 123.758 182.978 124.559ZM174.548 121.878C174.548 122.072 174.587 122.184 174.821 122.184C174.887 122.194 174.955 122.18 175.012 122.145C176.514 121.533 178.783 119.886 178.783 118.774C178.783 117.934 178.295 117.356 177.592 117.356C177.405 117.368 177.223 117.417 177.055 117.5C176.887 117.584 176.738 117.7 176.617 117.841C175.743 118.852 174.548 120.654 174.548 121.878Z" fill="white"/>
<path d="M232.806 105.067C232.245 105.067 231.499 105.193 231.499 104.265C231.499 102.094 233.45 99.617 233.45 97.1981C233.45 96.0858 233.509 94.1041 232.328 94.1041C231.591 94.1858 230.904 94.5127 230.377 95.0318C224.65 99.9862 219.859 105.625 216.81 112.566C216.712 112.779 216.669 113.013 216.683 113.246C216.683 114.3 217.927 114.3 219.298 114.67C225.83 116.613 224.962 127.561 225.084 133.385C225.084 135.055 225.523 139.019 227.138 139.019C230.001 139.019 233.299 129.304 233.797 128.362C234.172 127.561 234.67 127.25 234.977 127.25C235.168 127.25 235.353 127.434 235.353 127.736C235.32 128.124 235.214 128.503 235.041 128.853C233.236 132.938 230.933 141.18 227.074 141.18C224.337 141.18 221.166 137.295 220.605 134.239C219.63 130.091 219.298 125.938 218.654 121.849C218.347 119.804 217.6 116.831 215.668 116.831C213.99 116.831 211.502 126.866 211.19 131.082C211.127 132.258 211.005 134.118 209.697 134.118H209.634C206.219 132.442 204.097 130.028 203.409 126.186C202.043 118.248 201.385 110.206 201.443 102.153C201.523 99.6446 201.231 97.1387 200.575 94.7161C200.575 94.6529 200.511 94.6529 200.511 94.5946C200.511 94.2206 200.999 93.8515 201.487 93.8515C201.594 93.8429 201.702 93.863 201.799 93.9098C205.531 95.3378 206.902 97.3098 207.024 101.531C207.209 107.913 207.585 114.232 207.834 120.615C207.832 121.638 207.958 122.658 208.209 123.651C208.644 125.074 208.146 126.871 209.761 127.862C210.292 126.546 210.749 125.202 211.132 123.835C213.868 113.057 219.425 103.76 227.001 95.5224C228.494 93.9098 230.362 92.1223 232.367 92.1223C235.416 92.1223 236.036 95.0367 236.724 98.1939C236.168 100.695 235.67 105.067 232.806 105.067Z" fill="white"/>
<path d="M258.145 124.292C258.106 124.904 257.657 125.365 257.34 125.827C255.53 128.547 253.642 131.228 251.759 133.87C250.642 135.444 249.1 136.44 247.563 136.44C244.368 136.44 242.982 132.797 242.982 129.771C243.06 127.846 243.331 125.934 243.792 124.064C243.792 123.986 243.446 123.796 243.368 123.796C242.909 123.796 241.943 124.792 241.675 125.059C239.904 126.9 238.099 129.81 235.982 129.81C233.865 129.81 232.977 128.391 232.977 126.594C232.963 125.671 233.147 124.755 233.518 123.908C235.133 120.576 238.289 115.559 241.558 115.559C243.061 115.559 244.675 117.127 244.675 118.585C244.675 119.119 244.485 120.231 243.909 120.231C243.675 120.231 243.368 119.746 243.368 119.658C243.368 119.425 243.407 119.172 243.407 118.93C243.407 117.934 242.87 116.744 241.485 116.744C239.046 116.744 235.094 122.572 235.094 125.71C235.094 126.172 235.289 128.28 235.982 128.28C236.865 128.28 237.328 127.435 237.904 126.934C239.904 125.137 241.753 123.218 243.714 121.382C244.188 120.921 244.823 120.66 245.485 120.654C247.178 120.654 248.485 121.956 248.485 123.029C248.471 123.418 248.407 123.803 248.295 124.175C247.641 126.555 246.563 128.969 246.563 131.345C246.563 132.379 246.91 134.293 247.949 134.293C249.256 134.293 250.876 132.452 251.603 131.379C253.491 128.654 256.798 123.408 257.647 123.408C257.714 123.414 257.779 123.438 257.833 123.479C257.887 123.519 257.929 123.574 257.954 123.636C258.064 123.839 258.129 124.062 258.145 124.292Z" fill="white"/>
<path d="M271.609 124.753C269.57 127.318 265.955 132.569 262.647 132.569C258.183 132.569 256.603 125.215 256.603 121.038C256.603 120.309 256.759 119.619 256.759 119.158C256.759 116.977 253.139 118.162 253.139 116.783C253.147 116.687 253.179 116.594 253.233 116.514C253.287 116.435 253.36 116.37 253.447 116.326C256.798 115.559 256.949 116.515 257.349 114.14C257.774 111.226 258.271 108.278 258.696 105.329C258.925 103.794 259.159 101.647 260.159 101.647C261.696 101.647 262.662 103.488 262.662 104.562C262.655 104.832 262.629 105.102 262.584 105.368C262.276 106.825 262.159 108.316 261.93 109.774C261.506 109.774 261.081 113.912 261.081 114.713C261.081 115.325 261.389 115.481 262.159 115.52C264.081 115.597 266.008 115.67 267.892 115.787C268.087 115.787 268.238 116.093 268.433 116.248C268.275 116.423 268.076 116.556 267.854 116.636C267.632 116.715 267.393 116.739 267.16 116.705H265.584C264.786 116.678 263.987 116.73 263.198 116.86C260.657 117.166 260.545 117.166 260.271 119.736C260.069 121.721 259.979 123.715 260.003 125.71C260.003 127.167 260.081 131.418 262.662 131.418C263.638 131.418 264.74 130.689 265.428 130.038C267.74 127.779 268.584 126.638 270.858 124.37C271.341 123.719 271.765 124.496 271.609 124.753Z" fill="white"/>
<path d="M294.889 124.292C294.85 124.904 294.401 125.365 294.084 125.827C292.274 128.547 290.386 131.228 288.503 133.87C287.386 135.444 285.849 136.44 284.308 136.44C281.112 136.44 279.727 132.797 279.727 129.771C279.804 127.846 280.076 125.934 280.537 124.064C280.537 123.986 280.19 123.796 280.112 123.796C279.654 123.796 278.688 124.792 278.419 125.059C276.649 126.9 274.844 129.81 272.726 129.81C270.609 129.81 269.726 128.391 269.726 126.594C269.71 125.671 269.893 124.755 270.263 123.908C271.877 120.576 275.034 115.559 278.307 115.559C279.805 115.559 281.425 117.127 281.425 118.585C281.425 119.119 281.229 120.231 280.654 120.231C280.42 120.231 280.112 119.746 280.112 119.658C280.112 119.425 280.151 119.172 280.151 118.93C280.151 117.934 279.615 116.744 278.229 116.744C275.79 116.744 271.838 122.572 271.838 125.71C271.838 126.172 272.034 128.28 272.726 128.28C273.609 128.28 274.073 127.435 274.648 126.934C276.649 125.137 278.497 123.218 280.459 121.382C280.933 120.921 281.567 120.66 282.229 120.654C283.922 120.654 285.23 121.956 285.23 123.029C285.218 123.418 285.154 123.803 285.039 124.175C284.386 126.555 283.308 128.969 283.308 131.345C283.308 132.379 283.654 134.293 284.693 134.293C286 134.293 287.62 132.452 288.347 131.379C290.235 128.654 293.543 123.408 294.391 123.408C294.459 123.414 294.523 123.438 294.577 123.479C294.632 123.519 294.674 123.574 294.699 123.636C294.811 123.838 294.876 124.062 294.889 124.292Z" fill="white"/>
<path d="M305.777 132.797C305.556 133.121 305.257 133.385 304.908 133.565C304.559 133.746 304.171 133.837 303.777 133.832C300.66 133.832 298.411 130.116 298.411 127.551C298.411 125.608 299.718 122.49 300.411 120.265C300.477 120.014 300.514 119.757 300.523 119.498C300.523 118.925 299.45 118.313 298.084 118.274C296.718 118.235 295.933 123.214 294.006 125.074C293.815 125.224 293.162 124.996 293.352 124.612C294.777 122.699 296.162 119.556 296.162 118.638C296.162 118.177 295.894 118.021 295.045 117.487C293.894 116.797 293.313 115.84 293.313 114.845C293.313 113.693 294.289 112.163 295.43 112.163C295.734 112.173 296.03 112.263 296.287 112.424C296.545 112.586 296.754 112.812 296.894 113.081C298.24 115.51 296.352 116.797 299.201 117.259C300.743 117.526 303.626 117.871 303.626 119.901C303.639 120.095 303.612 120.29 303.548 120.474C303.06 122.276 302.665 124.151 302.05 125.875C301.728 126.76 301.563 127.693 301.562 128.634C301.562 130.577 302.294 132.52 303.514 132.52C305.246 132.52 311.861 123.403 311.748 123.403C311.995 123.493 312.219 123.638 312.402 123.826C312.436 124.525 307.319 130.767 305.777 132.797ZM296.582 115.559C296.503 115.214 296.235 113.373 295.659 113.373C295.084 113.373 294.733 114.485 294.733 115.097C294.712 115.296 294.731 115.498 294.79 115.689C294.849 115.881 294.946 116.059 295.075 116.212C295.205 116.366 295.363 116.492 295.543 116.583C295.722 116.675 295.917 116.729 296.118 116.744C296.235 116.744 296.386 116.36 296.503 116.132C296.557 115.945 296.584 115.752 296.582 115.559Z" fill="white"/>
<path d="M321.744 124.01C319.242 126.502 315.817 130.713 313.451 130.713C311.085 130.713 309.758 127.036 309.758 124.355C309.758 124.088 309.68 118.109 311.027 118.109C312.373 118.109 312.836 119.488 312.836 120.294C312.836 122.364 312.349 124.583 312.349 126.652C312.349 128.454 312.695 129.567 313.656 129.567C314.695 129.567 316.583 127.765 317.812 126.691C318.891 125.72 320.813 123.626 321.349 123.626C321.466 123.626 321.583 123.743 321.696 123.821C321.744 123.796 321.744 123.908 321.744 124.01ZM311.817 113.246C311.809 113.161 311.822 113.074 311.852 112.994C311.883 112.913 311.932 112.84 311.994 112.781C312.057 112.722 312.133 112.677 312.215 112.651C312.298 112.625 312.385 112.618 312.471 112.63C313.163 112.63 313.549 113.703 313.549 114.203C313.549 114.704 313.28 115.044 312.627 115.389C312.432 115.316 312.202 115.277 312.163 115.16C311.987 114.527 311.871 113.878 311.817 113.222V113.246Z" fill="white"/>
<path d="M345.332 123.869C345.371 123.986 345.449 124.025 345.488 124.025C345.527 124.025 345.639 123.986 345.717 123.986C345.795 123.986 345.873 124.025 345.951 124.175C345.834 124.292 344.756 126.055 344.6 126.283C343.18 128.547 341.868 130.961 340.487 133.22C339.107 135.478 338.639 136.552 337.073 136.552C333.111 136.552 332.994 131.996 332.994 128.853C332.994 125.977 333.687 123.184 334.228 120.348C334.414 119.713 334.543 119.063 334.614 118.405C334.614 117.871 334.419 117.37 333.882 117.37C332.189 117.37 330.111 119.979 329.111 121.397C327.491 123.733 325.725 126.109 325.208 129.018C325.052 129.824 324.667 130.898 323.476 130.898C321.589 130.898 320.203 125.191 320.013 122.087C319.823 120.144 319.784 118.177 319.091 116.302C319.055 116.244 319.042 116.175 319.052 116.107C319.04 115.996 319.05 115.884 319.083 115.777C319.115 115.67 319.169 115.571 319.241 115.485C319.313 115.4 319.402 115.329 319.502 115.278C319.601 115.228 319.711 115.197 319.823 115.189C320.076 115.195 320.326 115.26 320.549 115.379C322.32 116.302 323.398 117.681 323.476 119.784C323.625 121.824 323.888 123.855 324.262 125.866C324.312 126.037 324.405 126.194 324.53 126.322C325.916 124.447 327.033 122.3 328.262 120.309C329.492 118.318 331.916 116.015 333.882 116.015C336.151 116.015 336.687 118.39 336.687 120.96C336.687 122.223 336.575 123.49 336.497 124.846C336.229 126.721 335.692 129.173 335.692 131.126C335.692 132.355 335.692 134.73 336.96 134.73C337.419 134.73 338.575 133.846 339 133.234C340.844 130.514 342.693 127.755 344.424 124.977C344.749 124.626 345.052 124.256 345.332 123.869Z" fill="white"/>
<path d="M368.806 124.292C368.767 124.904 368.319 125.365 367.997 125.827C366.187 128.547 364.304 131.228 362.416 133.87C361.299 135.444 359.762 136.44 358.22 136.44C355.03 136.44 353.644 132.797 353.644 129.771C353.72 127.846 353.99 125.934 354.449 124.064C354.449 123.986 354.103 123.796 354.03 123.796C353.566 123.796 352.605 124.792 352.337 125.059C350.566 126.9 348.756 129.81 346.639 129.81C344.522 129.81 343.639 128.391 343.639 126.594C343.623 125.671 343.806 124.755 344.175 123.908C345.795 120.576 348.946 115.559 352.22 115.559C353.717 115.559 355.337 117.127 355.337 118.585C355.337 119.119 355.142 120.231 354.566 120.231C354.337 120.231 354.03 119.746 354.03 119.658C354.03 119.425 354.064 119.172 354.064 118.93C354.064 117.934 353.527 116.744 352.142 116.744C349.703 116.744 345.756 122.572 345.756 125.71C345.756 126.172 345.946 128.28 346.639 128.28C347.522 128.28 347.985 127.435 348.59 126.934C350.59 125.137 352.434 123.218 354.4 121.382C354.872 120.921 355.505 120.66 356.166 120.654C357.859 120.654 359.172 121.956 359.172 123.029C359.158 123.418 359.092 123.804 358.976 124.175C358.323 126.555 357.245 128.969 357.245 131.345C357.245 132.379 357.591 134.293 358.63 134.293C359.937 134.293 361.557 132.452 362.289 131.379C364.172 128.654 367.479 123.408 368.328 123.408C368.396 123.413 368.461 123.438 368.515 123.478C368.569 123.518 368.611 123.573 368.636 123.636C368.741 123.839 368.799 124.063 368.806 124.292Z" fill="white"/>
</g>
<defs>
<filter id="filter0_d" x="0" y="0" width="432" height="196" filterUnits="userSpaceOnUse" color-interpolation-filters="sRGB">
<feFlood flood-opacity="0" result="BackgroundImageFix"/>
<feColorMatrix in="SourceAlpha" type="matrix" values="0 0 0 0 0 0 0 0 0 0 0 0 0 0 0 0 0 0 127 0"/>
<feOffset dy="20"/>
<feGaussianBlur stdDeviation="10"/>
<feColorMatrix type="matrix" values="0 0 0 0 0 0 0 0 0 0 0 0 0 0 0 0 0 0 0.1 0"/>
<feBlend mode="normal" in2="BackgroundImageFix" result="effect1_dropShadow"/>
<feBlend mode="normal" in="SourceGraphic" in2="effect1_dropShadow" result="shape"/>
</filter>
<clipPath id="clip0">
<rect width="392" height="156" fill="white" transform="translate(20)"/>
</clipPath>
</defs>
</svg>
