<svg width="30" height="19" viewBox="0 0 30 19" fill="none" xmlns="http://www.w3.org/2000/svg">
<path d="M29.9908 0.0449219V18.9813L29.9818 18.9904H0.0268555V0.0449219H29.9908Z" fill="#2E4593"/>
<path d="M29.9903 17.0107V18.9815L29.9813 18.9906H26.8652L17.6697 13.1689L16.7511 12.5877L15.6613 11.9065L15.3011 11.6704L14.1933 10.971L13.779 10.7076L13.4368 10.4988L12.7433 10.0537L12.5181 9.91749L12.1759 9.69952L8.91559 7.62877L7.44756 6.70238L0.0263672 2.01596V0.0451179L0.0533861 0.00878906L0.107424 0.0451179H3.14255L12.5181 5.96672L13.4368 6.54799L13.6799 6.70238L15.148 7.62877L15.3011 7.72867L15.8595 8.08288L16.7511 8.64598L16.9042 8.74588L17.6697 9.22724L18.4172 9.69952L20.4347 10.971L21.9117 11.9065L29.9903 17.0107Z" fill="#FCF5FF"/>
<path d="M29.9903 18.9273L29.9993 19L27.9909 18.9909L17.6697 12.4608L16.7871 11.9068L16.7511 11.8795L15.8594 11.3164L15.3281 10.9713L14.3464 10.3537L13.4368 9.78155L13.3107 9.69981L12.7433 9.3456L12.5181 9.20029L10.0414 7.62906L8.57335 6.70268L0.0263672 1.29876V0L0.0533861 0.00908222L0.107424 0.0454111L10.6538 6.70268L12.1128 7.62906L12.5181 7.88337L13.4368 8.47371L13.779 8.69168L14.3464 9.04589L15.3821 9.69981L16.7511 10.5626L16.9042 10.6625L17.3995 10.9713L17.6697 11.1439L18.8676 11.9068L29.9903 18.9273Z" fill="#F42525"/>
<path d="M29.9908 0.417293V2.38813L23.155 6.70219L21.687 7.62857L18.4177 9.69932L17.6702 10.1716L16.9047 10.662L16.7516 10.7529L16.4003 10.9708L15.8599 11.316L15.3015 11.6702L14.9323 11.9063L13.4372 12.8508L12.5186 13.4321L3.72845 18.9904H0.0268555V17.3829L8.69092 11.9063L10.1589 10.9708L12.1764 9.69932L12.5186 9.49043L12.7438 9.34511L13.4372 8.90008L13.7795 8.69119L15.3015 7.72848L15.4456 7.62857L16.7516 6.81117L16.9137 6.70219L17.6702 6.22991L27.4601 0.0449219H29.7567L29.9908 0.417293Z" fill="#FCF5FF"/>
<path d="M29.9098 0.517197L20.1199 6.70219L18.6519 7.62857L17.6702 8.25525L16.9047 8.74569L16.7516 8.83651L15.3826 9.69932L14.3469 10.3532L13.7795 10.7074L13.4372 10.9345L13.3652 10.9708L12.5186 11.5158L11.8972 11.9063L0.702328 18.9904H0.0268555V18.1004L9.82571 11.9063L11.2937 10.9708L12.5186 10.1988L12.7438 10.0535L13.3112 9.69932L13.4372 9.61758L14.3469 9.0454L15.8599 8.08268L16.5714 7.62857L16.7516 7.51959L17.6702 6.93832L18.0395 6.70219L28.5768 0.0449219H29.6216H29.9908V0.453622L29.9098 0.517197Z" fill="#F42525"/>
<path d="M30 6.70264H0V11.8977H30V6.70264Z" fill="white"/>
<path d="M30 7.62915H0V10.9714H30V7.62915Z" fill="#F42525"/>
<path d="M16.7518 0.0449219H13.4375V18.9904H16.7518V0.0449219Z" fill="#CD002A"/>
<path d="M16.7427 11.9063H17.6614V18.9904H12.5098V11.9063H13.4284V6.70219H12.5098V0.0449219H17.6614V6.70219H16.7427V11.9063Z" fill="white"/>
<path d="M16.7605 0.0449219H13.4102V18.9904H16.7605V0.0449219Z" fill="#F42525"/>
</svg>
