<svg viewBox="0 0 18 18" fill="none" xmlns="http://www.w3.org/2000/svg">
<path fill-rule="evenodd" clip-rule="evenodd" d="M10 16H11.003C11.5536 16 12 16.4439 12 17C12 17.5523 11.547 18 11.003 18H6.99703C6.44639 18 6 17.5561 6 17C6 16.4477 6.45304 16 6.99703 16H8V7H7.00937C6.45191 7 6 6.55614 6 6C6 5.44772 6.44335 5 7.00937 5H8.99063C9.54809 5 10 5.44386 10 6V16ZM10 1.5C10 0.671573 9.32843 0 8.5 0C7.67157 0 7 0.671573 7 1.5C7 2.32843 7.67157 3 8.5 3C9.32843 3 10 2.32843 10 1.5Z" fill="white"/>
</svg>
