<svg width="432" height="196" fill="none" xmlns="http://www.w3.org/2000/svg"><g clip-path="url(#clip0)" filter="url(#filter0_d)" fill="#fff"><path d="M164.787 28.808c1.546-.971 3-2.142 4.654-2.86 4.746-2.07 8.264-5.164 9.756-10.279.547-1.845 1.381-3.608 2.098-5.4.976-2.502 3.327-3.041 5.474-1.395.561.433 1.414.486 2.132.71a5.925 5.925 0 00-1.869-1.545c-2.351-1.331-5.478-1.589-6.581 2.035a39.053 39.053 0 01-3.029 7.563 17.324 17.324 0 01-4.201 5.139c-2.039 1.627-4.673 2.501-6.79 4.055-1.84 1.346-3.22 1.157-4.962-.038-4.239-2.915-8.537-5.717-12.786-8.598-3.415-2.317-6.83-5.75-11.103-6.241-6.215-.714-12.05.816-17.485 3.813-3.014 1.666-3.512 3.76-3.38 6.994a54.27 54.27 0 001.38 10.02 69.298 69.298 0 007.479 18.808c3.464 6.052 7.259 11.915 10.893 17.865 2.381 3.886 4.654 7.869 7.138 11.7 1.063 1.643 2.536 3.027 3.824 4.528l.186-.156c-.078-.14-.161-.281-.244-.422a12.85 12.85 0 01-1.015-2.254c-1.708-2.395-4.156-5.829-4.454-6.314-3.508-5.387-6.923-10.813-10.147-16.374-3.166-5.484-6.342-10.992-8.928-16.758a58.674 58.674 0 01-3.902-11.589c-.747-3.507-1.62-8.073-.678-11.619 1.287-4.857 8.898-6.207 13.083-6.848 4.45-.68 8.123.825 11.753 3.176 1.663 1.074 19.513 12.173 19.245 12.702-.376.636-.649 1.098-.917 1.56l.044.048 1.995-.899c18.684 12.93 37.783 25.452 53.418 42.321-14.079-18.19-33.734-29.813-52.081-43.448zM381.12 105.184c-2.049 9.053-2.484 18.19-2.635 27.414-.146 8.879 3.952 14.795 11.382 18.914 4.263 2.361 8.673 4.323 13.659 4.459-5.083.282-9.649-1.35-14.06-3.667-3.98-2.099-7.737-4.629-9.547-8.792a28.025 28.025 0 01-2.219-9.714 93.073 93.073 0 012.829-27.308c.157-.452.354-.89.591-1.306zM335.599 54.551c-1.951 2.546-3.903 5.09-5.854 7.631-.63.92-1.374 1.757-2.215 2.492 2.391-3.6 4.269-7.602 8.113-10.064l-.044-.059zM196.037 7.64c-2.292 2.502.347 4.605.561 7.053-2.39-2.016-2.717-5.654-.561-7.053zM312.066 39.246l-.293-.388A65.607 65.607 0 01325.95 30.6c2.478-1.346 2.81-2.225 2.785-2.623-.034-.535-.712-.807-.717-.807l.176-.456a1.606 1.606 0 011.024 1.229c.064.932-.936 1.943-3.063 3.099a65.093 65.093 0 00-14.089 8.203zM295.323 53.629c-.361.08-.728.129-1.098.145a2.739 2.739 0 01-1.848-.485 2.178 2.178 0 01-.639-2.162c.414-1.778 2.219-2.516 3.629-3.376.883-.539 12.552-6.94 12.542-6.96l.235.427a431.858 431.858 0 00-6.635 3.638 220.46 220.46 0 00-5.191 2.963c-1.297.768-3.415 1.35-4.058 2.852-.488 1.136.287 2.22 1.395 2.516a3.61 3.61 0 002.522-.365c.759-.42 1.463-.93 2.098-1.52l2.927-2.526c.097-.082.239-.165.341-.087.103.078 0 .277-.073.389a19.82 19.82 0 01-3.156 3.127 8.251 8.251 0 01-2.991 1.424z"/><path d="M309.749 50.836c.212-.214.44-.41.683-.588l-.142-.19-3.224 2.405c-3.21 2.633-4.152 4.347-4.201 4.444l-1.502 3.915c-.669 2.657-4.732 7.398-4.771 7.446l-.044.068c-1.298 2.181-3.903 4.416-6.586 4.566a1.52 1.52 0 01-1.42-.68 1.823 1.823 0 01-.122-1.093c.313-2.292 2.103-4.056 3.254-6.062 1.776-3.098 2.03-6.848 3.581-10.059.273-.563.59-1.21.341-1.783-1.766 2.779-2.166 6.184-3.327 9.263a29.852 29.852 0 01-2.927 5.528c-.834 1.306-2.858 3.76-.766 4.978.301.175.632.292.976.345 1.566.258 3.156-.607 4.42-1.423 1.351-.87 2.361-2.35 3.351-3.59 1.654-2.054 3.23-4.23 4.186-6.707a38.266 38.266 0 011.8-4.508s.947-1.714 4.064-4.264l.878-.656c.282-.193.554-.4.815-.622.249-.228.434-.505.683-.733zM317.432 51.467a.791.791 0 00-.317.219c-.868.84-1.649 1.748-2.488 2.618l-1.781 1.836c-.375.389-.834.7-1.21 1.093-1.161 1.21-2.019 2.914-2.741 4.405-.39.816-.639 1.768-1.078 2.555l-7.459 13.377c-.805 1.569-1.781 2.468-2.927 2.662-1.147.194-2.61-.33-3.181-1.312a2.852 2.852 0 01-.327-1.515c.029-1.865.922-3.594 1.893-5.188l-.108-.073a1.69 1.69 0 01-.312.2l-.097.082c-.106.14-.232.26-.376.36a.293.293 0 01-.029.048c-.834 1.487-1.517 3.08-1.464 4.76-.006.683.206 1.35.605 1.904.316.37.714.66 1.161.85.544.252 1.144.36 1.742.316 3.234-.272 4.654-4.371 5.986-6.751 1.775-3.174 3.545-6.349 5.307-9.525 0-.035 1.274-3.648 3.274-6.194a44.49 44.49 0 013.132-3.234c.975-1.006 2.117-2.036 2.819-3.289.041-.068.087-.132.137-.194a.317.317 0 00-.161-.01z"/><path d="M347.976 45.483l-.522-.82-3.571 2.496c-1.373.8-2.678 1.71-3.903 2.72-.4.277-.785.602-.59.486a55.084 55.084 0 00-7.537 8 773.885 773.885 0 00-3.005 4.162l-2.147 3.036c-.712.996-1.293 2.176-2.098 3.08-.487.568-1.053 1.092-1.609 1.612a67.19 67.19 0 01-3.84 3.298c-1.141.593-2.039.724-2.658.389a2.046 2.046 0 01-.888-1.457 3.344 3.344 0 011.619-2.953l.049-.035c1.737-1.559 4.42-7.043 4.547-7.285.663-1.977 3.449-6.48 5-8.914.32-.365.6-.764.834-1.19.117-.31-.19-1.228-.429-.645-.366.874-1.166 1.588-1.776 2.302l-1.19 1.365-7.61 9.622a91.986 91.986 0 00-.976 1.826l-2.927 5.44-1.312 2.429c-.605 1.127-.937 2.429-1.625 3.507a4.987 4.987 0 01-1.722 1.647 4.223 4.223 0 01-2.366.694 2.741 2.741 0 01-2.083-1.122c-.644-1.025-.195-2.429-.185-2.429.443-1.651 3.039-5.372 3.063-5.41l3.513-10.798-.464-.15L306.1 71.07c-.269.389-2.669 3.862-3.113 5.518 0 .068-.527 1.613.239 2.837a2.927 2.927 0 002.483 1.316 4.517 4.517 0 002.166-.486c1.561-.806 2.615-2.39 3.254-3.959a34.935 34.935 0 011.605-3.19c1.303-2.43 2.522-4.897 3.903-7.287a39.04 39.04 0 013.903-5.24c.683-.826 1.341-1.666 2.005-2.507l1.107-1.399c.181-.233.976-.971.976-1.233l.19-.224c.039.039.073.083.112.126-1.463 2.361-3.083 5.173-3.58 6.66 0 .058-2.732 5.59-4.391 7.11a3.838 3.838 0 00-1.849 3.4 2.526 2.526 0 001.142 1.866c.77.418 1.819.291 3.156-.413a11.874 11.874 0 001.903-1.564c1-.855 1.995-1.73 2.927-2.667a15.294 15.294 0 002.122-2.914c1.034-1.67 2.327-3.162 3.473-4.75l2.439-3.4c.054-.078 4.64-6.213 10.196-10.03l5.508-3.158zM186.203 12.119c-.439-1.554-.391-2.555.146-2.973.712-.554 1.951.146 2.02.175l-.147.253s-1.136-.637-1.693-.2c-.429.336-.443 1.258-.043 2.667l-.283.078zM189.208 9.71a2.59 2.59 0 01-.298 0v-.19c.029 0 2.674.165 3.664-1.37l.166.107c-.849 1.321-2.786 1.453-3.532 1.453zM326.916 26.307c-6.045-1.618-12.084-3.26-18.153-4.77-7.625-1.904-13.333 1.457-17.821 7.116-4.488 5.659-10.186 9.778-16.689 12.784-4.059 1.89-8.069 1.686-12.245-.092-6.932-2.953-13.898-5.907-21.06-8.204-6.381-2.045-10.674-5.435-12.108-12.201-1.59-7.52-5.976-13.533-11.181-18.997a6.135 6.135 0 00-3.02-1.856 5.882 5.882 0 00-2.469.054c-.317.063-.629.14-.941.228-.312.088-.551.092-.825.18-.487.146-.736.549-1.131.826a6.74 6.74 0 01-.8.485c-.869.42-1.792.717-2.742.884a18.62 18.62 0 01-3.43.32h-.434c-.068 0-1.766-.067-2.785 1.05-.595.656-1.054 2.001-.659 2.851 0 0 .19-.35.195-.413v-.626c.013-.607.239-1.19.639-1.647.942-1.034 2.581-.971 2.6-.971 2.254.039 4.684-.16 6.733-1.19a5.759 5.759 0 001.185-.768 1.996 1.996 0 011.029-.631 7.97 7.97 0 012.63.044 7.13 7.13 0 013.283 1.457c.524.426.993.915 1.395 1.457 4.191 5.47 8.059 11.104 9.791 17.972 1.313 5.226 4.064 9.384 9.703 11.341 7.806 2.701 15.392 5.946 23.11 8.85 2 .753 4.132 1.457 6.239 1.584 7.859.427 13.689-4.158 19.421-8.544 2.859-2.186 5.161-5.11 7.679-7.738 5.054-5.27 11.313-5.173 17.757-3.847 5.483 1.132 10.918 2.511 16.523 3.818a6.708 6.708 0 00-1.419-.806zM175.548 76.506c-5.088-4.92-10.864-9.112-16.625-13.28-.327-.237-.654-.485-.976-.723-2.073-1.574-4.03-3.284-6.079-4.891a10.213 10.213 0 01-2.849-3.468c-1.029-2.298-.19-5.6.625-7.85a24.044 24.044 0 013.903-6.659 65.772 65.772 0 014.761-5.484 39.82 39.82 0 012.703-2.516c.424-.355.853-.71 1.297-1.044.161-.122 1.313-1.103 1.464-1.02l-.888-.486a.46.46 0 00-.268-.082.491.491 0 00-.269.16c-4.083 4.065-8.498 7.747-11.171 12.964-.415.801-.839 1.607-1.205 2.428a23.057 23.057 0 00-1.347 3.862c-.385 1.603-.824 3.623-.312 5.265.542 1.739 1.888 3.162 3.254 4.308a64.727 64.727 0 002.039 1.637c1.898 1.457 3.669 3.09 5.542 4.59l15.996 12.838c.166.131.41.272.576.136.166-.136.02-.5-.171-.685zm-14.845-44.905l.634-.408-.634.408zM273.326 54.207l1-.306-1.073.116-.478.243.551-.053z"/><path d="M326.008 77.964c-4.39 5.11-9.522 9.452-15.703 12.303a37.782 37.782 0 01-7.806 2.657c-2.041.39-4.113.6-6.191.631-.487.03-.975.034-1.463.034-7.454-.043-15.045-4.05-20.25-9.228-1.708-1.696-3.279-3.512-5.001-5.198-2.756-2.7-5.366-5.76-8.527-8.019a28.806 28.806 0 00-5.645-3.152 30.677 30.677 0 00-7.976-2.123 35.61 35.61 0 00-8.386-.049c-.342.01-.684.049-1.019.117l-.976.136c-.571.088-1.142.19-1.707.301-.405.078-2.088.71-2.186-.165-.034-.287.439-.549.624-.665.853-.51 1.754-.938 2.688-1.278a16.78 16.78 0 011.635-.636l34.719-9.307.796-.213c-1.562.306 1.044-.306 1.195-.34.927-.195 1.854-.404 2.78-.593.459-.092.922-.18 1.381-.262a4.594 4.594 0 001.293-.253c.395-.199.385-.791.288-1.166a.539.539 0 00-.269-.359 1.708 1.708 0 00-.488-.121c-.829-.146-1.653-.292-2.492-.36s-1.742-.107-2.61-.19a623.819 623.819 0 00-9.986-.8c-4.44-.331-8.904-.414-13.323-.972-4.108-.535-8.089-2.482-11.743-4.372-3.654-1.89-7.283-3.886-10.493-6.402-1.464-1.122-2.717-2.248-3.576-3.885a12.117 12.117 0 01-1.332-4.702 28.845 28.845 0 01.171-3.55 1.85 1.85 0 01.044-.195c.273-1.501.522-3.002.693-4.512.151-.874.19-1.764.117-2.648a5.156 5.156 0 00-1.064-2.312l-1.327-1.787-1.654-2.23-1.683-2.234-1.414-1.9-.844-1.136-.113-.155c-1.541-1.73-2.561-2.38-3.224-2.045a1.374 1.374 0 00-.586 1.098 19.71 19.71 0 00-.239 2.555c.028.836.119 1.669.274 2.491.268 1.725.522 3.459.785 5.188.512 3.4 1.063 6.761 1.839 10.098 1.244 5.372 1.951 10.589-.941 15.582-2.288 3.925-4.825 7.699-7.25 11.54l.254.326c2.21-2.865 4.747-5.547 6.547-8.65 1.917-3.308 3.507-6.733 3.81-10.395.214-1.787.053-4.886-1.791-9.739-.058-.272-.112-.549-.17-.825a197.648 197.648 0 01-.986-5.115c-.211-1.166-.41-2.332-.595-3.497-.19-1.195-.366-2.395-.517-3.6a56.812 56.812 0 01-.327-3.302c-.044-.661-.171-1.322-.2-1.987 0-.345-.078-1.137.312-1.336.191-.092.83-.102 2.625 1.914l.419.568L218.303 9l1.487 2.002 1.63 2.2 1.517 2.045a11.691 11.691 0 011.464 2.157c.414.97.2 1.84.073 2.831-.108.875-.216 1.749-.327 2.623a113.21 113.21 0 01-.488 3.43c-.424 2.535-.268 5.187 1.039 7.46 2.883 5.018 8.733 7.82 13.66 10.448 3.683 1.967 7.561 3.886 11.708 4.77 2.566.539 5.259.549 7.879.733 5.634.389 11.269.782 16.894 1.297.975.088 1.951.175 2.927.272l1.463.156c.249.029.673.038.776.315a.536.536 0 01-.093.52 1.058 1.058 0 01-.459.121c-.297.044-.6.083-.892.141l-2.088.433-2.766.578-3.327.709-3.718.796c-1.349.302-2.697.608-4.044.918l-4.21.972c-1.402.324-2.816.669-4.244 1.034-1.386.35-2.77.706-4.152 1.069-1.301.35-2.602.71-3.902 1.083a69.34 69.34 0 00-3.567 1.069c-1.034.33-2.063.675-3.083 1.044-.605.224-1.21.486-1.81.704-1.263.486-2.439 1.326-3.639 1.943-.932.486-1.361.923-1.312 1.385.092.82 1.01.893 1.668.816 1.02-.122 2.03-.413 3.049-.564.551-.082 1.103-.15 1.659-.214 4.017-.049 8.023.421 11.918 1.4a33.98 33.98 0 0110.674 5.313c.488.335.951.675 1.405 1.04a32.475 32.475 0 013.268 3.03l1.708 1.9a40.82 40.82 0 002.039 2.186c2.81 2.797 5.366 5.702 8.684 7.956a34.818 34.818 0 0011.678 5.173c8.235 1.913 16.446-.238 23.617-4.416 9.269-5.391 15.669-13.6 20.762-22.916-2.946 3.672-5.751 7.45-8.82 11.002zM411.415 67.793c-2.493-10.73-9.074-18.55-18.002-24.097a85.2 85.2 0 00-8.693-4.654c-2.99-1.413-6.03-2.73-9.059-4.07-1.513-.67-3.049-1.287-4.532-2.03-.976-.486-1.893-1.035-2.835-1.564l-5.366-3.007-4.488-2.516c-.215-.121-.449-.228-.654-.364a52.635 52.635 0 01-1.351-.938 16.378 16.378 0 00-5.415-2.608 13.45 13.45 0 00-5.805-.16c-.635.121-1.274.315-1.918.432-.644.117-1.327.102-1.985.19-.726.093-1.442.255-2.137.485a5 5 0 00-2.224 1.34c-.43.486-.898 1.264-.732 1.944.205.84 1.2.835 1.858 1.117.659.282 1.405.617 2.103.942 2.024.92 3.98 1.982 5.854 3.177 1.43.937 3.21 2.117 3.903 3.76.332.81 0 1.733.024 2.574.025.84.108 1.797.152 2.695h.092c0-.228.039-.456.078-.694.016-.07.037-.138.064-.204.029-.214.092-.422.185-.617l-.097-2.103c1.087-2.614-2.601-4.858-4.391-5.98-.542-.534-1.464-.913-2.147-1.282a47.438 47.438 0 00-2.302-1.21 55.469 55.469 0 00-2.63-1.209c-.551-.243-1.81-.485-2.195-.971-.283-.36.312-1.331.546-1.593 1.283-1.458 3.318-1.458 5.064-1.817a28.668 28.668 0 013.2-.622 16.292 16.292 0 013.079.025c1.653.174 3.246.713 4.664 1.578 1.449.821 2.85 1.724 4.195 2.706a28.421 28.421 0 004.049 2.676c.424.228.864.432 1.283.675l4.005 2.351a35.806 35.806 0 003.259 1.768c1.161.534 2.376.971 3.571 1.433 1.605.627 3.171 1.345 4.742 2.045l3.098 1.394a88.775 88.775 0 018.878 4.478c.42.248.83.554 1.264.773 10.186 6.435 17.221 15.431 18.538 27.9.405 3.842-.654 7.45-4.259 9.325-3.244 1.686-6.83 2.813-10.342 3.886-.859.258-1.917.32-2.635-.31a3.047 3.047 0 01-.819-1.944c-.386-2.428-1.356-4.896-2.293-7.164-.878-2.127-2.112-4.104-4.054-5.43-1.942-1.326-3.8-2.691-5.747-3.959-4.185-2.72-8.074-5.518-10.693-10.118-1.883-3.317-5.01-6.037-7.942-8.616a11.864 11.864 0 00-3.064-1.9 8.78 8.78 0 00-1.615-.592 14.859 14.859 0 01-1.917-.364c0 .189 0 .267.083.291 6.732 2.574 11.284 7.529 14.85 13.532.454.763.488 1.783 1.039 2.473 1.439 1.88 3.015 3.657 4.566 5.454 2.039 2.36 4.103 4.702 6.157 7.053l-6.064-8.32c.273.378 1.146.699 1.551.942l1.615.971a67.166 67.166 0 013.137 2.04 24.138 24.138 0 015.366 4.858 15.345 15.345 0 012.342 4.24c.273.771.472 1.567.595 2.375.161 1.079.127 2.25.419 3.327.318 1.166 1.127 2.147 1.244 3.376.381 4.012.732 8.024 1.01 12.041.425 6.184.259 12.459 1.288 18.54 1.171 6.912 3.317 13.673 5.166 20.464.942 3.453 2.162 6.834 3.259 10.249-1.502-7.063-3.464-13.97-5.073-20.964-1.522-6.64-3.415-13.217-3.415-20.148 0-7.13-.342-14.26-.537-21.372 2.005-.291 4.391-.563 6.727-.996 9.572-1.753 13.436-8.043 11.265-17.388z"/><path d="M395.672 140.559l-4.44-14.892c.039-.972.078-1.904.098-2.861-.015-.426-.005-.853.029-1.278.254-1.811-.185-3.633-.488-5.435a88.498 88.498 0 00-.717-4.187c-1.171-6.314-3.068-14.445-5.62-18.487a10.23 10.23 0 00-.702-.971l-.849-1.185v.058a72.292 72.292 0 00-9.932-14.518c-5.713-6.48-12.46-11.293-21.046-13.037-3.415-.69-6.942-.777-10.42-1.142l-.117.748c12.518-.422 22.533 4.795 30.622 13.82 7.093 7.907 11.996 17.107 15.22 27.239 1.952 6.071 3.415 12.143 3.137 18.72l-5.63-19.055a.71.71 0 01-.117-.122l.103.131c-.142-.179-.293-.354-.444-.529l-.176-.214-.088.029 6.181 20.755a75.839 75.839 0 00-.644 3.498s-.907 3.642-.668 5.721c0 .156.039.297.054.433.039.544.097 1.078.185 1.593v.039a13.03 13.03 0 003.683 7.286s1.464 1.564 2.239 1.821a.59.59 0 00.191.029l-.059-.063a.85.85 0 00.146.053.504.504 0 00.425-.038c.732-.404.146-2.9-.156-3.959zm-.117 3.468h-.039c-.683.228-1.381-1.263-1.703-1.666a17.649 17.649 0 01-1.546-2.259 24.284 24.284 0 01-2.147-4.954 11.76 11.76 0 01-.371-5.426c.074-.496.286-.961.61-1.345.229-.267.488-.787.83-.913.341-.126 1.356 4.371 1.463 4.706.569 1.924 1.142 3.844 1.717 5.761.273.918.566 1.836.82 2.759.177.629.316 1.268.414 1.914.102.339.161.69.176 1.044a.484.484 0 01-.224.379zM46.92 101.133c1.004-2.002 2.511-4.445 2.511-5.83 0-1.383-1.253-2-3.96-2a14.6 14.6 0 00-8.05 2.564.865.865 0 00-.376.69c0 .486.688 1.005 1.254 1.19 1.64.753 1.825 2.07 1.825 3.76-.376 7.013-.566 14.149-.752 21.226 0 2.88.63 5.887.63 8.83 0 1.564-.757 2.317-1.952 2.317-2.015 0-2.439-2.317-2.58-4.133-.376-4.819-.63-9.642-.63-14.465 0-2.818.19-5.572.19-8.394 0-2.249-.126-8.825-1.068-8.825-2.015 0-11.22 8.14-13.147 9.229-.064.063-.064.063-.122.063a.753.753 0 01-.693-.753c0-.69 1.698-2.628 2.264-3.133 4.278-4.192 9.269-7.262 14.635-9.768 2.517-1.127 5.093-2.127 8.113-2.127 2.575 0 6.098 1.457 6.098 4.507 0 2.132-1.635 4.197-4.147 5.008l-.044.044z"/><path d="M68.799 123.869a10.187 10.187 0 01-.62 2.429c-.615 1.943-3.81 10.885-7.196 10.885-3.078 0-4.502-4.333-4.502-7.164a12.93 12.93 0 01.307-2.687c.385-1.991.62-4.021.927-6.013v-.077a3.246 3.246 0 00-.234-.88c-.395.059-.78.161-1.152.306a7.865 7.865 0 00-2.81 2.915c-.81 1.612-2.156 5.173-3.117 5.173.156 0-2.44.233-3.732-7.699-.195-2.336-.888-4.561-.888-6.936.01-1.723.173-3.441.488-5.134.463-2.643 2.44-5.635 4.81-5.635 1.58 0 2.732 1.307 2.732 3.221 0 .306-.039.612-.039.767v.641c0 2.681-.883 4.94-1.883 7.165a16.932 16.932 0 01-1.615 3.181 4.583 4.583 0 00-.975 2.832 5.841 5.841 0 001.62 4.216 2.92 2.92 0 00.614-.767c1.23-2.565 3.81-5.343 6.386-5.343 2.195 0 3.195.806 3.195 2.185a23.937 23.937 0 01-.576 4.328c-.424 2.031-1.234 4.406-1.234 6.315 0 1.418.615 3.949 1.693 3.949 2.346 0 6.044-8.928 6.542-9.924.117-.306.849-2.72 1.039-2.681.19.039.22.204.22.432zm-19.973-5.858c.615 0 1.576-2.428 2.19-3.565 1.274-2.336 1.654-4.906 1.772-7.509 0-1.151-.488-2.681-1.464-2.681-.325.01-.637.132-.883.345-1.654 1.34-2.307 3.448-2.307 5.668 0 .573.039 1.151.039 1.763 0 .384 0 .806-.04 1.19.074 1.263.152 2.793.269 4.289.039.185.268.5.424.5z"/><path d="M78.8 124.559c-1.079 2.186-5.367 6.63-7.66 6.63-2.439 0-4.268-2.492-4.268-6.513.19-2.565 1.273-8.437 6.151-8.437 1.04 0 2.732 1.034 2.732 2.72 0 1.262-3.04 3.944-5.312 4.483-1.386.345-1.269 1.457-1.269 2.564 0 1.802.307 4.217 2.078 4.217 2.693 0 6.196-5.018 6.83-5.941.488-.524 1.103-.524.717.277zm-8.43-2.681c0 .194.038.306.273.306a.282.282 0 00.19-.039c1.502-.612 3.77-2.259 3.77-3.371 0-.84-.487-1.418-1.19-1.418a1.415 1.415 0 00-.975.485c-.878 1.011-2.069 2.813-2.069 4.037zM125.428 123.228c0-.141 0-.282.024-.422a.915.915 0 01.361-.676c0-.097 0-.194.024-.291a.902.902 0 01.386-.641 1.455 1.455 0 00-1.073-.588c-.591 0-.942-.058-.942.646 0 .233 0 .35.059.408.509.419.908.956 1.161 1.564zM125.603 126.526a19.956 19.956 0 01-.127-1.083c-1.195 4.882-9.708 6.198-15.235 6.198-3.532 0-4.654-.296-4.654-1.996v-.588c.707-6.8 1.239-13.668 1.829-20.532h-.122c.298-4.4.829-9.034.829-13.26 0-1.583-1.463-2.992-2.829-2.992-.883 0-1.649.646-1.707 1.88-.591 11.03-1.357 21.998-2.928 32.733-.047.37-.066.744-.058 1.117 0 4.104 3.473 5.163 8.069 5.163 6.03 0 14.24-.403 17.469-4.405a12.522 12.522 0 01-.536-2.235z"/><path d="M135.999 124.01c-2.503 2.492-5.928 6.703-8.294 6.703-2.366 0-3.697-3.677-3.697-6.358 0-.267-.074-6.246 1.273-6.246 1.346 0 1.81 1.379 1.81 2.185 0 2.07-.488 4.289-.488 6.359 0 1.802.346 2.914 1.307 2.914 1.039 0 2.927-1.802 4.157-2.876 1.078-.971 3-3.064 3.541-3.064.113 0 .23.116.347.194.044-.024.044.087.044.189zm-9.928-10.763a.564.564 0 01.176-.468.575.575 0 01.478-.149c.693 0 1.073 1.073 1.073 1.573 0 .501-.268.841-.922 1.186-.19-.073-.424-.112-.459-.229a9.958 9.958 0 01-.346-1.938v.025z"/><path d="M134.301 117.395c-.844-.073-1.693.038-2.463-.073-1.152-.156-2.152-.578-2.654-1.725a.71.71 0 01.039-.728.716.716 0 01.732-.078c1.268.996 4.346.768 5.81.534 1.575-.228 1.463-7.737 1.615-9.306.151-1.569.307-3.104.541-4.639.151-.651.537-1.185 1.151-.995 2.313.845 2.039 1.301 2.079 1.879-.074 1.035-.386 2.031-.459 3.026-.078.729-1.771 9.579-.976 9.385 1.844-.418 4.923-.418 6.772-.972.692-.189 1.614-7.893 1.77-8.66.126-1.453.331-2.898.615-4.328.19-1.035.693-1.686 1.883-.806 1.542 1.151 1.581 1.379 1.312 2.758-.346 1.764-1.809 9.715-1.156 10.502.386.456 1.576.384 2.581.228 1.268-.078 4.844-.306 4.693.384a1.484 1.484 0 01-.307.651c-.078.039-.464-.039-.488-.156-2.961-.111-4.923.923-6.889 1.035-.268 0-.073.155-.151.617-.234 3.521-2.234 13.522 1.732 13.639 2.19.078 5.196-3.527 7.347-5.863.541-.728 1.307-1.943 2-1.34.385.344-1 1.607-1.463 2.375-1.771 2.492-5.425 6.013-7.469 6.013-4.152 0-4.845-4.483-5.157-5.246-.229-.461-.536-.486-.727-.078-1.312 2.721-3.234 11.726-7.351 11.876-3.235.039-4.157-5.44-4.079-10.763 0-.578.308-5.863.386-7.932.044-1.059-.103-1.214-1.269-1.214zm12.162 4.75c.078-.189.117.039.078-.189-.346-2.429.308-6.475-.156-6.475-1.864.076-3.72.293-5.552.651-1.614.345-1.424.728-1.614 2.258-.23 3.07-3.235 17.282.229 17.511 3.088.155 5.82-9.579 7.015-13.756z"/><path d="M172.543 125.404c-2.112 1.992-4.391 4.751-6.771 4.751a5.981 5.981 0 01-2.893-.72 5.948 5.948 0 01-2.181-2.025 15.123 15.123 0 01-2.302-7.83 22.153 22.153 0 012.497-9.714c1.581-3.026 3.581-8.311 8.123-8.311 1.805 0 2.654 1.185 2.654 3.4a12.434 12.434 0 01-2.157 6.281 61.645 61.645 0 01-3.771 4.944c-1.346 1.492-2.385 3.216-4.117 4.328a1.062 1.062 0 00-.424.729c0 2.681.658 7.509 4.234 7.509.262.003.522-.037.771-.117 2.81-.84 4.878-3.026 6.966-4.978.878-.544-.083 1.253-.629 1.753zm-11.006-7.392c.023.263.089.52.195.762.152-.112.425-.15.576-.267 3.581-3.755 8.293-8.772 8.293-13.639 0-.972 0-2.429-1.19-2.429s-2.62 1.302-3.117 2.259c-2.005 4.026-3.903 8.165-4.698 12.629a3.739 3.739 0 00-.054.685h-.005z"/><path d="M182.978 124.559c-1.078 2.186-5.366 6.63-7.659 6.63-2.439 0-4.269-2.492-4.269-6.513.191-2.565 1.269-8.428 6.157-8.428 1.039 0 2.732 1.035 2.732 2.72 0 1.263-3.039 3.944-5.313 4.484-1.385.344-1.268 1.457-1.268 2.564 0 1.802.307 4.216 2.078 4.216 2.693 0 6.196-5.017 6.83-5.94.478-.534 1.097-.534.712.267zm-8.43-2.681c0 .194.039.306.273.306a.285.285 0 00.191-.039c1.502-.612 3.771-2.259 3.771-3.371 0-.84-.488-1.418-1.191-1.418a1.416 1.416 0 00-.975.485c-.874 1.011-2.069 2.813-2.069 4.037zM232.806 105.067c-.561 0-1.307.126-1.307-.802 0-2.171 1.951-4.648 1.951-7.067 0-1.112.059-3.094-1.122-3.094a3.297 3.297 0 00-1.951.928c-5.727 4.954-10.518 10.593-13.567 17.534a1.423 1.423 0 00-.127.68c0 1.054 1.244 1.054 2.615 1.424 6.532 1.943 5.664 12.891 5.786 18.715 0 1.67.439 5.634 2.054 5.634 2.863 0 6.161-9.715 6.659-10.657.375-.801.873-1.112 1.18-1.112.191 0 .376.184.376.486a3.118 3.118 0 01-.312 1.117c-1.805 4.085-4.108 12.327-7.967 12.327-2.737 0-5.908-3.885-6.469-6.941-.975-4.148-1.307-8.301-1.951-12.39-.307-2.045-1.054-5.018-2.986-5.018-1.678 0-4.166 10.035-4.478 14.251-.063 1.176-.185 3.036-1.493 3.036h-.063c-3.415-1.676-5.537-4.09-6.225-7.932a135.934 135.934 0 01-1.966-24.033 25.358 25.358 0 00-.868-7.437c0-.063-.064-.063-.064-.121 0-.374.488-.743.976-.743a.607.607 0 01.312.058c3.732 1.428 5.103 3.4 5.225 7.621.185 6.382.561 12.701.81 19.084a12.291 12.291 0 00.375 3.036c.435 1.423-.063 3.22 1.552 4.211.531-1.316.988-2.66 1.371-4.027 2.736-10.778 8.293-20.075 15.869-28.313 1.493-1.612 3.361-3.4 5.366-3.4 3.049 0 3.669 2.915 4.357 6.072-.556 2.501-1.054 6.873-3.918 6.873z"/><path d="M258.145 124.292c-.039.612-.488 1.073-.805 1.535-1.81 2.72-3.698 5.401-5.581 8.043-1.117 1.574-2.659 2.57-4.196 2.57-3.195 0-4.581-3.643-4.581-6.669.078-1.925.349-3.837.81-5.707 0-.078-.346-.268-.424-.268-.459 0-1.425.996-1.693 1.263-1.771 1.841-3.576 4.751-5.693 4.751-2.117 0-3.005-1.419-3.005-3.216a6.45 6.45 0 01.541-2.686c1.615-3.332 4.771-8.349 8.04-8.349 1.503 0 3.117 1.568 3.117 3.026 0 .534-.19 1.646-.766 1.646-.234 0-.541-.485-.541-.573 0-.233.039-.486.039-.728 0-.996-.537-2.186-1.922-2.186-2.439 0-6.391 5.828-6.391 8.966 0 .462.195 2.57.888 2.57.883 0 1.346-.845 1.922-1.346 2-1.797 3.849-3.716 5.81-5.552a2.575 2.575 0 011.771-.728c1.693 0 3 1.302 3 2.375a4.541 4.541 0 01-.19 1.146c-.654 2.38-1.732 4.794-1.732 7.17 0 1.034.347 2.948 1.386 2.948 1.307 0 2.927-1.841 3.654-2.914 1.888-2.725 5.195-7.971 6.044-7.971a.36.36 0 01.307.228c.11.203.175.426.191.656z"/><path d="M271.609 124.753c-2.039 2.565-5.654 7.816-8.962 7.816-4.464 0-6.044-7.354-6.044-11.531 0-.729.156-1.419.156-1.88 0-2.181-3.62-.996-3.62-2.375a.565.565 0 01.308-.457c3.351-.767 3.502.189 3.902-2.186.425-2.914.922-5.862 1.347-8.811.229-1.535.463-3.682 1.463-3.682 1.537 0 2.503 1.841 2.503 2.915-.007.27-.033.54-.078.806-.308 1.457-.425 2.948-.654 4.406-.424 0-.849 4.138-.849 4.939 0 .612.308.768 1.078.807 1.922.077 3.849.15 5.733.267.195 0 .346.306.541.461a1.435 1.435 0 01-1.273.457h-1.576a12.148 12.148 0 00-2.386.155c-2.541.306-2.653.306-2.927 2.876a52.735 52.735 0 00-.268 5.974c0 1.457.078 5.708 2.659 5.708.976 0 2.078-.729 2.766-1.38 2.312-2.259 3.156-3.4 5.43-5.668.483-.651.907.126.751.383z"/><path d="M294.889 124.292c-.039.612-.488 1.073-.805 1.535-1.81 2.72-3.698 5.401-5.581 8.043-1.117 1.574-2.654 2.57-4.195 2.57-3.196 0-4.581-3.643-4.581-6.669.077-1.925.349-3.837.81-5.707 0-.078-.347-.268-.425-.268-.458 0-1.424.996-1.693 1.263-1.77 1.841-3.575 4.751-5.693 4.751-2.117 0-3-1.419-3-3.216a6.431 6.431 0 01.537-2.686c1.614-3.332 4.771-8.349 8.044-8.349 1.498 0 3.118 1.568 3.118 3.026 0 .534-.196 1.646-.771 1.646-.234 0-.542-.485-.542-.573 0-.233.039-.486.039-.728 0-.996-.536-2.186-1.922-2.186-2.439 0-6.391 5.828-6.391 8.966 0 .462.196 2.57.888 2.57.883 0 1.347-.845 1.922-1.346 2.001-1.797 3.849-3.716 5.811-5.552a2.572 2.572 0 011.77-.728c1.693 0 3.001 1.302 3.001 2.375a4.33 4.33 0 01-.191 1.146c-.653 2.38-1.731 4.794-1.731 7.17 0 1.034.346 2.948 1.385 2.948 1.307 0 2.927-1.841 3.654-2.914 1.888-2.725 5.196-7.971 6.044-7.971.068.006.132.03.186.071.055.04.097.095.122.157.112.202.177.426.19.656z"/><path d="M305.777 132.797a2.388 2.388 0 01-2 1.035c-3.117 0-5.366-3.716-5.366-6.281 0-1.943 1.307-5.061 2-7.286a3.49 3.49 0 00.112-.767c0-.573-1.073-1.185-2.439-1.224-1.366-.039-2.151 4.94-4.078 6.8-.191.15-.844-.078-.654-.462 1.425-1.913 2.81-5.056 2.81-5.974 0-.461-.268-.617-1.117-1.151-1.151-.69-1.732-1.647-1.732-2.642 0-1.152.976-2.682 2.117-2.682a1.704 1.704 0 011.464.918c1.346 2.429-.542 3.716 2.307 4.178 1.542.267 4.425.612 4.425 2.642a1.45 1.45 0 01-.078.573c-.488 1.802-.883 3.677-1.498 5.401a8.092 8.092 0 00-.488 2.759c0 1.943.732 3.886 1.952 3.886 1.732 0 8.347-9.117 8.234-9.117.247.09.471.235.654.423.034.699-5.083 6.941-6.625 8.971zm-9.195-17.238c-.079-.345-.347-2.186-.923-2.186-.575 0-.926 1.112-.926 1.724a1.482 1.482 0 00.342 1.115 1.5 1.5 0 001.043.532c.117 0 .268-.384.385-.612.054-.187.081-.38.079-.573z"/><path d="M321.744 124.01c-2.502 2.492-5.927 6.703-8.293 6.703-2.366 0-3.693-3.677-3.693-6.358 0-.267-.078-6.246 1.269-6.246 1.346 0 1.809 1.379 1.809 2.185 0 2.07-.487 4.289-.487 6.358 0 1.802.346 2.915 1.307 2.915 1.039 0 2.927-1.802 4.156-2.876 1.079-.971 3.001-3.065 3.537-3.065.117 0 .234.117.347.195.048-.025.048.087.048.189zm-9.927-10.764a.57.57 0 01.398-.595.584.584 0 01.256-.021c.692 0 1.078 1.073 1.078 1.573 0 .501-.269.841-.922 1.186-.195-.073-.425-.112-.464-.229a10.43 10.43 0 01-.346-1.938v.024z"/><path d="M345.332 123.869c.039.117.117.156.156.156.039 0 .151-.039.229-.039.078 0 .156.039.234.189-.117.117-1.195 1.88-1.351 2.108-1.42 2.264-2.732 4.678-4.113 6.937-1.38 2.258-1.848 3.332-3.414 3.332-3.962 0-4.079-4.556-4.079-7.699 0-2.876.693-5.669 1.234-8.505.186-.635.315-1.285.386-1.943 0-.534-.195-1.035-.732-1.035-1.693 0-3.771 2.609-4.771 4.027-1.62 2.336-3.386 4.712-3.903 7.621-.156.806-.541 1.88-1.732 1.88-1.887 0-3.273-5.707-3.463-8.811-.19-1.943-.229-3.91-.922-5.785a.289.289 0 01-.039-.195.82.82 0 01.189-.622.848.848 0 01.582-.296c.253.006.503.071.726.19 1.771.923 2.849 2.302 2.927 4.405.149 2.04.412 4.071.786 6.082.05.171.143.328.268.456 1.386-1.875 2.503-4.022 3.732-6.013 1.23-1.991 3.654-4.294 5.62-4.294 2.269 0 2.805 2.375 2.805 4.945 0 1.263-.112 2.53-.19 3.886-.268 1.875-.805 4.327-.805 6.28 0 1.229 0 3.604 1.268 3.604.459 0 1.615-.884 2.04-1.496 1.844-2.72 3.693-5.479 5.424-8.257.325-.351.628-.721.908-1.108z"/><path d="M368.806 124.292c-.039.612-.487 1.073-.809 1.535-1.81 2.72-3.693 5.401-5.581 8.043-1.117 1.574-2.654 2.57-4.196 2.57-3.19 0-4.576-3.643-4.576-6.669a28.69 28.69 0 01.805-5.707c0-.078-.346-.268-.419-.268-.464 0-1.425.996-1.693 1.263-1.771 1.841-3.581 4.751-5.698 4.751-2.117 0-3-1.419-3-3.216a6.446 6.446 0 01.536-2.686c1.62-3.332 4.771-8.349 8.045-8.349 1.497 0 3.117 1.568 3.117 3.026 0 .534-.195 1.646-.771 1.646-.229 0-.536-.485-.536-.573 0-.233.034-.486.034-.728 0-.996-.537-2.186-1.922-2.186-2.439 0-6.386 5.828-6.386 8.966 0 .462.19 2.57.883 2.57.883 0 1.346-.845 1.951-1.346 2-1.797 3.844-3.716 5.81-5.552a2.561 2.561 0 011.766-.728c1.693 0 3.006 1.302 3.006 2.375a4.37 4.37 0 01-.196 1.146c-.653 2.38-1.731 4.794-1.731 7.17 0 1.034.346 2.948 1.385 2.948 1.307 0 2.927-1.841 3.659-2.914 1.883-2.725 5.19-7.971 6.039-7.971a.36.36 0 01.308.228c.105.203.163.427.17.656z"/></g><defs><clipPath id="clip0"><path fill="#fff" transform="translate(20)" d="M0 0h392v156H0z"/></clipPath><filter id="filter0_d" x="0" y="0" width="432" height="196" filterUnits="userSpaceOnUse" color-interpolation-filters="sRGB"><feFlood flood-opacity="0" result="BackgroundImageFix"/><feColorMatrix in="SourceAlpha" values="0 0 0 0 0 0 0 0 0 0 0 0 0 0 0 0 0 0 127 0"/><feOffset dy="20"/><feGaussianBlur stdDeviation="10"/><feColorMatrix values="0 0 0 0 0 0 0 0 0 0 0 0 0 0 0 0 0 0 0.1 0"/><feBlend in2="BackgroundImageFix" result="effect1_dropShadow"/><feBlend in="SourceGraphic" in2="effect1_dropShadow" result="shape"/></filter></defs></svg>