<svg width="230" height="86" fill="none" xmlns="http://www.w3.org/2000/svg"><path fill-rule="evenodd" clip-rule="evenodd" d="M95.852 54.56l1.691 1.476a.19.19 0 010-.054c.054.125.072.285.16.356.454.402.852.862 1.185 1.368a23.2 23.2 0 012.75 4.78c.436 1.022 2.198 4.257 1.575 5.332a3.503 3.503 0 01-.578.835c-5.803 5.216-12.461 4.443-19.502 3.306-.997-.16-1.994-.24-2.99-.365-1.968-.24-4.14-.15-5.973-.95-.962-.427-1.433-1.858-2.377-2.178-1.104-.364-2.154.711-3.204 1.218a40.631 40.631 0 01-10.05 3.048c-1.349.209-2.724.19-4.067-.054a17.93 17.93 0 00-7.37.436 25.669 25.669 0 01-12.212.328c-2.563-.55-5.768-1.554-8.349-.728-.436.142-.89.258-1.308.426-.419.17-.766.4-1.158.596-5.536 2.799-11.01 5.926-16.333 9.107-1.45.889-3.08 2.986-4.85 3.155a2.46 2.46 0 01-2.288-1.324c-1.024-1.395-.721-1.733.72-2.55 6.062-3.466 12.097-7.206 18.452-10.272l2.929-1.395c.276-.133.56-.231.89-.373a2.596 2.596 0 01-1.006-2.044c-.053-1.777 1.38-3.856 2.038-5.456a36.733 36.733 0 013.33-6.957c.427-.631.89-1.253 1.361-1.857.151-.205.16-.32 0-.498-3.56-3.145-6.569-7.74-8.696-11.942-1.353-2.666-2.626-5.624-2.786-8.654-.16-3.03 2.003-3.555 4.068-5.172 1.842-1.404 3.676-2.808 5.572-4.14 4.503-3.173 9.497-6.132 14.935-7.322a32.145 32.145 0 013.56-.453c2.618-.285 2.529-2.337 3.73-4.292a23.337 23.337 0 013.56-4.31c3.56-3.412 9.222-8.485 14.642-6.566.65.23 1.291.497 1.94.729a8.904 8.904 0 012.021 1.261c.63.454 1.224.953 1.78 1.493a15.286 15.286 0 012.51 3.092 20.605 20.605 0 012.261 4.887c.33 1.093.481 2.586 1.362 3.403 1.042.969 3.062 1.236 4.37 1.778.66.32 1.289.701 1.879 1.137a84.457 84.457 0 012.448 1.653c.81.568 1.424.986 2.1 1.52 1.246.985 2.492 1.98 3.694 3.02.766.667 1.478 1.404 2.19 2.133 2.42 2.452 5.118 4.851 6.729 7.997 1.967 3.776 1.05 7.268-.935 10.804a11.122 11.122 0 01-2.332 3.137c-.56.48-1.006 1.102-1.53 1.635-.713.71-1.443 1.404-2.164 2.106a.231.231 0 00-.08.187c.356-.143.721-.276 1.077-.427 1.13-.48 2.279-.889 3.391-1.44.828-.373 1.62-.817 2.448-1.199.445-.213.89-.355 1.398-.542 1.13-.444 2.234-.95 3.391-1.324a28.987 28.987 0 013.151-.755.677.677 0 00.623-.64c.391-2.39.774-4.78 1.184-7.17 1.112-6.514 2.189-13.213 6.96-18.172a47.84 47.84 0 019.382-7.419c1.184-.737 2.43-1.457 3.56-2.248.677-.462 1.041-1.35 1.727-1.777 1.157-.72.694-.267 1.735.284.257.202.443.478.535.791.792 1.91.507 3.785.943 5.758.436 1.972 1.593 3.874 2.323 5.802.365.969.561 2 .89 3.075a8.61 8.61 0 011.068 0c7.121.888 13.61 4.878 18.79 9.774a15.397 15.397 0 002.395 1.714c1.717 1.093-.677 3.306-1.264 4.541-1.344 2.781-1.674 6.042-3.178 8.726-.14.287-.259.584-.356.888.596-.142 1.13-.222 1.647-.382 3.48-1.12 6.871-2.39 10.547-2.781 3.463-.364 6.329 1.688 9.097 3.43.285.169.587.32.837.453.409-.36.846-.687 1.308-.977 6.533-3.466 11.936.888 14.526 6.726l1.344.195c.187 0 .312 0 .365-.23a5.954 5.954 0 011.843-2.968 5.475 5.475 0 012.43-1.298 12.114 12.114 0 018.429 1.235c1.664.889 5.412 2.79 5.99 4.736a3.155 3.155 0 010 2.248 3.25 3.25 0 01-1.264 1.431c-.738.515-1.54.95-2.296 1.44-.552.355-1.068.746-1.602 1.12l3.889 2.887 1.202-.889c3.044-2.239 7.37 1.289 9.15 3.555 1.095 1.412 5.999 11.942 1.104 11.462a24.776 24.776 0 01-10.272-3.217 8.066 8.066 0 01-3.56-3.66c-.739-1.893.765-3.706.311-5.385-.151-.578-.587-.978-.738-1.528 0-.151-.285-.267-.454-.365a21.902 21.902 0 01-2.671-1.866c-.587-.435-2.43-.089-3.133-.124a13.304 13.304 0 01-3.133-.489c-2.457-.764-5.34-3.554-5.456-6.29 0-.063-.134-.16-.223-.179a27.47 27.47 0 00-.738-.115c.16.71.32 1.386.462 2.053.115.43.204.865.267 1.306.063.595.054 1.19.089 1.777a5.434 5.434 0 01-.738 2.665c-.089.178-.205.347-.312.516a1.366 1.366 0 01-1.023.71c-.891.152-1.825.338-2.751.472-.954.099-1.917.078-2.866-.063-3.498-.364-9.435-1.857-11.277-5.215a11.106 11.106 0 01-.988-3.768c-.267-1.884 1.353-4.167-1.3-4.567l-3.925-.551a1.977 1.977 0 00-.241 0c1.086 1.333 2.261 2.257 3.027 3.892a23.162 23.162 0 011.851 6.22 3.66 3.66 0 01-.48 2.666 2.767 2.767 0 01-.793.56h-.106c-1.282.941-3.677.888-5.216 1.181-2.137.426-4.326.889-6.48.329-2.84-.747-5.198-2.764-7.237-4.798a7.707 7.707 0 01-1.415-2.48 10.749 10.749 0 01-.579-4.967c.064-.503.162-1.002.294-1.492.008-.17-.006-.34-.044-.507-1.184.684-2.261 1.342-3.374 1.928a7.016 7.016 0 01-1.433.427l-1.477.382 1.78 1.306c-.134.24-.401.276-.712.302-.739.071-1.46.187-2.217.294.241.55.454.995.632 1.448.369 1.004.602 2.053.695 3.119.044.506-.187.764-.837.977a11.723 11.723 0 01-3.249.409c-.374 0-.748.062-1.121 0a76.013 76.013 0 01-2.831-.231 21.398 21.398 0 01-4.673-.978c-1.299-.426-3.053-1.661-4.29-1.679.374.524.774 1.04 1.148 1.573a1.394 1.394 0 01-.222 1.137c-.098.089-.178.187-.276.267-.33.275-.659.097-.97 0-.561-.187-1.122-.4-1.709-.613a39.879 39.879 0 01-6.142 5.909 2.81 2.81 0 01-.49-.48c-1.361-2.15-2.964-4.15-4.121-6.425-1.014-1.981-1.068-4.682-2.456-6.406-.766-.969-1.7-1.875-2.519-2.817-1.095-1.27-2.128-2.719-3.854-3.11-2.128-.497-4.602.48-6.703.782-1.346.249-2.67.602-3.96 1.057-1.274.418-2.529.818-3.784 1.236zm-26.81-6.22c.134-.204.25-.4.384-.595.471-.684.507-1.2.106-1.714-.195.737-.4 1.466-.596 2.203 0 0 .08.062.125.089.018.124.018.25 0 .373-.276.551-.579 1.102-.89 1.653a.632.632 0 000 .23l.15.08c.58-.79 1.167-1.58 1.781-2.38.24-.33.107-.64-.062-1.022-.187.266-.32.488-.48.693a4.311 4.311 0 01-.517.373v.018zm-.124-3.42a1.278 1.278 0 00-.187-1.218 7.739 7.739 0 00-.765 2.293c.4-.071.16-.79.685-.569l.276-.515c-.024.261-.072.52-.142.773-.25.729-.534 1.44-.792 2.16a5.633 5.633 0 00-.365 1.048c-.008.298.02.596.08.888.272-.311.492-.666.65-1.048.347-.889.623-1.857.97-2.773a1.1 1.1 0 00-.125-.96c-.036-.07-.187-.061-.285-.097v.018zM205.04 56.595a9.706 9.706 0 00-2.67-.568 1.036 1.036 0 00-1.122.568 6.649 6.649 0 00-.4.978 7.03 7.03 0 013.239.266c.993.357 1.926.86 2.769 1.493-.072.045-.134.062-.178 0-.757-.409-1.514-.835-2.279-1.244a.696.696 0 00-.374 0c-.098 0-.178.08-.276.098-.694.089-1.388.16-2.083.275a5.452 5.452 0 00-.845.267c.094.248.166.503.213.764 0 .285.17.32.401.285.418-.063.837-.125 1.255-.16.952-.072 1.896-.125 2.839-.178.095.008.188.029.276.062v.142a11.66 11.66 0 00-4.45.649c.089.142.187.279.294.409.229.187.446.389.649.604a.645.645 0 00.766.204l4.032-.96h.098l.044.125c-.667.293-1.406.364-2.091.613-.686.249-1.353.453-2.101.702.254.22.525.418.81.595.365.196.712.462 1.175.178.463-.284 1.193-.613 1.78-.889a3.132 3.132 0 001.264-.888c0-.053.151 0 .24-.071a.594.594 0 01-.204.337c-.321.24-.65.471-.979.694l-1.433 1.048a.613.613 0 00-.152.151c.062 0 .134.098.196.098h1.291a2.858 2.858 0 001.664-.515c.668-.383 1.3-.818 1.958-1.218.112-.062.228-.116.347-.16v.08l-2.109 1.475.053.133c.205 0 .419-.053.632-.097.214-.045.463-.17.703-.231.561-.143 1.131-.258 1.683-.418 1.13-.329 2.243-.737 3.391-1.004a.961.961 0 00.721-.595c.052-.128.082-.263.089-.4a1.88 1.88 0 00-.427-1.626 78.104 78.104 0 00-2.555-2.302 9.172 9.172 0 00-2.857-1.777c-1.211-.435-2.448-.808-3.685-1.181a6.348 6.348 0 00-1.015-.151c.005.029.005.059 0 .088l3.16 2.177a.349.349 0 01-.062.098 2.219 2.219 0 01-.419-.187 15.88 15.88 0 00-2.803-1.714 4.017 4.017 0 00-.757-.258 10.054 10.054 0 00-1.255-.142c-.107 0-.231.089-.383.15l1.834.89c.607.26 1.148.65 1.584 1.145-.222-.088-.418-.23-.632-.32-.489-.213-.89-.701-1.54-.39a8.115 8.115 0 01-1.023.337v.143c.65.266 1.308.506 1.949.781.669.19 1.309.469 1.905.827a9.809 9.809 0 01-1.139-.32c-.276-.098-.526-.24-.801-.329-.668-.23-1.353-.418-2.012-.675a.767.767 0 00-.961.249l.32.062 2.216.489c.134 0 .365.053.241.31l-.009-.07zm-11.856.747c-.338-.4-.659-.8-1.006-1.19-.347-.392-.935-1.067-1.442-1.547a35.53 35.53 0 00-2.243-1.92c-.427-.328-.846-.763-1.513-.577-.294.05-.592.072-.89.062-.249 0-.49.09-.81.151l.934.525-.044.106c-.507-.07-.89-.595-1.531-.488.4.23.712.39 1.015.586.498.311 1.005.631 1.486.969.481.337 1.184.835 1.727 1.297.527.461 1.029.95 1.504 1.466.434.434.839.897 1.211 1.386.448.64.864 1.3 1.246 1.982.472.79.89 1.6 1.335 2.408.32.595.614 1.2.89 1.777l-.08.08c-.098-.08-.232-.151-.285-.258-.932-1.67-1.86-3.344-2.786-5.02a9.595 9.595 0 00-2.181-2.666 23.332 23.332 0 00-2.67-2.035 33.166 33.166 0 00-2.982-1.608 1.471 1.471 0 00-.73-.133 1.159 1.159 0 00-.934.488l1.255.187c-.062.116-.116.16-.169.151-.383 0-.757-.08-1.131-.107a.431.431 0 00-.329.116c-.205.275-.125.453.223.622.421.166.829.365 1.219.595a65.357 65.357 0 012.492 1.777 23.591 23.591 0 012.074 1.777c1.264 1.289 2.475 2.613 3.703 3.937.202.242.393.494.57.755l-.107.08a8.888 8.888 0 00-.597-.8 54.162 54.162 0 00-3.961-4.016 23.359 23.359 0 00-1.824-1.502c-.463-.355-.988-.63-1.46-.977a12.541 12.541 0 00-2.697-1.306c-.116.355-.214.666-.32.986a.78.78 0 00.382 1.004c.212.123.417.256.615.4.329.258.623.55.952.8.329.248.783.524 1.175.773.578.373 1.166.728 1.78 1.093l.507.293s-.044.071-.062.115a27.065 27.065 0 01-2.733-1.483c-.89-.587-1.78-1.165-2.67-1.778-.133 1.555.552 2.8 1.14 4.07a3.472 3.472 0 00-.187-.737c-.152-.454-.152-.454.124-.64.043.265.105.526.187.782.321.613.383 1.386 1.184 1.688.355.168.695.367 1.015.595l.436.249a.489.489 0 00-.054-.329l-.649-1.421a.322.322 0 01-.031-.288.33.33 0 01.209-.201c.24.533.445 1.04.703 1.528.258.489.427 1.093 1.112 1.209.072 0 .125.089.196.115l1.059.453s0-.07.063-.115a1.091 1.091 0 01-.205-.267 1.296 1.296 0 010-.373c.109.048.211.111.303.187.382.408.721.888 1.121 1.244.401.355.792.675 1.193 1.004.4.328.783.648 1.193.95.409.302.685.454 1.103.72a.656.656 0 00.695.365 32.352 32.352 0 001.86-.276 1.78 1.78 0 00.89-.293 3.824 3.824 0 001.077-2.364c.087-.994 0-1.995-.258-2.959-.232-.817-.356-1.67-.579-2.488-.178-.657-.427-1.306-.667-1.937a11.403 11.403 0 00-1.683-3.314 10.903 10.903 0 00-1.495-1.52c-.68-.518-1.39-.995-2.127-1.43a5.892 5.892 0 00-3.062-1.048h-1.602a2.536 2.536 0 00-1.433.506c.196.098.32.213.436.213h1.166c.133 0 .267-.062.4-.062a7.674 7.674 0 011.861 0c.178 0 .329.053.302.213-.026.16-.204.214-.329.222h-1.38v.098c.178.062.41.071.534.187a1.874 1.874 0 001.656.56.38.38 0 01.142 0c.906.09 1.767.435 2.484.995 0 0 0 .124.053.178.054.053-.169 0-.222 0a4.886 4.886 0 00-1.932-.738l-.81-.204c.418.506.89.888 1.273 1.323a164.595 164.595 0 013.471 3.68c.054.061 0 .212 0 .328l-.044.009zm-74.323-30.904a1.65 1.65 0 01-.071.249 17.316 17.316 0 00-1.059 2.168 40.688 40.688 0 00-1.095 3.954c-.258 1.173-.409 2.381-.614 3.554 0 .16 0 .32-.054.489h.098c.374-.702.775-1.386 1.104-2.097.329-.711.596-1.52.89-2.266.516-1.226 1.068-2.435 1.611-3.652a.77.77 0 01.187-.231h.089l-.721 2.221c.543-.72.783-1.652 1.78-1.892 0 0 .072-.098.089-.151.285-.791.543-1.6.89-2.382.383-.933.81-1.848 1.247-2.754.146-.252.316-.49.507-.711.019.035.03.075.03.115 0 .04-.011.08-.03.116-.265.403-.5.825-.703 1.262a122.015 122.015 0 00-1.478 4.274c-.081.288-.108.59-.08.888.054.782.143 1.555.196 2.337v1.226h.098c.48-1.377.961-2.772 1.46-4.15.276-.763.578-1.528.89-2.283.133-.32.311-.63.471-.942.517-.995 1.015-2.017 1.567-2.994.401-.702.89-1.369 1.326-2.026.436-.658 1.042-1.395 1.567-2.088.525-.693 1.006-1.289 1.522-1.928.146-.168.303-.326.472-.471a.374.374 0 01-.063.275c-.703.95-1.424 1.884-2.118 2.844s-1.46 2.088-2.172 3.145a24.696 24.696 0 00-2.252 4.363c-.614 1.448-1.077 2.95-1.584 4.443a134.048 134.048 0 00-1.211 3.66c-.383 1.227-.73 2.666-1.193 3.892a9.378 9.378 0 00-.631 2.986c.72-1.164 1.415-2.221 2.038-3.314.427-.756.783-1.564 1.139-2.364.507-1.11.997-2.23 1.46-3.368.578-1.448 1.095-2.914 1.682-4.362.216-.474.466-.931.748-1.369l1.531-2.665c.044-.102.082-.206.116-.311l.16.16-.223.39-.578 1.022c-.161.258-.356.498-.49.765-.231.506-.427 1.03-.659 1.537-.231.506-.507 1.03-.721 1.564-.462 1.19-.89 2.408-1.335 3.607a82.547 82.547 0 01-1.077 2.666 44.499 44.499 0 01-.747 1.653c-.258.55-.445.888-.677 1.35l.089.053a6.86 6.86 0 00.694-.755c.343-.573.721-1.125 1.131-1.653a15.22 15.22 0 002.376-3.98c.659-1.378 1.264-2.781 2.021-4.105.756-1.324 1.78-2.79 2.732-4.159.423-.568.877-1.11 1.362-1.626 0-.053.134-.062.258-.116a44.112 44.112 0 00-6.168 10.663l.143.133a2.28 2.28 0 01.231-.382c.481-.506.952-1.004 1.46-1.475.507-.47.89-.684 1.299-1.101a16.72 16.72 0 001.335-1.777c.499-.711.962-1.449 1.46-2.16.276-.4.579-.79.89-1.253.232.48-.32.56-.329.889-.009.329-.356.569-.543.889-.187.32-.374.586-.552.888l-.534.889.098.08.24-.187c.322-.289.668-.55 1.033-.782.979-.524 1.958-1.04 2.973-1.475.827-.355 1.709-.586 2.572-.889.498-.16.534-.213.445-.71a14.407 14.407 0 00-.854-2.8c-.339-.888-.686-1.776-1.015-2.603a52.48 52.48 0 01-.712-1.99 3.016 3.016 0 01-.241-.933c-.025-.766.017-1.533.125-2.293a6.147 6.147 0 00-.614-4.051c-.045-.09-.098-.17-.134-.231a2.652 2.652 0 00-.454.39 5.093 5.093 0 01-1.602 1.36c-.641.409-1.308.764-1.958 1.155-.65.391-1.397.889-2.109 1.333-.712.444-1.362.773-2.003 1.235a114.645 114.645 0 00-3.56 2.666 24.95 24.95 0 00-2.048 1.84c-.703.701-1.344 1.474-2.02 2.203a16.523 16.523 0 00-2.724 4.087 27.094 27.094 0 00-1.059 2.586c-.365.977-.721 1.963-1.006 2.968-.205.755-.249 1.555-.427 2.319a18.451 18.451 0 00-.418 5.97c0 .285.08.56.124.89.287-.524.534-1.067.739-1.627.159-.306.288-.628.383-.96.115-.586.124-1.181.222-1.777.223-1.19.463-2.372.712-3.554.098-.48.232-.942.356-1.412.125-.471.276-1.076.472-1.591.196-.515.49-1.049.73-1.573s.418-1.004.659-1.484c.106-.23.276-.302.391-.408v-.018zm-86.17 21.716l1.968.773c.498.231 1.009.433 1.53.604 1.078.311 2.163.57 3.258.827.383.089.792.106 1.193.16v-.16c-.543-.444-1.308-.32-1.905-.631a21.068 21.068 0 00-1.976-.755.487.487 0 000-.107c.17.008.34.026.508.053.89.214 1.78.445 2.714.649.116 0 .356 0 .383-.124.08-.24-.098-.32-.32-.383-1.05-.31-2.092-.64-3.133-.968-.09 0-.16-.124-.232-.187.247-.008.493.022.73.09.659.16 1.317.346 1.985.497.243.05.49.074.739.07a.26.26 0 00.29-.215.258.258 0 00-.014-.13.39.39 0 00-.276-.24 5.608 5.608 0 01-2.324-.445c-.542-.186-1.059-.417-1.593-.64l-2.207-.888c-.525-.222-1.042-.48-1.576-.693-.81-.329-1.628-.631-2.439-.942a1.994 1.994 0 01-.293-.178 1.063 1.063 0 000-.098l6.533 2.302a.766.766 0 01.543-.116c.89.25 1.78.533 2.67.791.226.04.456.058.686.053a.383.383 0 00-.205-.177l-3.356-1.244a2.329 2.329 0 01-.436-.338c.151 0 .187-.053.223 0 .89.293 1.78.595 2.715.889.439.13.884.236 1.335.32.302.062.276-.231.329-.392.053-.16-.116-.23-.214-.257a7.247 7.247 0 00-1.13-.285 8.664 8.664 0 01-2.608-.888c-.267-.133-.552-.231-.801-.382-.89-.56-1.78-1.138-2.733-1.715v-.116c1.264.614 2.52 1.236 3.765 1.83 1.273.564 2.641.883 4.032.943a.578.578 0 00-.284-.231c-.267-.107-.543-.178-.801-.302-.615-.276-1.22-.56-1.78-.889a2.19 2.19 0 01-.401-.364c1.113.43 2.251.793 3.409 1.084a.824.824 0 010-.116l-4.45-2.488.053-.115c.196.098.383.204.57.284.667.285 1.335.551 1.984.889.65.337 1.327.63 1.985.888.178.08.383.08.427-.142a.435.435 0 00-.178-.346c-.712-.498-1.45-.951-2.154-1.458-.988-.71-1.94-1.466-2.928-2.186-.659-.47-1.335-.888-2.02-1.35-.828-.524-1.647-1.049-2.502-1.51a36.795 36.795 0 00-2.67-1.28c-.89-.391-1.931-.853-2.92-1.297-.711-.347-1.334-.889-2.046-1.236a7.912 7.912 0 01-2.128-1.652c-.436-.453-.819-.969-1.22-1.457l.063-.063a.24.24 0 01.116.063l1.335 1.332c.377.377.785.722 1.22 1.031.702.434 1.427.832 2.171 1.19.739.383 1.504.73 2.27 1.05.765.32 1.602.559 2.35.932 1.068.524 2.11 1.11 3.133 1.724.703.418 1.37.889 2.047 1.368l3.632 2.524c.694.489 1.38 1.004 2.091 1.475a1.31 1.31 0 001.006.275c-.14-.21-.311-.399-.507-.56-.472-.328-.98-.613-1.442-.941-.463-.33-.694-.551-1.033-.836a1.28 1.28 0 01-.196-.275l.09-.071a31.26 31.26 0 003.56 2.115c.205-.32.383-.578.578-.889-.142-.053-.24-.098-.338-.124a3.562 3.562 0 01-1.869-1.04c-.703-.809-1.398-1.626-2.092-2.435a13.025 13.025 0 00-1.166-1.341c-.747-.684-1.557-1.315-2.34-1.964a2.416 2.416 0 01-.259-.267c.505.245.983.543 1.424.889.686.56 1.362 1.137 1.994 1.777.677.676 1.313 1.39 1.905 2.142a4.78 4.78 0 002.741 1.777c.401.097.579 0 .704-.338l-2.733-2.488.053-.071c.093.05.182.107.267.169.81.595 1.62 1.19 2.44 1.777.23.169.453.266.65-.098-.998-.817-1.995-1.653-2.992-2.479l.08-.115c.107.056.211.119.312.186.89.595 1.718 1.2 2.59 1.777a.786.786 0 001.21-.31 2.67 2.67 0 00-.338-.214 6.34 6.34 0 01-2.34-1.395 12.636 12.636 0 01-1.54-1.626c-.712-1.049-1.309-2.177-1.95-3.27a1.459 1.459 0 01-.115-.382c.161.124.297.278.4.453.605.95 1.166 1.92 1.78 2.844a7.66 7.66 0 003.267 2.665 3.638 3.638 0 001.718.427c-.276-.356-.49-.658-.739-.942-.25-.285-.668-.729-1.006-1.093.147.054.284.13.41.222.454.409.89.844 1.362 1.262a.56.56 0 00.89-.09.642.642 0 01.41-.195c.088 0 .222.125.284.232.374.595.72 1.208 1.095 1.777.06.075.135.136.222.177l.09-.062a3.406 3.406 0 00-.143-.515c-.32-.658-.623-1.324-.997-1.946-.668-.942-1.309-1.964-2.03-2.96a17.146 17.146 0 00-1.842-2.016c-.578-.56-1.22-1.058-1.834-1.59-.4-.347-.792-.712-1.201-1.05-.41-.337-.961-.772-1.442-1.172-.89-.738-1.78-1.484-2.617-2.213a9.668 9.668 0 01-2.163-2.31 4.928 4.928 0 01-.285-.71c.462.636.958 1.247 1.487 1.83.685.684 1.442 1.288 2.19 1.91.747.622 1.46 1.182 2.18 1.777.89.747 1.78 1.546 2.67 2.248a29.106 29.106 0 012.44 2.337c.823.86 1.543 1.815 2.144 2.844.409.65.783 1.32 1.122 2.008.347.702.632 1.43.979 2.123.132.215.294.41.48.578l.152-.08c0-.222-.053-.444-.107-.666-.142-.587-.258-1.191-.454-1.778-.182-.452-.39-.894-.623-1.324-.439-.965-.866-1.934-1.282-2.905a11.506 11.506 0 01-.311-.889h.098c.178.347.356.702.543 1.049.187.346.498.888.73 1.386.231.498.427.889.623 1.35.311.72.65 1.431.89 2.178.24.746.41 1.51.614 2.265.098.374.187.391.49.107-.179-.515-.357-1.03-.517-1.555-.24-.79-.436-1.6-.712-2.372a90.025 90.025 0 00-1.362-3.652c-.383-.889-.783-1.866-1.246-2.755a10 10 0 00-1.78-2.408c-.552-.533-1.024-1.146-1.584-1.661-.561-.516-1.38-1.138-2.065-1.715a2.604 2.604 0 01-.303-.382c.59.38 1.157.792 1.7 1.235.623.515 1.264 1.004 1.843 1.564a11.737 11.737 0 013.097 4.282c.463 1.022.89 2.08 1.237 3.146.347.888.632 1.893.944 2.843.311.951.685 2.017.997 3.04a.977.977 0 001.192.817c-.062-.462.107-1.005-.49-1.262h.375c0-.4-.063-.782-.134-1.146 0-.098-.213-.17-.338-.231a2.93 2.93 0 00-.392-.143v-.089l.659.08c-.098-.595-.17-1.092-.267-1.599-.17-.889-.32-1.875-.543-2.799a12.27 12.27 0 00-1.326-3.225c-.641-1.067-1.21-2.186-1.78-3.288-.08-.16-.134-.329-.205-.498h.08c.312.48.632.951.89 1.449.56.96 1.113 1.928 1.638 2.905.312.6.588 1.217.828 1.849.333.892.566 1.819.694 2.763.107.773.178 1.546.303 2.31a.551.551 0 00.275.391c.327.128.663.229 1.006.302.203.05.408.088.614.116 0-.258-.062-.462-.098-.667-.15-.995-.311-1.99-.462-2.985 0-.311-.072-.587-.49-.613-.142 0-.267-.142-.41-.213a.32.32 0 00.054-.125l.694.151c-.187-.675-.338-1.315-.552-1.928-.462-1.333-.979-2.666-1.441-3.963a16.13 16.13 0 00-2.021-3.66 15.035 15.035 0 00-1.656-1.885c-.453-.488-.934-.95-1.406-1.421-.133-.134-.276-.258-.4-.409-.125-.151 0-.133 0-.293.578.524 1.103.95 1.566 1.44.89.888 1.727 1.838 2.52 2.816a13.049 13.049 0 011.93 3.625c.357.96.713 1.92 1.033 2.888.32.969.579 1.777.792 2.666a.8.8 0 00.419.568c.373.205.774.365 1.183.551a.355.355 0 000-.115c-.178-1.102-.338-2.204-.56-3.297a18.792 18.792 0 00-1.113-3.652c-.338-.79-.596-1.608-.89-2.417v-.248c.062.074.115.154.16.24a30.884 30.884 0 011.682 4.309c.205.889.481 1.715.677 2.577.196.862.356 1.884.516 2.825a.435.435 0 00.472.418 9.22 9.22 0 00.062-1.093c0-.8-.062-1.608-.151-2.417a26.399 26.399 0 00-.365-2.301c-.151-.764-.33-1.448-.498-2.168-.17-.72-.365-1.51-.561-2.257a3.485 3.485 0 00-.16-.427l.115-.044c.285.889.588 1.777.89 2.666.303.888.526 1.777.721 2.665.196.889.32 1.83.472 2.755h.125v-1.777c0-.809 0-1.626-.072-2.435-.08-1.03-.16-2.061-.338-3.074-.151-.889-.427-1.706-.64-2.56a10.327 10.327 0 00-2.084-3.802 13.95 13.95 0 00-3.373-2.826 7.211 7.211 0 00-2.003-1.208l-.712-.143a5.9 5.9 0 00-1.53-.328 36.436 36.436 0 00-3.81.275c-1.06.132-2.108.348-3.133.649a45.557 45.557 0 00-7.121 3.216c-1.326.676-2.67 1.386-3.943 2.106-.766.403-1.509.848-2.225 1.333-.81.569-1.567 1.226-2.332 1.848a46.564 46.564 0 01-4.237 3.341c-.16.107-.258.364-.419.409a4.138 4.138 0 00-1.522 1.11.995.995 0 00-.356.623c-.032.471-.014.945.054 1.412.07.551.24 1.093.32 1.644.276 1.627.72 3.22 1.326 4.754.33.81.714 1.596 1.149 2.355.38.773.798 1.526 1.255 2.257.89 1.35 1.78 2.665 2.759 3.972.979 1.306 2.003 2.665 3.08 3.927a26.872 26.872 0 004.361 3.794c.685.533 1.406 1.022 2.1 1.555.285.213.508.506.784.72.516.382 1.068.71 1.566 1.11a8.571 8.571 0 002.101 1.28c1.371.45 2.83.563 4.255.329a6.317 6.317 0 003.56-1.35l1.041-.89-.347-.24.152.187c-.16.071-.312.151-.48.213-.597.232-1.203.454-1.781.676-.276.098-.579.31-.837.266-.258-.044-.543.116-.81.187h-.169a35.814 35.814 0 003.373-1.777 16.73 16.73 0 01-4.833.55c.223-.08.454-.115.668-.177a.642.642 0 01.57 0c.106.053.32-.098.516-.178a2.133 2.133 0 01-.151-.186l.818-.418c.095-.051.184-.11.267-.178-.106-.053-.222-.16-.329-.15-.578 0-1.166.115-1.78.124a17.763 17.763 0 01-3.293-.187 8.018 8.018 0 01-3.783-1.475c2.892 1.43 5.919 1.36 9.007.889a.748.748 0 00-.418-.25h-2.955a4.633 4.633 0 01-.694-.088v-.08l2.67-.346v-.16c-.89-.116-1.78-.205-2.67-.365a10.878 10.878 0 01-2.67-.426h3.738v-.116a2.272 2.272 0 00-.214-.098c-.89-.204-1.727-.426-2.599-.613-.872-.186-1.78-.364-2.67-.55a3.555 3.555 0 01-.472-.196v-.071l5.688.764a1.782 1.782 0 00-.597-.302 60.836 60.836 0 00-2.11-.515c-1.12-.267-2.26-.507-3.382-.773a3 3 0 01-.667-.24 18.354 18.354 0 01-1.558-.889 1.222 1.222 0 01-.196-.169.33.33 0 01.276 0c.362.211.74.392 1.13.542.82.267 1.656.489 2.493.711.374.098.757.151 1.14.213.382.063.89.143 1.352.231.463.09 1.042.24 1.576.356-.125-.533-.178-.533-.677-.667a54.96 54.96 0 01-3.08-.888 1.692 1.692 0 01-.462-.311l.062-.08 3.56.809.098-.178c-.115-.107-.204-.276-.338-.32-.392-.116-.801-.16-1.193-.267-.552-.15-1.086-.355-1.629-.497a32.37 32.37 0 01-5.002-1.982c-.08 0-.124-.186-.187-.284l.072.062zm46.855-3.74l-1.122.781-.89.631c-.285.213-.587.409-.89.649-.053.044 0 .222 0 .337.579-.302 1.06-.586 1.567-.808a8.588 8.588 0 011.602-.569c1.148-.24 2.323-.409 3.48-.586.454-.071.89-.09 1.38-.125a.766.766 0 01-.383.205l-1.095.204-2.99.63a6.734 6.734 0 00-3.08 1.485c-.071.062-.071.213-.107.329h.107c1.78-.889 3.676-1.102 5.545-1.546-.124.133-.28.23-.454.284-1.023.338-2.065.649-3.088 1.004-.561.195-1.104.453-1.647.693-.08 0-.187.169-.178.24a4.7 4.7 0 00.133.577l3.97-1.332.054.115c-.178.089-.356.196-.543.285-.721.31-1.442.613-2.163.888l-1.06.524c-.053 0-.133.116-.133.16.053.347.116.702.17 1.03l1.316-.639c.285-.142.579-.284.89-.417.962-.4 1.914-.889 2.902-1.2.988-.311 1.896-.569 2.84-.889.943-.32 1.984-.71 2.972-1.057.054 0 .143.062.25.116-.303.133-.516.23-.748.32-.837.31-1.673.621-2.51.888-.445.16-.89.267-1.335.418-.445.15-.89.328-1.335.506l-1.887.853c-.294.116-.588.231-.89.364-.303.134-.775.418-1.157.622v.063l3.827-1.12v.098a1.205 1.205 0 01-.276.178 7.066 7.066 0 00-1.78.693c-.533.285-1.09.523-1.665.71-.615.26-1.137.7-1.495 1.262 0 .053 0 .142-.053.222-.054.08.178 0 .231 0 .766-.417 1.665-.426 2.439-.808.124-.063.311 0 .472 0h.133c0-.116.08-.205.134-.365.222.391.445.462.72.16.054-.062.16-.062.25-.088l2.225-.551c.196-.054.383-.134.579-.205l.053.142a54.03 54.03 0 00-7.023 2.755c.96.182 1.95.087 2.857-.276a33.147 33.147 0 002.858-.888c.943-.338 1.78-.675 2.67-1.022v.089a26.26 26.26 0 01-6.702 2.31v.116l1.495.186v.107c-.4 0-.81.08-1.21.062-.686 0-1.371-.124-2.057-.142-.685-.018-.65-.062-.81.684.547.106 1.1.177 1.656.213h3.391a.436.436 0 01.196.09.587.587 0 010 .115 20.17 20.17 0 004.45-1.555.747.747 0 01-.284.31 17.321 17.321 0 01-3.454 1.45 12.37 12.37 0 01-1.3.221 6.085 6.085 0 01-1.059.151c-.89 0-1.878-.106-2.813-.15a2.39 2.39 0 00-.498.061s0 .08-.062.125l.178.07 2.03.605c.39.116.774.258 1.165.382l-.053.187-2.243-.436c-.499-.106-.997-.248-1.496-.355a.482.482 0 00-.356.115c-.163.189-.309.39-.436.605l3.73 1.057v.053l-3.783-.586v.089c.267.16.525.329.792.47.48.176.936.415 1.353.712a1.78 1.78 0 001.575.435c.588 0 1.175-.151 1.879-.249-.137.078-.28.144-.428.196-.492.089-.982.169-1.468.24-.77.125-1.56.033-2.279-.267-.579-.24-1.193-.409-1.78-.604-.187-.062-.392-.098-.588-.151v-.116l-.267.373c.171.106.353.193.543.258l2.332.569c.162.06.317.138.463.23v.125l-.952-.089v.107c.115.089.204.222.338.276.647.286 1.313.527 1.994.72a4.397 4.397 0 003.489-.658c.979-.676 1.967-1.342 2.946-2.035a97.497 97.497 0 002.546-1.866c.837-.631 1.566-1.19 2.332-1.777.765-.587 1.344-1.12 1.994-1.706.498-.453.943-.978 1.46-1.404.516-.427 1.308-.986 1.984-1.449.196-.142.49-.168.668-.328.4-.365.747-.8 1.13-1.191.623-.63 1.255-1.262 1.896-1.884a9.454 9.454 0 001.932-2.354c.24-.48.454-.969.694-1.449a10.644 10.644 0 001.139-4.3 5.779 5.779 0 00-.285-2.168 13.735 13.735 0 00-2.67-4.354c-.685-.8-1.486-1.51-2.207-2.275-.721-.764-1.407-1.546-2.136-2.301a77.387 77.387 0 00-2.564-2.542c-.507-.48-1.086-.888-1.629-1.315-.89-.755-1.78-1.555-2.795-2.257a99.875 99.875 0 00-4.076-2.825 12.517 12.517 0 00-3.25-1.51 56.729 56.729 0 00-3.186-.934 8.068 8.068 0 00-1.655-.284c-1.26-.07-2.525.035-3.756.31a9.495 9.495 0 00-3.792 1.627c-.65.506-1.255 1.075-1.878 1.608a6.697 6.697 0 00-1.985 3.554c-.18.676-.32 1.361-.419 2.053a38.684 38.684 0 00-.284 2.666c-.063.888-.063 1.732-.116 2.603-.053.87-.151 1.875-.223 2.817a142.49 142.49 0 00-.195 2.968v1.892a.739.739 0 00.356-.702 19.854 19.854 0 01.053-2.185c.133-1.04.338-2.062.543-3.084.205-1.022.445-2.017.676-3.03h.08a.414.414 0 010 .142c-.23 1.271-.489 2.533-.703 3.803-.177.955-.302 1.92-.373 2.888-.054.889.053 1.822.053 2.728 0 .284 0 .507.392.373-.125.249-.312.444-.312.64 0 .71.062 1.413.098 2.124l.071.062.472-.258.08.062a2.008 2.008 0 01-.16.223 1.244 1.244 0 00-.41 1.172c.063.214.072.445.134.658.057.162.125.319.205.47.142-.168.284-.328.418-.497.133-.169 0-.098 0-.15.044-.605.098-1.218.133-1.778 0-.071 0-.142-.062-.213-.062-.071-.062-.231 0-.231.312-.142.312-.436.356-.702.098-.738.187-1.475.303-2.213.115-.737.222-1.35.374-2.017.249-1.093.49-2.177.819-3.252.259-.764.556-1.514.89-2.248.356-.888.703-1.697 1.094-2.532.454-.978.944-1.946 1.433-2.915.187-.373.401-.72.606-1.084a.301.301 0 010 .276c-.597 1.244-1.22 2.479-1.78 3.732a34.428 34.428 0 00-1.968 4.993c-.293 1.058-.587 2.124-.81 3.208-.222 1.084-.347 2.257-.516 3.386-.169 1.128-.32 2.194-.463 3.287 0 .125.098.258.152.391.08-.115.222-.222.24-.355.089-.587.16-1.173.231-1.777a12.351 12.351 0 011.184-3.608c.196-.444.4-.889.606-1.315.204-.427.373-.738.543-1.12.169-.382.391-.888.587-1.36h.116c-.152.383-.294.72-.428 1.067-.329.889-.605 1.777-.997 2.621a17.532 17.532 0 00-1.468 6.078 4.426 4.426 0 000 .489h.124c.116-.373.25-.747.33-1.129.142-.64.24-1.288.391-1.928.152-.64.383-1.36.561-2.044.158-.832.378-1.652.659-2.452a22.806 22.806 0 011.549-3.136c.284-.471.543-.96.81-1.449.115-.204.222-.418.329-.63.183-.404.39-.796.623-1.174.65-.888 1.335-1.83 2.02-2.728.259-.346.561-.657.837-.977l.107.089c-.214.293-.445.578-.659.889-.828 1.199-1.682 2.372-2.456 3.607-.46.76-.883 1.543-1.264 2.346-.525 1.066-1.05 2.132-1.531 3.225-.169.47-.306.951-.41 1.44a2.585 2.585 0 011.55-.356c.106 0 .266-.115.346-.222.641-.817 1.237-1.661 1.887-2.461.65-.8 1.21-1.306 1.78-1.973.57-.666 1.104-1.244 1.647-1.875.303-.355.579-.746.89-1.075.508-.488 1.06-.95 1.593-1.404.285-.248.597-.47.89-.71l.072.097c-.303.285-.632.551-.89.889-.89.888-1.78 1.84-2.67 2.799a141.9 141.9 0 00-3.027 3.554c-.552.657-1.06 1.35-1.566 2.044a.523.523 0 00-.054.382c.325.148.658.279.997.39 0 0 .116-.044.16-.088.49-.373.953-.782 1.469-1.12.398-.23.811-.431 1.237-.604l.053.107a4.733 4.733 0 00-.542.31c-.303.214-.597.454-.89.694-.294.24-.552.444-.81.684a.187.187 0 000 .195c.195.267.409.516.614.774.96-.996 2.252-1.849 2.732-1.778-.563.393-1.101.82-1.61 1.28-.846.888-1.016.764-.241 1.564.17-.26.36-.507.57-.738a6.866 6.866 0 012.67-1.448c1.086-.32 2.172-.604 3.249-.942.747-.222 1.477-.498 2.207-.764.144-.065.284-.14.418-.222l.054.08a.892.892 0 01-.214.16c-.72.293-1.45.586-2.18.888-1.247.445-2.493.889-3.739 1.297a4.922 4.922 0 00-2.492 1.778c-.356.506-.436.888-.151 1.19a9.794 9.794 0 013.302-1.848c-.543.4-1.122.764-1.665 1.155-.445.293-.86.63-1.237 1.004a1.083 1.083 0 00-.196 1.333c.89-.63 1.78-1.244 2.6-1.91.835-.654 1.73-1.231 2.67-1.724-.588.462-1.202.888-1.78 1.315-.366.275-.686.604-1.051.889-.231.195-.525.31-.739.524-.516.515-1.005 1.066-1.504 1.608-.276.293-.285.524 0 .889.1-.121.21-.234.33-.338.498-.427 1.005-.889 1.504-1.28a12.652 12.652 0 012.866-1.706c.57-.275 1.166-.47 1.78-.737a9.432 9.432 0 012.937-.8c1.309-.15 2.67-.178 3.952-.293a94.68 94.68 0 003.712-.409c.47-.055.932-.159 1.38-.31.89-.312 1.78-.676 2.67-1.014.044 0 .124 0 .187.054a.456.456 0 000 .097l-1.095.462c-.634.281-1.282.53-1.94.747-.878.24-1.77.424-2.67.55-1.167.16-2.35.24-3.561.347-1.21.107-2.1.107-3.133.285a12.04 12.04 0 00-3.668 1.252 29.12 29.12 0 00-3.035 1.777 17.958 17.958 0 00-2.082 1.866c-.072.063-.063.196-.098.294h.106a6.109 6.109 0 012.956-1.777l-.303.195c-.7.385-1.347.86-1.923 1.413a1.721 1.721 0 00-.302.462v.338c.104-.017.206-.046.302-.09.766-.461 1.522-.941 2.297-1.394.197-.072.404-.114.614-.125zm72.916-6.62v.053c-.952.089-1.914.142-2.857.284-.903.107-1.796.285-2.67.533-1.094.358-2.17.77-3.222 1.235-.891.383-1.834.782-2.671 1.236a53.139 53.139 0 00-3.16 1.777c-.89.506-1.735 1.04-2.59 1.572a.42.42 0 00-.151.338c0 .498.107.995.169 1.546.107-.023.211-.056.312-.098.267-.124.534-.248.801-.39l2.67-1.413a3.323 3.323 0 011.718-.525c-.365.178-.668.294-.944.445l-4.45 2.47a.504.504 0 00-.249.595.61.61 0 00.658.533c.377-.006.75-.075 1.104-.204.952-.347 1.887-.72 2.813-1.11.774-.33 1.522-.712 2.287-1.04a5.2 5.2 0 01.748-.223l.053.143-5.821 2.843.303.151c.474.242.934.51 1.379.8a4.358 4.358 0 003.561.755 8.991 8.991 0 002.1-.889 8.253 8.253 0 012.813-.808 1.333 1.333 0 011.068.729 2.58 2.58 0 01-.516 2.443c-.334.414-.713.79-1.13 1.12h.222c.89-.142 1.682-.347 2.537-.427a3.966 3.966 0 012.67.658c-.124.515-.133.515-.587.346a1.11 1.11 0 00-.472-.08 6.907 6.907 0 00-2.305.605 10.847 10.847 0 00-2.893 2.043c-.214.196-.445.382-.694.604h.133c1.059-.39 2.118-.782 3.169-1.2.267-.106.338 0 .338.214l-2.323.986s0 .072.044.116c.045.044.294 0 .436-.08.677-.196 1.371-.355 2.039-.604a19.023 19.023 0 003.809-1.52c.339-.222.686-.435 1.042-.63a5.397 5.397 0 002.278-2.293c.481-.942 1.006-1.866 1.425-2.835.418-.968.89-2.168 1.263-3.27.303-.888.481-1.777.81-2.665.33-.889.775-1.555 1.104-2.346a7.282 7.282 0 011.78-2.666c.214-.195.143-.346-.115-.497a6.707 6.707 0 01-.988-.649c-1.077-.888-2.128-1.848-3.222-2.728-.766-.613-1.585-1.146-2.386-1.715-.561-.4-1.13-.8-1.709-1.19-.578-.391-1.121-.702-1.664-1.084a15.17 15.17 0 00-3.596-2.009c-.454-.16-.89-.302-1.38-.453a17.103 17.103 0 00-2.234-.702c-1.042-.186-2.11-.204-3.16-.328a6.237 6.237 0 00-2.919.186c-1.051.365-2.11.693-3.134 1.129a10.37 10.37 0 00-2.011 1.12c-.748.55-1.389 1.252-2.136 1.776a19.881 19.881 0 00-3.249 3.28c-.49.586-.961 1.181-1.442 1.776-.276.32-.552.64-.819.969-.721.888-1.424 1.777-2.154 2.666-.73.888-1.362 1.599-2.047 2.399-.152.168-.285.346-.428.524.259-.053.502-.162.713-.32.587-.507 1.148-1.049 1.717-1.573.178-.169.348-.355.517-.533.374-.39.721-.809 1.121-1.182.401-.373.819-.675 1.211-1.03.792-.72 1.566-1.458 2.358-2.168.446-.392.891-.738 1.407-1.084.516-.347.756-.49 1.139-.73l.107.134c-2.946 1.875-5.243 4.443-7.69 6.878a.205.205 0 00.186-.054c.632-.577 1.256-1.173 1.896-1.777.437-.373.89-.71 1.362-1.04a.377.377 0 01.374 0 .645.645 0 01.151.4c0 .098-.053.214-.08.32a26.37 26.37 0 014.104-3.092 1.672 1.672 0 01-.428.4c-.498.435-1.005.889-1.486 1.306a2.61 2.61 0 00-.312.56.327.327 0 01-.098.142 7.606 7.606 0 00-2.056 2.035c-.106.169-.338.275-.418.453a8.602 8.602 0 00-.312 1.066 48.46 48.46 0 019.542-7.472l.063.08-4.326 3.092a.86.86 0 00.071.124c.205-.115.409-.24.623-.346.392-.196.783-.543 1.166-.534a2.336 2.336 0 001.104-.355c.048.18.069.365.062.55-.098.383-.24.747-.356 1.13-.01.15-.01.302 0 .453l4.148-2.275.071.106c-.118.114-.243.221-.374.32-.329.205-.676.373-.997.587l-2.545 1.68a3.42 3.42 0 00-1.229 2.354l3.685-2.373a17.742 17.742 0 013.926-1.83c-.28.202-.578.378-.891.524a17.829 17.829 0 00-3.489 2.026 72.038 72.038 0 00-3.56 2.826c-.187.16-.214.515-.312.773.205.053.445.213.606.15.517-.21 1.02-.457 1.504-.737.329-.177.605-.444.935-.613.89-.435 1.78-.888 2.625-1.262l.508-.222-5.287 3.208.48.889a63.35 63.35 0 017.121-3.812 38.03 38.03 0 017.548-2.666v.196l2.937-.01zM31.454 60.15s0-.098-.044-.142a9.67 9.67 0 014.7-1.111v-.205a4.17 4.17 0 00-.837-.266c-.445-.045-.89 0-1.335 0-.861.024-1.712.189-2.52.489l-.952.346c0-.062-.053-.115-.07-.169a6.895 6.895 0 012.135-.888 9.398 9.398 0 012.475-.258 2.233 2.233 0 00-1.682-.889 12.57 12.57 0 00-3.454.303c-.607.12-1.143.47-1.495.977a19.24 19.24 0 00-2.119 4.016c-.338.755-.516 1.582-.837 2.346a13.592 13.592 0 01-1.78 3.163 1.278 1.278 0 00.196 1.43c.412.367.907.626 1.442.756 1.041.347 2.074.729 3.142 1.022.801.231 1.638.355 2.457.533.997.205 1.985.418 2.982.613.827.16 1.664.302 2.492.453.608.14 1.223.243 1.842.311a19.43 19.43 0 004.655-.097c1.344-.231 2.67-.587 4.006-.889v-.186a4.285 4.285 0 01-2.572-1.067c-.85.628-1.881.962-2.938.951-.837 0-1.664-.071-2.492-.151-.828-.08-1.682-.213-2.519-.338-.445-.07-.89-.169-1.335-.257.245-.058.497-.076.748-.054.64.071 1.281.196 1.922.24.641.045 1.184 0 1.78 0A9.806 9.806 0 0042.5 71a1.782 1.782 0 001.202-.72c-.472-.453-.89-.888-1.406-1.341a.89.89 0 00-.41-.16 7.82 7.82 0 00-3.73.47c-.985.34-2.002.584-3.035.73a.65.65 0 01.303-.17c.125 0 .25 0 .365-.044a18.364 18.364 0 003.026-1.093 4.568 4.568 0 011.077-.276c.588-.07 1.184-.08 1.78-.124-.088-.213-.142-.32-.186-.435-.187-.507-.356-1.013-.561-1.51a1.253 1.253 0 00-.418-.516c-.09-.054-.312.089-.472.133a.578.578 0 01-.178 0l-3.8.427c-.06.003-.12.003-.179 0v-.143c.89-.133 1.78-.257 2.6-.4a3.092 3.092 0 001.726-.541 3.397 3.397 0 00-1.22-1.404 1.68 1.68 0 01-.445-.427.302.302 0 010-.258.268.268 0 01.258-.07c.348.08.686.186 1.024.275a7.596 7.596 0 012.848 1.6.82.82 0 00.793.168c.311-.08.614-.195.89-.267h.427c.534-.15 1.05-.328 1.584-.47a5.627 5.627 0 002.564-1.618c-.623.24-1.148.436-1.674.649-.525.213-1.032.498-1.566.657-1.38.41-1.406.392-1.593.267.774-.32 1.602-.63 2.403-.986a6.33 6.33 0 002.279-1.43.633.633 0 00-.463 0 6.892 6.892 0 01-1.3.71c-1.415.391-2.857.693-4.3 1.03l-.053-.248c.419-.151.828-.311 1.247-.435.997-.285 2.011-.516 2.99-.836.44-.156.861-.362 1.255-.613a.969.969 0 00-.07-.133c-.251.071-.493.17-.722.293a6.74 6.74 0 01-3.23.764c-1.158.063-2.315 0-3.472-.062-1.073.011-2.14.136-3.187.373-.936.315-1.89.573-2.857.773h-.053a5.26 5.26 0 01-.48.285c-.695.32-1.398.613-2.075.968-.438.271-.86.568-1.264.889-.347.23-.712.444-1.041.702-.33.257-.463.417-.703.622a2.658 2.658 0 01-.267.16l-.063-.098c.57-.507 1.149-1.013 1.71-1.528a12.464 12.464 0 013.56-2.124 17.985 17.985 0 013.168-1.075 9.082 9.082 0 012.493-.409 5.35 5.35 0 00.988-.106c-.36-.3-.778-.52-1.229-.65a20.53 20.53 0 00-2.225-.132h-1.077c-1.028.152-2.03.451-2.973.888l-2.643 1.03s-.054 0-.125-.07a23.788 23.788 0 013.818-1.902c1.357-.4 2.77-.577 4.184-.524a5.744 5.744 0 00-.828-.675 2.207 2.207 0 00-.676-.373 8.212 8.212 0 00-3.961.284c-.463.15-.935.24-1.398.4zm34.999-41.763l.08.054c.187-.169.4-.32.57-.507a8.6 8.6 0 013.72-2.345 13.913 13.913 0 012.982-.64c1.36-.142 2.73-.17 4.094-.08.232 0 .32-.071.267-.302-.053-.231-.151-.604-.222-.889a10.58 10.58 0 00-1.095-2.808c-.56-.968-1.175-1.91-1.736-2.879a9.437 9.437 0 00-1.842-2.46c-.614-.56-1.264-1.076-1.887-1.636a12.018 12.018 0 00-3-2.168 3.565 3.565 0 00-1.664-.604c-.25 0-.365.07-.419.31-.106.4-.213.81-.347 1.21-.587 1.776-1.184 3.474-1.78 5.215-.303.889-.579 1.777-.89 2.666-.41.952-.709 1.947-.89 2.968-.08.63-.25 1.252-.294 1.883a134.74 134.74 0 00-.214 4.656c0 .782 0 1.582.09 2.364.089.782.15 1.537.195 2.31.063 1.35.116 2.666.134 4.052 0 .995-.054 1.981-.08 2.977 0 .817 0 1.643-.08 2.46-.08.818-.116 1.53-.232 2.293-.142.978-.33 1.955-.525 2.924-.116.55-.285 1.093-.436 1.661.22.018.44.018.659 0 .115 0 .284-.106.311-.204.25-.723.453-1.462.605-2.212.157-1.007.261-2.022.312-3.04.062-.959 0-1.919.08-2.878.08-.96.089-2.035.187-3.048.133-1.333.285-2.666.49-3.99.16-1.075.427-2.141.614-3.216.09-.93.444-1.816 1.023-2.55.155-.182.28-.386.374-.605.294-.63.516-1.297.89-1.91a28.319 28.319 0 012.955-4.443c.454-.56.89-1.137 1.273-1.777.383-.64.783-1.324 1.175-1.99.51-.794.906-1.655 1.175-2.56 0-.115.151-.213.231-.32l.08.054c-.233.69-.503 1.366-.81 2.026a40.777 40.777 0 01-1.895 3.252c-1.166 1.777-2.67 3.332-3.56 5.252l-.668 1.474zM59.58 40.841c.427.205.783.116.944-.355.16-.471.32-1.12.462-1.68.412-1.67.63-3.38.65-5.1 0-1.395.116-2.781.152-4.176v-2.586c0-1.03-.063-2.061-.107-3.083-.045-1.022-.134-2.097-.196-3.146v-.48c.045-1.101.08-2.194.134-3.296 0-.32.08-.648.106-.968.027-.32 0-.889.08-1.306.08-.418.178-1.04.285-1.555.071-.347.151-.694.25-1.031.097-.338.275-.889.418-1.36.231-.702.471-1.413.712-2.114.24-.702.534-1.484.792-2.23.071-.205.107-.427.187-.632.311-.826.668-1.635.944-2.47.275-.835.391-1.457.596-2.248a7.302 7.302 0 00-1.469.08c-.911.228-1.804.525-2.67.889a15.24 15.24 0 00-3.614 2.381c-.694.578-1.326 1.244-1.994 1.857-.187.169-.418.293-.587.471a7.093 7.093 0 00-.534.746 2.3 2.3 0 00-.41.711 15.868 15.868 0 00-.213 1.848c0 .24 0 .587.133.702.134.116.196.454.232.693a2.162 2.162 0 000 .338c.222.889.48 1.777.685 2.666.276 1.253.516 2.514.748 3.776.043.318.064.639.062.96h-.098a5.011 5.011 0 01-.169-.471c-.24-1.12-.463-2.24-.703-3.359-.187-.817-.4-1.626-.614-2.443a.641.641 0 00-.16-.231c-.072-.071-.223-.116-.232-.196-.009-.08 0-.418 0-.622-.107-.96-.223-1.92-.338-2.897-.107.054-.285.098-.365.205-.445.55-.89 1.11-1.273 1.688a2.53 2.53 0 00-.498.986 4.685 4.685 0 00.534 3.03c.4.635.835 1.25 1.3 1.84.337-.33.435 0 .533.133.196.32.338.684.525 1.022.145.245.312.477.499.693.482.395.932.83 1.344 1.297.498.729 1.14 1.368 1.61 2.124a12.339 12.339 0 011.559 3.91c.106.473.204.944.293 1.412.114.507.198 1.02.25 1.537.053.889.07 1.698.062 2.542 0 1.457 0 2.923-.134 4.371-.151 1.706-.454 3.395-.703 5.127zm15.826 22.045l-.08.151c2.038 1.333 4.38 1.715 6.756 2.07 0 .063 0 .152.08.303a18.3 18.3 0 01-7.121-1.777c.098.133.142.23.214.31a5.476 5.476 0 002.305 1.351c.921.28 1.861.494 2.813.64 1.166.213 2.332.4 3.507.533 1.362.17 2.723.302 4.094.391 1.13.08 2.27.125 3.4.098a34.155 34.155 0 014.157-.062c.525.053 1.05.07 1.567.16.845.142 1.69.293 2.519.497.531.142 1.049.329 1.548.56.472.213.677.249.89 0a.733.733 0 00.161-.48 9.335 9.335 0 00-.268-1.493c-.148-.46-.323-.91-.525-1.35-.676-1.697-1.103-3.492-2.278-4.958a11.236 11.236 0 00-1.878-2.124 13.598 13.598 0 01-1.78-1.404 3.162 3.162 0 00-2.003-.888 8.385 8.385 0 00-1.7 0c-.534 0-.89.382-1.344.755 1.596.007 3.18.274 4.69.79a35.62 35.62 0 01-1.922-.266 6.96 6.96 0 00-2.145-.115c-.276.044-.57 0-.89.08a1.543 1.543 0 00-1.255.71 8.835 8.835 0 014.094.098h-1.077a4.398 4.398 0 00-.89-.07c-.828.123-1.638.292-2.457.461a2.741 2.741 0 00-1.682 1.155 9.905 9.905 0 013.747-.408 18.07 18.07 0 01-2.056.266 5.266 5.266 0 00-2.074.72l2.252.222v.098a.44.44 0 01-.116 0 5.35 5.35 0 00-2.75.346.24.24 0 01-.107 0 .552.552 0 00-.72.418c.631-.098 1.254-.231 1.886-.293a17.109 17.109 0 014.905.062c.351.052.699.126 1.041.222.472.142.944.329 1.415.498.068.03.134.066.196.106-.08 0-.169.125-.24.107-.374-.089-.739-.204-1.113-.293a14.317 14.317 0 00-4.076-.445c-1.671.106-3.328.367-4.95.782a3.444 3.444 0 00-.827.453v.09l3.089.746v.124l-1.202-.23-1.62-.267a3.094 3.094 0 00-1.958.097l1.896 1.262-.08.115-.33-.186a7.335 7.335 0 00-2.617-1.066c-.16 0-.329.053-.49 0-.16-.054-.453-.16-.685-.222l-1.157-.311-1.103-.303a.824.824 0 010 .116l2.563.977-.053.151c-.89-.24-1.7-.444-2.528-.728a10.76 10.76 0 00-2.573-.675.223.223 0 00.107.15c.71.403 1.475.703 2.27.89 1.086.23 2.163.523 3.24.79.104.04.203.095.294.16a.78.78 0 000 .133l-3.56-.666c.097.088.115.124.15.133.89.213 1.78.435 2.715.622.258.053.668.107.784 0 .115-.107.276-.08.409 0a.681.681 0 00.187.071c.815.133 1.641.178 2.466.133.765-.044 1.54-.08 2.305-.097 1.13 0 2.27-.045 3.4-.054.16.023.317.071.463.142a4.81 4.81 0 01-.89.151c-.623 0-1.237.054-1.86.107-1.033.08-2.057.24-3.09.249-1.272 0-2.545-.053-3.818-.151a9.807 9.807 0 01-3.444-.809c-.445-.195-.81-.426-1.193-.63zm99.779 1.235l-.16.09a15.59 15.59 0 00-3.213-4.577 21.251 21.251 0 00-4.495-3.323 24.077 24.077 0 00-5.234-1.822l-.08.152.988.764a1.175 1.175 0 00-.089.115l-1.122-.702-.818.889c-.161.187 0 .258.142.32l1.166.489-.045.106-1.566-.569c-.08.134-.187.285-.276.445-.24.39-.187.506.258.666.445.16.766.293 1.148.444v.08l-1.691-.48c-.044.41-.08.756-.124 1.102-.045.347.08.498.445.533.365.036.89.143 1.264.214a.476.476 0 010 .106c-.454 0-.891-.07-1.38-.088-.062 0-.196.115-.187.168.044.368.109.733.196 1.093a.656.656 0 00.721.542c.4 0 .792.08 1.184.125v.035h-1.38l-.045.125c.253.316.553.592.891.817.388.12.794.177 1.201.169a.17.17 0 010 .071l-.73.124c.166.22.351.425.552.614.516.4.979.888 1.78.666.134-.053.312 0 .463 0v.098l-.578.133v.169c.996.32 1.984.675 2.999.942 1.015.266 2.047.435 3.071.648v.125l-1.113-.196a2.399 2.399 0 00-.365-.053 6.025 6.025 0 01-1.13-.116 3.227 3.227 0 00-1.878-.097 1.56 1.56 0 00-.312.204c.196.095.407.152.623.169a8.12 8.12 0 002.778.195c.178 0 .471-.115.498.258 0 0 .125.062.196.071.587.053 1.184.116 1.78.142.596.027 1.068-.213 1.549.258h-.534a4.946 4.946 0 00-1.024.115c-.472.146-.936.318-1.388.516-.232.097-.65 0-.49.515h-.151l.098.125c.373-.098.747-.205 1.121-.276 1.291-.275 2.581-.533 3.872-.8.159-.012.317-.038.472-.08a1.41 1.41 0 00.89-1.146 7.023 7.023 0 00-.214-3.252 22.775 22.775 0 00-.836-2.248 1.44 1.44 0 010-.444c-.339.07-.312-.285-.428-.489a5.99 5.99 0 00-.534-1.013c-.498-.613-1.05-1.19-1.593-1.777-.196-.204-.436-.373-.641-.569-.205-.195-.24-.32-.392-.435-.151-.116-.507-.267-.596-.595 0-.116-.187-.223-.311-.285-.374-.169-.748-.337-1.131-.48-.73-.293-1.46-.56-2.234-.888-.005.065-.005.13 0 .195.187.578.801.631 1.193.738.698.25 1.379.547 2.038.888 0 0 .045.072.098.187a9.188 9.188 0 00-2.715-.889c.285.445.543.827.792 1.209l-.089.062a8.804 8.804 0 01-.765-.968c-.49-.818-1.309-.72-2.154-.889.187.4.32.693.463.986l-.125.054a10.703 10.703 0 00-.65-.889.817.817 0 00-.454-.249 6.185 6.185 0 00-.81 0h-.311c.046.093.103.18.169.258.223.213.454.409.685.622a.344.344 0 00-.062.089h-.196c-.276-.214-.534-.444-.81-.64s-.454-.142-.578-.302a1.542 1.542 0 00-1.7-.604c-.428.097-.846.222-1.273.328v.134c.418.204.774.586 1.335.213.281-.117.588-.157.89-.115.177.027.349.084.507.168l-1.041.178c.183.144.391.253.614.32.783.204 1.585.373 2.359.622a18.67 18.67 0 012.421.933 15.27 15.27 0 012.056 1.19c.552.365 1.041.81 1.558 1.218a13.556 13.556 0 012.234 2.043c.356.436.721.89 1.032 1.333.312.445.525.889.775 1.351.249.462.454.862.676 1.28zm-44.656-.417l.054-.08c-.089-.107-.178-.222-.276-.32-1.264-1.164-2.537-2.32-3.792-3.483-.837-.764-1.656-1.546-2.492-2.32-.561-.523-1.148-1.03-1.691-1.58a7.057 7.057 0 01-.891-1.103 22.154 22.154 0 01-1.05-1.777c-.187-.346-.329-.72-.489-1.084-.161-.364-.241-.613-.365-.888-.232-.57-.499-1.129-.695-1.706a6.456 6.456 0 01-.195-1.022 13.776 13.776 0 01-.214-3.919c.125-1.572.338-3.136.561-4.7.133-.889.338-1.777.56-2.666.223-.889.579-1.928.891-2.897.106-.364.133-.755.231-1.128a9.255 9.255 0 00.196-2.968c-.677.418-5.43 9.472-5.341 10.094.25-.275.499-.542.757-.808.258-.267.489-.525.73-.782l.08.08-.89.995a7.933 7.933 0 00-1.424 2.052 45.644 45.644 0 00-1.264 3.075c-.116.302-.205.63-.303.95h.089l3.195-3.492.125.107-.454.533-.943 1.138c-.143.177-.25.382-.392.55-.142.17-.365.303-.498.49a14.298 14.298 0 00-1.674 3.233 1.582 1.582 0 00-.053.356h.08a8.899 8.899 0 014.789-3.19.465.465 0 01-.267.222 3.481 3.481 0 00-.437.098 10.017 10.017 0 00-2.857 2.061 4.445 4.445 0 00-1.255 1.982.662.662 0 00.054.417h.347c.293-.133.56-.302.845-.453a5.243 5.243 0 012.234-.48s.081.054.143.098c-.534.151-1.042.249-1.513.436-.589.24-1.162.517-1.718.826a.504.504 0 00-.125.409c0 .07.205.186.303.168a5.87 5.87 0 012.261 0c.587.125 1.157.285 1.78.436v.195c-.623-.106-1.246-.222-1.869-.302a3.396 3.396 0 00-1.967.25c.676.221 1.317.443 1.976.639.654.179 1.276.46 1.842.835 0 0 0 .08-.044.116l-3.472-1.022-.089.15c.516.412 1.054.794 1.611 1.147 1.211.667 2.457 1.27 3.685 1.902.152.08.294.186.436.275l-.062.107a37.323 37.323 0 01-4.415-1.884c1.78 2.061 4.353 2.968 6.738 4.123a14.255 14.255 0 01-4.45-1.724c.191.278.412.534.658.764.553.445 1.132.854 1.736 1.226 1.104.702 2.225 1.378 3.356 2.053.578.338 1.184.64 1.78.968.733.46 1.519.83 2.341 1.102.988.285 1.949.622 2.928.933l.534.187zm-47.664 3.652v.169a33.364 33.364 0 01-7.797-1.573c.03.062.066.121.107.178.43.475.985.82 1.602.995.997.364 2.03.622 3.053.888 1.023.267 2.154.551 3.249.756 1.094.204 2.002.275 3.008.382.766.08 1.531.115 2.305.169.775.053 1.656.053 2.475.15.819.098 1.78.285 2.67.472.89.186 1.62.417 2.43.63.045 0 .062.098.134.25a1.3 1.3 0 00-.339-.16c-.943-.152-1.895-.223-2.821-.454-1.647-.4-3.338-.23-4.994-.453-.534-.071-1.086 0-1.628 0-1.531-.151-3.071-.347-4.531-.506-.125.088-.231.23-.33.222a5.346 5.346 0 01-.89-.116c-1.201-.275-2.412-.542-3.56-.889a9.987 9.987 0 01-1.914-.604 9.474 9.474 0 01-1.397-1.021l-.4.382c.587.444 1.174.826 1.682 1.288a19.496 19.496 0 002.563 1.475c.543.364 1.202.044 1.718.382h.89c.896-.022 1.792.056 2.67.231.428.089.89 0 1.327.089.64.08 1.281.186 1.922.284.133.025.264.057.392.098.356.118.718.216 1.086.293.472.071.952.08 1.424.107.535.056 1.073.076 1.611.062.892-.077 1.79-.035 2.67.124.285.045.534.231.846.125.311-.107.774-.24 1.166-.347.391-.106.614-.15.89-.257.472-.16.89-.356 1.388-.551 1.006-.418 2.03-.809 3.009-1.28a6.215 6.215 0 001.086-.835 22.217 22.217 0 00-7.379-1.182c-1.46 0-2.928.178-4.388.134-1.851-.063-3.712-.223-5.554-.41-1.264-.133-2.51-.364-3.765-.586a24.205 24.205 0 01-2.252-.497 12.267 12.267 0 01-1.95-.658 11.328 11.328 0 01-1.415-.888c-.06.075-.113.155-.16.24-.223.4-.205.488.196.684.286.151.583.279.89.382.997.284 1.994.577 3 .808 1.192.276 2.394.471 3.56.711.15.027.299.063.445.107zm135.294 2.132c-.534-.222-.997-.426-1.469-.595a.767.767 0 00-.596 0c-.371.316-.716.66-1.033 1.03a.323.323 0 00-.062.285 9.415 9.415 0 001.78 3.208c.214.23.338.648.81.515.472-.133.944-.23 1.495-.364-.133.346-.489.204-.676.338-.187.133-.498.257-.783.408.222.277.459.541.712.791.15.13.344.2.543.195.463-.062.89-.204 1.379-.31h.41a.742.742 0 010 .133l-1.656.648c.294.25.552.48.828.685.107.088.294.213.392.177.569-.204 1.237-.177 1.7-.675h.169c.089 0 0 .187-.071.222-.264.259-.593.44-.953.525a.8.8 0 00-.4.293s.107.213.196.293c.203.166.421.315.649.444a.42.42 0 00.339.053 8.515 8.515 0 002.572-1.466c.07-.064.144-.123.222-.177l.063.088c-.597.942-1.656 1.28-2.671 1.902.57.204 1.069.55 1.496.489a3.224 3.224 0 001.887-1.04c0 .089.08.169.062.213-.24.57-.89.631-1.335 1.049l.783.284a2.514 2.514 0 01-.73-.062 1.779 1.779 0 00-.64 0c-.561.151-1.095.355-1.638.524a9.056 9.056 0 01-.89.16 4.09 4.09 0 002.323.444 10.062 10.062 0 002.973-.728c.658-.293.649-.338.365-.969-.285-.63-.445-1.022-.668-1.537h-.098l-.107.382h-.098v-.533a1.608 1.608 0 00-.124-.604 44.463 44.463 0 00-1.433-2.08c-.152.356-.267.64-.392.89h-.116a2.696 2.696 0 010-.285c.098-.471.348-.95-.151-1.368-.338-.285-.65-.596-.979-.89-.329-.292-.534-.452-.801-.674-.196.506.044 1.048-.294 1.501-.062-.488 0-.968-.071-1.448a.832.832 0 00-.267-.515c-.392-.347-.837-.64-1.3-.987l-.471 1.306a.743.743 0 01-.045-.408c.045-.347.232-.764.098-1.013-.133-.249-.596-.356-.89-.525h-.045l-.596 1.227-.124-.054a18.4 18.4 0 00.427-1.395zM25.42 71.203l-.89-.47a.375.375 0 00-.259 0c-.365.106-.73.204-1.086.346-.89.364-1.78.737-2.67 1.128-.445.196-.846.471-1.273.676-.658.32-1.335.595-1.985.888-1.326.693-2.67 1.413-3.978 2.124-.659.346-1.327.675-1.967 1.057-.641.382-1.033.702-1.567 1.013-.98.56-1.985 1.075-2.973 1.626-.988.551-2.012 1.138-3.008 1.724-.828.489-1.62 1.03-2.448 1.493-.383.213-.436.417-.232.764.205.346.499.889.74 1.333.07.142.142.275.195.364.89-.666 1.709-1.315 2.572-1.928 1.104-.79 2.208-1.582 3.347-2.328.623-.4 1.317-.702 1.967-1.057.65-.356 1.522-.889 2.297-1.316a9.033 9.033 0 001.646-.888 23.727 23.727 0 014.45-2.666c1.14-.613 2.324-1.146 3.463-1.777a147.6 147.6 0 003.659-2.106zm31.108-8.317l-.107-.07c-.089.106-.204.204-.285.32-.453.612-.89 1.217-1.344 1.839-.213.302-.427.595-.614.888a20.59 20.59 0 01-1.887 3.19c-.418.48-.765 1.049-1.468 1.11-.89.072-1.727.143-2.582.143-.46.019-.92-.054-1.352-.213a4.12 4.12 0 01-1.05-.765c-.108-.088-.117-.293-.223-.408-.65-.764-1.3-1.52-1.968-2.266a10.354 10.354 0 00-3.097-2.444 1.295 1.295 0 00-.267-.062l-.053.089.507.764c.518.616.919 1.32 1.184 2.08.086.44.285.85.578 1.19.784.782 1.62 1.51 2.475 2.221.29.256.643.428 1.023.498 1.322.145 2.65.22 3.98.222.798-.015 1.598.015 2.393.089.89.08 1.727.258 2.59.355.936.134 1.886.134 2.822 0 .98-.168 1.967-.302 2.946-.462a2.52 2.52 0 00.49-.186v-.133c-1.015-.276-2.038-.57-3.062-.818a1.488 1.488 0 00-.668.098 4.287 4.287 0 01-1.112.257 1.649 1.649 0 01-1.522-.968.889.889 0 00-.16-.204 2.21 2.21 0 010-2.462c.779-.92 1.347-2 1.664-3.163-.009-.275.098-.498.17-.729zM45.482 41.072c.193.105.373.234.534.382.367.43.667.912.89 1.431.41 1.253.686 2.55 1.033 3.82.207.994.505 1.967.89 2.906a5.331 5.331 0 002.964 2.968 12.72 12.72 0 001.78.391s0-.089.062-.142c-.311-.258-.614-.542-.943-.782a4.925 4.925 0 01-2.03-3.448 19.511 19.511 0 00-.498-2.38 19.747 19.747 0 00-1.549-3.946 4.722 4.722 0 00-2.011-1.946.382.382 0 00-.365 0 9.464 9.464 0 00-.757.746zm76.477 23.52h-.098a5.109 5.109 0 01-.303-.773 70.08 70.08 0 01-.552-2.665 1.506 1.506 0 00-1.086-1.2c.294 1.075.561 2.07.819 3.066a.285.285 0 01-.24-.178c-.267-.889-.516-1.688-.774-2.532-.072-.25-.089-.56-.259-.72a6.33 6.33 0 00-1.041-.684c.125.373.231.63.303.888.116.603.273 1.197.471 1.777a37.858 37.858 0 001.523 3.146 9.763 9.763 0 002.323 2.994.586.586 0 00.774.098c.605-.453 1.184-.95 1.78-1.44a.481.481 0 00.107-.302c.062-.622.071-1.252.178-1.865.134-.756-.098-1.102-.961-1.182v3.5c-.143 0-.214-.07-.214-.115-.044-.96-.116-1.91-.098-2.87 0-.693 0-.888-.703-1.11 0 .177-.08.346-.089.515 0 1.04 0 2.088-.044 3.136a1.27 1.27 0 01-.063.311.558.558 0 01-.178-.382V62.87c0-.24.054-.569-.071-.702a5.114 5.114 0 00-.89-.587.553.553 0 01-.125.062c.089 1.609.178 3.208.276 4.905-.098-.115-.16-.15-.169-.204-.08-.587-.187-1.173-.231-1.777-.063-.844-.125-1.689-.107-2.533 0-.693-.321-1.013-.997-1.226l.739 3.785zM73.004 44.058h-.107c0 .24.071.489.116.728.115.57.284 1.138.356 1.715.092.917.05 1.842-.125 2.746a9.193 9.193 0 01-.748 2.728c-.471.889-.943 1.777-1.486 2.666-.39.588-.828 1.144-1.309 1.661a13.69 13.69 0 01-2.474 1.866 1.895 1.895 0 00-.97 1.19c.226-.101.458-.19.694-.266a15.448 15.448 0 004.344-2.15 7.997 7.997 0 003.133-4.63 9.652 9.652 0 00.071-4.602c-.169-.8-.347-1.6-.525-2.4a.79.79 0 00-.178-.355c-.25-.302-.525-.586-.792-.88v-.017zm88.715 7.206v.107h1.122c1.486.115 2.964.23 4.45.382 1.487.15 2.875.329 4.326.47.961.099 1.931.17 2.893.258.765.072 1.531.17 2.287.258l1.691.222c.063 0 .134-.053.259-.106-.784-.436-1.505-.818-2.208-1.227a13.482 13.482 0 00-3.703-1.377 11.439 11.439 0 00-4.397-.204c-1.379.23-2.768.337-4.148.568-.845.125-1.709.41-2.572.65zm-17.9.889c.668.213 1.104 0 1.14-.516a1.775 1.775 0 011.424-1.715c.338-.097.685-.16 1.015-.266.123-.057.237-.132.338-.222a5.583 5.583 0 00-.401-.391.408.408 0 00-.293 0c-.863.235-1.708.532-2.528.888a6.617 6.617 0 01-3.062 1.031 4.46 4.46 0 01-2.297-.55 9.956 9.956 0 00-2.163-1.28c-.89-.267-1.691-.631-2.554-.889a10.087 10.087 0 00-3.498-.329c-.488.035-.947.24-1.3.578.321.453.561.986 1.211.888.044-.275.08-.533.124-.79h.187c.054.278.107.574.16.888h.499l.258-.889c.481.294-.053.65.178.89l.543.123.329-.453h.134v.711l.659-.648c.195.248.186.284 0 .64.462.461.667 0 1.023-.383v.711c.276.169.534.222.775-.115.08-.107.249-.151.382-.231l.098.106-.24.542.32.16c.072-.107.125-.204.187-.284a.89.89 0 01.241-.24c.124-.041.252-.068.382-.08 0 .142 0 .329-.133.418-.356.32-.365.346.089.524.122.048.247.09.374.124.12-.207.253-.406.4-.595.08-.089.24-.107.356-.151a1.738 1.738 0 01-.071.435 2.95 2.95 0 01-.312.427l.446.177c.133-.364.258-.746.89-.542-.116.151-.214.267-.303.391-.052.062-.1.127-.142.196.054.044.113.08.178.106.4.107.801.214 1.094-.222a.209.209 0 01.08-.07 1.64 1.64 0 01.294 0 .955.955 0 010 .328c-.053.098-.187.151-.294.222.437.329.446.32.704-.08a.761.761 0 01.231-.249c.106-.043.216-.072.329-.088a1.284 1.284 0 01-.089.39c-.053.107-.178.178-.284.276.534.293.658.267.89-.151a.553.553 0 01.133-.178c.112-.056.228-.104.347-.142v.373c0 .125-.106.285-.071.311.107.081.24.122.374.116.071 0 .133-.178.178-.276.133-.249.249-.497.383-.755.293.142.311.249.124.453-.108.152-.193.32-.249.498l.16.124c.134-.09.262-.188.383-.293.16-.169.285-.382.454-.542.169-.16.196 0 .303-.045.018.034.033.07.044.107-.222.08-.374.258-.561.498zM54.668 60.15c-.223-.276-.365-.418-.472-.578a4.69 4.69 0 00-2.323-1.777c-.605-.222-1.237-.364-1.842-.587a11.27 11.27 0 01-3.196-1.848 9.775 9.775 0 01-2.19-2.834 6.44 6.44 0 01-.543-1.413c-.195-.649-.329-1.324-.507-1.981a4.784 4.784 0 00-.436-1.227 10.991 10.991 0 00-1.06-1.261.881.881 0 00-.097.177 7.833 7.833 0 00-.338 2.8c.012.337.1.668.258.968a14.614 14.614 0 002.617 3.856c.48.434 1.005.815 1.566 1.138.76.5 1.544.963 2.35 1.386 1.335.684 2.724 1.27 4.059 1.972.41.213 1.006.427.89 1.129a.284.284 0 00.169.204c.303-.018.65-.062 1.095-.124zm11.046 0v.15c.14.01.279.01.418 0a11.07 11.07 0 003.044-.79 16.451 16.451 0 003.267-2.053 9.509 9.509 0 001.914-1.866 13.6 13.6 0 001.388-2.185c.245-.5.444-1.02.597-1.556.176-.359.284-.747.32-1.146a3.983 3.983 0 00-.356-1.466c-.49-1.093-1.05-2.141-1.593-3.207a2.052 2.052 0 00-.285-.338c-.071.089-.071.142-.053.178.35.83.558 1.713.614 2.612.279 1.775.085 3.592-.561 5.269a8.08 8.08 0 01-2.902 3.67 11.875 11.875 0 01-3.097 1.68c-.704.221-1.371.559-2.056.826-.214.08-.419.124-.66.222zM53.83 52.268l.116-.062a3.267 3.267 0 00-.187-.4 8.207 8.207 0 01-.552-.817 7.982 7.982 0 01-.427-1.2 57.992 57.992 0 01-.748-2.799c-.16-.684.214-1.404-.071-2.097a7.363 7.363 0 00-.552-1.333c-.371-.47-.773-.914-1.201-1.333a43.906 43.906 0 01-1.7-1.928 10.154 10.154 0 01-.677-1.075l-1.05.755c.07.09.098.134.124.143a4.704 4.704 0 012.466 2.496c.9 1.84 1.5 3.81 1.78 5.838a4.82 4.82 0 002.216 3.483c.178.098.32.214.463.33zm90.923.889c-.196-.365-.507-.32-.774-.285a8.562 8.562 0 01-3.392-.275l-2.002-.533a.491.491 0 00-.294 0c-.588.258-1.175.515-1.78.808-.374.196-.419.33-.134.649.384.406.794.786 1.229 1.137a.292.292 0 00.249 0l1.513-.497c.285-.08.57-.125.89-.187v.116l-1.842.888a2.115 2.115 0 001.931 0l3.471-1.555c.312-.026.615-.115.935-.24v-.026zM45.242 41.57c.061.127.133.249.213.364.324.402.52.89.561 1.404v2.381a6.682 6.682 0 00.552 3.217 12.06 12.06 0 002.056 3.057c.7.764 1.644 1.26 2.67 1.404.561.08 1.113.195 1.665.293l1.148.204c-.098-.204-.133-.417-.222-.444a2.738 2.738 0 00-.953-.151c-.879 0-1.733-.291-2.43-.827a5.706 5.706 0 01-2.35-3.038c-.427-1.226-.703-2.506-1.032-3.759-.187-.693-.338-1.395-.534-2.088a5.326 5.326 0 00-.48-1.209 1.368 1.368 0 00-.864-.808zm-.525.435l-.712.889a.425.425 0 000 .64c.28.332.506.707.667 1.11.147.479.248.97.303 1.467a20.55 20.55 0 00.89 4.265c.392 1.09.918 2.13 1.566 3.092.555.8 1.203 1.53 1.932 2.177a4.017 4.017 0 002.35 1.101c.685.063 1.362.178 2.038.303.24.062.475.142.703.24-.08-.41-.16-.791-.231-1.173a.285.285 0 00-.356-.276c-.427 0-.89.053-1.282.071a5.178 5.178 0 01-2.528-.577 4.904 4.904 0 01-1.246-.782 10.382 10.382 0 01-1.86-2.906c-.25-.462-.525-.888-.784-1.368v-.071h.285c-.16-.356-.302-.676-.454-.995a6.353 6.353 0 01-.64-2.968c0-.844.097-1.697.089-2.541a1.845 1.845 0 00-.73-1.698zm16.021 19.353c-.33-.08-.605-.106-.89-.195a.953.953 0 00-1.077.284 3.911 3.911 0 00-1.326 1.777s0 .062-.062.089c-.276.497-.57.977-.82 1.484-.248.506-.338.888-.551 1.333-.125.275-.374.506-.49.782a9.282 9.282 0 00-.498 1.501c0 .187.08.56.213.604a1.64 1.64 0 001.567-.186c.357-.294.659-.649.89-1.049a2.298 2.298 0 00.08-1.892 2.014 2.014 0 010-1.457c.35-.854.91-1.606 1.63-2.186.4-.32.836-.569 1.334-.889zm4.006.826c-.094.071-.18.152-.258.24a2.504 2.504 0 00-.552 1.84c.07.675.32 1.333.436 1.999a1.774 1.774 0 01-.4 1.537 7.546 7.546 0 01-1.959 1.51c-.294.17-.543.392-.819.587l.054.16c.16 0 .347.062.471 0a11.913 11.913 0 001.55-.889c.489-.346.89-.773 1.37-1.164h.196l.07.08-1.174 1.191c.05.005.101.005.151 0a5.741 5.741 0 001.78-1.217 2.434 2.434 0 00.561-2.755c-.249-.497-.507-.995-.765-1.492a1.17 1.17 0 010-1.147l.382-.64c-.222 0-.409-.053-.525 0-.48.24-.187.774-.391 1.182-.294-.302.035-.675-.178-1.022zm3-.177h-.116c-.08.453-.16.888-.24 1.377 0 0-.125 0-.125-.071v-.693c0-.231 0-.373-.063-.569a1.55 1.55 0 00-.596.125 1.414 1.414 0 00-.705 1.572c.048.201.14.39.269.551.252.428.46.881.623 1.35a2.112 2.112 0 01-.445 2.249c-.214.24-.41.498-.614.746l.053.071c.123-.047.242-.103.356-.169.33-.177.677-.355.988-.56a5.512 5.512 0 002.003-2.212 1.535 1.535 0 00-.294-1.777 3.108 3.108 0 01-.988-1.848s-.071-.098-.116-.142h.01zm3.613-19.495h-.116c.025.246.073.49.143.728a9.475 9.475 0 01.578 3.368 11.703 11.703 0 01-.516 3.554c-.24.756-.338 1.555-.552 2.328a5.16 5.16 0 01-1.121 2.124c-.303.338-.721.569-1.024.889-.472.524-.89 1.11-1.344 1.714.08.014.16.014.24 0a14.11 14.11 0 001.522-1.172 13.621 13.621 0 002.306-3.155c.382-.6.681-1.248.89-1.928a25.13 25.13 0 00.578-3.27 5.447 5.447 0 00-.062-1.777c-.169-.835-.48-1.635-.694-2.461a2.294 2.294 0 00-.828-.942zm-10.21 19.335a4.29 4.29 0 00-2.376 1.777 2.663 2.663 0 00-.436 2.666 2.032 2.032 0 01-.48 2.248l-.561.604c.373.124.712.258 1.05.346.338.09.667.276.961 0 .401-.35.653-.839.703-1.368v-2.666a4.233 4.233 0 01.775-2.665c.141-.306.263-.62.365-.942zM48.99 56.205v-.152a.567.567 0 00-.089-.115c-.463-.471-.952-.933-1.38-1.44a12.83 12.83 0 01-2.768-5.953c-.205-1.04-.338-2.097-.48-3.145a3.117 3.117 0 00-.81-1.697 6.641 6.641 0 00-1.14 2.159.47.47 0 00.125.32c.196.248.427.47.623.728a8.22 8.22 0 011.406 3.261 13.7 13.7 0 00.677 2.124 8.449 8.449 0 001.851 2.523 6.33 6.33 0 001.985 1.387zm14.126 5.935a3.557 3.557 0 00-.677.444 3.197 3.197 0 00-.756 3.021 3.16 3.16 0 01-.178 2.417 1.864 1.864 0 00-.072.205c-.023.139-.074.272-.15.39-.437.383-.89.738-1.345 1.12.25.24.436.205.695-.044.4-.382.89-.693 1.29-1.049.25-.204.463-.453.694-.666a.891.891 0 01.276-.089v.08l-.311.178.062.097h.187a2.151 2.151 0 00.944-2.488 3.646 3.646 0 01-.276-2.337c.16-.497.373-.986.56-1.492-.204-.053-.454-.062-.525.204-.151.507-.258 1.03-.374 1.546a2.142 2.142 0 000 .418h-.133c-.258-.613.053-1.28.089-1.955zm6.738 6.131c.067-.018.132-.042.196-.071.347-.24.685-.507 1.041-.729a4.356 4.356 0 002.083-2.399c.282-.649.41-1.355.374-2.061a.95.95 0 00-.33-.587 3.153 3.153 0 00-1.7-.702c-.285 0-.552-.213-.836-.24a1.15 1.15 0 00-.606.16c-.062 0-.08.258 0 .356.17.343.367.673.588.986.267.278.514.575.739.889a2.351 2.351 0 01-.17 2.354c-.436.72-.916 1.36-1.38 2.044zm-26.418-2.666c.49.57.89 1.075 1.353 1.555a.357.357 0 00.303.054c.373-.107.747-.24 1.112-.347l1.78-.498a4.308 4.308 0 002.243-1.466.425.425 0 000-.346.756.756 0 00-.285-.293c-.097-.054-.284-.08-.347 0a17.814 17.814 0 01-3.337 1.866h-.33c.134-.179.29-.34.463-.48.65-.409 1.326-.782 1.985-1.19a5.08 5.08 0 00.81-.65c.071-.062.071-.195.098-.302a2.833 2.833 0 00-.73.4c-.848.579-1.81.97-2.822 1.147-.72.133-1.477.337-2.296.533v.017zm26.08-5.455l.053.124c.083.005.166.005.25 0a18.471 18.471 0 001.993-.604 6.59 6.59 0 001.923-1.049 9.902 9.902 0 003.16-5.909 2.763 2.763 0 000-.47h-.107c-.072.213-.152.435-.214.648-.347.91-.824 1.766-1.415 2.541a10.827 10.827 0 01-2.51 2.506c-.721.518-1.47.995-2.243 1.43-.054 0-.143.099-.134.125.151.436-.267.364-.454.498-.097.06-.198.113-.302.16zm-3.036 9.258l-.062-.053a2.67 2.67 0 00.463-.106 4.775 4.775 0 001.914-1.058c.507-.55.996-1.12 1.513-1.662a2.063 2.063 0 00.661-2.267 2.062 2.062 0 00-.42-.718c-.393-.542-.749-1.12-1.122-1.688l-.704.08c-.231 0-.356.124-.338.39.056.487.28.94.632 1.28a2.142 2.142 0 01.739 1.484 3.55 3.55 0 01-1.522 2.666c-.21.132-.413.278-.605.435-.401.382-.784.844-1.149 1.217zm-4.726-24.684c.042.098.075.199.098.302 0 .285.151.276.383.178a1.032 1.032 0 00.694-1.048c0-.116.044-.231 0-.338-.053-.462 0-1.013-.427-1.297-.721-.453-1.416-1.04-2.386-.773a1.061 1.061 0 01-.516-.063 1.702 1.702 0 00-1.718.889c.145-.123.303-.23.472-.32a.696.696 0 01.472-.053 1.166 1.166 0 01.614.977 1.26 1.26 0 01-1.042 1.386.615.615 0 01-.8-.346c-.099-.196-.17-.409-.294-.711a2.32 2.32 0 00-.33.48 1.49 1.49 0 00.48 1.68.765.765 0 001.194 0c.267-.276.498-.587.756-.89.258-.302.365-.293.56-.453.054-.47.099-1.021.17-1.563.071-.542.311-.685.596-.622a1.684 1.684 0 011.469 1.128 1.1 1.1 0 01-.445 1.457zm60.054 7.748c.146-.113.304-.209.472-.284.89-.178 1.7-.355 2.555-.489a15.253 15.253 0 011.557-.088h3.65c-.116-.356-.214-.685-.303-.951a15.411 15.411 0 00-4.254.169c-1.398.204-2.76.524-4.193.888l.516.755zm7.397-5.73c.05.01.101.01.151 0l1.336-.312c.409-.088.818-.169 1.21-.293.774-.266 1.549-.542 2.305-.888.116 0 .276-.24.25-.32-.134-.48-.312-.951-.49-1.413 0-.062-.125-.098-.196-.124l-.454-.134a.63.63 0 01-.792.169c-.107 0-.285 0-.409.115-.721.427-1.433.89-2.154 1.307l-1.424.844-.65.418a.58.58 0 00.374 0c.988-.338 1.976-.694 2.964-1.022.129-.023.262-.023.391 0 .098 0 .196-.09.312-.151l1.673-.782c.303-.151.436-.107.596.266l-4.993 2.32zm4.771-8.477c-2.216 1.608-6.489 5.544-6.667 6.077l.552-.382 1.211-.888a.346.346 0 01.213 0 1.051 1.051 0 001.024-.374c.239-.26.508-.493.801-.693.267-.195.57-.337.837-.524.338-.289.701-.548 1.085-.773a.775.775 0 00.446-.533l.16-.578c.115-.453.222-.897.338-1.333zm-62.76 10.484c.098-.15.178-.213.187-.284.053-.364.115-.737.133-1.102a11.247 11.247 0 00-.463-3.554c-.142-.55-.41-1.066-.498-1.617-.116-.702-.73-.986-.98-1.573-.088.08-.115.089-.124.116a.663.663 0 000 .142 6.21 6.21 0 00.223 2.399c.293 1.04.64 2.061.96 3.092.108.347.223.702.312 1.057.09.356.143.827.25 1.325zm-19.022 12.2l-.72-.168c-.107 0-.24-.17-.312-.134a2.21 2.21 0 00-.846.453 1.962 1.962 0 00.196 2.817 2.764 2.764 0 011.041 2.453c0 .408-.142.808-.204 1.2.053-.09.133-.196.196-.312.062-.115.124-.275.213-.4a2.477 2.477 0 000-3.172 1.207 1.207 0 01-.187-1.262c.143-.497.4-.977.623-1.475zm73.798-14.128a.44.44 0 000-.089c.117-.094.242-.177.374-.248a19.104 19.104 0 003.017-1.644c.89-.56 1.78-1.102 2.67-1.609a1.331 1.331 0 00.659-.8c.142-.452.338-.888.507-1.34-.488.248-.95.546-1.379.888-.668.506-1.291 1.057-1.958 1.555-.516.406-1.057.78-1.62 1.12-.752.474-1.477.99-2.172 1.545l-.703.525.605.097zm-71.857 13.95a1.605 1.605 0 00-1.602.747c-.104.156-.196.32-.276.489-.258.577-.499 1.181 0 1.777a2.131 2.131 0 01.347 2.319 7.848 7.848 0 01-1.344 2.47.525.525 0 00-.063.178 2.57 2.57 0 001.229-1.084c.276-.507.472-1.075.792-1.564a3.398 3.398 0 00.427-2.195c0-.524-.098-1.048-.151-1.572a3.79 3.79 0 00-.4.835c0 .07-.099.115-.152.169-.053.053-.142-.134-.125-.196a2.06 2.06 0 01.196-.702c.33-.515.712-1.075 1.122-1.67zm-6.427-8.805l-.089.071c.268.455.565.89.89 1.306.398.523.88.976 1.425 1.342a6.507 6.507 0 003.836.737c.142 0 .392-.142.383-.204 0-.204-.063-.497-.205-.595-.3-.196-.631-.34-.98-.427a14.48 14.48 0 00-1.512-.24 4.847 4.847 0 01-2.76-1.101 12.03 12.03 0 01-.988-.889zm3.765-39.54h-.098a1.58 1.58 0 00-.293.408 8.163 8.163 0 00-.614 2.888.365.365 0 00.187.266c.38.203.773.384 1.174.542a8.542 8.542 0 012.457 1.289h.214c-.677-.809-1.3-1.573-1.94-2.328a3.658 3.658 0 01-.953-2.31 4.884 4.884 0 00-.134-.756zm-6.159 55.152l-.053.107c.347.355.685.728 1.05 1.057a.508.508 0 00.463.062c.774-.382 1.53-.79 2.287-1.217.543-.311 1.077-.666 1.718-1.075a1.18 1.18 0 00-.089-.942c-.276.178-.516.346-.774.48-.623.328-1.255.648-1.896.888-.258.116-.543.444-.89.09 0 0-.196.061-.285.106a2.271 2.271 0 01-.534.257c-.329.08-.662.142-.997.187zm93.54-10.147c.258.097.427.186.614.248a.221.221 0 00.187 0 3.04 3.04 0 011.388-.968c1.3-.542 2.59-1.11 3.89-1.68a10.565 10.565 0 001.727-.808c.645-.47 1.341-.866 2.074-1.182.285-.115.587-.195.97-.32a.894.894 0 00-.944.143.884.884 0 01-.293.142c-1.689.344-3.329.89-4.887 1.626l-.632.31.205.24a1.92 1.92 0 01-.303.152 6.983 6.983 0 00-.89.31c-.757.41-1.504.89-2.252 1.29-.231.186-.507.319-.854.497zm-2.831 3.412v-.071h.169l1.113.577.81.409c.614.32 1.219.649 1.842.95.401.187.89.294 1.229.516a3.193 3.193 0 002.492.427l.472-.125c-2.742-1.573-5.795-1.964-8.599-3.119a.666.666 0 00.494.698.661.661 0 00.308.004l-.33-.266zm85.698 7.49c0 .889.062 1.724.098 2.568.02.103.073.197.151.267.347.31.704.595 1.051.888l1.13.987c.037-.266.057-.533.062-.8 0-.391.223-.889-.284-1.129v-.097a20.833 20.833 0 00-.686-1.04c-.142-.195-.454-.275-.383-.622 0 0-.115-.106-.178-.169-.062-.062-.195-.133-.204-.213-.089-.462-.499-.48-.757-.64zm5.679 9.774c0-.248 0-.497-.045-.746a6.019 6.019 0 00-.32-2.48c-.276-.514-.507-1.048-.757-1.572l-.097.045c0 .39-.09.79-.107 1.181a2.95 2.95 0 00.276 1.946c.236.334.424.699.56 1.084.312.889.57 1.698.89 2.542a.31.31 0 01.023.262.312.312 0 01-.071.115.31.31 0 01-.112.076c-.276.177-.543.39-.81.586a.73.73 0 001.024-.409c.264-.755.358-1.559.276-2.354a7.966 7.966 0 00-.33-1.262h-.124c.018.186.018.374 0 .56-.089.24.133.533-.303.462l.027-.036zM189 65.401a5.134 5.134 0 01-1.86-.72c.094.14.212.264.347.365.304.278.635.525.988.737.43.164.87.3 1.318.409.081.039.156.09.222.15l-.053.072-1.175-.284c.169.728.934.773 1.299 1.244l2.279.142V67.4a4.971 4.971 0 00-2.181-.888l.045-.125.605.134a.4.4 0 010-.098 2.673 2.673 0 00-1.13-.64c-.072 0-.134-.098-.178-.16-.045-.062-.072-.23-.152-.302-.427-.4-.89-.782-1.299-1.173a.524.524 0 00-.178-.133l-1.487-.524s-.062 0-.115.07c.614 1.031 1.815 1.2 2.705 1.84zm-65.751-10.77c.232-.168.374-.355.552-.39a22 22 0 012.154-.285h4.477c0-.497-.204-.648-.56-.675-.712 0-1.425-.124-2.128-.106-1.059 0-2.118.133-3.177.24-.623.062-1.238.204-1.861.302v.133l.543.782zm6.854 4.444v.044s.071.107.116.124c.454.205.694.729 1.228.8.054 0 .089.08.134.124.097.108.201.209.311.302.258.16.543.294.81.454 1.095.71 2.19 1.43 3.293 2.132a5.226 5.226 0 002.386.542.74.74 0 00-.276-.23c-.276-.143-.552-.276-.819-.427-.472-.258-.89-.542-1.388-.8-.606-.346-1.211-.693-1.781-1.013-.569-.32-1.264-.889-1.967-1.226-.703-.338-1.388-.524-2.047-.8v-.026zm1.78-2.862v-.124a3.493 3.493 0 00-.89-.569 4.527 4.527 0 00-1.255-.098h-3.56a2.998 2.998 0 00-1.736.267c-.053 0-.116.16-.098.196a.935.935 0 00.979.515c.481-.08.962-.222 1.442-.293 1.089-.2 2.205-.2 3.294 0 .599.08 1.202.124 1.806.133l.018-.027zm-76.824 6.505c-.053-.791.633-1.164.89-1.778a1.96 1.96 0 00-1.85 1.431c-.277.729.062 1.386.106 2.124.058-.04.111-.084.16-.134l1.531-2.079a.71.71 0 01.623-.355.348.348 0 00.214-.133c.098-.098.151-.223.25-.311.097-.09.435-.418.676-.64a1.221 1.221 0 00-1.567.497c-.356.418-.668.889-1.032 1.378zm126.607-2.568v-.178a7.26 7.26 0 01-.81-3.474.416.416 0 00-.116-.293c-.418-.32-.845-.631-1.308-.96-.071.364-.116.71-.196 1.048-.08.202-.114.42-.099.637.016.217.08.427.188.616.143.205.303.4.507.667v-1.316h.143a3.544 3.544 0 001.691 3.253zM57.392 40.344a3.734 3.734 0 00-.187-1.35c-.205-.347-.686-.534-1.042-.792.255.052.503.133.739.24a.366.366 0 00.303 0c.053 0 .07-.169.062-.266 0-.285 0-.569-.09-.845-.088-.275 0-.32-.115-.382-.427-.328-.89-.621-1.415-.986-.015.21-.015.421 0 .631.13.883.273 1.771.427 2.666.054.355.09.737.499.888.231.071.48.107.819.196zm76.939 22.311c-.285-.24-.543-.47-.81-.675l-2.804-2.115a2.866 2.866 0 00-.569-.346l-1.959-.835a1.254 1.254 0 00-.311 0l-.054.124a24.407 24.407 0 004.7 3.234c.57.25 1.139.489 1.718.72a.333.333 0 01.089-.107zm-71.884-.888c-.41-.205-.472-.187-.819.275a5.245 5.245 0 00-1.21 3.555c.053.755.053 1.519.071 2.283v.578h.116a.304.304 0 00.08-.071 2.665 2.665 0 00.623-2.666 3.354 3.354 0 01.25-2.666c.222-.426.569-.826.89-1.261v-.027zm63.588-17.06l.089.062c.066-.04.129-.084.187-.133.579-.587 1.149-1.2 1.78-1.778.891-.835 1.834-1.635 2.76-2.452.463-.418.934-.835 1.406-1.235.623-.533 1.255-1.049 1.869-1.582.098-.08.134-.23.205-.346l-.107-.08c-.213.142-.436.275-.65.426-.382.276-.765.551-1.13.835-.703.56-1.433 1.093-2.083 1.706-.988.889-1.931 1.92-2.884 2.888-.329.338-.658.676-.961 1.04-.196.204-.329.435-.481.648zm97.777 24.88l-.116.097c.213.233.407.482.579.746.379.812.43 1.738.142 2.586a.79.79 0 00.178.782c.294.337.543.71.801 1.075.085.124.159.255.223.391a12.04 12.04 0 00.178-1.777 2.25 2.25 0 00-.08-.95 14.55 14.55 0 00-.997-1.778 14.21 14.21 0 00-.908-1.146v-.027zm-89.552-8.753h-.063c.049.05.103.094.161.133.24.116.489.196.721.32.658.355 1.308.746 1.976 1.093.667.346 1.54.702 2.269 1.12.293.188.631.293.98.302l.89-.054c-.241-.168-.374-.31-.543-.4a338.926 338.926 0 00-3.116-1.581 2.583 2.583 0 00-.498-.24l-2.777-.693zm48.421 2.559l-.098.08.97 1.12c.134.15.276.275.418.417.143.142.161.222.267.275.588.32 1.175.614 1.781.89.321.21.661.39 1.014.541.588.178 1.202.284 1.78.427l.437.08a.656.656 0 00-.348-.231 8.186 8.186 0 01-2.616-1.298 13.098 13.098 0 00-2.145-1.466c-.499-.213-.971-.524-1.46-.835zm-22.6-2.666c-.089-.355-.222-.737-.293-1.137-.116-.613-.098-.613-.73-.684l-.89-.116c-.223 0-.347.053-.321.285 0 .417.098.826.152 1.243.053.418.284.391.525.4.534-.009 1.032-.017 1.557-.017v.026zm5.813 6.22a1.007 1.007 0 001.264 0c.124.151.213.364.311.364.459.008.918-.025 1.371-.097.457-.093.909-.211 1.353-.356.329-.098.658-.23.979-.337a1.06 1.06 0 00-.507-.116 13.028 13.028 0 01-1.567-.098 2.674 2.674 0 00-1.211 0l-1.993.64zm44.62-3.723c-.677.151-1.246.293-1.834.4-.249 0-.569-.053-.774.062-.534.293-1.024.675-1.602 1.066.15.032.301.056.454.072.321.042.645.063.97.062.65 0 1.362.124 1.825-.613.288-.378.609-.73.961-1.049zm-26.338.56l.08-.071c-.142-.187-.294-.364-.427-.551a12.787 12.787 0 00-1.006-1.36 18.501 18.501 0 00-1.557-1.324l-.73-.604c.2.944.696 1.8 1.415 2.444.516.337 1.023.702 1.54 1.04.222.15.454.284.685.426zm-20.908.115c-.472-.4-.89-.702-1.211-1.048a1.128 1.128 0 00-1.219-.276c-.418.085-.84.147-1.264.187 0 .053 0 .107-.045.16.552.355 1.086.746 1.665 1.048.579.303 1.299-.186 2.074-.07zm-29.017-13.328a10.547 10.547 0 00-1.389-.453c-.641-.125-1.299-.169-1.958-.24-.196 0-.329 0-.231.267.082.235.183.464.302.684a.457.457 0 00.321.204c.445 0 .89.044 1.335.053h1.62v-.515zm.214-4.78l-5.973 1.67c.276.373.668.524.837.293.338-.453.836-.408 1.29-.488.454-.08.837-.072 1.246-.151a70.722 70.722 0 002.386-.551.408.408 0 00.205-.267c.032-.176.044-.355.035-.533l-.026.027zm-80.643-.311v1.057a1.197 1.197 0 00.419.995c.121.127.231.263.329.409.142.15.32.293.472.453.151.16.089.187.151.267.25.373.55.71.89 1.004.178.124.56 0 .89 0a1.948 1.948 0 00-1.7-1.067l.053-.133h.561l-2.065-2.985zM223.35 80.586c.087.057.18.104.276.143l1.611.24a3.297 3.297 0 001.7-.303c.685-.302.685-.302.383-1.004a2.504 2.504 0 01-.098-.39 9.408 9.408 0 01-3.872 1.314zm-98.4-27.767a.843.843 0 010 .142c.409-.084.822-.144 1.238-.178a17.832 17.832 0 013.774.09.279.279 0 00.222-.08c.125-.205-.124-.703-.374-.703h-3.685a4.474 4.474 0 00-.667.134.646.646 0 000 .124l1.451-.16v.187l-1.959.444zm95.24 14.812c-.062.64-.133 1.289-.178 1.937a.494.494 0 00.125.356c.391.293.81.56 1.237.888a.951.951 0 00.062-.293 8.097 8.097 0 00-.071-1.235c-.098-.773-.222-1.555-1.148-1.653h-.027zm.89 10.254c-.721-.195-1.281-.888-2.145-.604a1.105 1.105 0 01-.294 0l-1.682.107c.908 1.013 2.403 1.102 4.148.533l-.027-.036zM72.577 38.913l.4 1.555c.203.623.355 1.262.454 1.91.053.685.543.89.997 1.351-.053-.355-.071-.595-.125-.835-.267-1.022-.552-2.035-.819-3.057a1.11 1.11 0 00-.907-.924zm47.219 7.313l.107.116c.48-.418.89-.89 1.433-1.236a106.023 106.023 0 013.044-2.265c.507-.365 1.077-.658 1.602-1.005.24-.16.294-.435.285-.817a42.663 42.663 0 00-6.471 5.207zm-50.281 4.87c0-.134-.054-.214 0-.258.24-.551.49-1.102.756-1.635.143-.294.116-.48-.142-.658-.552.889-1.193 1.644-1.71 2.524l.117.097.676-.506.098.062c-.045.1-.096.198-.151.293l-.89 1.27v.259c0 .089.177 0 .213-.054a86.281 86.281 0 001.843-2.026.889.889 0 00.115-.32l-.124-.053-.801 1.004zm55.648 3.838v.098h5.608c-.072-.365-.187-.57-.588-.57-.632 0-1.264-.097-1.896-.097a2.567 2.567 0 00-1.317.16 2.131 2.131 0 01-.988.222c-.249.071-.525.125-.801.187h-.018zm18.229 6.833c.16.07.323.133.49.186.222.063.454.08.667.16.51.186 1.009.4 1.496.64.365.187.489 0 .605-.275a.535.535 0 00-.312-.64c-.276-.124-.534-.293-.819-.409a1.566 1.566 0 00-.81-.24c-.458.145-.9.34-1.317.578zm66.437 2.825l.409-.133a8.35 8.35 0 011.584-.649 4.017 4.017 0 002.11-1.563 5.907 5.907 0 00-4.103 2.345zm-48.582-2.363a3.623 3.623 0 01-.605-.702c-.196-.453-.623-.444-.952-.507a4.727 4.727 0 00-1.273 0s-.143.196-.116.24c.027.045.285.276.338.436a.811.811 0 001.06.595c.48-.062.97-.053 1.548-.089v.027zM120.535 50.18l.08.071a21.262 21.262 0 017.53-1.35 1.281 1.281 0 00-.605-.33c-.223 0-.463.134-.668.099a7.513 7.513 0 00-3.204.302c-.321.08-.606.257-.89.364-.677.222-1.362.418-2.048.64-.098.026-.142.133-.195.204zm-59.174-2.55c-.347.684-.676 1.297-.988 1.928-.311.63 0 1.11-.07 1.662l.07.07a3.233 3.233 0 00.988-3.66zm96.522 10.663l1.557.248c.054 0 .161-.07.161-.115.053-.489.089-.978.124-1.404l-.979-.311c-.196-.062-.347-.071-.418.195-.116.445-.267.871-.445 1.404v-.017zM124.549 47.54c-1.522.231-2.804 1.155-4.246 1.662a39.656 39.656 0 004.913-1.093c-.169-.222-.658-.063-.667-.569zm40.009 19.069v.168c.24.027.482.027.721 0 .615-.124 1.22-.293 1.781-.453.053 0 .089-.071.133-.106.045-.036-.107-.125-.169-.143a5.034 5.034 0 00-1.077-.168c-.792 0-1.567-.49-2.377-.09h-.329c-.101.022-.2.055-.294.098a1.64 1.64 0 001.371.4 2.26 2.26 0 01.597 0c.062 0 .106.09.249.196l-.606.097zm1.674-1.538c-.819-.302-1.638-.648-2.492-.888a2.676 2.676 0 00-1.514.23 4.35 4.35 0 004.006.658zm-31.456-13.026l.089-.178c-.098-.124-.196-.364-.311-.373-1.104-.142-2.217-.497-3.329 0 0 .453.249.595.685.569h1.851l1.015-.018zM56.332 60.15a17.745 17.745 0 01-1.121-1.413 3.434 3.434 0 00-2.67-1.369c.106.134.15.214.213.25A5.647 5.647 0 0155.15 59.9a.516.516 0 00.275.195c.245.033.492.05.74.054a.784.784 0 00.168 0zm128.583-7.873c.383-.107.712-.204 1.041-.284.33-.08.668-.116 1.006-.17-.392-.639-2.465-.888-3.56-.399l1.513.853zM54.214 40.983l1.95.507c-.099-.418-.179-.79-.268-1.164 0-.044-.071-.089-.124-.107l-1.656-.568c.027.488.062.95.098 1.332zm5.857 7.9c.084-.106.159-.219.222-.338.267-.693.534-1.386.766-2.088.231-.702.187-.613-.436-.95-.08.137-.152.28-.214.426-.103.433-.24.858-.41 1.27a1.95 1.95 0 00.072 1.68zM180.082 61.42l.623.889-.098.089-.365-.222c.231.941 2.172 2.665 3.017 2.559-1.219-1.031-1.851-2.48-3.177-3.315zm-44.656-2.994c.182.221.444.362.73.39.89 0 1.726.125 2.59.196v.48l-1.78-.222a.447.447 0 000 .115c.262.15.533.287.81.41.147.057.304.084.463.08l1.13-.08.952-.099c-.836-.373-1.557-.728-2.314-1.012a6.945 6.945 0 00-2.581-.258zm10.298-.364c-.507-.24-1.077-.24-1.308.07-.232.312-.508-.053-.739.09-.151-.427-.454-.134-.632-.072-.36.17-.706.369-1.033.596l.659.31-.302.267a9.802 9.802 0 003.355-1.261zm-25.812-9.268c.489-.178.89-.32 1.29-.48l2.145-.889c.301-.073.598-.162.89-.266.125-.062.161-.293.214-.444.053-.151-.187-.143-.24-.125-.561.258-1.264.187-1.674.764a.407.407 0 01-.222.134l-1.398.444a1.465 1.465 0 00-.97.862h-.035zm5.839-6.415a17.939 17.939 0 00-4.104 3.056 63.118 63.118 0 001.522-.888c.739-.427 1.487-.889 2.234-1.262.22-.252.343-.573.348-.906zm3.64 7.614v-.124a2.042 2.042 0 00-.659-.373 12.201 12.201 0 00-3.978.142.42.42 0 00-.169.08.38.38 0 000 .107c.223-.046.449-.079.676-.098.178 0 .427 0 .516.098.214.248.419.186.668.115a.732.732 0 01.365 0c.172.072.351.129.534.169h1.682a.984.984 0 00.365-.089v-.027zm89.178 17.167c.078.361.135.726.169 1.093a7.164 7.164 0 01-.098.889l1.051.409c.058-.371.09-.745.098-1.12a8.32 8.32 0 00-.214-1.129l-1.006-.142zm-3.427 8.37c.454 1.253 2.484 1.573 3.561 1.333a8.487 8.487 0 00-3.561-1.332zm3.133-6.495a1.53 1.53 0 000-1.27c-.133-.196-.418-.49-.569-.454a2.958 2.958 0 00-1.398 1.058l1.967.666zm-86.516-16.1l-.098.106c.124.187.222.516.382.542.546.082 1.096.124 1.647.125h1.442c.107 0 .205-.09.312-.134-.08-.115-.143-.302-.259-.337a3.354 3.354 0 00-.738-.116c-.33 0-.668-.07-.997-.089l-1.691-.097zm15.719-2.817l-1.469.489c-.24.08-.614.542-.516.702a.43.43 0 01-.013.53c-.04.05-.09.09-.147.118.729.258 2.225-.995 2.145-1.857v.018zm-1.834 13.053c-.721-.809-2.937-1.43-3.783-1.058.107.054.187.107.276.142.837.347 1.673.694 2.519 1.022a1.016 1.016 0 00.988-.124v.018zm73.406 15.55c.623.64 3.062.453 4.041-.054-.427-.186-.837-.373-1.255-.542a.402.402 0 00-.232.062 6.006 6.006 0 01-2.554.534zm-2.377-4.781a12.088 12.088 0 01-2.074-3.261 1.272 1.272 0 00-.151.889c.321.693.748 1.332 1.113 2.008.24.426.676.364 1.112.364zm-58.674-11.071c.16.195.275.32.373.453.214.293.401.595.623.888.09.116.22.193.365.214a8.19 8.19 0 001.024-.107c.133 0 .258-.071.409-.107-.489-.316-.95-.672-1.379-1.066-.436-.47-.89-.23-1.415-.275zm-12.115-3.448l-.071-.107-.534.125a5.686 5.686 0 00-1.522.435 5.17 5.17 0 01-1.851.551c-.534.098-1.06.249-1.594.382v.116a2.23 2.23 0 001.692 0c1.041-.373 2.091-.729 3.124-1.12.261-.108.514-.236.756-.382zm-86.09-2.594c.241-.09.455-.187.686-.25a1.33 1.33 0 001.1-1.188 1.322 1.322 0 00-.076-.57 3.262 3.262 0 00-.81.31 2.195 2.195 0 00-.712.747 3.115 3.115 0 00-.187.95zm1.033-14.262a2.523 2.523 0 00-.151.409 6.385 6.385 0 00-.17 1.084.586.586 0 00.295.462c.293.142 1.023-.391 1.059-.738.071-.64-.267-1.04-1.033-1.217zm75.213 12.44a1.189 1.189 0 000-.169c-.196-.098-.401-.275-.605-.275-.561 0-1.122.062-1.674.106-.284 0-.569.08-.934.133.177.186.371.356.578.507a1.005 1.005 0 00.953.222 9.955 9.955 0 011.219-.346l.463-.178zm20.819 1.297a2.935 2.935 0 00-.098 1.715c0 .098.33.187.517.222.186.036.302-.053.32-.133.169-.48.294-.977.445-1.528l-1.184-.276zm46.623 7.704c.89.782 2.831.649 3.231-.133a6.655 6.655 0 01-1.584-.151c-.632-.258-1.068.088-1.647.24v.044zM50.386 67.56l-.106-.097-2.866 1.777v.142h1.433a.357.357 0 00.258-.125c.294-.355.578-.71.89-1.075.089-.24.214-.435.347-.622h.044zm9.791-12.884a1.72 1.72 0 001.47-1.164c.03-.263.03-.528 0-.79l-.615.275a.886.886 0 00-.222.133c-.16.151-.401.276-.455.462a5.8 5.8 0 00-.186 1.084h.009zm12.791-12.44c-.356-1.164-.712-2.319-1.095-3.474 0-.106-.213-.178-.32-.258a.348.348 0 00-.09.072 2.7 2.7 0 000 .462c.197.764.393 1.519.597 2.274a1.093 1.093 0 00.9.916l.008.008zm1.05 24.045c.33.537.823.957 1.407 1.2a24.45 24.45 0 004.77 1.359l.677.15v-.097c-.142 0-.276-.098-.418-.133-1.37-.391-2.75-.756-4.112-1.19a5.17 5.17 0 01-2.074-1.52l-.25.23zm34.901-16.376a.237.237 0 000-.054 4.82 4.82 0 01.187-.506c.267-.533.552-1.058.801-1.59 0-.054-.089-.25-.116-.24-.294.062-.587.088-.73.453-.142.364-.436.755-.614 1.146-.105.27-.183.55-.231.835h.712l-.009-.044zm92.623 4.664c.228.099.463.182.703.25.202.058.415.073.623.044.416-.109.826-.24 1.228-.391.088-.027.175-.06.258-.098a1.096 1.096 0 00-.169-.116 6.631 6.631 0 01-.703-.24c-.792-.382-1.344-.142-1.949.543l.009.008zM61.37 56.791c-1.557.418-1.78.809-1.308 1.91 1.442-1.217 1.442-1.217 1.308-1.91zm100.189-2.204c-.329-.115-.677-.373-.953-.32a2.24 2.24 0 00-1.263.889c.311.16.578.329.89.453a.426.426 0 00.365 0c.293-.293.596-.63.961-1.022zm-90.042-13.39c-.115-.507-.187-.889-.311-1.342a20.42 20.42 0 00-.534-1.626c0-.071-.16-.107-.24-.16 0 .089-.134.187-.134.275 0 .285 0 .57.062.889a2.439 2.439 0 001.157 1.964zm-4.299 5.224h.107c.053-.062.133-.115.151-.186.233-1.02.598-2.006 1.086-2.932.17-.294 0-.578-.124-.889-.178.343-.335.696-.472 1.057-.205.49-.427.969-.623 1.467-.168.475-.211.986-.125 1.483zm-10.841 4.346a3.404 3.404 0 00-.632-.685 3.056 3.056 0 00-.89-.177l.605-.205-1.389-1.777c-.115 1.342 1.3 3.066 2.306 2.843zm69.854 12.937c-.08.826-.16 1.608-.258 2.497l1.041-1.218a.642.642 0 00.204-.628.64.64 0 00-.462-.473l-.525-.178zm11.571-11.836l-1.985-.888a.65.65 0 00-.195 0 .641.641 0 000 .23c.124.356.249.72.409 1.076 0 .089.196.204.258.186.49-.15.962-.337 1.433-.515.054 0 .071-.062.089-.098l-.009.01zM29.817 57.031l3.364-.578a6.228 6.228 0 00-.748-.506c-.187-.09-.471-.187-.623-.107-.667.347-1.29.755-1.993 1.19zM56.35 42.014l-1.967-.835c-.205.498-.08 1.03.222 1.093.472.098.944.178 1.443.267l.302-.525zm-3.329.053a11.898 11.898 0 001.255 2.977c.196-.373-.08-.71-.053-1.048.026-.338-.232-.649-.499-.889l.339.062c.089-.56-.152-.79-1.042-1.101zM135.248 52.9c0-.364 0-.55-.392-.55h-2.839c-.134 0-.258.132-.383.212v.098l3.614.24zm22.475 7.633c-.081-.631-.161-1.262-.232-1.893l-.748-.107c.046.274.046.553 0 .827-.124.346.125.524.214.773.125.4.294.489.766.4zm-23.232-.933a.216.216 0 000-.063l-.249-.142a16.521 16.521 0 00-3.311-1.679.608.608 0 00-.721.169l4.281 1.715zm46.374-3.83c.133-.524.249-.96.383-1.466-.463 0-.89-.098-1.273-.116-.098 0-.232.143-.276.25a.354.354 0 00.053.31c.339.338.704.649 1.113 1.022zm20.65 6.869c.046.057.096.11.151.16.276.195.543.4.819.586a.964.964 0 001.264-.124l-.516-.374c-.169-.124-.347-.24-.507-.373a.892.892 0 00-1.211.125zm-69.427-8.886l-.08.195c.222.187.445.534.65.525.827 0 1.646-.151 2.465-.258.054 0 .089-.106.169-.204l-3.204-.258zm12.96 7.197l1.78.8a2.744 2.744 0 00-.347-1.67l-1.433.87zm11.82-5.144l1.264.408.525-.888a3.796 3.796 0 01-.765-.32c-.356-.267-.552-.089-.721.186-.101.203-.19.41-.267.622l-.036-.008zm30.139 9.303a7.812 7.812 0 00-2.822-2.222 4.85 4.85 0 002.822 2.222zm12.63-7.109c.113.01.226.01.338 0 .267-.08.472-.177.534-.533.12-.473.274-.936.463-1.386-.285.071-.561.133-.828.213a.325.325 0 00-.204.187c-.152.47-.241 1.004-.348 1.484l.045.035zm-88.288-10.84c-.098.053-.151.062-.16.089-.33.764-.659 1.537-.971 2.301a.209.209 0 00.089.196.476.476 0 00.537-.152.473.473 0 00.087-.177c.151-.631.302-1.27.436-1.91a1.185 1.185 0 00-.018-.347zM61.103 60.336c.187-.595.517-1.137.258-1.777-.525.196-.89.453-1.014 1.013-.045.222.382.658.756.764zm97.492-4.123c.285.498.792.311 1.157.507 0 0 .151-.053.169-.107.116-.249.205-.506.303-.764a7.272 7.272 0 00-.979-.302c-.499-.071-.419.462-.65.666zm-99.86-13.701l-.293.222a1.245 1.245 0 00-.499 1.102c0 .257.205.373.383.266a1.84 1.84 0 00.739-.63.772.772 0 00-.33-.96zm1.647 10.218c.89-.337 1.487-.826 1.14-1.892a3.05 3.05 0 01-.606.613 1.076 1.076 0 00-.534 1.28zM160.767 64.7v.088c.409.23.827.453 1.228.693a1.319 1.319 0 001.317-.124c-.472-.187-.932-.4-1.379-.64a1.416 1.416 0 00-1.166-.018zm55.328 9.613c.472.782.979 1.422 2.056 1.031a6.738 6.738 0 00-1.086-.96c-.24-.142-.623-.017-.97-.07zm-81.399-14.101l.044-.151-4.45-1.724v.08c1.024.506 2.029 1.048 3.071 1.51a6.5 6.5 0 001.335.285zm67.006 1.342c-.16-.205-.347-.418-.507-.65-.356-.506-.721-.577-1.264-.195.222.285.436.578.658.889a.31.31 0 00.223.116c.285-.063.578-.116.89-.16zm-39.965 4.105a2.144 2.144 0 00-2.065-.747c.32.8.89 1.004 2.065.747zm-106.25-18.66c.614.995 1.157 1.777 1.958 1.52a6.453 6.453 0 00-.89-1.076 4.078 4.078 0 00-1.068-.426v-.018zm124.933 14.04a.515.515 0 00.062-.08c-.445-.89-.347-1.973-1.317-2.56a4.018 4.018 0 001.255 2.64zm-46.694-3.555c.163.126.335.239.516.338.161.091.34.146.525.16h2.261a7.265 7.265 0 00-3.302-.454v-.044zm24.798 4.798l-.517-.977c-.186-.364-.338-.418-.801-.267.107.293.232.569.321.889.205.577.213.702.997.355zM54.464 42.627c0 .338-.117.658.275.827.214.097.436.16.65.257.213.098.276.223.4 0 .125-.222 0-.702-.124-.746-.392-.124-.783-.222-1.202-.338zm41.086 10.53v.07c.115-.044.234-.08.356-.106.967-.19 1.92-.45 2.848-.782.303-.106.303-.266.142-.497l-3.346 1.315zm40.721 3.145c.766.418 2.11.276 2.439-.23a3.334 3.334 0 00-2.439.23zm48.279-3.98v-.107a7.083 7.083 0 01-1.139-.453 1.784 1.784 0 00-1.665.106s-.053.09-.08.142c-.027.054.098.063.125.054.77-.09 1.55.027 2.26.337.134.054.33-.044.499-.08zm-24.673 1.91a.265.265 0 000-.089h-1.229c-.169.01-.336.052-.489.124-.214.098-.241.25 0 .383.24.133.48.275.712.408l1.006-.826zm-95.472-11.73a2.726 2.726 0 00.356-2.39 2.389 2.389 0 00-.356 2.39zM216.21 75.256a1.252 1.252 0 00-.169-.302 5.993 5.993 0 00-.774-.729c-.216-.119-.451-.2-.694-.24a.663.663 0 00-.223 0 .502.502 0 000 .205 2.4 2.4 0 001.86 1.066zM64.984 50.9c.988-.418 1.558-1.28 1.122-1.84-.178.134-.419.24-.508.418-.232.462-.437.936-.614 1.422zm134.404 8.885c.176.144.379.253.596.32a.89.89 0 00.552-.169 5.811 5.811 0 00-.196-.968h-.089l-.142.053c-.508.169-.517.169-.641.72l-.08.044zm-74.394-14.98h-.151c-.606.275-1.211.541-1.781.834-.115.054-.16.231-.231.356a.72.72 0 00.436 0c.463-.204.89-.444 1.389-.63a.551.551 0 00.338-.56zm-66.668 5.722a1.914 1.914 0 00-1.985-.516c.374.613.792.835 1.13.631v-.426c.294.435.472.497.855.31zm7.343 6.13a1.203 1.203 0 00-.819.756c-.097.187 0 .47 0 .773.704-.595 1.353-1.777 1.193-2.266l-.374.738zm69.054-.95c.774.693 1.477.266 2.305-.16-.294-.107-.507-.275-.694-.24-.544.106-1.081.24-1.611.4zm-78.498-10.21a1.97 1.97 0 00-1.433-1.59 1.97 1.97 0 001.433 1.59zm126.331 7.064c-1.201-.15-2.056.063-2.225.533a9.251 9.251 0 011.219 0c.481.08.686-.222 1.006-.533zM64.761 54.818c.342-.16.63-.416.828-.737.171-.342.206-.736.098-1.102-.29.22-.55.477-.774.764a3.701 3.701 0 00-.151 1.075zm3.614-.888c.25.24.436.098.606-.054.258-.209.493-.444.703-.701.2-.329.379-.67.534-1.022l-.107-.045-1.736 1.822zM59.6 47.043c.214-.755.4-1.404.587-2.052-.19.143-.358.314-.498.506-.151.178-.33.338-.472.525-.142.186-.124.266-.08.346.13.252.285.49.463.711v-.036zm5.937 7.909c-.783.417-1.033.977-.739 1.661.279-.27.53-.568.748-.888.098-.17 0-.453-.01-.738v-.035zm154.297 21.707c-.783-.889-1.433-1.093-2.109-.755.738.24 1.237.933 2.109.79v-.035zm-56.743-10.21a1.612 1.612 0 00-1.958-.168c.623.595 1.281.39 1.958.168zM70.405 50.67l-2.074 2.506c.124.062.222.08.258 0 .222-.24.436-.49.65-.738.213-.249.64-.755.996-1.093a.613.613 0 00.17-.675zm-5.937 7.197c-.659.71-.739 1.235-.24 1.608l.311-.542c.276-.56.276-.56-.107-1.066h.036zm43.401-9.774c-.125.053-.33.08-.392.178-.347.622-.668 1.261-.997 1.892a.708.708 0 01.116.116c.151-.08.374-.116.436-.24.258-.613.498-1.244.801-1.955l.036.009zm-41.585 3.021c-.632.169-1.327 1.226-1.13 1.67a2.089 2.089 0 001.13-1.67zm57.126-8.495l-.063-.08a9.875 9.875 0 00-2.768 2.23l.08.09 2.751-2.24zm40.552 24.942c.561.542 1.309.311 2.003 0a2.086 2.086 0 00-2.003 0zM58.095 47.417l.089-.107c-.312-.231-.623-.48-.953-.684-.329-.204-.747-.427-1.175-.667.365 1.067 1.3 1.102 2.039 1.458zm142.325 8.21c.249.026.499.026.748 0 .271-.041.533-.129.774-.258.178-.097.152-.249-.053-.32-.641-.23-1.033-.088-1.469.578zm-53.014 2.817c-.507-.276-2.563.355-3.355 1.013l3.355-1.013zm-83.935-7.882a1.644 1.644 0 00.685-1.688c-.783.31-.64 1.013-.685 1.688zm-7.468 2.924c.24-.507.125-.756-.552-1.085v.276h-.089l-.196-.533c-.231.586.107 1.093.837 1.342zm9.622-7.775l-.098-.054c-.16.143-.436.294-.436.436.031.492.094.981.187 1.466h.133a6.123 6.123 0 00.214-1.848zm98.907 7.481a1.65 1.65 0 00-1.896-.31c.187.115.338.284.507.301.436.036.881.01 1.389.01zm-39.494-11.809a2.667 2.667 0 001.861-2.31 6.035 6.035 0 01-1.861 2.31zM66.64 54.028c-.588.168-.997.888-.66 1.332.151-.197.321-.379.508-.542a.526.526 0 00.152-.79zm38.905-3.652l.134.124c.142-.142.347-.249.436-.418.214-.435.383-.888.57-1.35 0-.08.053-.16.089-.24l-.107-.053a7.415 7.415 0 00-1.122 1.937zm98.249 7.739v-.16a9.422 9.422 0 00-1.327-.107c-.505.037-1.007.105-1.504.205-.062 0-.107.124-.16.186-.053.063.151.08.214.054a9.17 9.17 0 012.305-.258 2.7 2.7 0 01.472.115v-.035zM56.466 40.459l-.116.062c.061.275.142.545.24.809a.303.303 0 00.285.098c.24-.138.472-.29.695-.453l-1.104-.516zm7.815-.675a1.298 1.298 0 00.436-1.688c-.498.453-.33 1.066-.436 1.688zm75.818 17.824v.125c.596-.187 1.273-.09 1.718-.551l-.347-.355-1.371.781zm48.447 9.09a4.17 4.17 0 00-2.082-1.395 5.732 5.732 0 002.082 1.395zm-49.782-6.468a1.257 1.257 0 00.998.424 1.267 1.267 0 00.96-.504l-1.958.08zM64.245 46.82l-.463 1.546c.704-.044.81-1.03.463-1.546zm69.757 10.183v-.07l-1.781-.339s-.115 0-.115.072c0 .07 0 .124.071.142a2.47 2.47 0 001.825.204v-.009zm-29.213-7.721c-.47.38-.827.88-1.033 1.448a.475.475 0 00.59-.139.472.472 0 00.087-.199c.116-.328.222-.666.356-1.102v-.008zm16.814-2.284a.632.632 0 010 .107l3.097-1.102c0-.062-.044-.125-.071-.196L121.603 47zm44.771 6.424a1.389 1.389 0 00-1.299-.613c-.054 0-.116.08-.116.125 0 .044 0 .177.071.186.445.125.899.213 1.344.311v-.009zM64.263 56.284c-.32.107-.596 1.173-.41 1.467a1.306 1.306 0 00.41-1.467zM56.475 53.3c-.116.595 0 .817.534 1.066.311-.39.124-.764-.534-1.066zm48.323-2.772c.463-.072.436-.507.614-.791.175-.32.332-.65.472-.986-.766.4-.766 1.155-1.086 1.777zM57.151 61.873c.739 0 1.175-.177 1.37-.684a1.702 1.702 0 00-1.37.684zm52.106-12.084c.232.071.374.044.445-.249.125-.462.303-.888.463-1.368l-.125-.053a12.843 12.843 0 01-.783 1.67zm-43.872-5.233c-.17.15-.312.222-.339.32-.059.239-.1.483-.124.728l.472-.107h.16c-.054-.31-.107-.586-.17-.941zm59.823-.64l-2.163 1.128a3.566 3.566 0 002.163-1.128zM164.3 66.965c-.56-.293-1.023 0-1.575 0a1.336 1.336 0 001.575 0zM54.962 45.39c-.116.728.596.737.89 1.181a1.465 1.465 0 00-.89-1.181zm72.907 12.564a2.174 2.174 0 00-1.647-.444c.499.595 1.148.275 1.647.444zM62.964 53.93h-.143c-.099.222-.182.45-.25.684v.613c0 .204-.07.56-.115.889h.134l.373-2.186zm118.764-.507l-1.531.16c.333.109.672.198 1.015.267.356.08.454-.151.516-.453v.026zM46.532 57.28a2.237 2.237 0 00-1.913.55l1.913-.55zm10.326-2.257l-.561-.702c-.33.453-.303.577.098.888.267.222.329-.044.462-.186zm-1.229-.551c.205-.276.178-.444 0-.587a3.837 3.837 0 00-.454-.32.455.455 0 00-.196 0c0 .08-.053.205 0 .24.17.205.4.418.65.667zm.953-2.275c0 .578.347.8.712 1.075a1.02 1.02 0 00-.712-1.075zm10.262-8.93c-.382.24-.391 1.182-.115 1.84v-.89c0-.283.115-.541.115-.95zm41.363 5.331l-.134-.08c-.231.454-.463.889-.685 1.351 0 0 .062.151.08.142.018-.009.187 0 .214-.089.213-.382.374-.826.552-1.27l-.027-.054zm-7.904 2.666c-.374.213-.784.293-.89.764.525.062.747-.115.89-.764zM58.469 48.83a1.128 1.128 0 00-1.042-.826c.338.258.392.835 1.006.782l.035.044zm155.863 23.725c-.142.764.098 1.102.739 1.093l-.739-1.093zM57.819 38.904h.124c0-.382.063-.764.054-1.137 0-.133-.125-.249-.196-.373l-.151.124c.07.462.115.924.169 1.386zm8.01 9.774c.535-.177.642-.666.357-1.181-.134.373-.232.764-.365 1.155l.009.026zm35.524 2.204l-.107-.071c-.178.23-.365.462-.534.702v.16a.34.34 0 00.187 0c.454-.125.499-.409.445-.818l.009.027zm41.033 4.132a1.181 1.181 0 00-.071-.16l-1.611.755c.721.098 1.113-.462 1.673-.622l.009.027zm-39.885-3.874c.445-.125.606-.462.508-1.093a1.842 1.842 0 00-.517 1.066l.009.027zm40.945 4.869a1.907 1.907 0 001.593-.72l-1.593.72zm-87.034 1.368c0 .569.401.764.704 1.12-.018-.444-.17-.693-.704-1.12zm9.453-12.333c.267-.24.312-.533.178-1.022-.347.134-.365.187-.178 1.022zm68.43 1.973l-.89.195a.475.475 0 000 .107l.552.115c.392.09.401.08.338-.417zm-59.814-6.122h-.151c.107.506.222 1.013.338 1.52h.151a76.054 76.054 0 01-.338-1.52zm27.807 9.587l-.143-.07-.489.816a.35.35 0 00.062.098c.107 0 .285 0 .32-.098.097-.244.18-.493.25-.746zM214.11 62.584l.08.098 1.015-.809c-.606-.035-.81.418-1.095.711zM55.985 52.153c.125-.4-.249-.738-.89-.711l.89.71zm2.136-.418l.09-.098c-.303-.595-.285-.782-.793-.595l.703.693zm9.266-5.038h-.178c0 .426-.098.889-.142 1.28h.142c.063-.427.125-.854.178-1.28zm-1.175 6.886c.276-.142.445-.328.32-.666-.4.124-.498.293-.32.666zM57.57 55.05c.32-.24.32-.488 0-.675-.187.222-.32.444 0 .675zm-.766 1.182c-.24.24-.231.435 0 .622a.746.746 0 00.205.107c0-.08.124-.187.107-.24a3.946 3.946 0 00-.312-.489zm8.198-12.67a.559.559 0 000 .719c.41-.338.4-.48 0-.72zm108.253 5.037v-.115l-1.594-.338a.32.32 0 010 .098l1.594.355zM57.73 56.791h.178a.49.49 0 00-.143-.693h-.124c.026.222.062.497.089.693zm.463-.977c.311-.471.311-.48 0-.72-.116.23-.339.462 0 .72zm-1.042-.551c-.205.284-.249.515.054.737.08-.151.142-.284.213-.426-.08-.09-.16-.178-.267-.311zm.454 2.807c.276-.408.223-.63-.196-.888l.196.888zm127.087 4.825l1.184.738c-.249-.569-.748-.613-1.184-.738zM58.709 51.78c.294-.417.24-.506-.383-.613l.383.613zm-2.973 3.812c.178.178.32.32.48.462l.16-.168-.462-.374-.178.08zm.142 1.6h.143c.178-.285 0-.445-.196-.613h-.134l.187.613zm144.418 1.04l-.739.23c.694.045.694.045.739-.23zm-124.275 0a5.228 5.228 0 01-.49-.267c-.249-.169-.364 0-.445.142l.935.124zm-13.885-.08c.222-.232.231-.507 0-1.005.009.338.009.676 0 .995v.01zm76.984-1.698l-.063-.106-.765.497v.071l.828-.462z" fill="#fff"/></svg>