<svg width="0" height="0" class="hidden"><symbol viewBox="0 0 43 14" fill="none" xmlns="http://www.w3.org/2000/svg" id="arrow"><path opacity=".5" d="M33.444 5.833H0v2.334h33.444V14L43 7l-9.556-7v5.833z" fill="#fff"/></symbol><symbol viewBox="0 0 30 19" fill="none" xmlns="http://www.w3.org/2000/svg" id="English"><path d="M29.99.045V18.98l-.008.01H.027V.044H29.99z" fill="#2E4593"/><path d="M29.99 17.01v1.971l-.009.01h-3.116l-9.195-5.822-.919-.581-1.09-.681-.36-.237-1.108-.699-.414-.263-.342-.21-.694-.444-.225-.137-.342-.217-3.26-2.071-1.468-.927L.026 2.016V.046L.053.008l.054.036h3.036l9.375 5.922.919.581.243.154 1.468.927.153.1.559.354.891.563.153.1.766.481.747.473 2.018 1.271 1.477.935 8.078 5.105z" fill="#FCF5FF"/><path d="M29.99 18.927L30 19l-2.01-.01-10.32-6.53-.883-.553-.036-.027-.892-.564-.53-.345-.983-.617-.91-.572-.125-.082-.568-.354-.225-.146-2.477-1.57-1.468-.927L.026 1.299V0l.027.01.054.035 10.547 6.658 1.459.926.405.254.919.59.342.219.567.354 1.036.654 1.37.863.152.1.495.308.27.173 1.199.763 11.122 7.02z" fill="#F42525"/><path d="M29.99.417v1.971l-6.835 4.314-1.468.927-3.27 2.07-.747.473-.765.49-.153.09-.352.219-.54.345-.558.354-.37.236-1.495.945-.918.581-8.79 5.558H.026v-1.607l8.664-5.477 1.468-.935 2.017-1.272.343-.209.225-.145.693-.445.343-.209 1.522-.963.144-.1 1.306-.817.162-.109.756-.472L27.46.045h2.297l.234.372z" fill="#FCF5FF"/><path d="M29.91.517l-9.79 6.185-1.468.927-.982.626-.765.49-.153.092-1.37.862-1.035.654-.567.354-.343.227-.072.037-.846.545-.622.39L.702 18.99H.027v-.89l9.799-6.194 1.468-.935 1.225-.772.225-.146.567-.354.126-.081.91-.573 1.513-.962.711-.454.18-.11.92-.58.369-.237L28.577.045h1.414v.409l-.081.063z" fill="#F42525"/><path d="M30 6.703H0v5.195h30V6.703z" fill="#fff"/><path d="M30 7.63H0v3.341h30V7.63z" fill="#F42525"/><path d="M16.752.045h-3.314V18.99h3.314V.045z" fill="#CD002A"/><path d="M16.743 11.906h.918v7.084H12.51v-7.084h.918V6.702h-.918V.045h5.151v6.657h-.918v5.204z" fill="#fff"/><path d="M16.76.045h-3.35V18.99h3.35V.045z" fill="#F42525"/></symbol><symbol viewBox="0 0 30 19" fill="none" xmlns="http://www.w3.org/2000/svg" id="France"><path d="M30 0H0v19h30V0z" fill="#2E4593"/><path d="M30 0H15.573v19H30V0z" fill="#F42525"/><path d="M20.108.027H9.973v18.9h10.135V.027z" fill="#fff"/></symbol><symbol viewBox="0 0 18 18" fill="none" xmlns="http://www.w3.org/2000/svg" id="German"><path d="M29.982 0H0v19h29.982V0z" fill="#28292B"/><path d="M29.982 9.181H0V19h29.982V9.18z" fill="#FFF915"/><path d="M30 6.248H0v6.394h30V6.248z" fill="#DD3131"/></symbol><symbol viewBox="0 0 30 19" fill="none" xmlns="http://www.w3.org/2000/svg" id="Info"><path fill-rule="evenodd" clip-rule="evenodd" d="M10 16h1.003c.55 0 .997.444.997 1 0 .552-.453 1-.997 1H6.997A.996.996 0 016 17c0-.552.453-1 .997-1H8V7h-.99a1 1 0 110-2h1.98C9.549 5 10 5.444 10 6v10zm0-14.5a1.5 1.5 0 10-3 0 1.5 1.5 0 003 0z" fill="#fff"/></symbol><symbol viewBox="0 0 30 19" fill="none" xmlns="http://www.w3.org/2000/svg" id="Italian"><path d="M30 0H0v19h30V0z" fill="#34A53E"/><path d="M30 0H15.573v19H30V0z" fill="#E52525"/><path d="M20.108.027H9.973v18.89h10.135V.028z" fill="#fff"/></symbol><symbol viewBox="0 0 30 19" fill="none" xmlns="http://www.w3.org/2000/svg" id="Spanish"><path d="M29.982 0H0v19h29.982V0z" fill="#E83434"/><path d="M30 5.064H0v8.753h30V5.064z" fill="#FFF915"/></symbol></svg>