<svg width="182" height="69" fill="none" xmlns="http://www.w3.org/2000/svg"><path fill-rule="evenodd" clip-rule="evenodd" d="M76.18 43.775l1.344 1.184a.153.153 0 010-.043c.042.1.056.228.127.285.36.323.677.692.94 1.098a18.676 18.676 0 012.187 3.836c.346.82 1.747 3.414 1.252 4.277-.12.245-.275.47-.46.67-4.612 4.185-9.904 3.565-15.5 2.652-.792-.128-1.584-.192-2.376-.292-1.564-.193-3.29-.121-4.747-.763-.764-.342-1.139-1.49-1.889-1.747-.877-.292-1.712.57-2.546.977a32.064 32.064 0 01-7.987 2.445 9.653 9.653 0 01-3.233-.042 14.118 14.118 0 00-5.857.349 20.216 20.216 0 01-9.706.264c-2.037-.442-4.584-1.248-6.635-.585-.347.114-.708.207-1.04.342-.333.136-.609.321-.92.478-4.4 2.246-8.75 4.755-12.98 7.307-1.154.713-2.448 2.396-3.856 2.531a1.94 1.94 0 01-1.063-.263 1.961 1.961 0 01-.755-.799c-.814-1.12-.573-1.39.573-2.046 4.817-2.78 9.613-5.782 14.664-8.241l2.328-1.12c.22-.107.445-.185.707-.299a2.079 2.079 0 01-.8-1.64c-.042-1.426 1.097-3.094 1.62-4.377a29.598 29.598 0 012.646-5.582c.34-.506.708-1.005 1.083-1.49.12-.164.127-.257 0-.4-2.83-2.523-5.22-6.209-6.912-9.58-1.075-2.14-2.086-4.514-2.214-6.945-.127-2.43 1.592-2.851 3.233-4.149 1.464-1.126 2.922-2.253 4.428-3.322 3.58-2.545 7.549-4.919 11.87-5.874.937-.175 1.881-.296 2.83-.364 2.08-.228 2.01-1.875 2.965-3.443a18.683 18.683 0 012.83-3.458C45.16 2.87 49.658-1.202 53.966.338c.516.185 1.026.399 1.542.584a7.065 7.065 0 011.606 1.013c.5.364.973.764 1.415 1.197.77.736 1.44 1.57 1.995 2.481a16.61 16.61 0 011.797 3.921c.261.877.381 2.075 1.082 2.73.827.778 2.433.992 3.473 1.427a9.528 9.528 0 011.493.912c.65.428 1.301.87 1.945 1.326.644.456 1.132.791 1.67 1.22.99.79 1.98 1.589 2.935 2.423.609.535 1.175 1.126 1.74 1.711 1.925 1.968 4.068 3.892 5.349 6.416 1.563 3.03.834 5.832-.743 8.67a8.928 8.928 0 01-1.854 2.516c-.445.385-.799.884-1.216 1.312-.566.57-1.146 1.126-1.72 1.69a.185.185 0 00-.063.149c.283-.114.573-.221.856-.342.898-.385 1.811-.713 2.695-1.155.658-.3 1.288-.656 1.946-.963.353-.17.707-.285 1.11-.434.899-.357 1.776-.763 2.696-1.063a22.87 22.87 0 012.504-.606.536.536 0 00.495-.513c.311-1.918.615-3.836.94-5.753.885-5.226 1.741-10.601 5.533-14.58a38.074 38.074 0 017.456-5.952c.941-.592 1.931-1.17 2.829-1.804.538-.37.828-1.083 1.373-1.426.919-.577.552-.213 1.379.229.204.161.352.383.425.634.629 1.533.403 3.037.75 4.62.346 1.582 1.266 3.108 1.846 4.655.29.777.446 1.604.707 2.467.283-.018.566-.018.849 0 5.659.713 10.816 3.914 14.934 7.842.589.519 1.226.98 1.902 1.376 1.366.877-.537 2.652-1.004 3.643-1.068 2.231-1.33 4.847-2.525 7a5.23 5.23 0 00-.283.713c.474-.114.898-.178 1.308-.306 2.766-.898 5.461-1.918 8.383-2.232 2.752-.292 5.03 1.355 7.23 2.752.226.136.467.257.665.364a8.092 8.092 0 011.04-.784c5.192-2.78 9.486.712 11.545 5.396l1.068.157c.148 0 .247 0 .29-.185a4.783 4.783 0 011.464-2.381 4.34 4.34 0 011.931-1.041 9.547 9.547 0 016.699.99c1.323.714 4.302 2.24 4.761 3.8.219.581.219 1.223 0 1.804a2.6 2.6 0 01-1.004 1.148c-.587.413-1.224.763-1.825 1.155-.439.285-.849.599-1.274.898l3.092 2.317.955-.713c2.419-1.796 5.857 1.034 7.272 2.852.87 1.133 4.768 9.581.877 9.196a19.556 19.556 0 01-8.163-2.58 6.445 6.445 0 01-2.83-2.938c-.587-1.518.608-2.972.248-4.32-.121-.463-.467-.784-.588-1.226 0-.121-.226-.214-.36-.292a17.403 17.403 0 01-2.123-1.497c-.467-.35-1.931-.072-2.49-.1a10.496 10.496 0 01-2.49-.392c-1.952-.613-4.244-2.852-4.336-5.048 0-.05-.106-.128-.177-.142a21.495 21.495 0 00-.587-.093c.127.57.254 1.112.368 1.647.091.345.162.695.212 1.048.049.478.042.955.071 1.426a4.388 4.388 0 01-.588 2.139c-.07.142-.162.278-.247.413a1.088 1.088 0 01-.814.57c-.707.121-1.45.271-2.186.378a9.016 9.016 0 01-2.277-.05c-2.781-.292-7.499-1.49-8.963-4.185a8.974 8.974 0 01-.785-3.022c-.213-1.512 1.075-3.344-1.033-3.665l-3.12-.442a1.56 1.56 0 00-.191 0c.863 1.07 1.797 1.811 2.405 3.123a18.758 18.758 0 011.472 4.99 2.96 2.96 0 01-.382 2.139 2.19 2.19 0 01-.63.45h-.085c-1.019.755-2.921.712-4.145.947-1.698.343-3.438.713-5.15.264-2.257-.599-4.131-2.217-5.751-3.85a6.192 6.192 0 01-1.125-1.989 8.683 8.683 0 01-.46-3.985c.05-.404.128-.804.233-1.198a1.5 1.5 0 00-.035-.406c-.941.549-1.797 1.077-2.681 1.547-.366.155-.748.27-1.139.342l-1.174.307 1.415 1.048c-.107.192-.319.22-.566.242-.588.057-1.16.15-1.762.236.191.442.361.798.502 1.162.293.805.479 1.647.552 2.502.036.406-.148.613-.665.784a9.23 9.23 0 01-2.582.328c-.297 0-.594.05-.891 0-.75-.05-1.5-.107-2.25-.185a16.868 16.868 0 01-3.714-.785c-1.032-.342-2.426-1.333-3.409-1.347.297.42.615.834.912 1.262a1.122 1.122 0 01-.177.912c-.077.072-.141.15-.219.214-.262.221-.523.079-.771 0-.446-.15-.891-.32-1.358-.492a31.824 31.824 0 01-4.881 4.741 2.226 2.226 0 01-.39-.385c-1.082-1.725-2.355-3.329-3.275-5.154-.806-1.59-.849-3.757-1.952-5.14-.608-.777-1.351-1.504-2.002-2.26-.87-1.02-1.69-2.182-3.063-2.495-1.69-.4-3.657.385-5.327.627-1.07.2-2.122.483-3.148.848-1.012.336-2.009.656-3.006.991zm-21.308-4.99c.107-.164.199-.32.305-.478.375-.549.403-.962.084-1.376-.155.592-.318 1.177-.473 1.769 0 0 .063.05.099.07.014.1.014.2 0 .3-.22.442-.46.884-.708 1.326a.51.51 0 000 .185l.12.065c.46-.635.927-1.27 1.415-1.91.191-.265.085-.514-.05-.82-.148.213-.254.391-.381.555-.13.11-.267.21-.41.3v.014zm-.099-2.745a1.033 1.033 0 00-.148-.976 6.25 6.25 0 00-.608 1.839c.318-.057.127-.635.544-.456l.22-.414c-.02.21-.058.417-.114.62-.198.585-.424 1.155-.63 1.733-.123.27-.22.552-.29.841-.005.24.016.479.064.713.217-.25.392-.534.517-.841.276-.713.495-1.49.77-2.225a.89.89 0 00-.098-.77c-.029-.057-.149-.05-.227-.078v.014zm108.184 9.368a7.639 7.639 0 00-2.122-.456.814.814 0 00-.891.456 5.396 5.396 0 00-.318.784 5.536 5.536 0 012.574.214 8.35 8.35 0 012.201 1.198c-.057.035-.107.05-.142 0-.601-.328-1.203-.67-1.811-.998a.549.549 0 00-.297 0c-.078 0-.142.064-.219.078-.552.071-1.104.128-1.656.221a4.313 4.313 0 00-.672.214c.075.199.132.404.17.613 0 .228.134.257.318.228.333-.05.665-.1.998-.128.757-.057 1.507-.1 2.256-.143a.815.815 0 01.22.05v.114a9.186 9.186 0 00-3.537.52c.07.115.148.225.233.329.182.15.355.312.517.484a.505.505 0 00.608.164l3.205-.77h.077l.036.1c-.531.236-1.118.292-1.663.492-.544.2-1.075.364-1.669.563.202.176.417.336.644.478.29.157.565.37.933.143.368-.229.948-.492 1.415-.713.389-.15.734-.395 1.005-.713 0-.043.12 0 .191-.057a.48.48 0 01-.163.27c-.255.193-.516.379-.778.557l-1.139.84a.473.473 0 00-.12.122c.049 0 .106.078.155.078h1.026a2.26 2.26 0 001.323-.413c.53-.306 1.033-.656 1.556-.977.089-.05.181-.093.276-.128v.064l-1.677 1.184.043.107c.163 0 .332-.043.502-.079.17-.035.368-.135.559-.185.446-.114.898-.207 1.337-.335.898-.264 1.783-.592 2.695-.806a.76.76 0 00.573-.477 1.01 1.01 0 00.071-.321 1.516 1.516 0 00-.34-1.305c-.657-.634-1.344-1.24-2.03-1.846a7.28 7.28 0 00-2.271-1.426c-.962-.35-1.945-.649-2.928-.948a5.002 5.002 0 00-.807-.122.213.213 0 010 .072l2.512 1.746a.303.303 0 01-.05.079 1.727 1.727 0 01-.332-.15 12.64 12.64 0 00-2.229-1.376 3.15 3.15 0 00-.601-.207 7.928 7.928 0 00-.997-.114c-.085 0-.184.072-.305.121l1.458.713a3.54 3.54 0 011.259.92c-.177-.071-.333-.185-.502-.257-.39-.17-.708-.563-1.224-.313a6.424 6.424 0 01-.814.27v.115c.517.214 1.04.406 1.549.627a6.212 6.212 0 011.514.663 7.743 7.743 0 01-.905-.257c-.22-.078-.418-.192-.637-.263-.53-.186-1.075-.335-1.599-.542a.603.603 0 00-.764.2l.255.05 1.761.392c.107 0 .291.042.191.249l-.007-.057zm-9.422.599c-.269-.321-.524-.642-.8-.956-.276-.313-.742-.855-1.146-1.24a28.396 28.396 0 00-1.782-1.54c-.34-.264-.672-.613-1.203-.463-.233.04-.47.057-.707.05-.198 0-.389.07-.644.12l.743.422-.036.085c-.403-.057-.707-.478-1.216-.392.318.185.566.314.806.47.396.25.799.507 1.181.777.382.271.941.67 1.373 1.041.419.37.818.763 1.195 1.177.345.348.667.72.962 1.112.357.513.687 1.043.991 1.59.375.634.707 1.283 1.061 1.932.255.477.488.962.707 1.425l-.063.065c-.078-.065-.184-.122-.227-.207-.74-1.34-1.478-2.683-2.214-4.028a7.682 7.682 0 00-1.733-2.139 18.64 18.64 0 00-2.122-1.632 26.361 26.361 0 00-2.37-1.29 1.16 1.16 0 00-.58-.108.92.92 0 00-.743.392l.997.15c-.049.093-.091.128-.134.121-.304 0-.601-.064-.898-.085a.347.347 0 00-.262.092c-.163.221-.099.364.177.5.335.133.659.292.969.477.672.464 1.344.941 1.981 1.426a18.92 18.92 0 011.648 1.426c1.004 1.033 1.967 2.096 2.943 3.158.161.194.312.396.452.606l-.084.064a7.27 7.27 0 00-.474-.641 43.824 43.824 0 00-3.148-3.222 18.484 18.484 0 00-1.451-1.206c-.367-.285-.785-.506-1.16-.784a9.931 9.931 0 00-2.143-1.048c-.092.285-.17.535-.255.791a.628.628 0 00.304.806c.168.099.331.206.489.32.261.208.495.443.756.642.262.2.623.421.934.62.46.3.927.585 1.415.878l.403.235s-.035.057-.049.093a21.48 21.48 0 01-2.172-1.191c-.707-.47-1.415-.934-2.122-1.426-.106 1.248.438 2.246.905 3.265a2.803 2.803 0 00-.148-.592c-.121-.363-.121-.363.099-.513.033.213.083.423.148.628.255.492.304 1.112.941 1.354.283.135.552.295.807.478l.346.2a.396.396 0 00-.042-.264l-.517-1.141a.265.265 0 01.142-.392c.191.428.354.834.559 1.226.205.392.339.877.884.97.057 0 .099.07.156.092l.841.364s0-.057.05-.093a.88.88 0 01-.163-.214c-.014-.099-.014-.2 0-.3.087.04.168.09.241.15.304.329.573.714.891.999.318.285.63.541.948.805.318.264.623.52.948.763.325.242.545.364.877.578a.515.515 0 00.552.292c.495-.057.99-.136 1.478-.221a1.41 1.41 0 00.708-.235 3.085 3.085 0 00.856-1.897c.069-.797 0-1.6-.205-2.374-.184-.656-.283-1.34-.46-1.996-.142-.527-.34-1.048-.531-1.554a9.192 9.192 0 00-1.337-2.66 8.788 8.788 0 00-1.188-1.218c-.541-.416-1.105-.8-1.691-1.148a4.651 4.651 0 00-2.433-.841h-1.274a2.008 2.008 0 00-1.139.406c.156.078.255.171.347.171h.927c.106 0 .212-.05.318-.05a6.03 6.03 0 011.478 0c.142 0 .262.043.241.171-.021.129-.163.172-.262.179h-1.096v.078c.141.05.325.057.424.15a1.485 1.485 0 001.316.449.302.302 0 01.113 0 3.8 3.8 0 011.974.798s0 .1.042.143c.043.043-.134 0-.177 0a3.851 3.851 0 00-1.535-.592l-.643-.164c.332.407.707.713 1.011 1.062.943.98 1.863 1.963 2.759 2.952.043.05 0 .171 0 .264l-.035.007zM94.466 21.212a1.34 1.34 0 01-.056.2c-.32.559-.602 1.14-.842 1.739a32.833 32.833 0 00-.87 3.172c-.205.941-.326 1.91-.488 2.852 0 .128 0 .257-.043.392h.078c.297-.563.615-1.112.877-1.682.262-.57.474-1.22.707-1.818.41-.984.85-1.954 1.28-2.93a.611.611 0 01.15-.186h.07l-.573 1.782c.432-.577.623-1.326 1.415-1.518 0 0 .057-.078.07-.121.227-.635.432-1.283.708-1.91a41.25 41.25 0 01.99-2.21c.117-.203.252-.394.404-.571a.193.193 0 010 .185c-.21.323-.398.662-.56 1.013a97.67 97.67 0 00-1.173 3.429 1.969 1.969 0 00-.064.713c.042.627.113 1.247.155 1.875v.983h.078c.382-1.105.764-2.224 1.16-3.329.22-.613.46-1.226.708-1.832.106-.257.247-.506.375-.756.41-.798.806-1.618 1.245-2.402.318-.564.707-1.098 1.054-1.626.347-.527.828-1.119 1.245-1.675.417-.556.799-1.034 1.21-1.547.116-.135.241-.261.375-.378a.303.303 0 01-.05.221c-.559.763-1.132 1.511-1.684 2.281-.551.77-1.16 1.676-1.726 2.524a19.9 19.9 0 00-1.79 3.5c-.487 1.162-.855 2.367-1.259 3.565-.332.977-.657 1.953-.962 2.937-.304.984-.58 2.139-.948 3.123a7.586 7.586 0 00-.502 2.395c.573-.934 1.125-1.782 1.62-2.659.34-.606.623-1.255.906-1.896a70.35 70.35 0 001.16-2.702c.46-1.162.87-2.339 1.337-3.5.171-.38.37-.747.594-1.099l1.217-2.138c.035-.082.065-.165.092-.25l.127.128-.177.314-.46.82c-.127.207-.283.4-.389.613-.184.407-.339.827-.523 1.233-.184.407-.403.827-.573 1.255-.368.956-.708 1.932-1.061 2.895a67.57 67.57 0 01-.856 2.138c-.184.442-.39.884-.594 1.326-.206.442-.354.713-.538 1.084l.07.043c.2-.188.384-.39.552-.606.273-.46.573-.903.899-1.326a12.268 12.268 0 001.889-3.194c.523-1.105 1.004-2.232 1.605-3.294.602-1.062 1.415-2.238 2.172-3.336.336-.456.697-.891 1.082-1.305 0-.043.107-.05.206-.093a35.451 35.451 0 00-4.903 8.555l.113.107c.052-.108.113-.21.184-.306.382-.406.757-.806 1.161-1.184.403-.377.707-.549 1.032-.884a13.37 13.37 0 001.061-1.425c.397-.57.764-1.162 1.161-1.733.219-.32.459-.634.707-1.005.184.385-.255.45-.262.713-.007.264-.283.456-.431.713-.149.256-.297.47-.439.713l-.424.713.078.064.191-.15a6.2 6.2 0 01.82-.627c.778-.42 1.556-.834 2.363-1.184.658-.285 1.358-.47 2.044-.713.396-.128.425-.17.354-.57a11.64 11.64 0 00-.679-2.246c-.269-.712-.545-1.425-.807-2.088a43.236 43.236 0 01-.566-1.597 2.452 2.452 0 01-.191-.749c-.02-.615.013-1.23.1-1.84a4.972 4.972 0 00-.489-3.25c-.035-.071-.077-.136-.106-.185-.131.09-.253.195-.36.313-.345.449-.779.82-1.274 1.091-.509.328-1.04.613-1.556.927-.517.313-1.111.713-1.677 1.07-.566.356-1.082.62-1.591.99a91.27 91.27 0 00-2.83 2.139c-.569.461-1.112.954-1.627 1.476-.559.563-1.068 1.183-1.606 1.768a13.288 13.288 0 00-2.165 3.279 21.894 21.894 0 00-.841 2.075c-.29.784-.573 1.575-.8 2.38-.162.607-.198 1.248-.34 1.861a14.949 14.949 0 00-.332 4.791c0 .228.064.45.1.713.227-.42.423-.856.587-1.305.126-.245.228-.503.304-.77.092-.47.099-.948.177-1.425.176-.956.367-1.904.565-2.852.078-.385.184-.756.283-1.134.1-.377.22-.862.375-1.276.156-.413.39-.84.58-1.262.191-.42.333-.805.524-1.19.085-.185.22-.242.311-.328v-.014zM25.982 38.635l1.563.62c.396.186.802.348 1.217.485.856.25 1.719.457 2.59.663.303.072.629.086.947.129v-.129c-.431-.356-1.04-.256-1.514-.506a16.672 16.672 0 00-1.57-.606.408.408 0 000-.085c.135.006.27.02.403.042.707.172 1.415.357 2.158.52.091 0 .283 0 .304-.099.063-.192-.078-.257-.255-.306a145.02 145.02 0 01-2.49-.778c-.07 0-.127-.1-.184-.15.196-.006.392.018.58.072.524.128 1.047.278 1.578.4.193.04.39.059.587.056a.203.203 0 00.188-.076.207.207 0 00.031-.202.312.312 0 00-.22-.192 4.42 4.42 0 01-1.846-.357c-.431-.15-.841-.335-1.266-.513l-1.754-.713c-.418-.178-.828-.385-1.252-.556-.644-.264-1.295-.506-1.939-.756a1.578 1.578 0 01-.233-.142.854.854 0 000-.079l5.192 1.847a.604.604 0 01.432-.093c.707.2 1.415.428 2.122.635.18.032.362.046.545.042a.305.305 0 00-.163-.142l-2.667-.998a1.857 1.857 0 01-.346-.271c.12 0 .148-.043.176 0 .708.235 1.415.477 2.158.713.35.104.703.19 1.061.256.24.05.22-.185.262-.313.042-.129-.092-.186-.17-.207a5.714 5.714 0 00-.898-.228 6.84 6.84 0 01-2.073-.713c-.212-.107-.439-.186-.637-.307-.707-.449-1.415-.912-2.171-1.376v-.092c1.004.492 2.002.99 2.992 1.468a8.786 8.786 0 003.204.756.46.46 0 00-.226-.185c-.212-.086-.431-.143-.637-.243a14.61 14.61 0 01-1.414-.713 1.744 1.744 0 01-.319-.292c.885.346 1.79.636 2.71.87a.683.683 0 010-.093L29.2 33.702l.042-.093c.156.079.304.164.453.228.53.228 1.06.442 1.577.713.517.271 1.054.507 1.578.713.141.064.304.064.34-.114a.352.352 0 00-.142-.278c-.566-.4-1.153-.763-1.712-1.169-.785-.57-1.542-1.176-2.327-1.754-.524-.378-1.062-.713-1.606-1.083-.658-.421-1.309-.842-1.988-1.212-.68-.371-1.415-.713-2.122-1.027-.708-.314-1.535-.684-2.32-1.04-.567-.279-1.062-.714-1.628-.992a6.296 6.296 0 01-1.69-1.326c-.347-.363-.651-.777-.97-1.169l.05-.05a.19.19 0 01.092.05l1.061 1.07c.3.302.624.578.97.826.558.349 1.134.668 1.725.956.588.306 1.196.584 1.804.84.609.258 1.274.45 1.868.75.849.42 1.676.89 2.49 1.383.559.335 1.09.712 1.627 1.097l2.886 2.025c.552.392 1.097.806 1.663 1.184a1.036 1.036 0 00.799.22 2.05 2.05 0 00-.403-.449c-.375-.263-.778-.491-1.146-.755-.368-.264-.552-.442-.82-.67a1.031 1.031 0 01-.157-.221l.071-.057c.905.627 1.85 1.194 2.83 1.696.163-.256.304-.463.46-.713-.113-.042-.191-.078-.27-.1a2.823 2.823 0 01-1.485-.834c-.559-.648-1.11-1.304-1.662-1.953-.284-.38-.594-.74-.927-1.076-.594-.55-1.238-1.056-1.86-1.576a1.928 1.928 0 01-.205-.214c.401.196.78.435 1.131.713.545.45 1.083.913 1.585 1.426a19.391 19.391 0 011.514 1.718 3.796 3.796 0 002.179 1.426c.318.078.46 0 .559-.271l-2.172-1.996.042-.057c.074.04.144.086.212.135.644.478 1.288.956 1.939 1.426.184.135.36.214.516-.078-.792-.656-1.584-1.326-2.377-1.99l.064-.092c.085.046.168.095.248.15.707.477 1.365.962 2.058 1.425a.62.62 0 00.962-.25 2.132 2.132 0 00-.269-.17 5.03 5.03 0 01-1.86-1.12 10.093 10.093 0 01-1.224-1.304c-.566-.841-1.04-1.747-1.55-2.624a1.176 1.176 0 01-.091-.306c.128.1.236.223.318.363.481.763.927 1.54 1.415 2.282a6.101 6.101 0 002.596 2.139c.42.225.89.343 1.365.342-.219-.286-.389-.528-.587-.756-.198-.228-.53-.585-.799-.877.116.044.226.104.325.178.361.328.708.678 1.083 1.013a.446.446 0 00.707-.072.508.508 0 01.325-.156c.071 0 .177.1.227.185.297.478.573.97.87 1.426.047.06.108.109.177.142l.07-.05a2.737 2.737 0 00-.113-.413c-.254-.528-.495-1.062-.792-1.561-.53-.756-1.04-1.576-1.613-2.374a13.7 13.7 0 00-1.464-1.619c-.46-.449-.97-.848-1.457-1.276-.319-.278-.63-.57-.955-.841-.326-.27-.764-.62-1.146-.941-.708-.592-1.415-1.19-2.08-1.775a7.724 7.724 0 01-1.72-1.854 3.98 3.98 0 01-.225-.57c.366.51.76 1.001 1.18 1.469.546.548 1.147 1.033 1.741 1.532.594.5 1.16.948 1.733 1.426.708.599 1.415 1.24 2.123 1.804a23.256 23.256 0 011.938 1.875c.655.69 1.227 1.456 1.705 2.281.324.521.622 1.059.891 1.611.276.563.502 1.148.778 1.704.105.172.234.328.382.463l.12-.064c0-.178-.042-.356-.084-.534-.114-.47-.206-.956-.361-1.426-.145-.364-.31-.718-.495-1.063-.35-.774-.689-1.551-1.02-2.33a9.335 9.335 0 01-.247-.714h.078c.142.278.283.564.432.842.148.278.396.712.58 1.112.184.399.34.713.495 1.083.247.578.516 1.148.707 1.747.191.599.326 1.212.488 1.818.078.3.149.314.39.086-.142-.414-.284-.827-.41-1.248-.192-.635-.347-1.283-.567-1.904-.34-.983-.7-1.96-1.082-2.93-.304-.713-.623-1.497-.99-2.21a8.017 8.017 0 00-1.415-1.932c-.439-.427-.814-.92-1.26-1.333-.445-.413-1.096-.912-1.64-1.376a2.085 2.085 0 01-.241-.306c.468.305.92.635 1.35.99.496.414 1.005.806 1.465 1.255a9.416 9.416 0 012.462 3.437c.368.82.708 1.668.983 2.523.276.713.503 1.519.75 2.282.248.762.545 1.618.793 2.438a.789.789 0 00.33.539.776.776 0 00.617.117c-.05-.371.085-.806-.389-1.013h.297c0-.32-.049-.627-.106-.92 0-.078-.17-.135-.268-.185a2.32 2.32 0 00-.312-.114v-.071l.524.064c-.078-.478-.135-.877-.212-1.283-.135-.713-.255-1.504-.432-2.246a9.895 9.895 0 00-1.054-2.588c-.51-.855-.962-1.753-1.415-2.637-.064-.129-.106-.264-.163-.4h.064c.248.385.502.763.708 1.162.445.77.884 1.547 1.301 2.332.248.48.468.976.658 1.482.265.717.45 1.46.552 2.218.085.62.141 1.24.24 1.853a.444.444 0 00.22.314c.26.102.527.183.799.242.161.04.324.07.488.093 0-.207-.05-.37-.078-.535-.12-.798-.247-1.597-.367-2.395 0-.25-.057-.47-.39-.492-.113 0-.212-.114-.325-.171a.257.257 0 00.042-.1l.552.121c-.148-.541-.269-1.055-.438-1.547-.368-1.07-.779-2.139-1.146-3.18a12.972 12.972 0 00-1.606-2.936 12.026 12.026 0 00-1.316-1.512c-.36-.392-.743-.763-1.118-1.14-.106-.107-.219-.207-.318-.328-.099-.122 0-.107 0-.236.46.42.877.763 1.245 1.155a28.816 28.816 0 012.002 2.26 10.5 10.5 0 011.535 2.909c.283.77.566 1.54.82 2.317.255.777.46 1.426.63 2.139a.643.643 0 00.333.456c.297.164.615.292.94.442a.288.288 0 000-.093c-.14-.884-.268-1.768-.445-2.645a15.185 15.185 0 00-.884-2.93c-.27-.634-.474-1.29-.708-1.939v-.2c.05.06.092.124.128.193.53 1.117.977 2.273 1.337 3.457.162.713.382 1.376.537 2.068.156.691.283 1.511.41 2.267a.353.353 0 00.237.318c.045.015.092.02.138.017.034-.291.05-.584.05-.877 0-.642-.05-1.29-.12-1.939-.071-.649-.17-1.233-.29-1.846-.12-.613-.262-1.162-.396-1.74a74.8 74.8 0 00-.446-1.81 2.835 2.835 0 00-.127-.343l.092-.035c.226.712.466 1.425.707 2.138.24.713.417 1.426.573 2.139.156.713.255 1.469.375 2.21h.099v-1.426c0-.649 0-1.305-.057-1.953-.063-.827-.127-1.654-.269-2.467-.12-.713-.34-1.369-.509-2.053a8.31 8.31 0 00-1.655-3.051 11.112 11.112 0 00-2.681-2.267 5.722 5.722 0 00-1.592-.97l-.566-.114a4.652 4.652 0 00-1.217-.264c-1.012.02-2.023.094-3.027.221-.843.106-1.676.28-2.49.52a36.032 36.032 0 00-5.66 2.581 82.118 82.118 0 00-3.133 1.69c-.61.323-1.2.68-1.769 1.07-.644.456-1.245.983-1.853 1.482a37.06 37.06 0 01-3.368 2.68c-.127.086-.205.293-.332.329-.466.199-.88.504-1.21.89a.8.8 0 00-.283.5 5.46 5.46 0 00.043 1.133c.056.442.19.877.254 1.32a19.16 19.16 0 001.054 3.813c.263.65.568 1.28.913 1.89.301.62.634 1.224.997 1.81a63.507 63.507 0 002.193 3.187c.778 1.048 1.592 2.139 2.448 3.151a21.42 21.42 0 003.466 3.044c.545.428 1.118.82 1.67 1.248.226.17.403.406.622.577.41.307.85.57 1.245.891a6.801 6.801 0 001.67 1.027 7.07 7.07 0 003.381.264 4.993 4.993 0 002.83-1.084l.827-.713-.275-.192.12.15c-.127.056-.248.12-.382.17-.474.186-.955.364-1.415.542-.22.079-.46.25-.665.214-.205-.035-.431.093-.644.15h-.134a28.382 28.382 0 002.681-1.426 13.182 13.182 0 01-3.841.442c.177-.064.36-.093.53-.142a.506.506 0 01.453 0c.085.042.255-.079.41-.143a1.694 1.694 0 01-.12-.15l.65-.335c.076-.04.147-.088.213-.142-.085-.043-.177-.129-.262-.122-.46 0-.926.093-1.414.1a13.987 13.987 0 01-2.618-.15 6.337 6.337 0 01-3.006-1.183c2.299 1.148 4.704 1.09 7.159.713a.594.594 0 00-.333-.2h-2.348a3.648 3.648 0 01-.552-.07v-.065l2.122-.278v-.128c-.707-.093-1.415-.164-2.122-.293a8.57 8.57 0 01-2.122-.342h2.97v-.093a1.824 1.824 0 00-.17-.078c-.706-.164-1.371-.342-2.065-.492-.693-.15-1.414-.292-2.122-.442a2.82 2.82 0 01-.375-.157v-.057l4.52.613a1.412 1.412 0 00-.474-.242 48.068 48.068 0 00-1.676-.414c-.891-.213-1.797-.406-2.688-.62a2.363 2.363 0 01-.53-.192c-.418-.214-.828-.45-1.239-.713a.98.98 0 01-.155-.136.26.26 0 01.219 0c.287.17.588.315.898.435.651.214 1.316.392 1.981.57.297.079.601.122.906.172.304.05.707.114 1.075.185s.828.193 1.252.285c-.1-.428-.142-.428-.538-.535-.82-.213-1.634-.449-2.447-.712a1.345 1.345 0 01-.368-.25l.05-.064 2.829.649.078-.143c-.092-.086-.163-.22-.269-.257-.311-.092-.637-.128-.948-.213-.439-.122-.863-.286-1.295-.4a25.563 25.563 0 01-3.975-1.59c-.064 0-.1-.15-.149-.228l.057.05zm37.238-3.001l-.892.627-.707.506c-.226.172-.467.328-.707.52-.043.037 0 .18 0 .272.46-.243.841-.47 1.245-.649a6.782 6.782 0 011.273-.456c.913-.193 1.846-.328 2.766-.47.36-.058.708-.072 1.097-.1a.608.608 0 01-.305.163l-.87.164-2.377.507a5.332 5.332 0 00-2.447 1.19c-.057.05-.057.171-.085.264h.085c1.415-.713 2.921-.884 4.407-1.24a.82.82 0 01-.36.228c-.814.27-1.642.52-2.456.805-.445.157-.877.364-1.308.556-.064 0-.149.136-.142.193.026.156.061.311.106.463l3.155-1.07.043.093c-.142.072-.283.157-.432.229-.573.25-1.146.491-1.719.712l-.842.421c-.042 0-.106.093-.106.128.043.278.092.564.135.827l1.047-.513c.226-.114.46-.228.707-.335.764-.32 1.521-.713 2.306-.962.785-.25 1.507-.457 2.257-.713.75-.257 1.577-.57 2.363-.849.042 0 .113.05.198.093-.24.107-.41.185-.594.257-.665.25-1.33.499-1.995.713-.354.128-.708.213-1.062.335-.353.12-.707.263-1.06.406l-1.5.684c-.234.093-.467.186-.708.293-.24.107-.615.335-.92.499v.05l3.043-.899v.079a.95.95 0 01-.22.142c-.494.12-.97.307-1.415.556-.423.23-.866.42-1.323.57a2.616 2.616 0 00-1.188 1.013c0 .043 0 .114-.042.178-.043.065.141 0 .184 0 .608-.335 1.322-.342 1.938-.648.099-.05.247 0 .375 0h.106c0-.093.064-.164.106-.293.177.314.354.371.573.129.043-.05.127-.05.198-.072l1.769-.442c.155-.042.304-.107.46-.164l.042.114a42.692 42.692 0 00-5.582 2.21 4.03 4.03 0 002.271-.22c.764-.2 1.521-.443 2.271-.714.75-.27 1.415-.541 2.122-.82v.072a20.736 20.736 0 01-5.327 1.854v.092l1.189.15v.085c-.319 0-.644.065-.962.05-.545 0-1.09-.1-1.634-.114-.545-.014-.517-.05-.644.55.434.084.874.141 1.316.17h2.695c.057.01.11.035.156.072a.463.463 0 010 .092 15.932 15.932 0 003.537-1.247.597.597 0 01-.227.25c-.87.485-1.79.875-2.744 1.161-.341.078-.686.138-1.033.178a4.802 4.802 0 01-.842.122c-.708 0-1.493-.086-2.236-.122-.133.003-.266.02-.396.05 0 0 0 .065-.05.1l.142.057 1.613.485c.311.093.616.207.927.307l-.043.15-1.782-.35c-.396-.086-.792-.2-1.189-.285a.38.38 0 00-.283.093c-.13.15-.245.313-.346.484l2.964.849v.042l-3.007-.47v.071c.212.129.418.264.63.378.382.14.744.333 1.075.57a1.412 1.412 0 001.252.35c.467 0 .934-.122 1.493-.2a2.048 2.048 0 01-.34.157c-.391.071-.78.135-1.167.192-.611.101-1.239.027-1.81-.214-.46-.192-.949-.327-1.416-.484-.148-.05-.31-.079-.467-.122v-.092l-.212.3c.136.084.28.154.432.206l1.853.456c.129.05.252.111.368.186v.1l-.757-.072v.086c.092.071.163.178.269.22.514.231 1.043.424 1.585.578a3.462 3.462 0 002.773-.527c.778-.542 1.563-1.077 2.341-1.633.778-.556 1.358-.99 2.023-1.497.665-.506 1.245-.955 1.854-1.426.608-.47 1.068-.898 1.584-1.369.396-.363.75-.784 1.16-1.126.41-.342 1.04-.791 1.578-1.162.156-.114.389-.136.53-.264.319-.292.595-.642.899-.955.495-.506.997-1.013 1.507-1.512a7.567 7.567 0 001.535-1.889c.19-.385.36-.777.551-1.162a8.608 8.608 0 00.906-3.45 4.697 4.697 0 00-.226-1.74 11.043 11.043 0 00-2.123-3.493c-.544-.642-1.181-1.212-1.754-1.825s-1.118-1.24-1.698-1.847a61.565 61.565 0 00-2.037-2.038c-.403-.386-.863-.713-1.295-1.056-.707-.606-1.415-1.247-2.22-1.81a79.36 79.36 0 00-3.24-2.268 9.9 9.9 0 00-2.583-1.211 44.737 44.737 0 00-2.532-.749 6.352 6.352 0 00-1.316-.228 10.777 10.777 0 00-2.985.25 7.512 7.512 0 00-3.014 1.304c-.516.406-.998.863-1.493 1.29a5.387 5.387 0 00-1.577 2.852 14.438 14.438 0 00-.333 1.647 31.33 31.33 0 00-.226 2.139c-.05.712-.05 1.39-.092 2.088-.042.7-.12 1.505-.177 2.26-.056.756-.113 1.59-.155 2.382v1.518a.59.59 0 00.282-.563c-.017-.585-.003-1.17.043-1.754.106-.834.269-1.654.431-2.474.163-.82.354-1.618.538-2.43h.064a.336.336 0 010 .113c-.184 1.02-.39 2.032-.56 3.052-.14.766-.24 1.54-.296 2.317-.043.712.042 1.46.042 2.188 0 .228 0 .407.311.3-.099.2-.247.356-.247.513 0 .57.05 1.133.078 1.704l.056.05.375-.207.064.05c-.038.062-.081.121-.127.178a.998.998 0 00-.326.941c.05.171.057.356.106.528.045.13.1.256.163.377.113-.135.226-.263.333-.399.106-.135 0-.078 0-.121.035-.485.077-.977.106-1.426 0-.057 0-.114-.05-.17-.05-.058-.05-.186 0-.186.248-.114.248-.35.283-.563.078-.592.149-1.184.24-1.776a23.7 23.7 0 01.298-1.618c.198-.877.389-1.747.65-2.61.206-.612.442-1.214.708-1.803.283-.713.559-1.361.87-2.032.36-.784.75-1.56 1.139-2.338.148-.3.318-.577.48-.87a.244.244 0 010 .221c-.473.998-.968 1.99-1.414 2.994a27.784 27.784 0 00-1.563 4.007c-.234.848-.467 1.704-.644 2.574-.177.87-.276 1.81-.41 2.716-.135.905-.255 1.76-.368 2.638 0 .1.078.206.12.313.064-.092.177-.178.191-.285.07-.47.127-.94.184-1.426a9.976 9.976 0 01.94-2.894c.157-.357.32-.713.482-1.055.163-.342.297-.592.431-.898.135-.307.312-.713.467-1.091h.092c-.12.306-.233.577-.34.855-.261.713-.48 1.426-.791 2.103a14.176 14.176 0 00-1.168 4.877c-.007.13-.007.261 0 .392h.1c.091-.3.197-.6.261-.906.113-.513.191-1.033.311-1.547.12-.513.304-1.09.446-1.64.125-.668.3-1.325.523-1.967.346-.87.758-1.71 1.231-2.517.227-.377.432-.77.644-1.162.092-.164.177-.335.262-.506.145-.324.31-.638.495-.94.516-.714 1.061-1.47 1.606-2.19.205-.277.446-.527.665-.784l.085.072c-.17.235-.354.463-.524.713-.658.962-1.337 1.903-1.952 2.894-.366.61-.702 1.238-1.005 1.882a66.264 66.264 0 00-1.216 2.588 8.97 8.97 0 00-.326 1.155 2.04 2.04 0 011.23-.285c.086 0 .213-.093.277-.179.51-.655.983-1.333 1.5-1.974.516-.642.962-1.048 1.414-1.583.453-.535.878-.998 1.31-1.504.24-.285.459-.6.706-.863.404-.392.842-.763 1.267-1.126.226-.2.474-.378.707-.57l.057.078c-.24.228-.502.442-.708.713a81.284 81.284 0 00-2.122 2.245c-.82.934-1.62 1.897-2.405 2.852-.439.528-.842 1.084-1.245 1.64a.424.424 0 00-.043.306c.259.12.523.224.793.314 0 0 .092-.036.127-.071.39-.3.757-.628 1.167-.899.316-.184.645-.346.984-.484l.042.085c-.15.074-.293.157-.431.25-.241.17-.474.363-.708.556-.233.192-.439.356-.644.549a.15.15 0 000 .157c.156.213.326.413.488.62.764-.799 1.79-1.483 2.172-1.426-.447.315-.875.658-1.28 1.027-.672.713-.807.613-.191 1.254.135-.209.287-.406.452-.591a5.443 5.443 0 012.123-1.162c.863-.257 1.726-.485 2.582-.756.594-.178 1.174-.4 1.754-.613.115-.053.226-.112.333-.178l.042.064a.708.708 0 01-.17.128c-.573.235-1.153.47-1.733.713-.99.356-1.98.713-2.97 1.04-.795.252-1.489.751-1.982 1.427-.283.406-.346.712-.12.955a7.764 7.764 0 012.624-1.483c-.431.32-.89.613-1.322.927a6.38 6.38 0 00-.984.805.872.872 0 00-.155 1.07c.707-.506 1.415-.998 2.065-1.533a13.954 13.954 0 012.123-1.383c-.467.37-.955.713-1.415 1.055-.29.221-.545.485-.835.713-.184.157-.417.25-.587.42-.41.414-.8.856-1.196 1.291-.219.235-.226.42 0 .713.08-.097.168-.188.262-.271.396-.342.8-.713 1.196-1.027a10.034 10.034 0 012.278-1.368c.452-.221.926-.378 1.414-.592a7.437 7.437 0 012.335-.642c1.04-.12 2.122-.142 3.14-.235 1.02-.093 1.967-.2 2.95-.328.374-.044.741-.128 1.097-.25.707-.249 1.415-.541 2.122-.812.036 0 .1 0 .149.043a.38.38 0 000 .078l-.87.37c-.504.226-1.019.426-1.542.6a16.77 16.77 0 01-2.123.442c-.926.128-1.867.192-2.83.278-.961.085-1.669.085-2.49.228a9.512 9.512 0 00-2.914 1.005c-.832.426-1.637.902-2.412 1.426-.59.455-1.143.955-1.656 1.497-.056.05-.049.157-.077.235h.085a4.846 4.846 0 012.348-1.426l-.24.157c-.557.309-1.07.69-1.528 1.134-.1.11-.181.235-.24.37v.271a.941.941 0 00.24-.071c.608-.37 1.21-.756 1.825-1.12.157-.057.321-.09.488-.1zm57.951-5.311v.043c-.757.07-1.521.114-2.271.228a13.59 13.59 0 00-2.122.427c-.87.287-1.724.618-2.561.991-.707.307-1.457.628-2.122.991-.849.442-1.684.92-2.512 1.426-.707.407-1.379.834-2.058 1.262a.341.341 0 00-.092.121.348.348 0 00-.028.15c0 .4.085.798.134 1.24.085-.018.168-.044.248-.078.212-.1.424-.2.636-.314l2.123-1.133c.408-.264.88-.41 1.365-.42-.29.142-.531.234-.75.356l-3.537 1.981a.406.406 0 00-.198.478.491.491 0 00.523.428c.3-.005.596-.06.878-.164a47.686 47.686 0 002.235-.891c.615-.264 1.21-.57 1.818-.834.193-.075.392-.134.594-.179l.043.114-4.627 2.282.241.121c.376.194.742.408 1.096.642a3.448 3.448 0 002.83.606 7.122 7.122 0 001.669-.713 6.508 6.508 0 012.236-.65 1.065 1.065 0 01.849.585 2.092 2.092 0 01-.411 1.961 5.668 5.668 0 01-.898.898h.177c.707-.114 1.337-.278 2.016-.342.747-.085 1.5.102 2.122.528-.099.413-.106.413-.467.278a.872.872 0 00-.375-.064 5.453 5.453 0 00-1.832.484c-.85.416-1.627.97-2.299 1.64-.17.157-.354.306-.552.485h.106c.842-.314 1.684-.628 2.519-.963.212-.085.269 0 .269.171l-1.847.792s0 .057.036.092c.035.036.233 0 .346-.064.538-.157 1.09-.285 1.62-.484a15.051 15.051 0 003.028-1.22c.269-.178.545-.349.828-.506a4.313 4.313 0 001.81-1.84c.383-.755.8-1.496 1.132-2.273a36.61 36.61 0 001.005-2.624c.24-.713.382-1.426.644-2.139.261-.712.615-1.247.877-1.882.308-.81.791-1.54 1.415-2.138.169-.157.113-.278-.092-.4a5.388 5.388 0 01-.786-.52c-.856-.713-1.69-1.483-2.56-2.189-.609-.492-1.26-.92-1.896-1.376a68.74 68.74 0 00-1.358-.955c-.46-.313-.892-.563-1.323-.87a12.018 12.018 0 00-2.858-1.61 28.457 28.457 0 00-1.097-.364 13.454 13.454 0 00-1.775-.564c-.828-.15-1.677-.163-2.512-.263a4.914 4.914 0 00-2.32.15c-.835.292-1.676.555-2.49.905a8.224 8.224 0 00-1.599.898c-.594.442-1.103 1.005-1.698 1.426a15.904 15.904 0 00-2.582 2.63c-.389.471-.764.949-1.146 1.426-.219.257-.438.514-.65.777-.573.713-1.132 1.426-1.712 2.14-.58.712-1.083 1.282-1.627 1.924-.12.136-.227.278-.34.42a1.41 1.41 0 00.566-.256c.467-.406.913-.841 1.365-1.262.142-.135.276-.285.41-.428.298-.313.574-.648.892-.948.318-.3.651-.542.962-.827.63-.577 1.245-1.169 1.875-1.74.353-.313.707-.591 1.117-.869.411-.278.602-.392.906-.585l.085.107c-2.342 1.505-4.167 3.565-6.112 5.518a.163.163 0 00.148-.042c.502-.464.998-.942 1.507-1.426.347-.3.707-.57 1.082-.834a.3.3 0 01.298 0c.074.09.117.203.12.32 0 .079-.043.172-.064.257a20.995 20.995 0 013.261-2.48 1.32 1.32 0 01-.339.32c-.396.35-.8.713-1.182 1.048-.1.139-.183.29-.247.449a.277.277 0 01-.078.114 6.055 6.055 0 00-1.634 1.633c-.085.135-.269.22-.333.363-.1.28-.183.566-.247.856a38.522 38.522 0 017.583-5.996l.05.064-3.438 2.481a.738.738 0 00.056.1c.163-.093.326-.193.495-.278.312-.157.623-.435.927-.428.312-.019.613-.117.877-.285.039.144.056.293.05.442-.078.307-.191.599-.283.905a2.757 2.757 0 000 .364l3.296-1.825.057.086a3.34 3.34 0 01-.297.256c-.262.164-.538.3-.792.47l-2.024 1.348a2.752 2.752 0 00-.976 1.89l2.929-1.904a14.02 14.02 0 013.12-1.469 4.353 4.353 0 01-.708.42 14.13 14.13 0 00-2.773 1.626c-.962.713-1.91 1.49-2.83 2.267-.148.129-.169.414-.247.62.163.043.354.172.481.122a9.77 9.77 0 001.195-.592c.262-.142.481-.356.743-.492.708-.35 1.415-.713 2.087-1.012l.403-.178-4.202 2.573.382.713a50.146 50.146 0 015.66-3.058 30.042 30.042 0 015.998-2.139v.157l2.335-.007zM24.999 48.26s0-.079-.036-.114a7.627 7.627 0 013.735-.892v-.164a3.286 3.286 0 00-.665-.213c-.353-.036-.707 0-1.06 0a6.2 6.2 0 00-2.003.392l-.757.278c0-.05-.042-.093-.056-.136a5.453 5.453 0 011.698-.713 7.4 7.4 0 011.966-.206 1.78 1.78 0 00-1.337-.713 9.897 9.897 0 00-2.745.242 1.895 1.895 0 00-1.188.784 15.492 15.492 0 00-1.684 3.223c-.268.606-.41 1.269-.665 1.882-.357.906-.832 1.76-1.414 2.538a1.033 1.033 0 00.155 1.148c.327.293.72.501 1.146.605.828.279 1.648.585 2.497.82.637.186 1.302.285 1.953.428.792.164 1.577.335 2.37.492.658.128 1.323.242 1.98.363.483.112.972.195 1.465.25 1.232.124 2.474.097 3.7-.078 1.068-.186 2.122-.47 3.183-.713v-.15a3.39 3.39 0 01-2.045-.855 3.836 3.836 0 01-2.334.762c-.665 0-1.323-.057-1.98-.12-.659-.065-1.338-.172-2.003-.272-.354-.057-.707-.135-1.06-.206.194-.047.394-.061.593-.043.51.057 1.019.157 1.528.192.51.036.941 0 1.415 0 .81.093 1.628.057 2.427-.107a1.408 1.408 0 00.955-.577c-.375-.364-.708-.713-1.118-1.077a.705.705 0 00-.326-.128 6.159 6.159 0 00-2.964.378c-.783.272-1.591.468-2.412.584a.515.515 0 01.24-.135c.1 0 .199 0 .29-.036.826-.22 1.631-.514 2.406-.877.275-.108.563-.182.856-.22.467-.058.94-.065 1.415-.1-.071-.172-.113-.257-.149-.35-.148-.406-.283-.812-.446-1.212a1.004 1.004 0 00-.332-.413c-.07-.043-.248.071-.375.107a.46.46 0 01-.142 0l-3.02.342a1.391 1.391 0 01-.142 0v-.114c.708-.107 1.415-.207 2.066-.32.49-.005.968-.156 1.372-.436a2.717 2.717 0 00-.969-1.126 1.339 1.339 0 01-.353-.342.243.243 0 010-.207.211.211 0 01.205-.057c.276.064.544.15.813.22a6.02 6.02 0 012.264 1.284.65.65 0 00.63.136c.247-.065.488-.157.707-.214h.34c.424-.121.834-.264 1.259-.378a4.466 4.466 0 002.037-1.298c-.495.193-.913.35-1.33.52-.417.172-.82.4-1.245.528-1.096.328-1.118.314-1.266.214.615-.256 1.273-.506 1.91-.791a5.026 5.026 0 001.81-1.148.499.499 0 00-.367 0c-.323.227-.67.418-1.033.57-1.125.314-2.27.556-3.417.827l-.042-.2c.332-.12.658-.249.99-.349.792-.228 1.599-.413 2.377-.67.35-.126.684-.29.998-.492a.78.78 0 00-.057-.106 2.85 2.85 0 00-.573.235 5.315 5.315 0 01-2.568.613c-.92.05-1.84 0-2.759-.05-.852.009-1.701.11-2.532.3-.744.252-1.502.459-2.271.62h-.043c-.123.082-.25.159-.381.228-.552.256-1.111.492-1.649.777-.348.217-.684.455-1.004.713-.276.185-.566.356-.828.563-.262.207-.368.335-.559.499-.068.047-.139.09-.212.128l-.05-.078c.453-.406.913-.813 1.359-1.226a9.888 9.888 0 012.83-1.704 14.207 14.207 0 012.518-.863 7.162 7.162 0 011.98-.328 4.22 4.22 0 00.786-.085 2.66 2.66 0 00-.977-.52 16.132 16.132 0 00-1.768-.108h-.856a8.558 8.558 0 00-2.363.713l-2.1.827s-.043 0-.1-.057c.964-.599 1.98-1.11 3.035-1.526a10.294 10.294 0 013.325-.42 4.575 4.575 0 00-.658-.542 1.748 1.748 0 00-.538-.3 6.467 6.467 0 00-3.148.229c-.368.121-.743.192-1.11.32zm27.815-33.507l.064.043c.148-.136.318-.257.452-.407a6.827 6.827 0 012.957-1.882c.77-.258 1.564-.43 2.37-.513 1.081-.114 2.17-.136 3.254-.064.184 0 .255-.057.212-.243-.042-.185-.12-.484-.176-.713a8.537 8.537 0 00-.87-2.252c-.446-.778-.934-1.533-1.38-2.31a7.57 7.57 0 00-1.464-1.975c-.488-.45-1.005-.863-1.5-1.312a9.55 9.55 0 00-2.384-1.74 2.816 2.816 0 00-1.323-.484c-.198 0-.29.057-.332.25-.085.32-.17.648-.276.969-.467 1.426-.941 2.787-1.415 4.185-.24.713-.46 1.426-.708 2.139a10.872 10.872 0 00-.707 2.38c-.063.507-.198 1.006-.233 1.512-.078 1.24-.135 2.488-.17 3.736 0 .627 0 1.269.07 1.896.071.627.12 1.233.156 1.854.05 1.083.092 2.138.106 3.25 0 .799-.042 1.59-.063 2.389 0 .656 0 1.319-.064 1.975-.064.655-.092 1.226-.184 1.839a43.917 43.917 0 01-.417 2.345c-.092.442-.227.877-.347 1.333.174.014.35.014.524 0 .092 0 .226-.085.247-.164.2-.58.36-1.173.481-1.775.125-.808.208-1.621.248-2.438.05-.77 0-1.54.063-2.31.064-.77.071-1.632.149-2.445.106-1.07.226-2.139.39-3.201.127-.863.339-1.718.487-2.58a3.931 3.931 0 01.814-2.047 1.9 1.9 0 00.297-.485c.233-.506.41-1.04.707-1.532a22.738 22.738 0 012.349-3.565c.36-.449.707-.912 1.011-1.426.305-.513.623-1.062.934-1.597.406-.636.72-1.327.934-2.053 0-.092.12-.17.184-.256l.064.042c-.186.554-.4 1.096-.644 1.626a32.794 32.794 0 01-1.507 2.609c-.927 1.426-2.122 2.673-2.83 4.213l-.53 1.184zm-5.461 18.015c.34.164.622.093.75-.285.127-.378.254-.898.367-1.347.327-1.34.5-2.713.517-4.093 0-1.119.092-2.231.12-3.35v-2.075c0-.827-.05-1.654-.085-2.474-.035-.82-.106-1.682-.155-2.523v-.385c.035-.884.063-1.761.106-2.645 0-.257.063-.52.085-.777.02-.257 0-.713.063-1.048.064-.335.142-.834.227-1.248.056-.278.12-.556.198-.827.078-.27.219-.713.332-1.09.184-.564.375-1.134.566-1.697.191-.564.424-1.191.63-1.79.056-.164.085-.342.148-.506.248-.663.53-1.312.75-1.982.22-.67.311-1.169.474-1.804a5.75 5.75 0 00-1.167.065c-.725.182-1.434.42-2.122.713a12.105 12.105 0 00-2.872 1.91c-.552.464-1.054.998-1.585 1.49-.149.136-.333.235-.467.378a5.7 5.7 0 00-.424.599 1.85 1.85 0 00-.326.57c-.085.49-.142.986-.17 1.483 0 .193 0 .47.106.563.107.093.156.364.184.556-.007.09-.007.181 0 .271.177.713.382 1.426.545 2.139.22 1.005.41 2.018.594 3.03.035.255.051.512.05.77h-.078a4.009 4.009 0 01-.134-.378c-.191-.898-.368-1.797-.56-2.695-.148-.656-.318-1.304-.487-1.96a.514.514 0 00-.128-.186c-.056-.057-.177-.092-.184-.157-.007-.064 0-.335 0-.499-.084-.77-.176-1.54-.268-2.324-.085.043-.227.079-.29.164A18.17 18.17 0 0041.65 8.68a2.039 2.039 0 00-.396.791 3.79 3.79 0 00.424 2.431c.319.51.664 1.002 1.033 1.476.269-.264.347 0 .425.107.155.256.268.549.417.82.115.197.248.383.396.556.383.317.74.665 1.068 1.04.396.585.906 1.098 1.28 1.704a9.956 9.956 0 011.239 3.137c.084.38.162.758.233 1.134.09.407.157.818.198 1.233.043.713.057 1.362.05 2.039 0 1.17 0 2.346-.106 3.508-.12 1.368-.361 2.723-.56 4.113zM59.93 50.455l-.063.122c1.62 1.069 3.48 1.376 5.369 1.66 0 .05 0 .122.064.243a14.432 14.432 0 01-5.66-1.426c.078.107.114.186.17.25.513.508 1.142.88 1.832 1.083.732.225 1.48.397 2.236.514.927.17 1.853.32 2.787.427 1.082.136 2.165.243 3.254.314.898.064 1.804.1 2.702.078 1.1-.084 2.203-.1 3.304-.05.417.043.835.058 1.245.129.672.114 1.344.235 2.002.4.422.113.834.263 1.23.448.376.171.538.2.708 0a.588.588 0 00.128-.385 7.597 7.597 0 00-.213-1.197c-.118-.37-.257-.731-.417-1.084-.538-1.362-.877-2.802-1.811-3.978a8.99 8.99 0 00-1.493-1.704 10.82 10.82 0 01-1.414-1.126 2.502 2.502 0 00-1.592-.713 6.59 6.59 0 00-1.351 0c-.425 0-.708.306-1.068.606a11.59 11.59 0 013.728.634 28.218 28.218 0 01-1.528-.214 5.482 5.482 0 00-1.705-.092c-.22.035-.453 0-.708.064a1.217 1.217 0 00-.997.57 6.958 6.958 0 013.254.079h-.856a3.46 3.46 0 00-.707-.057c-.658.1-1.302.235-1.953.37a2.178 2.178 0 00-1.337.927 7.801 7.801 0 012.978-.328c-.54.103-1.085.174-1.634.214a4.16 4.16 0 00-1.648.578l1.79.178v.078a.346.346 0 01-.092 0 4.215 4.215 0 00-2.186.278.19.19 0 01-.085 0 .434.434 0 00-.5.163.445.445 0 00-.073.172c.502-.078.997-.185 1.5-.235a13.466 13.466 0 013.897.05c.28.041.556.101.828.178.375.114.75.264 1.125.4a1.1 1.1 0 01.156.085c-.064 0-.135.1-.191.085-.297-.07-.588-.163-.885-.235a11.276 11.276 0 00-3.24-.356 21.068 21.068 0 00-3.933.627 2.73 2.73 0 00-.658.364v.07l2.455.6v.1l-.955-.186-1.287-.214a2.437 2.437 0 00-1.557.079l1.507 1.012-.064.093-.261-.15a5.798 5.798 0 00-2.08-.855c-.127 0-.262.042-.39 0-.127-.043-.36-.129-.544-.179l-.92-.25-.877-.241a.65.65 0 010 .092l2.037.784-.042.121c-.707-.192-1.351-.356-2.009-.584a8.5 8.5 0 00-2.044-.542.178.178 0 00.084.121 6.768 6.768 0 001.804.713c.864.186 1.72.42 2.575.635.083.033.162.076.234.128a.636.636 0 000 .107l-2.83-.535c.078.072.092.1.12.107.708.171 1.415.35 2.158.5.205.042.53.085.623 0 .091-.086.219-.065.325 0a.535.535 0 00.149.056 9.016 9.016 0 001.96.107 52.672 52.672 0 011.831-.078c.899 0 1.804-.036 2.703-.043.127.018.251.057.367.114a3.787 3.787 0 01-.707.121c-.495 0-.983.043-1.478.086-.821.064-1.635.192-2.455.2-1.012 0-2.023-.043-3.035-.122a7.73 7.73 0 01-2.738-.648c-.353-.157-.643-.343-.948-.507zm79.301.991l-.127.072a12.506 12.506 0 00-2.554-3.672 16.879 16.879 0 00-3.573-2.666 18.991 18.991 0 00-4.159-1.462l-.064.122.785.613c-.025.03-.048.06-.07.092l-.892-.563-.65.713c-.128.15 0 .207.113.257l.926.392-.035.085-1.245-.456c-.064.107-.149.228-.219.357-.191.313-.149.406.205.534.354.129.608.236.912.357v.064l-1.344-.385c-.035.328-.063.606-.099.884-.035.278.064.4.354.428.29.028.707.114 1.005.17a.408.408 0 010 .086c-.361 0-.708-.057-1.097-.071-.049 0-.156.093-.148.135.034.296.086.588.155.877a.522.522 0 00.573.435c.318 0 .63.064.941.1v.028h-1.096l-.036.1c.201.254.44.475.708.656.309.096.631.142.955.136a.137.137 0 010 .057l-.581.1c.132.176.279.34.439.491.41.321.778.713 1.415.535.106-.043.247 0 .368 0v.079l-.46.106v.136c.792.256 1.577.542 2.384.756.806.213 1.627.349 2.44.52v.1l-.884-.157a1.89 1.89 0 00-.29-.043 4.742 4.742 0 01-.898-.092 2.544 2.544 0 00-1.493-.079c-.089.044-.172.1-.247.164.155.076.323.122.495.136.721.18 1.468.233 2.207.156.141 0 .375-.092.396.207 0 0 .099.05.156.057.466.043.94.093 1.414.114.474.022.849-.17 1.231.207h-.424a3.908 3.908 0 00-.814.093c-.375.116-.743.254-1.103.413-.184.078-.517 0-.389.414h-.121l.078.1c.297-.079.594-.165.892-.222 1.025-.22 2.051-.427 3.077-.641.126-.01.252-.031.375-.064a1.131 1.131 0 00.707-.92 5.678 5.678 0 00-.17-2.61 18.322 18.322 0 00-.665-1.803 1.252 1.252 0 010-.356c-.268.057-.247-.228-.339-.392a4.87 4.87 0 00-.425-.813c-.396-.492-.834-.956-1.266-1.426-.155-.164-.346-.3-.509-.456-.163-.157-.191-.257-.311-.35-.121-.092-.404-.214-.474-.477 0-.093-.149-.179-.248-.228-.297-.136-.594-.271-.898-.385-.58-.236-1.161-.45-1.776-.713a1.026 1.026 0 000 .156c.149.464.637.507.948.592.555.201 1.096.44 1.62.713 0 0 .035.057.078.15a7.253 7.253 0 00-2.158-.713c.226.356.432.663.63.97l-.071.05a6.91 6.91 0 01-.608-.778c-.389-.656-1.04-.577-1.712-.713.148.321.254.556.368.792l-.1.043a8.716 8.716 0 00-.516-.713.65.65 0 00-.361-.2 4.858 4.858 0 00-.643 0h-.248c.036.074.082.144.134.207.177.17.361.328.545.499a.257.257 0 00-.049.071h-.156c-.219-.171-.425-.356-.644-.513-.219-.157-.361-.114-.46-.243a1.217 1.217 0 00-1.351-.485c-.339.08-.672.179-1.011.264v.107c.332.164.615.47 1.061.171.223-.094.467-.126.707-.092.141.022.277.068.403.135l-.827.143c.145.115.311.203.488.256.622.164 1.259.3 1.874.5.658.204 1.301.454 1.925.748a12.2 12.2 0 011.634.955c.438.293.827.65 1.238.977.65.478 1.246 1.028 1.775 1.64.283.35.573.713.821 1.07.247.356.417.712.615 1.083.198.37.361.691.538 1.026zm-35.491-.335l.043-.064c-.071-.085-.142-.178-.22-.257-1.004-.934-2.016-1.86-3.013-2.794-.665-.613-1.316-1.24-1.98-1.86-.447-.422-.913-.828-1.345-1.27a5.632 5.632 0 01-.707-.884 17.448 17.448 0 01-.835-1.426c-.149-.278-.262-.577-.39-.87-.127-.292-.19-.491-.29-.712-.183-.457-.395-.906-.551-1.37a5.25 5.25 0 01-.156-.819 11.176 11.176 0 01-.17-3.144c.1-1.262.27-2.517.446-3.771.106-.713.269-1.426.446-2.139.177-.713.46-1.547.707-2.324.085-.292.106-.606.184-.905.18-.78.232-1.585.156-2.382-.538.335-4.315 7.6-4.245 8.1.199-.222.397-.436.602-.65.205-.213.389-.42.58-.627l.064.064-.708.799a6.37 6.37 0 00-1.132 1.646c-.36.813-.707 1.64-1.004 2.467-.092.242-.163.506-.24.763h.07l2.54-2.802.099.086-.361.428-.75.912c-.113.143-.198.306-.311.442-.114.136-.29.242-.397.392a11.512 11.512 0 00-1.33 2.595c-.024.093-.039.189-.042.285h.064a7.07 7.07 0 013.806-2.56.368.368 0 01-.213.18 2.723 2.723 0 00-.346.078 7.96 7.96 0 00-2.271 1.653c-.468.43-.812.98-.998 1.59a.539.539 0 00.043.335h.276c.233-.107.446-.242.672-.363a4.133 4.133 0 011.775-.385l.114.078c-.425.121-.828.2-1.203.35-.468.193-.924.414-1.365.663a.408.408 0 00-.1.328c0 .056.163.15.241.135a4.62 4.62 0 011.797 0c.467.1.92.228 1.415.35v.156c-.495-.085-.99-.178-1.486-.242a2.676 2.676 0 00-1.563.2c.538.178 1.047.356 1.57.513.52.143 1.015.37 1.465.67 0 0 0 .064-.036.093l-2.758-.82-.071.12c.41.33.837.637 1.28.92.962.535 1.953 1.02 2.929 1.526.12.064.233.15.346.221l-.049.086a29.52 29.52 0 01-3.509-1.512c1.415 1.654 3.46 2.381 5.355 3.308a11.267 11.267 0 01-3.537-1.383c.153.223.328.428.524.613.439.357.9.686 1.38.984.876.563 1.768 1.105 2.666 1.647.46.27.941.513 1.415.777a8.57 8.57 0 001.86.884c.786.228 1.55.499 2.328.748l.424.15zm-37.881 2.93v.136a26.3 26.3 0 01-6.197-1.262c.024.05.053.097.084.142.342.382.783.658 1.274.799.792.292 1.613.499 2.426.713.814.214 1.712.442 2.582.606.87.164 1.592.22 2.391.306.609.065 1.217.093 1.832.136.616.043 1.316.043 1.967.121.65.078 1.415.228 2.122.378.708.15 1.288.335 1.932.506.035 0 .05.078.106.2a1.029 1.029 0 00-.27-.129c-.749-.12-1.506-.178-2.242-.363-1.308-.321-2.652-.186-3.968-.364-.425-.057-.863 0-1.295 0-1.216-.121-2.44-.278-3.6-.406-.1.071-.184.185-.262.178a4.214 4.214 0 01-.708-.093c-.955-.22-1.917-.434-2.83-.713a7.89 7.89 0 01-1.52-.484 7.534 7.534 0 01-1.11-.82l-.32.306c.468.357.935.663 1.338 1.034.648.446 1.33.842 2.037 1.183.432.293.955.036 1.365.307h.708a9.562 9.562 0 012.122.185c.34.072.708 0 1.054.072.51.064 1.019.15 1.528.228.105.02.21.046.311.078.283.095.572.174.864.236.374.057.756.064 1.131.085.426.045.853.062 1.28.05a7.967 7.967 0 012.123.1c.226.036.424.185.672.1.248-.086.615-.193.927-.278.311-.086.488-.122.707-.207.375-.129.707-.285 1.104-.442.8-.335 1.613-.649 2.39-1.027.312-.19.601-.415.864-.67a17.508 17.508 0 00-5.865-.948c-1.16 0-2.327.142-3.487.107-1.472-.05-2.95-.178-4.414-.328-1.005-.107-1.995-.292-2.993-.47a19.106 19.106 0 01-1.79-.4 9.69 9.69 0 01-1.549-.527 8.994 8.994 0 01-1.124-.713c-.048.06-.09.125-.128.192-.177.321-.162.392.156.55.227.12.463.223.707.306.793.228 1.585.463 2.384.648.948.221 1.903.378 2.83.57.12.022.237.05.354.086zm107.526 1.711c-.425-.178-.793-.342-1.168-.477a.602.602 0 00-.474 0c-.294.253-.569.53-.82.827a.257.257 0 00-.05.228c.3.943.781 1.817 1.415 2.573.17.186.269.52.644.414.375-.107.75-.185 1.188-.292-.106.278-.389.163-.537.27-.149.107-.396.207-.623.328.177.223.366.435.566.635.12.104.273.16.432.157.367-.05.707-.164 1.096-.25h.326a.637.637 0 010 .107l-1.316.52c.233.2.438.386.658.55.085.07.233.17.311.142.453-.164.983-.142 1.351-.542h.134c.071 0 0 .15-.056.178a1.594 1.594 0 01-.757.421.634.634 0 00-.318.235s.084.171.155.236c.162.133.335.252.517.356a.327.327 0 00.268.043 6.742 6.742 0 002.045-1.176c.056-.052.115-.1.177-.143l.049.071c-.474.756-1.316 1.027-2.122 1.526.453.164.849.442 1.188.392a2.553 2.553 0 001.5-.834c0 .071.064.135.05.171-.191.456-.708.506-1.061.841l.622.228a1.982 1.982 0 01-.58-.05 1.4 1.4 0 00-.509 0c-.446.122-.87.286-1.302.421a7.16 7.16 0 01-.707.128c.567.3 1.209.424 1.846.357a7.934 7.934 0 002.363-.585c.523-.235.516-.27.29-.777-.227-.506-.354-.82-.531-1.233h-.078l-.085.306h-.077v-.427a1.321 1.321 0 00-.099-.485 36.492 36.492 0 00-1.139-1.668c-.121.285-.213.513-.312.713h-.092a2.892 2.892 0 010-.228c.078-.378.276-.763-.12-1.098-.269-.228-.516-.478-.778-.713-.262-.236-.424-.364-.637-.542-.155.406.036.841-.233 1.205-.05-.392 0-.777-.057-1.162a.667.667 0 00-.212-.414c-.311-.278-.665-.513-1.033-.791l-.375 1.048a.602.602 0 01-.035-.328c.035-.278.184-.613.078-.813-.106-.2-.474-.285-.708-.42h-.035l-.474.983-.099-.042c.156-.457.262-.813.34-1.12zM20.202 57.128l-.707-.378a.295.295 0 00-.205 0c-.29.086-.58.164-.863.278-.708.293-1.415.592-2.122.906-.354.157-.672.378-1.012.542-.523.256-1.061.477-1.578.712a224.125 224.125 0 00-3.162 1.704c-.523.278-1.054.542-1.563.849-.51.306-.82.563-1.245.813-.778.449-1.578.862-2.363 1.304-.785.442-1.599.913-2.39 1.383-.659.392-1.288.827-1.946 1.198-.304.17-.347.335-.184.613a38.434 38.434 0 01.743 1.362c.707-.535 1.358-1.055 2.044-1.547.877-.635 1.754-1.27 2.66-1.868.495-.321 1.047-.563 1.563-.849.517-.285 1.21-.713 1.825-1.055a7.16 7.16 0 001.31-.713 18.82 18.82 0 013.536-2.138c.906-.492 1.846-.92 2.752-1.426.905-.506 1.931-1.105 2.907-1.69zm24.724-6.673l-.085-.057c-.07.086-.162.164-.226.257-.36.492-.707.977-1.068 1.476-.17.242-.34.477-.488.713a16.552 16.552 0 01-1.5 2.559c-.332.385-.608.841-1.167.891-.708.057-1.373.114-2.052.114a2.747 2.747 0 01-1.075-.17 3.276 3.276 0 01-.835-.614c-.085-.071-.092-.235-.176-.328a95.7 95.7 0 00-1.564-1.818 8.245 8.245 0 00-2.462-1.96 1.025 1.025 0 00-.212-.05l-.042.071.403.613c.411.494.73 1.06.94 1.668.069.354.227.683.46.956a29.274 29.274 0 001.967 1.782c.23.205.511.343.814.4a29.28 29.28 0 003.162.177c.635-.012 1.27.012 1.903.072.707.064 1.372.206 2.058.285a7.872 7.872 0 002.243 0c.778-.136 1.563-.243 2.341-.37.135-.037.265-.087.39-.15v-.108c-.807-.22-1.62-.456-2.434-.655a1.173 1.173 0 00-.53.078 3.381 3.381 0 01-.885.207 1.301 1.301 0 01-1.21-.777.712.712 0 00-.127-.164 1.785 1.785 0 010-1.975 6.653 6.653 0 001.323-2.538c-.007-.221.078-.4.134-.585zm-8.779-17.502c.154.085.296.188.425.307.291.345.53.732.707 1.148.326 1.005.545 2.046.82 3.065.166.797.403 1.578.708 2.331.213.537.531 1.025.936 1.434.405.41.888.732 1.42.948.463.138.936.243 1.415.313 0 0 0-.071.05-.114-.248-.206-.489-.435-.75-.627a3.969 3.969 0 01-1.613-2.766 15.79 15.79 0 00-.397-1.91 15.93 15.93 0 00-1.23-3.166 3.77 3.77 0 00-1.6-1.561.303.303 0 00-.29 0 7.534 7.534 0 00-.6.598zm60.78 18.871h-.077a4.151 4.151 0 01-.24-.62 57.315 57.315 0 01-.439-2.139 1.216 1.216 0 00-.863-.962c.233.862.446 1.66.65 2.46a.225.225 0 01-.19-.143c-.213-.713-.41-1.355-.616-2.032-.056-.2-.07-.45-.205-.578a5.074 5.074 0 00-.828-.549c.1.3.184.507.241.713.092.484.218.96.375 1.426.368.856.764 1.704 1.21 2.524a7.834 7.834 0 001.846 2.403.466.466 0 00.615.078c.481-.364.941-.763 1.415-1.155a.387.387 0 00.085-.242c.05-.5.057-1.006.142-1.498.106-.605-.078-.883-.764-.948v2.81c-.114 0-.17-.058-.17-.093-.036-.77-.092-1.533-.078-2.303 0-.556 0-.713-.559-.891 0 .142-.064.278-.07.413 0 .834 0 1.675-.036 2.517a1.04 1.04 0 01-.05.25.45.45 0 01-.141-.307V50.44c0-.192.042-.456-.057-.563a4.069 4.069 0 00-.707-.47.432.432 0 01-.099.05c.07 1.29.142 2.573.22 3.935-.079-.093-.128-.122-.135-.164-.064-.47-.149-.941-.184-1.426-.05-.677-.1-1.355-.085-2.032 0-.556-.255-.813-.792-.984l.587 3.037zM58.02 35.35h-.085c0 .192.057.392.093.584.092.457.226.913.282 1.376.074.736.04 1.478-.099 2.203a7.428 7.428 0 01-.594 2.189c-.375.713-.75 1.426-1.181 2.139-.31.472-.658.918-1.04 1.333a10.887 10.887 0 01-1.967 1.497 1.508 1.508 0 00-.77.955 5.07 5.07 0 01.551-.214 12.227 12.227 0 003.452-1.725 6.419 6.419 0 002.49-3.714 7.816 7.816 0 00.057-3.693c-.135-.642-.276-1.283-.418-1.925a.636.636 0 00-.141-.285c-.198-.243-.417-.47-.63-.706v-.014zm70.508 5.782v.085h.891c1.182.093 2.356.185 3.537.307 1.182.12 2.285.263 3.438.377.764.079 1.535.136 2.299.207.609.057 1.217.136 1.818.207l1.344.178c.05 0 .107-.043.206-.085-.623-.35-1.196-.656-1.755-.984a10.637 10.637 0 00-2.943-1.105 9.002 9.002 0 00-3.494-.164c-1.097.185-2.2.27-3.297.456-.672.1-1.358.328-2.044.52zm-14.226.712c.53.171.877 0 .905-.413.005-.325.12-.639.326-.889.206-.25.49-.422.806-.487.269-.078.545-.128.807-.214.097-.046.188-.106.268-.178-.1-.11-.207-.215-.318-.314a.322.322 0 00-.233 0c-.686.19-1.357.428-2.009.713a5.223 5.223 0 01-2.434.827 3.515 3.515 0 01-1.825-.442 7.91 7.91 0 00-1.719-1.026c-.707-.214-1.344-.507-2.03-.713a7.94 7.94 0 00-2.78-.264 1.656 1.656 0 00-1.033.463c.255.364.446.791.962.713.035-.22.064-.428.099-.634h.149c.042.223.084.46.127.712h.396l.205-.712c.382.235-.042.52.142.712l.431.1.262-.363h.106v.57l.523-.52c.156.2.149.228 0 .513.368.37.531 0 .814-.307v.57c.219.136.424.179.615-.092.064-.085.199-.121.305-.185l.077.085-.191.435.255.129c.057-.086.099-.164.149-.229a.69.69 0 01.191-.192c.098-.033.2-.055.304-.064 0 .114 0 .263-.106.335-.283.256-.29.278.07.42.098.039.197.072.298.1.095-.166.201-.326.318-.477.064-.072.191-.086.283-.122a1.38 1.38 0 01-.057.35 2.402 2.402 0 01-.247.342l.353.142c.107-.292.206-.598.708-.434-.092.12-.17.213-.241.313-.041.05-.079.102-.113.157a.587.587 0 00.142.086c.318.085.636.17.87-.179a.16.16 0 01.063-.057c.078-.007.156-.007.234 0a.833.833 0 010 .264c-.043.079-.149.121-.234.178.347.264.354.257.559-.064a.622.622 0 01.184-.2c.084-.034.172-.058.262-.07a1.09 1.09 0 01-.071.313c-.042.086-.141.143-.226.221.424.235.523.214.707-.121a.46.46 0 01.106-.143c.089-.045.181-.083.276-.114v.3c0 .1-.085.228-.056.25a.45.45 0 00.297.092c.056 0 .106-.143.141-.221.106-.2.198-.4.304-.606.234.114.248.2.099.363a1.446 1.446 0 00-.198.4l.128.1c.106-.073.207-.151.304-.236.127-.135.226-.306.361-.435.134-.128.155 0 .24-.035a.443.443 0 01.036.085c-.177.064-.298.207-.446.4zM43.448 48.26c-.177-.221-.29-.335-.375-.464a3.733 3.733 0 00-1.846-1.426c-.481-.178-.984-.292-1.465-.47a8.94 8.94 0 01-2.54-1.483 7.834 7.834 0 01-1.74-2.274 5.198 5.198 0 01-.431-1.134c-.156-.52-.262-1.062-.403-1.59a3.863 3.863 0 00-.347-.983 8.807 8.807 0 00-.842-1.013.717.717 0 00-.078.143 6.341 6.341 0 00-.268 2.246c.01.27.08.537.205.777a11.734 11.734 0 002.08 3.094c.38.348.798.654 1.244.912a21.52 21.52 0 001.868 1.112c1.061.55 2.165 1.02 3.226 1.583.325.171.8.342.707.905a.23.23 0 00.135.164c.24-.014.516-.05.87-.1zm8.779 0v.12c.11.008.222.008.332 0a8.732 8.732 0 002.42-.634 13.063 13.063 0 002.596-1.647 7.591 7.591 0 001.52-1.497c.423-.547.793-1.135 1.104-1.753.195-.401.353-.819.474-1.248.14-.288.227-.6.255-.92a3.222 3.222 0 00-.283-1.176c-.39-.877-.835-1.718-1.266-2.574a1.645 1.645 0 00-.227-.27c-.056.07-.056.114-.042.142.279.666.444 1.375.488 2.096a8.28 8.28 0 01-.446 4.228 6.473 6.473 0 01-2.306 2.944 9.408 9.408 0 01-2.462 1.347c-.559.179-1.09.45-1.634.663-.17.064-.332.1-.523.179zm-9.444-6.324l.092-.05a2.634 2.634 0 00-.149-.32 6.598 6.598 0 01-.438-.657 6.448 6.448 0 01-.34-.962 46.99 46.99 0 01-.594-2.246c-.127-.549.17-1.126-.057-1.682a5.948 5.948 0 00-.438-1.07 11.2 11.2 0 00-.955-1.069c-.46-.506-.92-1.012-1.352-1.547a8.176 8.176 0 01-.537-.862l-.835.606c.057.07.078.106.1.114a3.757 3.757 0 011.959 2.003 15.586 15.586 0 011.415 4.684c.07.568.264 1.113.569 1.596.305.484.712.893 1.192 1.198.142.079.255.171.368.264zm72.262.713c-.156-.292-.404-.257-.616-.228-.904.109-1.82.034-2.695-.221l-1.592-.428a.384.384 0 00-.233 0c-.467.207-.934.414-1.415.649-.297.157-.332.264-.106.52.305.326.631.631.976.913a.233.233 0 00.198 0l1.203-.4c.226-.064.453-.1.707-.15v.093l-1.464.714a1.672 1.672 0 001.535 0l2.759-1.248a2.67 2.67 0 00.743-.193v-.021zm-79.089-9.296c.05.101.106.2.17.292.258.322.413.714.446 1.126v1.91c-.068.885.083 1.771.438 2.582a9.68 9.68 0 001.635 2.452 3.528 3.528 0 002.122 1.127c.445.064.884.156 1.323.235l.912.164c-.078-.164-.106-.335-.177-.357a2.155 2.155 0 00-.757-.12 3.154 3.154 0 01-1.93-.664 4.572 4.572 0 01-1.868-2.438c-.34-.984-.56-2.01-.821-3.016-.149-.556-.269-1.119-.424-1.675a4.292 4.292 0 00-.383-.97 1.098 1.098 0 00-.686-.648zm-.417.349l-.566.713a.341.341 0 00-.085.397c.02.045.049.084.085.116.223.267.402.568.53.891.117.384.198.778.241 1.177.115 1.162.352 2.31.708 3.422.311.875.73 1.709 1.245 2.48.44.642.956 1.229 1.535 1.747a3.18 3.18 0 001.867.884c.545.05 1.083.143 1.62.242.19.05.378.115.559.193-.064-.328-.127-.634-.184-.941a.23.23 0 00-.088-.18.226.226 0 00-.195-.041c-.34 0-.707.043-1.019.057-.697.02-1.389-.14-2.009-.463a3.894 3.894 0 01-.99-.628 8.343 8.343 0 01-1.478-2.331c-.198-.37-.418-.713-.623-1.098v-.057h.226c-.127-.285-.24-.542-.36-.798a5.138 5.138 0 01-.51-2.382c0-.677.078-1.361.071-2.038a1.494 1.494 0 00-.58-1.362zm12.733 15.527c-.261-.064-.48-.085-.707-.157a.752.752 0 00-.856.228c-.48.363-.847.858-1.054 1.426 0 0 0 .05-.05.072-.219.399-.452.784-.65 1.19-.198.407-.27.713-.439 1.07-.099.22-.297.406-.39.627-.165.39-.297.792-.395 1.205 0 .15.063.449.17.484a1.292 1.292 0 001.245-.15c.283-.235.523-.52.707-.84a1.859 1.859 0 00.064-1.519 1.63 1.63 0 010-1.17 4.397 4.397 0 011.294-1.753c.319-.257.665-.456 1.061-.713zm3.184.663a1.355 1.355 0 00-.206.193 2.016 2.016 0 00-.438 1.475c.056.542.255 1.07.347 1.604a1.436 1.436 0 01-.319 1.234 6.003 6.003 0 01-1.556 1.212c-.233.135-.432.313-.65.47l.042.129c.127 0 .276.05.374 0a9.46 9.46 0 001.231-.713c.39-.278.708-.62 1.09-.934h.155l.057.064-.934.955c.04.004.08.004.12 0a4.56 4.56 0 001.415-.977 1.957 1.957 0 00.446-2.21 95.03 95.03 0 00-.608-1.197.946.946 0 010-.92l.304-.513c-.177 0-.326-.043-.418 0-.382.192-.148.62-.31.948-.234-.242.028-.542-.142-.82zm2.384-.142h-.092c-.064.363-.128.712-.191 1.105 0 0-.1 0-.1-.057v-.556c0-.186 0-.3-.049-.457a1.223 1.223 0 00-.474.1 1.13 1.13 0 00-.568.77 1.143 1.143 0 00.221.934c.201.343.367.707.496 1.084a1.709 1.709 0 01-.354 1.803c-.17.193-.325.4-.488.599l.042.057c.098-.038.192-.083.283-.135.262-.143.538-.285.785-.45a4.408 4.408 0 001.592-1.775 1.242 1.242 0 00-.233-1.425 2.5 2.5 0 01-.785-1.483s-.057-.079-.092-.114h.007zm2.872-15.642h-.092c.02.198.058.394.113.585.314.865.47 1.78.46 2.702a9.473 9.473 0 01-.41 2.851c-.191.606-.27 1.248-.44 1.868a4.154 4.154 0 01-.89 1.704c-.241.271-.574.456-.814.713-.375.42-.707.891-1.068 1.376.063.01.128.01.19 0 .425-.286.829-.6 1.21-.941a10.924 10.924 0 001.833-2.53 6.382 6.382 0 00.707-1.548c.21-.863.364-1.74.46-2.623a4.409 4.409 0 00-.05-1.426c-.134-.67-.382-1.312-.551-1.975a1.835 1.835 0 00-.658-.756zm-8.114 15.513a3.412 3.412 0 00-1.889 1.426 2.146 2.146 0 00-.347 2.139 1.645 1.645 0 01-.382 1.803l-.445.485c.297.1.566.207.834.278.27.072.531.221.764 0 .32-.28.52-.673.56-1.098v-2.138a3.42 3.42 0 01.615-2.14c.112-.244.209-.497.29-.755zm-9.663-4.527v-.12a.46.46 0 00-.071-.094c-.368-.377-.757-.748-1.097-1.155a10.337 10.337 0 01-2.2-4.776c-.162-.834-.269-1.682-.382-2.524a2.51 2.51 0 00-.644-1.361 5.347 5.347 0 00-.905 1.732.38.38 0 00.1.257c.155.2.339.378.494.584a6.63 6.63 0 011.118 2.617c.133.581.313 1.151.538 1.704.36.76.86 1.447 1.471 2.024.45.47.986.847 1.578 1.112zm11.226 4.762a2.823 2.823 0 00-.538.357 2.572 2.572 0 00-.6 2.424 2.557 2.557 0 01-.142 1.939c-.022.053-.041.108-.057.164a.83.83 0 01-.12.314c-.347.306-.708.591-1.068.898.198.192.346.164.551-.036.319-.306.708-.556 1.026-.841.198-.164.368-.364.552-.535a.702.702 0 01.22-.07v.063l-.248.143.05.078h.148a1.737 1.737 0 00.75-1.996 2.95 2.95 0 01-.22-1.875c.128-.4.297-.791.446-1.198-.163-.042-.36-.05-.417.164-.12.407-.206.827-.297 1.24-.011.112-.011.224 0 .336h-.107c-.205-.492.043-1.027.071-1.569zm5.355 4.92c.053-.015.106-.034.156-.057.276-.193.545-.407.828-.585a3.485 3.485 0 001.655-1.925 3.71 3.71 0 00.297-1.654.763.763 0 00-.262-.47 2.492 2.492 0 00-1.35-.563c-.227 0-.44-.172-.666-.193a.906.906 0 00-.48.128c-.05 0-.065.207 0 .285.134.276.29.54.466.792.212.223.409.461.587.713a1.902 1.902 0 01-.134 1.889c-.347.577-.729 1.09-1.097 1.64zm-20.996-2.14c.39.457.708.863 1.076 1.248a.282.282 0 00.24.043c.297-.085.594-.192.884-.278l1.415-.399a3.422 3.422 0 001.783-1.176.343.343 0 000-.278.604.604 0 00-.227-.236c-.077-.042-.226-.064-.275 0a14.119 14.119 0 01-2.653 1.497H36.5a2.13 2.13 0 01.368-.385c.516-.327 1.054-.627 1.577-.955.232-.15.448-.325.644-.52.057-.05.057-.157.078-.243a2.245 2.245 0 00-.58.321 5.698 5.698 0 01-2.243.92c-.573.107-1.174.27-1.825.428v.014zm20.727-4.376l.043.1c.066.003.132.003.198 0a14.573 14.573 0 001.584-.485 5.223 5.223 0 001.528-.842 7.968 7.968 0 002.512-4.74c.01-.126.01-.253 0-.378h-.085c-.057.17-.12.349-.17.52a8.172 8.172 0 01-1.125 2.039 8.653 8.653 0 01-1.995 2.01c-.572.416-1.167.8-1.782 1.148-.043 0-.113.079-.106.1.12.35-.212.292-.361.4a2.03 2.03 0 01-.24.128zm-2.412 7.428l-.05-.043c.126-.017.249-.046.369-.085a3.785 3.785 0 001.52-.849c.404-.442.793-.898 1.203-1.333a1.651 1.651 0 00.607-1.156 1.665 1.665 0 00-.416-1.24c-.311-.434-.594-.897-.891-1.354l-.56.065c-.183 0-.282.1-.268.313.044.39.222.754.502 1.027a1.715 1.715 0 01.587 1.19 2.868 2.868 0 01-1.21 2.14 4.912 4.912 0 00-.48.349c-.319.306-.623.677-.913.976zM49.08 35.883c.033.079.06.16.078.243 0 .228.12.22.304.142a.821.821 0 00.552-.84c0-.093.035-.186 0-.272-.043-.37 0-.812-.34-1.04-.573-.364-1.125-.835-1.896-.62a.836.836 0 01-.41-.05 1.343 1.343 0 00-1.365.712c.115-.099.24-.185.374-.256a.547.547 0 01.375-.043.93.93 0 01.489.784c.029.257-.041.515-.195.722-.154.207-.38.346-.633.39a.483.483 0 01-.637-.278c-.078-.157-.134-.328-.233-.57-.103.117-.191.246-.262.385a1.206 1.206 0 00.382 1.347.608.608 0 00.737.169.608.608 0 00.21-.169c.213-.22.397-.47.602-.713.205-.242.29-.235.446-.363.042-.378.078-.82.134-1.255.057-.435.248-.549.474-.5a1.347 1.347 0 011.167.905.89.89 0 01-.353 1.17zM96.808 42.1c.115-.091.24-.168.375-.228.707-.143 1.35-.285 2.03-.392.411-.045.824-.069 1.238-.072H103.351c-.092-.285-.17-.548-.24-.762a12.137 12.137 0 00-3.382.135c-1.11.164-2.193.42-3.332.713l.41.606zm5.878-4.598c.04.008.081.008.12 0l1.062-.25c.325-.071.65-.135.962-.235a19.887 19.887 0 001.832-.713c.092 0 .219-.192.198-.257a12.7 12.7 0 00-.389-1.133c0-.05-.099-.078-.156-.1l-.361-.107a.5.5 0 01-.629.136c-.085 0-.227 0-.326.092-.573.343-1.138.713-1.711 1.048l-1.132.678-.517.335a.457.457 0 00.297 0c.786-.271 1.571-.556 2.356-.82a.902.902 0 01.311 0c.078 0 .156-.072.248-.121l1.33-.628c.24-.121.346-.085.474.214l-3.969 1.86zm3.792-6.801c-1.762 1.29-5.157 4.448-5.299 4.876l.439-.307.962-.713a.276.276 0 01.17 0 .827.827 0 00.813-.299 3.68 3.68 0 01.637-.556c.212-.157.453-.271.665-.42.269-.233.558-.44.863-.62a.627.627 0 00.354-.429l.127-.463c.092-.364.177-.72.269-1.07zm-49.88 8.412c.078-.121.142-.171.15-.228.041-.292.091-.592.105-.884a9.104 9.104 0 00-.368-2.852c-.113-.442-.325-.855-.396-1.297-.092-.563-.58-.792-.778-1.262-.07.064-.092.071-.099.092a.544.544 0 000 .115c-.066.647-.006 1.3.177 1.924.233.835.51 1.654.764 2.481.085.278.177.564.248.849.07.285.113.663.197 1.062zM41.481 48.9l-.573-.135c-.085 0-.19-.136-.247-.107a1.75 1.75 0 00-.672.363 1.578 1.578 0 00-.398 1.164 1.586 1.586 0 00.553 1.096 2.216 2.216 0 01.828 1.968c0 .328-.113.649-.163.962.043-.07.106-.156.156-.25.05-.092.099-.22.17-.32a1.998 1.998 0 000-2.545.972.972 0 01-.149-1.012c.113-.4.318-.785.495-1.184zm58.651-11.335a.284.284 0 000-.071c.093-.076.193-.143.298-.2a15.163 15.163 0 002.398-1.319c.707-.449 1.415-.884 2.122-1.29a1.068 1.068 0 00.523-.642c.114-.363.269-.713.404-1.076-.389.2-.756.438-1.097.713-.53.406-1.026.848-1.556 1.247-.41.327-.84.627-1.288.898-.597.382-1.173.796-1.726 1.24l-.559.421.481.079zM43.023 48.759a1.264 1.264 0 00-1.273.599 3.076 3.076 0 00-.22.392c-.204.463-.395.948 0 1.425a1.716 1.716 0 01.277 1.861 6.315 6.315 0 01-1.069 1.982.424.424 0 00-.05.143c.412-.175.755-.48.977-.87.22-.406.375-.863.63-1.255a2.748 2.748 0 00.34-1.76c0-.421-.078-.842-.121-1.263-.133.21-.24.435-.318.67 0 .057-.078.093-.12.136-.043.043-.114-.107-.1-.157.019-.195.071-.386.156-.563.262-.414.566-.863.891-1.34zm-5.107-7.065l-.07.057a9.7 9.7 0 00.707 1.048c.316.419.698.783 1.131 1.076a5.13 5.13 0 003.05.592c.112 0 .31-.114.303-.164 0-.164-.049-.4-.162-.478a2.544 2.544 0 00-.778-.342c-.398-.085-.799-.15-1.203-.192a3.832 3.832 0 01-2.193-.884 9.597 9.597 0 01-.785-.713zm2.992-31.725h-.078a1.266 1.266 0 00-.233.328 6.603 6.603 0 00-.488 2.317.295.295 0 00.148.214c.303.162.615.307.934.435a6.765 6.765 0 011.953 1.034h.17c-.538-.65-1.033-1.262-1.543-1.868a2.95 2.95 0 01-.757-1.854 3.96 3.96 0 00-.106-.606zm-4.895 44.25l-.042.086c.275.285.544.585.834.849a.402.402 0 00.368.05 37.334 37.334 0 001.818-.977c.432-.25.856-.535 1.365-.863a.956.956 0 00-.07-.756c-.22.143-.41.278-.616.385-.495.264-.997.52-1.507.713-.205.093-.431.357-.707.072 0 0-.156.05-.226.085a1.798 1.798 0 01-.425.207 7.84 7.84 0 01-.792.15zm74.342-8.14c.205.078.339.149.488.199a.172.172 0 00.148 0 2.42 2.42 0 011.104-.777c1.033-.435 2.058-.892 3.091-1.348a8.348 8.348 0 001.372-.648 8.549 8.549 0 011.649-.949c.226-.092.467-.156.771-.256a.704.704 0 00-.75.114.703.703 0 01-.233.114 16.96 16.96 0 00-3.884 1.304l-.502.25.162.192a1.517 1.517 0 01-.24.122c-.241.067-.478.15-.708.25-.601.327-1.195.712-1.789 1.033-.184.15-.404.256-.679.4zm-2.25 2.737v-.057h.134l.885.463.643.328c.488.257.97.52 1.465.763.318.15.707.235.976.413a2.532 2.532 0 001.981.343l.375-.1c-2.179-1.262-4.606-1.576-6.834-2.503a.521.521 0 00.176.445.522.522 0 00.461.118l-.262-.213zm68.109 6.01c0 .712.05 1.383.078 2.06a.387.387 0 00.12.214c.276.25.559.477.835.713l.898.791c.029-.213.046-.427.05-.642 0-.313.177-.713-.226-.905v-.079a16.937 16.937 0 00-.545-.834c-.113-.156-.361-.22-.304-.499 0 0-.092-.085-.142-.135-.049-.05-.155-.107-.162-.171-.071-.37-.397-.385-.602-.514zm4.514 7.841c0-.2 0-.399-.036-.598a4.868 4.868 0 00-.255-1.99c-.219-.413-.403-.84-.601-1.261l-.078.035c0 .314-.07.635-.085.949a2.39 2.39 0 00.22 1.56c.187.269.337.561.445.87.248.714.453 1.362.708 2.04a.26.26 0 01-.038.303.27.27 0 01-.089.06c-.22.143-.432.314-.644.47a.578.578 0 00.813-.327c.21-.606.285-1.251.22-1.89a6.535 6.535 0 00-.262-1.012h-.099c.014.15.014.3 0 .45-.071.192.106.427-.241.37l.022-.029zM150.21 52.473a4.06 4.06 0 01-1.479-.578c.075.113.169.212.276.293.241.223.505.422.786.591a8.47 8.47 0 001.047.328.705.705 0 01.176.122l-.042.057-.934-.229c.135.585.743.62 1.033.999l1.811.114v-.093a3.93 3.93 0 00-1.733-.713l.035-.1.481.107a.343.343 0 010-.078 2.115 2.115 0 00-.898-.514c-.057 0-.106-.078-.142-.128-.035-.05-.056-.185-.12-.242-.34-.321-.707-.628-1.033-.941a.417.417 0 00-.141-.107l-1.182-.42s-.049 0-.092.056c.489.827 1.444.963 2.151 1.476zm-52.256-8.64c.184-.136.297-.286.438-.314a17.33 17.33 0 011.712-.228h3.558c0-.4-.162-.52-.445-.542-.566 0-1.132-.1-1.691-.086-.842 0-1.684.107-2.525.193-.496.05-.984.164-1.479.242v.107l.432.627zm5.447 3.564v.036s.056.085.092.1c.36.163.551.584.976.641.042 0 .071.064.106.1.077.086.16.167.248.242.205.129.431.236.643.364.87.57 1.741 1.148 2.618 1.71a4.117 4.117 0 001.896.436.594.594 0 00-.22-.186c-.219-.114-.438-.22-.651-.342-.374-.207-.707-.435-1.103-.642-.481-.278-.962-.556-1.415-.812-.453-.257-1.004-.713-1.563-.984-.559-.27-1.104-.42-1.627-.642v-.021zm1.415-2.296v-.1a2.796 2.796 0 00-.708-.456 3.57 3.57 0 00-.997-.078h-2.83a2.36 2.36 0 00-1.38.214c-.042 0-.091.128-.077.157a.745.745 0 00.778.413c.382-.064.764-.178 1.146-.235a7.172 7.172 0 012.617 0c.477.064.956.1 1.436.107l.015-.022zM43.759 50.32c-.042-.635.502-.934.708-1.426a1.55 1.55 0 00-.925.328 1.569 1.569 0 00-.547.82c-.22.584.05 1.112.085 1.704a.86.86 0 00.127-.107l1.217-1.668a.568.568 0 01.495-.286.275.275 0 00.17-.107c.078-.078.12-.178.198-.249.078-.071.347-.335.538-.513a.962.962 0 00-1.245.399c-.283.335-.53.713-.82 1.105zm100.622-2.06v-.143a5.875 5.875 0 01-.644-2.787.336.336 0 00-.092-.236 35.507 35.507 0 00-1.04-.77c-.056.293-.092.57-.155.842a1.172 1.172 0 00.07 1.005c.114.164.241.32.404.535V45.65h.113a2.846 2.846 0 001.344 2.61zM45.612 32.369a3.024 3.024 0 00-.148-1.084c-.163-.278-.545-.428-.828-.634.203.041.4.106.587.192a.289.289 0 00.24 0c.043 0 .057-.135.05-.214 0-.228 0-.456-.07-.677-.071-.221 0-.257-.092-.307-.34-.263-.708-.499-1.125-.79a3.653 3.653 0 000 .505c.104.709.217 1.421.34 2.14.042.284.07.59.396.712.184.057.382.085.65.157zm61.149 17.901c-.226-.193-.432-.378-.644-.542l-2.228-1.697a2.287 2.287 0 00-.453-.278l-1.556-.67a.99.99 0 00-.248 0l-.042.1a19.36 19.36 0 003.735 2.595c.453.2.905.392 1.365.578a.27.27 0 01.071-.086zm-57.13-.713c-.326-.164-.375-.15-.651.221-.659.799-1.001 1.814-.962 2.852.042.606.042 1.219.056 1.832v.463h.092a.24.24 0 00.064-.057 2.144 2.144 0 00.495-2.138 2.716 2.716 0 01.198-2.14c.177-.341.453-.662.708-1.012v-.02zm50.537-13.688l.071.05c.052-.031.102-.067.148-.107.46-.47.913-.962 1.415-1.426.707-.67 1.457-1.311 2.193-1.967.368-.335.743-.67 1.118-.991.495-.428.997-.841 1.485-1.27.078-.063.106-.185.163-.277l-.085-.064c-.17.114-.347.22-.516.342-.305.22-.609.442-.899.67-.559.449-1.139.877-1.655 1.369-.785.713-1.535 1.54-2.292 2.317-.262.27-.524.541-.764.834-.156.164-.262.35-.382.52zm77.709 19.962l-.092.078c.169.187.323.387.46.599a2.81 2.81 0 01.113 2.075.638.638 0 00.141.627c.234.27.432.57.637.862.067.1.126.205.177.314.082-.47.129-.947.141-1.426a1.822 1.822 0 00-.063-.762c-.231-.494-.496-.97-.793-1.426a11.167 11.167 0 00-.721-.92v-.021zm-71.173-7.023h-.049c.039.04.081.076.127.108.191.092.389.156.573.256.524.285 1.04.599 1.571.877.53.278 1.223.563 1.803.898.233.152.502.236.779.243l.707-.043c-.191-.136-.297-.25-.432-.32-.82-.429-1.648-.85-2.475-1.27a2.038 2.038 0 00-.397-.192l-2.207-.556zm38.483 2.054l-.078.064.772.898c.106.121.219.221.332.335.113.114.127.178.212.221.467.257.934.492 1.415.713.256.169.526.314.807.435.466.143.955.228 1.414.342l.347.064a.515.515 0 00-.276-.185 6.498 6.498 0 01-2.08-1.04 10.362 10.362 0 00-1.705-1.177c-.396-.171-.771-.42-1.16-.67zm-17.961-2.139c-.071-.285-.177-.592-.233-.913-.092-.491-.078-.491-.58-.549l-.708-.092c-.177 0-.276.043-.254.228 0 .335.077.663.12.998.042.335.226.314.417.32.425-.006.821-.013 1.238-.013v.021zm4.62 4.99a.794.794 0 001.004 0c.099.122.17.293.248.293.364.005.729-.02 1.089-.079.364-.074.723-.17 1.075-.285.262-.078.524-.185.779-.27a.84.84 0 00-.404-.093c-.416-.001-.832-.028-1.245-.079a2.107 2.107 0 00-.962 0l-1.584.513zm35.462-2.987c-.538.121-.99.236-1.457.321-.198 0-.453-.043-.616.05-.424.235-.813.542-1.273.855.119.026.24.045.361.058.255.034.513.05.771.05.516 0 1.082.1 1.45-.492.229-.304.485-.585.764-.842zm-20.932.45l.063-.058c-.113-.15-.233-.292-.339-.442a10.209 10.209 0 00-.799-1.09 14.88 14.88 0 00-1.238-1.063l-.581-.484c.16.757.554 1.443 1.125 1.96.411.271.814.563 1.224.834.177.121.361.228.545.342zm-16.617.092c-.375-.32-.708-.563-.962-.841a.895.895 0 00-.969-.221 9.502 9.502 0 01-1.005.15c0 .042 0 .085-.035.128.438.285.863.599 1.322.841.46.242 1.033-.15 1.649-.057zm-23.062-10.694a8.348 8.348 0 00-1.103-.363c-.51-.1-1.033-.136-1.557-.193-.155 0-.261 0-.184.214.066.19.146.373.241.55a.364.364 0 00.255.163c.353 0 .707.036 1.061.043h1.287v-.414zm.17-3.835l-4.747 1.34c.22.3.531.42.665.236.269-.364.665-.328 1.026-.393.361-.064.665-.057.99-.12a56.005 56.005 0 001.896-.443.318.318 0 00.163-.214c.026-.14.035-.284.028-.427l-.021.02zm-64.091-.25v.849a.967.967 0 00.332.798c.097.102.184.211.262.328.113.121.255.236.375.364s.07.15.12.214c.199.3.437.57.708.805.141.1.445 0 .707 0a1.54 1.54 0 00-1.351-.855l.042-.107h.446l-1.641-2.396zm134.733 28.168c.069.045.143.083.219.114l1.281.192a2.6 2.6 0 001.351-.242c.544-.243.544-.243.304-.806a2.105 2.105 0 01-.078-.313 7.43 7.43 0 01-3.077 1.055zM99.305 42.378a.678.678 0 010 .114c.324-.068.653-.115.983-.142 1-.084 2.005-.06 3 .07a.216.216 0 00.176-.063c.099-.164-.099-.563-.297-.563h-2.928c-.18.021-.357.057-.531.106a.49.49 0 000 .1l1.153-.128v.15l-1.556.356zm75.693 11.884c-.05.514-.107 1.034-.142 1.554a.402.402 0 00.099.286c.311.235.644.449.983.713a.76.76 0 00.05-.236 6.567 6.567 0 00-.057-.99c-.078-.62-.177-1.248-.912-1.327h-.021zm.707 8.227c-.573-.156-1.019-.713-1.705-.484a.866.866 0 01-.233 0l-1.337.085c.721.813 1.91.884 3.296.428l-.021-.029zM57.681 31.221l.318 1.248c.162.5.282 1.012.361 1.532.042.55.431.713.792 1.084-.042-.285-.056-.478-.099-.67-.212-.82-.438-1.633-.65-2.453a.894.894 0 00-.722-.741zm37.528 5.867l.085.093c.382-.335.707-.713 1.139-.991.8-.62 1.598-1.226 2.42-1.818.402-.292.855-.528 1.272-.806.191-.128.234-.349.227-.655a33.994 33.994 0 00-5.143 4.177zm-39.962 3.907c0-.107-.042-.171 0-.207.191-.442.39-.884.602-1.311.113-.236.092-.385-.113-.528-.44.713-.948 1.319-1.359 2.025l.092.078.538-.406.078.05c-.036.08-.076.159-.12.235l-.708 1.02v.206c0 .071.142 0 .17-.043a68.57 68.57 0 001.464-1.625.717.717 0 00.092-.257l-.099-.043-.637.806zm44.228 3.08v.078h4.456c-.056-.292-.148-.456-.467-.456-.502 0-1.004-.079-1.506-.079a2.021 2.021 0 00-1.047.129 1.682 1.682 0 01-.786.178c-.198.057-.417.1-.636.15h-.014zm14.487 5.482c.127.057.257.107.389.15.177.05.361.064.531.128.405.15.802.32 1.188.513.29.15.389 0 .481-.22a.427.427 0 00-.247-.514c-.219-.1-.425-.235-.651-.328a1.238 1.238 0 00-.644-.192 5.38 5.38 0 00-1.047.463zm52.801 2.267l.326-.107c.401-.216.823-.39 1.259-.52a3.19 3.19 0 001.676-1.255 4.7 4.7 0 00-3.261 1.882zm-38.61-1.896a2.888 2.888 0 01-.481-.563c-.156-.364-.495-.357-.757-.407a3.72 3.72 0 00-1.012 0s-.113.157-.092.193c.022.035.227.22.269.35a.654.654 0 00.314.43.642.642 0 00.528.047c.382-.05.771-.043 1.231-.072v.022zM95.796 40.26l.064.057a16.756 16.756 0 015.984-1.084 1.01 1.01 0 00-.481-.264c-.176 0-.367.107-.53.079a5.92 5.92 0 00-2.547.242c-.255.064-.48.207-.707.293-.538.178-1.083.334-1.627.513-.078.021-.114.107-.156.164zm-47.029-2.046c-.275.549-.537 1.04-.785 1.547-.247.506 0 .89-.056 1.333l.056.057c.421-.344.724-.813.865-1.34a2.614 2.614 0 00-.08-1.597zm76.712 8.555l1.238.2c.042 0 .127-.058.127-.093.043-.393.071-.785.099-1.127l-.778-.25c-.156-.05-.276-.056-.332.157-.092.357-.213.7-.354 1.127v-.014zm-26.492-8.627c-1.21.186-2.229.927-3.375 1.334a31.285 31.285 0 003.905-.877c-.134-.179-.523-.05-.53-.457zm31.797 15.3v.135c.191.021.383.021.573 0 .489-.1.97-.235 1.415-.364.043 0 .071-.057.106-.085.036-.029-.084-.1-.134-.114a3.97 3.97 0 00-.856-.136c-.63 0-1.245-.392-1.889-.071h-.261a1.112 1.112 0 00-.234.078 1.305 1.305 0 001.089.321c.158-.021.317-.021.474 0 .05 0 .085.072.199.157l-.482.079zm1.33-1.234c-.65-.242-1.301-.52-1.98-.713a2.107 2.107 0 00-1.203.186 3.44 3.44 0 003.183.527zm-24.999-10.451l.07-.143c-.077-.1-.155-.292-.247-.3-.877-.113-1.762-.398-2.646 0 0 .364.198.479.545.457h1.471l.807-.014zM44.771 48.26a14.19 14.19 0 01-.892-1.134 2.736 2.736 0 00-2.122-1.098c.085.107.12.171.17.2a4.508 4.508 0 011.903 1.832.41.41 0 00.22.157c.194.026.39.04.586.043.045.005.09.005.135 0zm102.192-6.317c.304-.085.566-.164.828-.228.261-.064.53-.093.799-.135-.311-.514-1.96-.713-2.83-.321l1.203.684zm-103.876-9.06l1.55.405c-.079-.335-.142-.634-.213-.933 0-.036-.057-.072-.099-.086l-1.316-.456c.021.392.05.763.078 1.07zm4.655 6.337c.067-.085.126-.175.177-.271.212-.556.424-1.112.608-1.675.184-.564.149-.492-.347-.763-.063.11-.12.224-.17.342a6.85 6.85 0 01-.325 1.02 1.58 1.58 0 00.057 1.347zm95.38 10.06l.495.712-.078.071-.29-.178c.184.756 1.726 2.139 2.398 2.053-.969-.827-1.471-1.989-2.525-2.659zm-35.491-2.403c.145.177.353.29.58.313.707 0 1.372.1 2.059.157v.385l-1.415-.178a.36.36 0 000 .093c.209.12.423.23.644.327a.911.911 0 00.367.065l.899-.065.757-.078c-.665-.3-1.238-.585-1.84-.813a5.464 5.464 0 00-2.051-.206zm8.185-.293c-.404-.192-.856-.192-1.04.057-.184.25-.403-.042-.587.072-.121-.343-.361-.107-.503-.057-.286.135-.56.295-.82.477l.523.25-.24.214a7.75 7.75 0 002.667-1.013zM95.301 39.15c.389-.143.707-.257 1.026-.385l1.704-.713c.24-.06.476-.13.708-.214.099-.05.127-.235.17-.357.042-.12-.149-.114-.191-.1-.446.207-1.005.15-1.33.614a.325.325 0 01-.177.107l-1.11.356a1.164 1.164 0 00-.772.692h-.028zM99.94 34a14.27 14.27 0 00-3.26 2.453c.438-.25.82-.478 1.209-.713.587-.342 1.181-.713 1.776-1.013.174-.201.272-.459.276-.727zm2.894 6.11v-.1a1.626 1.626 0 00-.524-.3 9.61 9.61 0 00-3.162.115.338.338 0 00-.134.064.35.35 0 000 .086 4.66 4.66 0 01.537-.079c.142 0 .34 0 .41.079.17.2.333.15.531.092a.577.577 0 01.29 0c.137.058.279.104.425.136h1.337a.774.774 0 00.29-.072v-.021zm70.875 13.774c.062.289.107.582.134.876a5.882 5.882 0 01-.077.713l.834.328c.046-.297.072-.597.078-.898a6.63 6.63 0 00-.17-.906l-.799-.113zm-2.724 6.715c.361 1.005 1.974 1.262 2.83 1.07a6.703 6.703 0 00-2.83-1.07zm2.491-5.211a1.243 1.243 0 000-1.02c-.107-.157-.333-.392-.453-.363a2.353 2.353 0 00-1.111.848l1.564.535zM104.716 42.47l-.077.085c.099.15.177.414.304.435.433.066.87.1 1.309.1h1.146c.084 0 .162-.071.247-.107-.064-.093-.113-.242-.205-.27a2.66 2.66 0 00-.587-.093c-.262 0-.531-.058-.792-.072l-1.345-.078zm12.493-2.26l-1.167.392c-.191.064-.488.435-.41.563a.352.352 0 01-.128.52c.581.207 1.769-.798 1.705-1.49v.015zm-1.457 10.473c-.573-.65-2.334-1.148-3.006-.849.084.043.148.086.219.114.665.278 1.33.556 2.002.82a.8.8 0 00.785-.1v.015zm58.34 12.476c.495.513 2.434.363 3.212-.043-.34-.15-.665-.3-.998-.435a.316.316 0 00-.184.05 4.735 4.735 0 01-2.03.428zm-1.889-3.836a9.714 9.714 0 01-1.648-2.616 1.025 1.025 0 00-.12.712c.254.557.594 1.07.884 1.612.191.342.538.292.884.292zm-46.632-8.883c.127.157.219.257.297.364.17.235.318.477.495.713a.446.446 0 00.29.17c.273-.01.545-.04.814-.085.106 0 .205-.057.325-.085a8.225 8.225 0 01-1.096-.856c-.347-.378-.708-.185-1.125-.22zm-9.628-2.766l-.057-.085-.424.1a4.484 4.484 0 00-1.21.349c-.458.239-.957.389-1.471.442-.425.078-.842.2-1.266.306v.093c.43.178.913.178 1.344 0 .827-.3 1.662-.585 2.483-.898.208-.087.409-.19.601-.307zm-68.42-2.082c.19-.071.36-.15.544-.2a1.05 1.05 0 00.735-.513 1.069 1.069 0 00.079-.898 2.574 2.574 0 00-.644.25 1.754 1.754 0 00-.566.599 2.521 2.521 0 00-.148.762zm.82-11.442a2.04 2.04 0 00-.12.328c-.07.285-.115.577-.135.87a.473.473 0 00.234.37c.233.115.813-.313.842-.591.056-.514-.212-.834-.82-.977zm59.776 9.98a1.02 1.02 0 000-.135c-.156-.078-.318-.22-.481-.22-.446 0-.891.05-1.33.085-.226 0-.453.064-.743.107.141.149.295.285.46.406a.795.795 0 00.757.178c.317-.113.641-.206.969-.278l.368-.142zm16.546 1.042c-.161.44-.188.92-.077 1.376 0 .078.261.15.41.178.148.028.24-.043.255-.107.134-.385.233-.784.353-1.226l-.941-.221zm37.054 6.18c.708.628 2.25.521 2.568-.106-.423.01-.845-.03-1.259-.121-.502-.207-.849.07-1.309.192v.036zM40.045 54.206l-.085-.078-2.278 1.426v.114h1.14a.28.28 0 00.204-.1c.234-.285.46-.57.708-.863.07-.192.17-.349.276-.499h.035zm7.782-10.337a1.36 1.36 0 001.167-.934 2.76 2.76 0 000-.634l-.488.22a.705.705 0 00-.177.108c-.127.12-.318.22-.36.37a4.694 4.694 0 00-.15.87h.008zm10.165-9.98c-.283-.935-.566-1.861-.87-2.788 0-.086-.17-.143-.255-.207a.274.274 0 00-.07.057c-.01.123-.01.248 0 .37.155.614.31 1.22.474 1.826a.88.88 0 00.714.734l.007.007zm.835 19.29c.263.432.654.769 1.118.963 1.224.492 2.494.858 3.791 1.09l.538.122v-.078c-.113 0-.22-.079-.333-.107-1.089-.314-2.186-.606-3.268-.956a4.112 4.112 0 01-1.648-1.219l-.198.186zM86.564 40.04a.153.153 0 000-.043 3.98 3.98 0 01.149-.406c.212-.428.439-.849.637-1.276 0-.043-.071-.2-.092-.193-.234.05-.467.071-.58.364-.114.292-.347.606-.489.92a3.47 3.47 0 00-.183.67h.565l-.007-.036zm73.613 3.742c.182.08.369.146.559.2.161.047.33.06.495.036.331-.087.657-.192.977-.314.07-.021.138-.047.205-.078a.89.89 0 00-.135-.093 5.255 5.255 0 01-.559-.193c-.629-.306-1.068-.114-1.549.435l.007.008zM48.775 45.566c-1.238.335-1.415.649-1.04 1.533 1.146-.977 1.146-.977 1.04-1.533zm79.626-1.768c-.262-.093-.538-.3-.757-.257-.409.11-.764.363-1.005.713.248.128.46.264.707.364a.34.34 0 00.291 0c.233-.236.473-.506.764-.82zM56.839 33.053c-.092-.406-.148-.713-.247-1.076a16.48 16.48 0 00-.425-1.305c0-.057-.127-.085-.191-.128 0 .071-.106.15-.106.22 0 .229 0 .457.05.714a1.973 1.973 0 00.92 1.575zm-3.417 4.192h.085c.043-.05.106-.093.12-.15.185-.818.475-1.61.863-2.352.135-.236 0-.464-.099-.713-.14.275-.266.559-.374.848-.163.392-.34.777-.496 1.177a2.383 2.383 0 00-.099 1.19zm-8.616 3.486a2.72 2.72 0 00-.502-.549 2.412 2.412 0 00-.708-.142l.481-.164-1.103-1.426c-.092 1.076 1.033 2.46 1.832 2.281zm55.517 10.38c-.063.663-.127 1.29-.205 2.004l.828-.977a.518.518 0 00.031-.746.514.514 0 00-.236-.138l-.418-.143zm9.197-9.496l-1.578-.713a.504.504 0 00-.155 0 .524.524 0 000 .186c.099.285.198.577.325.862 0 .072.156.164.205.15.389-.121.764-.27 1.139-.413.043 0 .057-.05.071-.079l-.007.007zm-85.823 4.142l2.674-.463a4.951 4.951 0 00-.594-.406c-.149-.072-.375-.15-.495-.086-.531.278-1.026.606-1.585.955zM44.785 33.71l-1.564-.67c-.162.4-.063.827.177.877.375.078.75.142 1.146.214l.24-.42zm-2.646.043c.223.838.559 1.641.998 2.388.155-.3-.064-.57-.043-.841.021-.271-.184-.52-.396-.713l.269.05c.07-.45-.12-.635-.828-.884zm65.351 8.69c0-.292 0-.442-.312-.442h-2.256c-.106 0-.206.107-.305.171v.079l2.873.192zm17.862 6.124a98.35 98.35 0 01-.184-1.518l-.595-.086c.037.22.037.444 0 .663-.099.278.099.42.17.62.099.321.234.392.609.321zm-18.464-.748a.14.14 0 000-.05l-.198-.114c-.824-.548-1.707-1-2.631-1.348a.48.48 0 00-.573.136l3.402 1.376zm36.856-3.073c.106-.42.198-.77.304-1.176-.367 0-.707-.079-1.011-.093-.078 0-.184.114-.22.2a.285.285 0 00.043.25c.269.27.559.52.884.819zm16.412 5.51c.036.047.077.09.12.13.22.156.432.32.651.47a.76.76 0 001.005-.1l-.411-.3c-.134-.1-.276-.192-.403-.3a.703.703 0 00-.962.1zm-55.178-7.128l-.063.156c.176.15.353.428.516.421.658 0 1.309-.121 1.959-.207.043 0 .071-.085.135-.164l-2.547-.206zm10.3 5.774l1.415.642a2.22 2.22 0 00-.276-1.34l-1.139.698zm9.394-4.128l1.005.328.417-.712a3.022 3.022 0 01-.608-.257c-.283-.214-.439-.071-.573.15a4.72 4.72 0 00-.212.499l-.029-.008zm23.953 7.465a6.215 6.215 0 00-2.242-1.783 3.859 3.859 0 002.242 1.783zm10.038-5.704c.09.008.18.008.269 0 .212-.064.375-.142.425-.427.095-.38.218-.752.368-1.112-.227.056-.446.106-.658.17a.256.256 0 00-.163.15c-.12.378-.191.806-.276 1.19l.035.03zm-70.167-8.697c-.078.043-.12.05-.128.071-.261.613-.523 1.233-.77 1.847a.165.165 0 00.07.156.374.374 0 00.495-.263c.12-.507.24-1.02.347-1.533a.972.972 0 00-.014-.278zM48.562 48.409c.149-.477.41-.912.206-1.425-.418.156-.708.363-.807.812-.035.178.304.528.601.613zm77.483-3.308c.226.4.629.25.919.407 0 0 .121-.043.135-.086.092-.2.163-.406.24-.613-.253-.1-.513-.18-.778-.242-.396-.057-.332.37-.516.534zM46.681 34.108l-.234.178a.998.998 0 00-.396.884c0 .207.163.3.304.214.237-.112.44-.287.587-.506a.625.625 0 00-.261-.77zm1.308 8.199c.708-.271 1.182-.663.906-1.519a2.438 2.438 0 01-.481.492.86.86 0 00-.425 1.027zm79.782 9.603v.071c.325.185.658.364.976.556a1.041 1.041 0 001.047-.1c-.375-.15-.741-.32-1.096-.513a1.118 1.118 0 00-.927-.014zm43.972 7.713c.375.628.779 1.141 1.635.827a5.374 5.374 0 00-.864-.77c-.19-.114-.495-.014-.771-.057zM107.051 48.31l.035-.122-3.537-1.383v.064c.814.407 1.613.842 2.441 1.212.345.114.7.19 1.061.228zm53.254 1.076c-.128-.164-.276-.335-.404-.52-.283-.407-.573-.464-1.004-.157.177.228.347.463.523.713a.246.246 0 00.177.092c.227-.05.46-.092.708-.128zm-31.763 3.294a1.69 1.69 0 00-1.641-.599c.254.641.707.805 1.641.599zM44.099 37.709c.488.798.92 1.425 1.556 1.219a5.158 5.158 0 00-.708-.863 3.221 3.221 0 00-.848-.342v-.014zm99.292 11.263a.415.415 0 00.049-.064c-.354-.713-.276-1.582-1.047-2.053.058.807.414 1.563.998 2.117zm-37.111-2.851c.129.1.267.191.41.27a.988.988 0 00.418.13h1.796a5.722 5.722 0 00-2.624-.364v-.036zm19.708 3.85l-.41-.785c-.149-.292-.269-.335-.637-.214.085.236.184.457.255.713.163.464.17.564.792.286zM43.285 34.2c0 .27-.092.527.22.663.17.078.346.128.516.207.17.078.22.178.318 0 .1-.178 0-.563-.099-.6-.311-.099-.622-.177-.955-.27zm32.654 8.448v.057a1.85 1.85 0 01.283-.086 15.686 15.686 0 002.264-.627c.24-.085.24-.214.113-.4l-2.66 1.056zm32.364 2.524c.608.335 1.677.22 1.938-.186a2.627 2.627 0 00-1.938.186zm38.37-3.194v-.086a5.592 5.592 0 01-.906-.363 1.403 1.403 0 00-1.322.085s-.043.072-.064.114c-.021.043.078.05.099.043a3.452 3.452 0 011.797.271c.106.043.261-.036.396-.064zm-19.609 1.533a.284.284 0 000-.072h-.977a1.046 1.046 0 00-.389.1c-.17.078-.191.2 0 .307.191.107.382.22.566.328l.8-.663zm-75.877-9.41a2.2 2.2 0 00.283-1.919 1.925 1.925 0 00-.283 1.918zm120.648 26.277a.982.982 0 00-.134-.242 4.728 4.728 0 00-.615-.585 1.7 1.7 0 00-.552-.192.52.52 0 00-.177 0 .412.412 0 000 .164 1.901 1.901 0 001.478.855zM51.647 40.84c.785-.336 1.238-1.027.891-1.477-.141.107-.332.193-.403.335-.185.37-.348.752-.488 1.141zm106.818 7.128c.141.116.302.203.474.257a.704.704 0 00.439-.135 4.675 4.675 0 00-.156-.778h-.07l-.114.043c-.403.136-.41.136-.509.578l-.064.035zM99.34 35.947h-.12c-.481.222-.962.435-1.415.67-.092.044-.127.186-.184.286a.568.568 0 00.347 0c.368-.164.707-.356 1.103-.506a.44.44 0 00.27-.45zM46.355 40.54a1.519 1.519 0 00-1.577-.414c.297.492.63.67.898.507v-.343c.234.35.375.4.68.25zm5.836 4.919a.953.953 0 00-.65.606c-.078.15 0 .378 0 .62.558-.478 1.075-1.426.948-1.818l-.298.592zm54.881-.763c.616.556 1.174.214 1.832-.128-.233-.086-.403-.221-.551-.193-.432.085-.86.192-1.281.321zm-62.386-8.191c-.048-.3-.181-.581-.383-.807a1.569 1.569 0 00-.756-.47c.048.301.18.581.383.808.202.226.464.389.756.469zm100.402 5.667c-.955-.12-1.634.05-1.768.428.322-.021.646-.021.969 0 .382.064.545-.178.799-.428zM51.47 43.982c.272-.128.5-.334.658-.592a1.22 1.22 0 00.078-.884 3.36 3.36 0 00-.616.614c-.082.28-.122.57-.12.862zm2.872-.713c.198.193.346.079.48-.043a3.8 3.8 0 00.56-.563c.16-.263.301-.537.424-.82l-.085-.035-1.38 1.461zm-6.975-5.525c.17-.606.318-1.126.467-1.647a1.942 1.942 0 00-.396.407c-.12.142-.262.27-.375.42-.114.15-.1.214-.064.278.103.203.226.394.368.57v-.028zm4.718 6.345c-.622.335-.82.784-.587 1.333.222-.216.42-.455.594-.713.078-.135 0-.363-.007-.591v-.029zm122.63 17.416c-.623-.712-1.139-.876-1.677-.605.587.192.983.748 1.677.634v-.029zm-45.098-8.19a1.276 1.276 0 00-1.556-.136c.495.477 1.019.313 1.556.135zM55.955 40.652l-1.648 2.01c.099.05.176.064.205 0 .176-.192.346-.392.516-.591.17-.2.51-.606.792-.877a.492.492 0 00.135-.542zm-4.719 5.774c-.523.57-.587.991-.19 1.29l.247-.434c.22-.45.22-.45-.085-.856h.028zm34.494-7.842c-.1.043-.262.065-.312.143-.276.499-.53 1.012-.792 1.518a.568.568 0 01.092.093c.12-.064.297-.093.347-.192.205-.492.396-.998.636-1.569l.029.007zM52.68 41.01c-.503.136-1.054.984-.899 1.34a1.667 1.667 0 00.898-1.34zm45.401-6.815l-.05-.064a7.857 7.857 0 00-2.2 1.79l.064.07 2.186-1.796zm32.23 20.011c.445.435 1.039.25 1.591 0a1.644 1.644 0 00-1.591 0zm-84.14-16.161l.071-.086c-.247-.185-.495-.385-.757-.549-.262-.164-.594-.342-.934-.535.29.856 1.033.884 1.62 1.17zm113.115 6.587c.198.02.397.02.594 0 .216-.033.424-.103.616-.207.141-.078.12-.2-.043-.257-.509-.185-.82-.07-1.167.464zm-42.133 2.26c-.404-.221-2.038.285-2.667.813l2.667-.813zm-66.709-6.324a1.317 1.317 0 00.545-1.354c-.623.25-.51.813-.545 1.354zm-5.935 2.346c.19-.407.099-.606-.439-.87v.221H44l-.156-.428c-.184.47.085.877.665 1.077zm7.647-6.238l-.078-.043c-.127.114-.346.235-.346.35.025.394.074.787.148 1.176h.106c.131-.483.189-.983.17-1.483zm78.607 6.003a1.303 1.303 0 00-1.507-.25c.149.093.269.228.404.242.346.029.7.008 1.103.008zm-31.388-9.475c.401-.127.756-.37 1.019-.7.263-.33.423-.732.46-1.154a4.828 4.828 0 01-1.478 1.854zM52.963 43.348c-.466.135-.792.713-.523 1.069a2.95 2.95 0 01.403-.435.417.417 0 00.208-.289.424.424 0 00-.087-.345zm30.921-2.93l.106.1c.114-.115.276-.2.347-.336.17-.349.304-.713.453-1.083 0-.064.042-.129.07-.193l-.084-.043c-.374.47-.675.994-.892 1.555zm78.084 6.209v-.128a7.426 7.426 0 00-1.054-.086c-.401.03-.801.085-1.196.164-.049 0-.084.1-.127.15-.042.05.12.064.17.043a7.222 7.222 0 011.832-.207c.128.02.253.05.375.093v-.029zM44.877 32.461l-.092.05c.049.22.112.438.19.65a.24.24 0 00.227.078c.19-.111.375-.232.552-.364l-.877-.413zm6.21-.541a1.041 1.041 0 00.347-1.355c-.396.364-.261.856-.346 1.355zm60.258 14.3v.1c.474-.15 1.011-.07 1.365-.441l-.276-.286-1.089.628zm38.504 7.294a3.319 3.319 0 00-1.655-1.12 4.552 4.552 0 001.655 1.12zm-39.565-5.19a1.007 1.007 0 00.793.34.999.999 0 00.763-.404l-1.556.064zM51.059 37.566l-.367 1.24c.559-.035.643-.827.367-1.24zm55.44 8.17v-.057l-1.415-.271s-.092 0-.092.057 0 .1.057.114c.444.24.964.3 1.45.164v-.007zM83.282 39.54a2.659 2.659 0 00-.82 1.162.372.372 0 00.537-.271c.092-.264.177-.535.283-.884v-.007zm13.363-1.832a.437.437 0 010 .085l2.462-.884c0-.05-.036-.1-.057-.157l-2.405.956zm35.583 5.154a1.095 1.095 0 00-1.033-.492c-.043 0-.092.064-.092.1 0 .035 0 .142.056.15.354.1.715.17 1.069.249v-.007zm-81.154 2.295c-.255.086-.474.941-.326 1.177a1.048 1.048 0 00.326-1.177zm-6.19-2.395c-.092.478 0 .656.424.855.248-.313.1-.613-.424-.855zm38.405-2.224c.368-.057.347-.407.488-.635.139-.257.264-.52.375-.791-.608.32-.608.927-.863 1.426zm-37.867 9.104c.587 0 .933-.143 1.089-.55a1.342 1.342 0 00-1.09.55zm41.411-9.696c.184.057.297.036.354-.2.099-.37.24-.712.368-1.097l-.1-.043c-.183.463-.374.905-.622 1.34zm-34.868-4.199c-.134.121-.248.178-.269.257-.046.192-.08.387-.099.584l.375-.085h.127c-.042-.25-.084-.47-.134-.756zm47.545-.513l-1.72.905a2.822 2.822 0 001.72-.905zm31.069 18.493c-.445-.236-.813 0-1.252 0a1.056 1.056 0 001.252 0zm-86.898-17.31c-.092.585.474.592.708.948a1.183 1.183 0 00-.708-.948zm57.944 10.08a1.72 1.72 0 00-1.309-.356c.397.478.913.221 1.309.357zM50.041 43.27h-.113a4.283 4.283 0 00-.198.55v.491c0 .164-.057.45-.092.713h.106l.297-1.754zm94.389-.406l-1.216.128c.264.087.533.159.806.214.283.064.361-.121.41-.363v.02zM36.982 45.957a1.762 1.762 0 00-1.52.442l1.52-.442zm8.206-1.81l-.446-.564c-.261.364-.24.463.078.713.212.178.262-.036.368-.15zm-.976-.443c.162-.22.141-.356 0-.47a3.04 3.04 0 00-.361-.257.358.358 0 00-.156 0c0 .064-.042.164 0 .192.135.164.319.336.517.535zm.757-1.825c0 .463.276.642.566.863a.825.825 0 00-.566-.863zm8.156-7.165c-.304.193-.311.949-.092 1.476v-.713c0-.228.092-.435.092-.763zm32.873 4.278l-.106-.064c-.184.363-.367.713-.544 1.083 0 0 .05.121.063.114.014-.007.149 0 .17-.071.17-.307.297-.663.439-1.02l-.022-.042zm-6.281 2.139c-.297.17-.623.235-.708.613.418.05.594-.093.708-.614zm-33.249-1.954a.905.905 0 00-.827-.663c.269.207.311.67.8.627l.027.036zm123.875 19.035c-.113.613.078.884.587.877l-.587-.877zM45.952 31.214h.1c0-.307.049-.613.041-.913 0-.107-.099-.2-.155-.3l-.12.1c.056.372.092.742.134 1.113zm6.367 7.842c.424-.143.51-.535.283-.948-.106.3-.184.613-.29.927l.007.02zm28.232 1.768l-.085-.057c-.141.185-.29.37-.424.563v.128c.049.014.1.014.149 0 .36-.1.396-.328.353-.655l.007.02zm32.612 3.315a1 1 0 00-.057-.128l-1.28.606c.573.078.884-.371 1.33-.5l.007.022zm-31.7-3.108c.355-.1.482-.371.404-.877a1.48 1.48 0 00-.41.855l.007.022zm32.542 3.906a1.507 1.507 0 001.266-.577l-1.266.577zm-69.17 1.098c0 .457.318.613.558.899-.014-.357-.134-.556-.559-.899zm7.512-9.895c.212-.192.248-.428.142-.82-.276.107-.29.15-.142.82zm54.386 1.583l-.708.157a.408.408 0 000 .085l.439.093c.311.071.318.064.269-.335zM59.195 32.81h-.12c.084.406.176.813.268 1.219h.12c-.091-.4-.183-.813-.268-1.22zm22.1 7.692l-.114-.057-.39.656a.295.295 0 00.05.078c.085 0 .227 0 .255-.078.077-.196.143-.396.198-.599zm88.871 9.71l.064.078.806-.648c-.481-.029-.644.335-.87.57zm-125.671-8.37c.099-.32-.198-.591-.708-.57l.708.57zm1.698-.335l.07-.078c-.24-.478-.226-.627-.63-.478l.56.556zm7.364-4.042h-.142c0 .342-.078.713-.113 1.027h.113c.05-.343.1-.685.142-1.027zm-.934 5.525c.22-.114.354-.264.255-.535-.319.1-.397.236-.255.535zm-6.869 1.176c.255-.192.255-.392 0-.541-.149.178-.255.356 0 .541zm-.608.949c-.191.192-.184.349 0 .499.05.036.104.065.162.085 0-.064.1-.15.085-.192a3.172 3.172 0 00-.247-.392zM51.66 34.95a.452.452 0 000 .577c.325-.27.318-.385 0-.578zm86.035 4.042v-.093l-1.266-.27a.258.258 0 010 .078l1.266.285zm-91.815 6.573h.142a.395.395 0 00-.113-.556h-.1l.071.556zm.368-.784c.248-.378.248-.385 0-.578-.092.185-.269.37 0 .578zm-.828-.442c-.162.228-.198.413.043.591.064-.12.113-.228.17-.342a5.127 5.127 0 01-.212-.25zm.361 2.252c.22-.328.177-.506-.155-.712l.155.712zm101.004 3.871l.941.592c-.198-.456-.594-.492-.941-.592zM46.659 41.544c.234-.335.191-.406-.304-.492l.304.492zm-2.362 3.058c.141.143.254.257.382.371l.127-.135-.368-.3-.141.064zm.113 1.284h.113c.142-.229 0-.357-.156-.492h-.106l.149.492zm114.777.834l-.587.185c.552.036.552.036.587-.185zm-98.769 0a4.117 4.117 0 01-.389-.214c-.198-.136-.29 0-.353.114l.742.1zm-11.035-.064c.177-.186.184-.407 0-.806.007.27.007.542 0 .798v.008zm61.184-1.362l-.05-.086-.608.4v.057l.658-.371z" fill="#fff"/></svg>