<svg viewBox="0 0 26 14" fill="none" xmlns="http://www.w3.org/2000/svg">
<path d="M25.7021 6.28109C25.7018 6.28078 25.7016 6.28043 25.7012 6.28012L20.3944 0.998872C19.9968 0.603235 19.3538 0.604707 18.958 1.00232C18.5623 1.39989 18.5638 2.04293 18.9614 2.43862L22.5244 5.98437H1.01562C0.454695 5.98437 0 6.43907 0 7C0 7.56093 0.454695 8.01562 1.01562 8.01562H22.5244L18.9615 11.5614C18.5639 11.9571 18.5624 12.6001 18.9581 12.9977C19.3538 13.3953 19.9969 13.3967 20.3944 13.0011L25.7013 7.71987C25.7016 7.71957 25.7018 7.71921 25.7022 7.71891C26.0999 7.3219 26.0987 6.67677 25.7021 6.28109Z" fill="white"/>
</svg>
