<svg width="0" height="0" class="hidden">
  <symbol viewBox="0 0 43 14" fill="none" xmlns="http://www.w3.org/2000/svg" id="arrow">
    <path opacity=".5" d="M33.444 5.833H0v2.334h33.444V14L43 7l-9.556-7v5.833z" fill="#fff"></path>
  </symbol>
  <symbol viewBox="0 0 30 19" fill="none" xmlns="http://www.w3.org/2000/svg" id="English">
    <path d="M29.99.045V18.98l-.008.01H.027V.044H29.99z" fill="#2E4593"></path>
    <path d="M29.99 17.01v1.971l-.009.01h-3.116l-9.195-5.822-.919-.581-1.09-.681-.36-.237-1.108-.699-.414-.263-.342-.21-.694-.444-.225-.137-.342-.217-3.26-2.071-1.468-.927L.026 2.016V.046L.053.008l.054.036h3.036l9.375 5.922.919.581.243.154 1.468.927.153.1.559.354.891.563.153.1.766.481.747.473 2.018 1.271 1.477.935 8.078 5.105z" fill="#FCF5FF"></path>
    <path d="M29.99 18.927L30 19l-2.01-.01-10.32-6.53-.883-.553-.036-.027-.892-.564-.53-.345-.983-.617-.91-.572-.125-.082-.568-.354-.225-.146-2.477-1.57-1.468-.927L.026 1.299V0l.027.01.054.035 10.547 6.658 1.459.926.405.254.919.59.342.219.567.354 1.036.654 1.37.863.152.1.495.308.27.173 1.199.763 11.122 7.02z" fill="#F42525"></path>
    <path d="M29.99.417v1.971l-6.835 4.314-1.468.927-3.27 2.07-.747.473-.765.49-.153.09-.352.219-.54.345-.558.354-.37.236-1.495.945-.918.581-8.79 5.558H.026v-1.607l8.664-5.477 1.468-.935 2.017-1.272.343-.209.225-.145.693-.445.343-.209 1.522-.963.144-.1 1.306-.817.162-.109.756-.472L27.46.045h2.297l.234.372z" fill="#FCF5FF"></path>
    <path d="M29.91.517l-9.79 6.185-1.468.927-.982.626-.765.49-.153.092-1.37.862-1.035.654-.567.354-.343.227-.072.037-.846.545-.622.39L.702 18.99H.027v-.89l9.799-6.194 1.468-.935 1.225-.772.225-.146.567-.354.126-.081.91-.573 1.513-.962.711-.454.18-.11.92-.58.369-.237L28.577.045h1.414v.409l-.081.063z" fill="#F42525"></path>
    <path d="M30 6.703H0v5.195h30V6.703z" fill="#fff"></path>
    <path d="M30 7.63H0v3.341h30V7.63z" fill="#F42525"></path>
    <path d="M16.752.045h-3.314V18.99h3.314V.045z" fill="#CD002A"></path>
    <path d="M16.743 11.906h.918v7.084H12.51v-7.084h.918V6.702h-.918V.045h5.151v6.657h-.918v5.204z" fill="#fff"></path>
    <path d="M16.76.045h-3.35V18.99h3.35V.045z" fill="#F42525"></path>
  </symbol>
  <symbol viewBox="0 0 25 20" fill="none" xmlns="http://www.w3.org/2000/svg" id="German">
    <path d="M29.982 0H0V19H29.982V0Z" fill="#28292B"/>
<path d="M29.982 9.18115H0V18.9999H29.982V9.18115Z" fill="#FFF915"/>
<path d="M30 6.24829H0V12.6423H30V6.24829Z" fill="#DD3131"/>

  </symbol>
  <symbol viewBox="0 0 18 18" fill="none" xmlns="http://www.w3.org/2000/svg" id="Info">
    <path fill-rule="evenodd" clip-rule="evenodd" d="M10 16H11.003C11.5536 16 12 16.4439 12 17C12 17.5523 11.547 18 11.003 18H6.99703C6.44639 18 6 17.5561 6 17C6 16.4477 6.45304 16 6.99703 16H8V7H7.00937C6.45191 7 6 6.55614 6 6C6 5.44772 6.44335 5 7.00937 5H8.99063C9.54809 5 10 5.44386 10 6V16ZM10 1.5C10 0.671573 9.32843 0 8.5 0C7.67157 0 7 0.671573 7 1.5C7 2.32843 7.67157 3 8.5 3C9.32843 3 10 2.32843 10 1.5Z" fill="white"/>

  </symbol>
  <symbol viewBox="0 0 9 6"  xmlns="http://www.w3.org/2000/svg" id="Dubai">
<rect width="12" height="6" fill="#00732f" id="green"/>
<rect width="12" height="4" y="2" fill="#fff"/>
<rect width="12" height="2" y="4"/>
<rect width="3" height="6" fill="#f00" id="red"/>
  </symbol>
  <symbol viewBox="0 0 640 480"  xmlns="http://www.w3.org/2000/svg" id="Israel">
  <defs>
    <clipPath id="il-a">
      <path fill-opacity=".7" d="M-87.6 0H595v512H-87.6z"/>
    </clipPath>
  </defs>
  <g fill-rule="evenodd" clip-path="url(#il-a)" transform="translate(82.1) scale(.94)">
    <path fill="#fff" d="M619.4 512H-112V0h731.4z"/>
    <path fill="#00c" d="M619.4 115.2H-112V48h731.4zm0 350.5H-112v-67.2h731.4zm-483-275l110.1 191.6L359 191.6l-222.6-.8z"/>
    <path fill="#fff" d="M225.8 317.8l20.9 35.5 21.4-35.3-42.4-.2z"/>
    <path fill="#00c" d="M136 320.6L246.2 129l112.4 190.8-222.6.8z"/>
    <path fill="#fff" d="M225.8 191.6l20.9-35.5 21.4 35.4-42.4.1zM182 271.1l-21.7 36 41-.1-19.3-36zm-21.3-66.5l41.2.3-19.8 36.3-21.4-36.6zm151.2 67l20.9 35.5-41.7-.5 20.8-35zm20.5-67l-41.2.3 19.8 36.3 21.4-36.6zm-114.3 0L189.7 256l28.8 50.3 52.8 1.2 32-51.5-29.6-52-55.6.5z"/>
  </g>

  </symbol>
</svg>