<svg width="104" height="104" viewBox="0 0 104 104" fill="none" xmlns="http://www.w3.org/2000/svg">
<path d="M52 104C23.2812 104 0 80.7188 0 52C0 23.2812 23.2812 0 52 0C80.7188 0 104 23.2812 104 52C103.968 80.7054 80.7054 103.968 52 104ZM52 3.99994C25.4904 3.99994 3.99994 25.4904 3.99994 52C3.99994 78.5096 25.4904 100 52 100C78.5096 100 100 78.5096 100 52C99.9696 25.503 78.497 4.03041 52 3.99994Z" fill="#2B662E"/>
<path d="M45.9989 70C45.5453 70.0002 45.1052 69.8458 44.7509 69.5625L24.7508 53.5625C23.8916 52.8717 23.7535 51.6157 24.4419 50.7545C25.1302 49.8932 26.3858 49.7515 27.2488 50.4374L45.7663 65.2519L76.5046 30.6719C77.2381 29.8462 78.5022 29.7715 79.3279 30.505C80.1536 31.2384 80.2283 32.5025 79.4948 33.3282L47.4949 69.3283C47.1153 69.756 46.5707 70.0006 45.9989 70Z" fill="#2B662E"/>
</svg>
