<svg width="16" height="16" viewBox="0 0 16 16" fill="none" xmlns="http://www.w3.org/2000/svg">
<g clip-path="url(#clip0)">
<path d="M8.88368 8.00075L15.8167 1.06771C16.0608 0.823614 16.0608 0.427864 15.8167 0.183802C15.5726 -0.0602596 15.1769 -0.0602909 14.9328 0.183802L7.99975 7.11685L1.06673 0.183802C0.822637 -0.0602909 0.426888 -0.0602909 0.182826 0.183802C-0.0612362 0.427896 -0.0612675 0.823645 0.182826 1.06771L7.11584 8.00072L0.182826 14.9338C-0.0612675 15.1779 -0.0612675 15.5736 0.182826 15.8177C0.304857 15.9397 0.464825 16.0007 0.624794 16.0007C0.784762 16.0007 0.944699 15.9397 1.06676 15.8177L7.99975 8.88466L14.9328 15.8177C15.0548 15.9397 15.2148 16.0007 15.3747 16.0007C15.5347 16.0007 15.6946 15.9397 15.8167 15.8177C16.0608 15.5736 16.0608 15.1778 15.8167 14.9338L8.88368 8.00075Z" fill="white"/>
</g>
<defs>
<clipPath id="clip0">
<rect width="16" height="16" fill="white"/>
</clipPath>
</defs>
</svg>
